<?xml version="1.0" encoding="UTF-8" standalone="no"?><!DOCTYPE svg PUBLIC "-//W3C//DTD SVG 1.1//EN" "http://www.w3.org/Graphics/SVG/1.1/DTD/svg11.dtd"><svg width="100%" height="100%" viewBox="0 0 2481 3508" version="1.1" xmlns="http://www.w3.org/2000/svg" xmlns:xlink="http://www.w3.org/1999/xlink" xml:space="preserve" xmlns:serif="http://www.serif.com/" style="fill-rule:evenodd;clip-rule:evenodd;stroke-linecap:round;stroke-linejoin:round;stroke-miterlimit:1.5;"><g id="Galaxy-S10" serif:id="Galaxy S10"><path id="Frame" d="M577.603,47.846l1317.39,0c0,0 145.213,-18.608 145.213,172.998l0,430.875l8.878,0l0,229.088l-10.952,0l0,2429.96c0,0 -1.045,149.176 -148.216,149.576c-147.171,0.4 -1298.32,0 -1298.32,0c0,0 -150.258,2.967 -150.085,-168.381c0.172,-171.348 0,-1904.94 0,-1904.94l-10.295,0l0,-228.811l9.573,0l0,-198.132l-9.295,0l0,-446.178l9.614,0l0.012,-299.244c0,0 -5.875,-166.812 136.473,-166.812Z" style="stroke:#000;stroke-width:1px;"/><path id="Screen" d="M580.003,127.199l1327.92,0c0,0 90.903,-2.235 90.903,99.17l0,3005.03c0,0 2.896,119.188 -111.963,119.188l-1286.39,0c0,0 -118.98,3.32 -118.98,-118.635l0,-3017.42c0,0 13.81,-87.336 98.518,-87.336Z" style="fill:#fff;stroke:#000;stroke-width:1px;"/><circle id="Camera" cx="1844.83" cy="239.361" r="51.532"/><g id="States"><path id="Display" d="M2006.97,185.151l-463.601,478.084l-113.285,430.722l-348.366,394.982l-303.815,-115.682l-77.145,169.374m842.611,-879.396l-461.651,77.975l-111.773,313.215m460.139,39.532l36.576,242.297l-138.745,371.212l65.055,379.413l-247.572,102.254l-175.453,-77.81l-228.936,229.966m586.906,-633.823l389.204,150.078l79.571,168.582m-403.72,60.753l150.399,74.32l-113.285,232.06" style="fill:none;stroke:#000;stroke-width:27.08px;"/></g></g></svg>