<?xml version="1.0" encoding="UTF-8" standalone="no"?><!DOCTYPE svg PUBLIC "-//W3C//DTD SVG 1.1//EN" "http://www.w3.org/Graphics/SVG/1.1/DTD/svg11.dtd"><svg width="100%" height="100%" viewBox="0 0 17363 20613" version="1.1" xmlns="http://www.w3.org/2000/svg" xmlns:xlink="http://www.w3.org/1999/xlink" xml:space="preserve" xmlns:serif="http://www.serif.com/" style="fill-rule:evenodd;clip-rule:evenodd;stroke-linejoin:round;stroke-miterlimit:2;"><path id="path4" d="M16997.2,16062.3c-311.7,720.096 -680.654,1382.94 -1108.13,1992.35c-582.692,830.776 -1059.78,1405.83 -1427.46,1725.17c-569.97,524.167 -1180.65,792.609 -1834.59,807.875c-469.458,0 -1035.61,-133.587 -1694.63,-404.575c-661.188,-269.716 -1268.82,-403.304 -1824.41,-403.304c-582.687,0 -1207.62,133.588 -1876.06,403.304c-669.458,270.988 -1208.76,412.209 -1621.1,426.205c-627.092,26.716 -1252.15,-249.363 -1876.06,-829.509c-398.217,-347.321 -896.3,-942.737 -1492.99,-1786.24c-640.196,-900.75 -1166.53,-1945.27 -1578.86,-3136.09c-441.6,-1286.25 -662.971,-2531.78 -662.971,-3737.62c0,-1381.28 298.471,-2572.62 896.3,-3570.95c469.842,-801.9 1094.9,-1434.46 1877.2,-1898.83c782.304,-464.371 1627.59,-701.008 2537.88,-716.15c498.088,0 1151.26,154.071 1962.95,456.867c809.405,303.812 1329.12,457.883 1556.98,457.883c170.354,0 747.7,-180.15 1726.44,-539.308c925.563,-333.075 1706.73,-470.988 2346.67,-416.663c1734.08,139.95 3036.86,823.529 3903.26,2055.07c-1550.87,939.683 -2318.04,2255.83 -2302.77,3944.23c13.995,1315.12 491.087,2409.51 1428.74,3278.46c424.929,403.305 899.479,715.005 1427.46,936.375c-114.5,332.059 -235.367,650.121 -363.863,955.459Zm-3977.05,-15650c0,1030.79 -376.587,1993.23 -1127.22,2884.06c-905.841,1059.02 -2001.5,1670.98 -3189.65,1574.41c-15.141,-123.666 -23.921,-253.816 -23.921,-390.583c0,-989.554 430.784,-2048.57 1195.79,-2914.47c381.929,-438.42 867.675,-802.958 1456.73,-1093.75c587.779,-286.462 1143.75,-444.879 1666.65,-472.008c15.267,137.8 21.629,275.608 21.629,412.325l0,0.012Z" style="fill:#616161;fill-rule:nonzero;"/></svg>