<?xml version="1.0" encoding="UTF-8" standalone="no"?><!DOCTYPE svg PUBLIC "-//W3C//DTD SVG 1.1//EN" "http://www.w3.org/Graphics/SVG/1.1/DTD/svg11.dtd"><svg width="100%" height="100%" viewBox="0 0 957 168" version="1.1" xmlns="http://www.w3.org/2000/svg" xmlns:xlink="http://www.w3.org/1999/xlink" xml:space="preserve" xmlns:serif="http://www.serif.com/" style="fill-rule:evenodd;clip-rule:evenodd;stroke-linejoin:round;stroke-miterlimit:2;"><g id="g3"><g id="g5"><g id="g7"><path id="path9" d="M466.096,104.425c-0.913,2.029 -5.679,11.221 -17.617,11.221c-13.825,0 -19.217,-11.467 -19.217,-19.988c0,-14.087 9.488,-26.746 23.455,-26.746c15.033,0 18.616,11.196 18.962,13.225l22.108,0c1.325,-8.266 -5.233,-33.541 -40.22,-33.541c-25.592,0 -46.067,20.441 -46.067,47.762c0,22.355 13.971,39.592 39.862,39.592c32.271,0 40.984,-25.313 42.05,-31.525l-23.316,0Z" style="fill-rule:nonzero;"/><path id="path11" d="M296.417,110.583c0,-1.291 0.341,-3.733 1.479,-8.866c1.1,-5.146 16.721,-77.109 16.721,-77.109l-20.75,0l-17.217,79.384c-0.725,3.337 -1.038,6.629 -1.038,9.537c0,17.409 13.467,22.525 24.246,22.525c3.859,0 7.438,-0.641 8.334,-0.758c0.341,-1.742 3.595,-16.688 3.754,-17.342c-0.467,0.034 -2.754,0.204 -5.409,0.204c-7.712,0.005 -10.12,-3.27 -10.12,-7.575Z" style="fill-rule:nonzero;"/><path id="polygon13" d="M562.167,48.871l-37.175,33.475l12.529,-57.908l-20.9,0l-23.729,109.862l20.883,0l5.771,-26.696l12.85,-10.229l17.766,36.925l23.25,0l-25.212,-49.454l42.912,-35.975l-28.945,0Z" style="fill-rule:nonzero;"/><path id="path15" d="M182.354,100.342c1.738,-7.875 16.458,-75.871 16.458,-75.871l39.538,0c28.687,0 35.746,15.946 35.746,25.621c0,21.404 -20.217,27.07 -22.692,27.845c2.304,0.759 15.425,5.959 15.425,22.767c0,18.288 -16.858,33.609 -42.996,33.609l-11.921,0c-21.95,0.004 -33.737,-15.067 -29.558,-33.971Zm61.904,-1.346c0,-5.163 -3.325,-11.713 -18.087,-11.713l-19.171,0l-5.742,26.571l21.704,0c14.046,0 21.296,-6.329 21.296,-14.858Zm7.113,-44.267c0,-5.342 -4.067,-9.937 -14.025,-9.937l-21.154,0l-4.796,22.179l22.041,0c11.871,-0.004 17.934,-5.734 17.934,-12.242Z" style="fill-rule:nonzero;"/><path id="path17" d="M581.592,100.342c1.741,-7.875 16.458,-75.871 16.458,-75.871l39.554,0c28.688,0 35.75,15.946 35.75,25.621c0,21.404 -20.217,27.07 -22.696,27.845c2.271,0.759 15.429,5.959 15.429,22.767c0,18.288 -16.879,33.609 -43.016,33.609l-11.913,0c-21.958,0.004 -33.75,-15.067 -29.566,-33.971Zm61.904,-1.346c0,-5.163 -3.329,-11.713 -18.084,-11.713l-19.183,0l-5.737,26.571l21.712,0c14.042,0 21.292,-6.329 21.292,-14.858Zm7.108,-44.267c0,-5.342 -4.05,-9.937 -14.033,-9.937l-21.146,0l-4.788,22.179l22.046,0c11.863,-0.004 17.921,-5.734 17.921,-12.242Z" style="fill-rule:nonzero;"/><path id="path19" d="M816.829,48.921c-22.142,0 -37.2,13.104 -42.275,37.696c-2.183,10.571 -10.212,47.729 -10.212,47.729l20.737,0c0,0 7.642,-35.333 10.058,-46.438c3.167,-14.554 10.863,-19.495 21.209,-19.495c3.346,0 5.475,0.379 6.562,0.533c0.571,-2.929 3.463,-16.067 4.154,-19.288c-2.245,-0.287 -5.791,-0.737 -10.233,-0.737Z" style="fill-rule:nonzero;"/><path id="path21" d="M887.392,167.029l69.6,-118.108l-22.4,0l-31.984,55.583l-7.471,-55.65l-23.966,0c-27.45,0 -41.675,12.554 -46.721,36.575c-2.529,11.988 -10.571,48.917 -10.571,48.917l20.746,0c0,0 7.612,-35.075 10.642,-49.229c2.929,-13.742 13.12,-17.942 24.112,-15.6l4.371,-20.163c3.237,19.15 13.137,80.329 13.137,80.329l-21.716,37.346l22.221,0Z" style="fill-rule:nonzero;"/><path id="path23" d="M356.321,97.913c4.566,-0.675 17.929,-2.738 19.75,-2.996c-0.342,1.425 -0.879,3.704 -1.275,5.387c-2.413,10.329 -12.934,16.963 -24.538,16.963c-7.404,0 -11.729,-3.984 -11.729,-8.717c0.004,-3.908 3.588,-8.537 17.792,-10.637Zm-7.763,-22.246c0.513,-0.846 5.85,-9.075 19.146,-9.075c8.267,0 12.504,3.016 12.504,6.666c0,5.15 -8.333,6.492 -22.766,8.559c-24.796,3.583 -40.467,11.279 -40.467,29.187c0,12.692 10.537,25.059 29.254,25.059c15.55,0 23.679,-9.388 24.4,-10.109c0.071,2.254 0.363,5.629 0.604,8.35l21.442,0c-0.742,-3.704 -2.275,-10.816 0.271,-22.196c1.346,-5.991 5.129,-23.212 7.058,-32.716c3.671,-17.979 -6.196,-30.688 -31.479,-30.688c-32.508,0 -41.875,23.367 -43.392,26.967l23.425,0l0,-0.004Z" style="fill-rule:nonzero;"/><path id="path25" d="M733.829,108.708c-0.758,1.671 -5.804,8.713 -17.083,8.713c-16.242,0 -19.938,-13.771 -19.563,-17.546l63.267,0c0.362,-1.546 1.792,-7.179 1.792,-12.962c0,-20.013 -13.567,-38.313 -40.93,-38.313c-25.02,0 -45.095,21.042 -45.095,46.029c0,24.175 14.516,41.325 40.187,41.325c31.721,0 40.267,-24.846 41.088,-27.241c-5.655,-0.005 -23.663,-0.005 -23.663,-0.005Zm-12.296,-41.137c13.967,0 19.304,8.525 18.734,15.362l-39.95,0c1.033,-4.341 7.695,-15.362 21.216,-15.362Z" style="fill-rule:nonzero;"/></g><g id="g27"><path id="path29" d="M51.112,11.933c0,-5.266 -3.225,-11.933 -16.779,-11.933l-20.871,0l-5.933,27.45l21.758,0c16.988,0 21.825,-8.042 21.825,-15.517Z" style="fill-rule:nonzero;"/><path id="path31" d="M107.333,11.933c0,-5.266 -3.216,-11.933 -16.766,-11.933l-20.875,0l-5.93,27.446l21.746,0c16.996,0.004 21.825,-8.038 21.825,-15.513Z" style="fill-rule:nonzero;"/><path id="path33" d="M43.583,53.246c0,-5.267 -3.225,-11.95 -16.779,-11.95l-20.871,0l-5.933,27.467l21.75,0c16.992,0 21.833,-8.063 21.833,-15.517Z" style="fill-rule:nonzero;"/><path id="path35" d="M99.804,53.246c0,-5.267 -3.229,-11.95 -16.771,-11.95l-20.871,0l-5.941,27.467l21.758,0c16.996,0 21.825,-8.063 21.825,-15.517Z" style="fill-rule:nonzero;"/><path id="path37" d="M158.625,36.492c0,-5.271 -3.229,-11.95 -16.771,-11.95l-20.871,0l-5.941,27.462l21.75,0c16.995,0 21.833,-8.041 21.833,-15.512Z" style="fill-rule:nonzero;"/><path id="path39" d="M150.517,79.504c0,-5.271 -3.221,-11.933 -16.771,-11.933l-20.871,0l-5.933,27.45l21.75,0c16.991,0 21.825,-8.063 21.825,-15.517Z" style="fill-rule:nonzero;"/><path id="path41" d="M91.725,96.263c0,-5.292 -3.217,-11.971 -16.758,-11.971l-20.884,0l-5.933,27.462l21.75,0c16.996,0.004 21.825,-8.037 21.825,-15.492Z" style="fill-rule:nonzero;"/></g></g><rect id="rect43" x="-17.433" y="-37.633" width="1002.08" height="222.917" style="fill:none;"/></g></svg>