<?xml version="1.0" encoding="UTF-8" standalone="no"?><!DOCTYPE svg PUBLIC "-//W3C//DTD SVG 1.1//EN" "http://www.w3.org/Graphics/SVG/1.1/DTD/svg11.dtd"><svg width="100%" height="100%" viewBox="0 0 467 84" version="1.1" xmlns="http://www.w3.org/2000/svg" xmlns:xlink="http://www.w3.org/1999/xlink" xml:space="preserve" xmlns:serif="http://www.serif.com/" style="fill-rule:evenodd;clip-rule:evenodd;stroke-linejoin:round;stroke-miterlimit:2;"><g id="layer1"><g id="g2418"><path id="path2384" d="M196.356,34.634l-4.108,0.096l0,-16.429l4.708,0c3.567,0 4.737,2.617 4.737,8.333c0,5.717 -1.316,8 -5.337,8m20.729,37.459l0,-17.609c0,-8.35 -2.979,-13.204 -9.346,-14.345c7.4,-1.963 9.425,-8.171 9.425,-16.121c0,-11.209 -4.029,-18.175 -17.1,-18.175l-23.408,0l0.012,72.571l15.584,0l0,-31.555l3.841,0c3.75,0 5.53,2.588 5.53,6.042l0,19.304c0,3.209 0.645,5.575 1.087,6.204l15.763,0c-0.55,-0.6 -1.388,-3.104 -1.388,-6.316" style="fill:#616161;fill-rule:nonzero;"/><path id="path2386" d="M42.281,66.072c2.787,-2.325 3.267,-5.204 3.267,-7.788l0,-10.85l-15.15,0l0,14.721c0,2.109 -1.705,3.817 -3.809,3.817c-2.104,0 -3.671,-1.708 -3.671,-3.817l0,-41.704c0,-2.104 1.567,-3.812 3.671,-3.812c2.104,0 3.809,1.708 3.809,3.812l0,14.817l15.129,0l0,-15.371c0,-8.492 -5.55,-15.479 -19.067,-15.496c-13.879,0 -19.125,7.021 -19.125,15.513l0,43.545c0,8.417 6.683,14.784 15.229,14.784l4.692,0l15.025,-12.171Z" style="fill:#616161;fill-rule:nonzero;"/><path id="path2388" d="M437.81,34.597l-4.137,0l0,-16.333l4.733,0c3.558,0 4.737,2.616 4.737,8.329c0,5.721 -1.308,8.004 -5.333,8.004m20.713,37.458l0,-17.612c0,-8.346 -2.967,-13.2 -9.334,-14.346c7.4,-1.958 9.425,-8.163 9.425,-16.108c0,-11.217 -4.041,-18.184 -17.1,-18.184l-23.412,0l0,72.571l15.621,0l0,-31.55l3.812,0c3.758,0 5.517,2.583 5.517,6.042l0,19.304c0,3.212 0.662,5.575 1.1,6.204l15.75,0c-0.542,-0.604 -1.379,-3.112 -1.379,-6.321" style="fill:#616161;fill-rule:nonzero;"/><path id="path2390" d="M385.652,52.264l4.058,-33.863l4.05,33.863l-8.108,0Zm14.496,-46.6l-20.954,0l-12.45,72.708l15.774,0l1.546,-12.829l11.271,-0.009l1.538,12.838l15.787,0l-12.512,-72.708Z" style="fill:#616161;fill-rule:nonzero;"/><path id="polygon2392" d="M295.66,78.364l0,-72.542l15.983,0l0,58.771l16.655,0l0,13.771l-32.638,0Z" style="fill:#616161;fill-rule:nonzero;"/><rect id="rect2394" x="271.223" y="5.826" width="15.971" height="72.542" style="fill:#616161;"/><path id="polygon2396" d="M295.66,78.364l0,-72.542l15.983,0l0,58.771l16.655,0l0,13.771l-32.638,0Z" style="fill:#616161;fill-rule:nonzero;"/><path id="polygon2398" d="M332.143,78.364l0,-72.542l15.971,0l0,58.771l16.663,0l0,13.771l-32.634,0Z" style="fill:#616161;fill-rule:nonzero;"/><path id="path2400" d="M245.073,36.751l-4.767,-0.058l0,-18.4l4.742,0c4.05,0 4.729,2.775 4.729,9.416c0,6.863 -0.684,9.042 -4.704,9.042m4.02,-30.925l-24.354,0l0,72.571l15.617,0l0,-28.8l8.737,0c14.346,0 16.767,-9.142 16.767,-21.888c0.004,-12.741 -2.417,-21.883 -16.767,-21.883" style="fill:#616161;fill-rule:nonzero;"/><path id="polygon2402" d="M149.673,19.651l0,14.375l16.537,0l0,14.213l-16.537,0l0,16.108l19.65,-0.008l0,14.004l-35.646,0.016l0,-72.55l-0.017,0l35.017,0l0,13.842l-19.004,0Z" style="fill:#616161;fill-rule:nonzero;"/><path id="polygon2404" d="M102.006,67.78l0,-47.854l-10.458,0l0,-14.096l37.841,0l0,14.096l-10.508,0l0,58.229l-4.483,0l-12.392,-10.375Z" style="fill:#616161;fill-rule:nonzero;"/><path id="polygon2406" d="M108.785,78.264l-36.85,-30.88l-38.183,30.88l75.033,0Z" style="fill:#616161;fill-rule:nonzero;"/><path id="path2408" d="M67.86,39.064l4.079,-20.85l4.059,20.85l-8.138,0Zm14.588,-33.159l-21.109,0l-12.296,55.179l22.9,-18.487l23.875,20.008l-13.37,-56.7Z" style="fill:#616161;fill-rule:nonzero;"/></g></g></svg>