<?xml version="1.0" encoding="UTF-8" standalone="no"?><!DOCTYPE svg PUBLIC "-//W3C//DTD SVG 1.1//EN" "http://www.w3.org/Graphics/SVG/1.1/DTD/svg11.dtd"><svg width="100%" height="100%" viewBox="0 0 2223 2268" version="1.1" xmlns="http://www.w3.org/2000/svg" xmlns:xlink="http://www.w3.org/1999/xlink" xml:space="preserve" xmlns:serif="http://www.serif.com/" style="fill-rule:evenodd;clip-rule:evenodd;stroke-linejoin:round;stroke-miterlimit:2;"><path d="M2222.92,1160c0,-77.083 -6.25,-154.583 -19.584,-230.417l-1069.58,0l0,436.667l612.5,0c-25.417,140.833 -107.083,265.417 -226.667,344.583l0,283.334l365.417,0c214.583,-197.5 337.917,-489.167 337.917,-834.167Z" style="fill:#4285f4;fill-rule:nonzero;"/><path d="M1133.75,2267.92c305.833,0 563.75,-100.417 751.667,-273.75l-365.417,-283.334c-101.667,69.167 -232.917,108.334 -385.833,108.334c-295.834,0 -546.667,-199.584 -636.667,-467.917l-377.083,0l0,292.083c192.5,382.917 584.583,624.584 1013.33,624.584Z" style="fill:#34a853;fill-rule:nonzero;"/><path d="M497.083,1351.25c-47.5,-140.833 -47.5,-293.333 0,-434.167l0,-292.083l-376.666,0c-160.834,320.417 -160.834,697.917 0,1018.33l376.666,-292.083Z" style="fill:#fbbc04;fill-rule:nonzero;"/><path d="M1133.75,448.75c161.667,-2.5 317.917,58.333 435,170l323.75,-323.75c-205,-192.5 -477.083,-298.333 -758.75,-295c-428.75,0 -820.833,241.667 -1013.33,625l376.666,292.083c89.584,-268.75 340.834,-468.333 636.667,-468.333Z" style="fill:#ea4335;fill-rule:nonzero;"/></svg>