<?xml version="1.0" encoding="UTF-8" standalone="no"?><!DOCTYPE svg PUBLIC "-//W3C//DTD SVG 1.1//EN" "http://www.w3.org/Graphics/SVG/1.1/DTD/svg11.dtd"><svg width="100%" height="100%" viewBox="0 0 1787 339" version="1.1" xmlns="http://www.w3.org/2000/svg" xmlns:xlink="http://www.w3.org/1999/xlink" xml:space="preserve" xmlns:serif="http://www.serif.com/" style="fill-rule:evenodd;clip-rule:evenodd;stroke-linejoin:round;stroke-miterlimit:2;"><g id="图层_x0020_1"><path d="M508.779,0c93.445,0 169.2,75.754 169.2,169.2c0,93.446 -75.755,169.2 -169.2,169.2c-93.446,0 -169.199,-75.754 -169.199,-169.2c0,-93.446 75.753,-169.2 169.199,-169.2Zm0,58.622c61.073,0 110.579,49.505 110.579,110.578c0,61.073 -49.506,110.578 -110.579,110.578c-61.072,0 -110.578,-49.505 -110.578,-110.578c0,-61.073 49.506,-110.578 110.578,-110.578Z"/><path d="M256.129,338.4l-64.038,0l0,-140.993l-128.065,0l0,140.993l-64.026,0l0,-333.168l64.026,0l0,128.148l128.065,0l0,-128.185l64.038,0.052l0,333.153Z" style="fill-rule:nonzero;"/><path d="M1018.02,338.4l-49.32,0l-142.267,-209.821l0,209.821l-62.353,0l0,-332.26l50.192,0l143.394,199.237l-1.893,-200.131l62.247,0l0,333.154Z" style="fill-rule:nonzero;"/><path d="M1526.99,5.247l140.003,0c33.438,0 61.516,21.598 72.522,34.349c9.239,10.7 24.906,37.45 24.906,67.337c0,17.059 -1.93,44.074 -13.61,63.387c-10.872,17.977 -32.886,38.316 -58.036,44.387l93.903,123.694l-74.947,0l-125.18,-145.387l0,145.387l-59.561,0l0,-333.154Zm64.095,57.735l0,97.761l54.771,0c38.028,0 55.708,-22.975 56.285,-49.579c0.52,-24.276 -24.751,-48.33 -50.182,-48.29l-60.874,0.108Z" style="fill-rule:nonzero;"/><path d="M1273.33,0c93.446,0 169.2,75.754 169.2,169.2c0,93.446 -75.754,169.2 -169.2,169.2c-93.446,0 -169.2,-75.754 -169.2,-169.2c0,-93.446 75.754,-169.2 169.2,-169.2Zm0,58.622c61.073,0 110.579,49.505 110.579,110.578c0,61.073 -49.506,110.578 -110.579,110.578c-61.073,0 -110.578,-49.505 -110.578,-110.578c0,-61.073 49.505,-110.578 110.578,-110.578Z"/></g></svg>