<?xml version="1.0" encoding="UTF-8" standalone="no"?><!DOCTYPE svg PUBLIC "-//W3C//DTD SVG 1.1//EN" "http://www.w3.org/Graphics/SVG/1.1/DTD/svg11.dtd"><svg width="100%" height="100%" viewBox="0 0 1026 341" version="1.1" xmlns="http://www.w3.org/2000/svg" xmlns:xlink="http://www.w3.org/1999/xlink" xml:space="preserve" xmlns:serif="http://www.serif.com/" style="fill-rule:evenodd;clip-rule:evenodd;stroke-linejoin:round;stroke-miterlimit:2;"><path id="path38" d="M940.61,287.871c-54.284,0.353 -105.696,0.786 -120.032,-0.487c-28.999,-2.521 -48.377,-21.492 -50.626,-49.406c-1.518,-18.321 -1.518,-33.498 -0.081,-47.943c2.629,-27.183 25.367,-53.064 50.707,-54.311c9.079,-0.488 33.362,-0.434 77.347,-0.244l128,0.244l0,-53.092c0,0 -101.955,-0.108 -132.607,-0.244c-41.14,-0.189 -61.846,-0.216 -74.963,0.244c-28.863,1.111 -53.037,11.383 -71.818,30.462c-17.806,18.023 -28.43,46.696 -30.002,75.722c-0.894,15.664 -1.192,36.126 0,48.294c2.954,31.221 13.063,55.721 30.002,72.876c18.103,18.429 45.665,30.11 71.845,30.462c21.492,0.271 207.543,0 207.543,0l0,-53.064c0,0 -56.506,0.216 -85.315,0.487" style="fill:#616161;fill-rule:nonzero;"/><path id="path40" d="M362.78,85.478l0,53.037l126.293,0l0,201.012l53.308,0l0,-201.012l126.293,0l0,-53.037l-305.894,0Z" style="fill:#616161;fill-rule:nonzero;"/><path id="path50" d="M307.412,185.78c-0.38,-28.565 -10.461,-53.064 -30.001,-72.875c-20.381,-20.733 -51.466,-29.351 -71.819,-30.435c-17.697,-1.003 -87.429,-0.678 -103.799,0c-23.063,0.975 -39.866,7.859 -48.294,14.147c-0.082,0.054 -0.163,0.027 -0.163,-0.109l0,-96.508l-53.336,0l0,340.448l53.254,0c0,0 -1.057,-139.355 0.136,-154.532c2.114,-26.966 22.575,-48.159 48.674,-50.436c20.922,-1.789 83.716,-1.301 103.419,0.027c27.047,1.87 47.021,23.009 48.593,51.493c0.515,10.488 -0.024,153.448 -0.024,153.448l53.363,0c0,0 0.135,-142.418 0,-154.668" style="fill:#616161;fill-rule:nonzero;"/></svg>