<?xml version="1.0" encoding="UTF-8" standalone="no"?><!DOCTYPE svg PUBLIC "-//W3C//DTD SVG 1.1//EN" "http://www.w3.org/Graphics/SVG/1.1/DTD/svg11.dtd"><svg width="100%" height="100%" viewBox="0 0 1334 1355" version="1.1" xmlns="http://www.w3.org/2000/svg" xmlns:xlink="http://www.w3.org/1999/xlink" xml:space="preserve" xmlns:serif="http://www.serif.com/" style="fill-rule:evenodd;clip-rule:evenodd;stroke-linejoin:round;stroke-miterlimit:2;"><g id="Layer-1" serif:id="Layer 1"><g id="use3786"><path id="path3323" d="M162.579,1122.05l0,87.888l-99.825,0l0,-87.888l-44.217,0l0,217.917l44.217,0l0,-88.525l99.825,0l0,88.525l44.217,0l0,-217.917l-44.217,0Z" style="fill:#616161;fill-rule:nonzero;"/><g id="g3327"><path id="path3325" d="M411.513,1246.75c0,35.446 -17.542,54.341 -49.463,54.341c-32.1,0 -49.821,-19.441 -49.821,-55.787l0,-123.067l-44.216,0l0,124.513c0,61.304 34.087,96.479 93.404,96.479c59.95,0 94.312,-35.808 94.312,-98.2l0,-122.971l-44.216,0l0,124.692Z" style="fill:#616161;fill-rule:nonzero;"/></g><g id="g3331"><path id="path3329" d="M922.4,1271.88l-49.462,-149.829l-36.08,0l-49.458,149.829l-48.104,-149.65l-47.021,0l75.863,217.738l36.62,0l49.555,-143.05l49.55,143.05l36.891,0l75.775,-217.738l-45.846,0l-48.283,149.65Z" style="fill:#616161;fill-rule:nonzero;"/></g><g id="g3335"><path id="path3333" d="M1095.74,1246.2l80.387,0l0,-39.696l-80.388,0l0,-44.579l116.738,0l0,-39.696l-160.321,0l0,217.554l164.479,0l0,-39.691l-120.896,0l0,-53.892Z" style="fill:#616161;fill-rule:nonzero;"/></g><g id="g3339"><rect id="path3337" x="1269.35" y="1122.05" width="43.675" height="217.558" style="fill:#616161;"/></g><g id="g3343"><path id="path3341" d="M592.9,1177.21l31.467,72.971l-0.092,0l2.083,5.067l-66.825,0l2.171,-5.067l-0.091,0l31.287,-72.971Zm49.913,117.279l19.533,45.3l46.383,0l-95.121,-216.47l-0.816,-1.263l-38.7,0l-95.938,217.733l45.121,0l18.537,-42.133l1.267,-3.167l99.733,0Z" style="fill:#616161;fill-rule:nonzero;"/></g><g id="g3349"><g id="g3347"><g><clipPath id="_clip1"><path d="M102.808,381.583l0,16.096c0,1.084 0.092,2.171 0.184,3.254c4.341,82.555 66.458,131.475 66.458,131.475c100.1,97.475 342.433,220.63 398.767,248.571c0.721,0.271 3.704,1.267 5.425,-0.904c0,0 0.812,-0.725 1.262,-1.9l0,-2.442c-0.087,-0.179 -0.179,-0.362 -0.179,-0.541c-154.171,-336.913 -365.125,-592.267 -365.125,-592.267c0,0 -101.638,96.392 -106.792,198.658"/></clipPath><g clip-path="url(#_clip1)"><rect id="path3345" x="102.808" y="182.925" width="472.096" height="599.321" style="fill:#616161;"/></g></g></g></g><g id="g3355"><g id="g3353"><g><clipPath id="_clip2"><path d="M127.588,873.842c43.67,77.946 117.366,138.529 194.137,119.9c52.988,-13.2 172.887,-96.842 212.492,-125.142l-0.092,-0.092c3.075,-2.804 1.992,-5.062 1.992,-5.062c-0.996,-3.617 -5.154,-3.617 -5.154,-3.617l0,-0.091l-403.375,14.104Z"/></clipPath><g clip-path="url(#_clip2)"><rect id="path3351" x="127.588" y="859.738" width="409.613" height="152.633" style="fill:#616161;"/></g></g></g></g><g id="g3361"><g id="g3359"><g><clipPath id="_clip3"><path d="M8.679,589.375l0,3.887c0.454,58.863 22.338,99.463 22.338,99.463c43.762,92.504 127.312,120.533 127.312,120.533c38.613,15.825 77.221,16.909 77.221,16.909c5.967,1.087 239.892,0.091 302.554,-0.179c2.621,0 4.159,-2.713 4.159,-2.713c0.091,-0.271 0.27,-0.542 0.362,-0.813l0,-2.533c-0.542,-1.537 -1.9,-2.621 -1.9,-2.621l0,-0.091c-177.137,-119.538 -520.563,-303.005 -520.563,-303.005c-8.225,25.317 -11.3,49.459 -11.483,71.163"/></clipPath><g clip-path="url(#_clip3)"><rect id="path3357" x="8.679" y="518.212" width="533.946" height="313.042" style="fill:#616161;"/></g></g></g></g><g id="g3367"><g id="g3365"><g><clipPath id="_clip4"><path d="M504.017,21.067c-106.792,27.579 -132.017,124.512 -132.017,124.512c-5.154,16.096 -7.596,32.642 -8.229,48.288l0,22.241c1.446,32.825 8.771,57.421 8.771,57.421c35.625,158.146 211.046,418.021 248.75,472.638c2.712,2.712 4.791,1.716 4.791,1.716c4.071,-1.175 3.8,-5.062 3.8,-5.062l0,0.092c58.142,-580.425 -60.945,-734.234 -60.945,-734.234c-17.542,1.538 -64.921,12.388 -64.921,12.388"/></clipPath><g clip-path="url(#_clip4)"><rect id="path3363" x="363.771" y="8.679" width="324.254" height="740.2" style="fill:#616161;"/></g></g></g></g><g id="g3373"><g id="g3371"><g><clipPath id="_clip5"><path d="M699.417,743.271l0.091,0c0.45,3.708 3.075,4.433 3.075,4.433c3.888,1.538 5.875,-2.171 5.875,-2.171c38.704,-55.97 213.038,-314.487 248.571,-472.004c0,0 19.263,-76.317 0.633,-127.95c0,0 -26.4,-98.471 -133.279,-124.512c0,0 -30.837,-7.775 -63.571,-12.388c0,0 -119.537,153.9 -61.395,734.592"/></clipPath><g clip-path="url(#_clip5)"><rect id="path3369" x="641.275" y="8.679" width="335.017" height="740.558" style="fill:#616161;"/></g></g></g></g><g id="g3379"><g id="g3377"><g><clipPath id="_clip6"><path d="M798.067,860.1c0,0 -3.525,0.45 -4.521,3.071c0,0 -0.904,3.708 1.537,5.517l-0.087,0c38.608,27.762 155.704,109.504 212.129,125.416c0,0 8.679,2.984 23.238,3.438l7.779,0c37.704,-1.175 103.804,-20.346 163.845,-123.517l-403.92,-14.017l0,0.092Z"/></clipPath><g clip-path="url(#_clip6)"><rect id="path3375" x="792.642" y="860.008" width="409.342" height="137.533" style="fill:#616161;"/></g></g></g></g><g id="g3385"><g id="g3383"><g><clipPath id="_clip7"><path d="M789.117,820.946l0.091,0.091c0,0 -3.258,2.08 -2.079,5.784c0,0 1.717,3.075 4.159,3.075l0,0.091c63.475,0.092 303.729,0.363 309.787,-0.812c0,0 31.012,-1.175 69.442,-15.917c0,0 85.541,-27.216 129.85,-124.241c0,0 39.604,-79.209 8.95,-171.709c0,0 -342.884,184.1 -520.2,303.638"/></clipPath><g clip-path="url(#_clip7)"><rect id="path3381" x="785.95" y="517.308" width="554.017" height="313.042" style="fill:#616161;"/></g></g></g></g><g id="g3391"><g id="g3389"><g><clipPath id="_clip8"><path d="M755.571,773.654l0.087,0c0,0 -1.896,3.888 1.088,6.421c0,0 0.904,0.633 2.171,0.904l1.987,0c0.454,-0.091 0.813,-0.271 1.267,-0.541c57.871,-28.667 298.304,-151.009 397.858,-248.03c0,0 63.117,-50.729 66.371,-132.016c7.325,-112.938 -106.338,-217.467 -106.338,-217.467c0,0 -210.412,254.538 -364.491,590.729"/></clipPath><g clip-path="url(#_clip8)"><rect id="path3387" x="753.763" y="182.925" width="479.963" height="598.054" style="fill:#616161;"/></g></g></g></g></g></g></svg>