<?xml version="1.0" encoding="UTF-8" standalone="no"?><!DOCTYPE svg PUBLIC "-//W3C//DTD SVG 1.1//EN" "http://www.w3.org/Graphics/SVG/1.1/DTD/svg11.dtd"><svg width="100%" height="100%" viewBox="0 0 734 322" version="1.1" xmlns="http://www.w3.org/2000/svg" xmlns:xlink="http://www.w3.org/1999/xlink" xml:space="preserve" xmlns:serif="http://www.serif.com/" style="fill-rule:evenodd;clip-rule:evenodd;stroke-linejoin:round;stroke-miterlimit:2;"><g><path d="M161.042,321.829c88.866,0 161.041,-71.962 161.041,-160.879c0,-88.921 -72.175,-160.95 -161.041,-160.95c-89.004,0 -161.042,72.029 -161.042,160.95c0,88.917 72.038,160.879 161.042,160.879" style="fill:#a50034;fill-rule:nonzero;"/><path d="M154.563,90.317l-0.001,141.196l44.888,0l0,-12.696l-31.95,0l0,-128.5l-12.938,0Z" style="fill:#fff;fill-rule:nonzero;"/><path d="M109.617,128.842c10.679,0 19.287,-8.684 19.287,-19.288c0,-10.612 -8.608,-19.329 -19.287,-19.329c-10.679,0 -19.288,8.717 -19.288,19.329c0,10.613 8.609,19.288 19.288,19.288" style="fill:#fff;fill-rule:nonzero;"/><path d="M167.496,26.267c-1.684,-0.084 -4.883,-0.188 -6.413,-0.188c-74.333,0 -134.829,60.517 -134.829,134.804c0,36.084 14.021,69.905 39.417,95.338c25.5,25.375 59.337,39.396 95.412,39.396c35.938,0 69.767,-14.021 95.221,-39.396c25.459,-25.433 39.546,-59.254 39.546,-95.338l0,-5.995l-96.275,0l0,12.408l83.433,0c0,0.271 0,1.587 -0.058,1.929c-4.242,63.508 -57.283,113.808 -121.867,113.808c-32.691,0 -63.345,-12.712 -86.416,-35.8c-23.146,-22.991 -35.9,-53.62 -35.9,-86.354c0,-32.546 12.754,-63.333 35.9,-86.396c23.071,-23.041 53.725,-35.754 86.416,-35.754c1.409,0 4.834,0 6.413,0.084l0,-12.546Z" style="fill:#fff;fill-rule:nonzero;"/><path d="M443.196,54.175l-48.392,0l0,209.492l148.634,0l0,-40.779l-100.242,0l0,-168.713Zm206.696,129.658l39.412,0l0,36.63c-7.267,2.766 -21.437,5.525 -34.921,5.525c-43.554,0 -58.062,-22.121 -58.062,-67.05c0,-42.846 13.817,-68.109 57.371,-68.109c24.204,0 38.029,7.609 49.42,22.129l30.088,-27.662c-18.325,-26.25 -50.479,-34.2 -80.542,-34.2c-67.766,0 -103.362,36.983 -103.362,107.492c0,70.166 32.146,108.187 103.021,108.187c32.487,0 64.291,-8.292 81.566,-20.387l0,-101.625l-83.991,0l0,39.07Z" style="fill:#6b6b6b;fill-rule:nonzero;"/></g></svg>