<?xml version="1.0" encoding="UTF-8" standalone="no"?><!DOCTYPE svg PUBLIC "-//W3C//DTD SVG 1.1//EN" "http://www.w3.org/Graphics/SVG/1.1/DTD/svg11.dtd"><svg width="100%" height="100%" viewBox="0 0 4167 955" version="1.1" xmlns="http://www.w3.org/2000/svg" xmlns:xlink="http://www.w3.org/1999/xlink" xml:space="preserve" xmlns:serif="http://www.serif.com/" style="fill-rule:evenodd;clip-rule:evenodd;stroke-linejoin:round;stroke-miterlimit:2;"><g id="Layer-1" serif:id="Layer 1"><path id="path4" d="M2648.09,597.472c-72.551,0 -131.586,-59.036 -131.586,-131.587c0,-72.55 59.035,-131.586 131.586,-131.586c72.55,0 131.587,59.036 131.587,131.586c0,73.262 -59.748,131.587 -131.587,131.587m0,-341.413c-115.938,0 -209.827,93.888 -209.827,209.826c0,115.939 93.889,209.827 209.827,209.827c115.938,0 209.827,-93.888 209.827,-209.827c0,-115.227 -93.889,-209.826 -209.827,-209.826" style="fill-rule:nonzero;"/><path id="path6" d="M2391.32,608.141l17.07,0l0,78.952l-17.07,0c-90.333,0 -164.305,-73.973 -164.305,-164.305l0,-360.618l78.951,0l0,105.269l101.713,0l0,78.952l-101.713,0l0,177.108c0,46.233 38.409,84.642 85.354,84.642" style="fill-rule:nonzero;"/><path id="path8" d="M3352.96,597.472c-72.55,0 -131.586,-59.036 -131.586,-131.587c0,-72.55 59.036,-131.586 131.586,-131.586c72.551,0 131.587,59.036 131.587,131.586c-0.712,73.262 -59.748,131.587 -131.587,131.587m0,-341.413c-115.938,0 -209.827,93.888 -209.827,209.826c0,115.939 93.889,209.827 209.827,209.827c115.939,0 209.827,-93.888 209.827,-209.827c0,-115.227 -93.888,-209.826 -209.827,-209.826" style="fill-rule:nonzero;"/><path id="path10" d="M3956.84,597.472c-72.551,0 -131.587,-59.036 -131.587,-131.587c0,-72.55 59.036,-131.586 131.587,-131.586c72.55,0 131.586,59.036 131.586,131.586c0,73.262 -59.747,131.587 -131.586,131.587m0,-341.413c-115.939,0 -209.827,93.888 -209.827,209.826c0,115.939 93.888,209.827 209.827,209.827c51.212,0 98.156,-18.493 134.431,-49.078l0,41.254l75.396,0l0,-202.003c0,-115.227 -93.889,-209.826 -209.827,-209.826" style="fill-rule:nonzero;"/><path id="path12" d="M3074.86,256.059l37.698,0l0,78.951l-37.698,0c-46.945,0 -85.354,38.409 -85.354,85.354l0,250.37l-78.951,0l0,-250.37c0,-90.333 73.973,-164.305 164.305,-164.305" style="fill-rule:nonzero;"/><rect id="rect14" x="3615.43" y="151.501" width="78.952" height="517.81"/><path id="path16" d="M1702.09,431.033l0,249.658l-78.951,0l0,-249.658c0,-46.944 -38.409,-85.353 -85.354,-85.353c-46.944,0 -85.353,38.409 -85.353,85.353l0,249.658l-78.952,0l0,-249.658c0,-46.944 -38.409,-85.353 -85.354,-85.353c-46.944,0 -85.353,38.409 -85.353,85.353l0,249.658l-78.952,0l0,-249.658c0,-90.332 73.973,-164.305 163.594,-164.305c50.501,0 94.6,22.049 125.185,57.613c30.585,-35.564 74.684,-57.613 125.185,-57.613c90.332,0 164.305,73.973 164.305,164.305" style="fill-rule:nonzero;"/><path id="path18" d="M1965.26,608.141c-72.55,0 -131.586,-59.036 -131.586,-131.586c0,-72.551 59.036,-131.587 131.586,-131.587c72.55,0 131.587,59.036 131.587,131.587c0,72.55 -59.748,131.586 -131.587,131.586m0,-341.413c-116.649,0 -210.538,93.888 -210.538,209.827c0,115.938 93.889,209.827 209.827,209.827c115.938,0 209.827,-93.889 209.827,-209.827c0.712,-115.227 -93.178,-209.827 -209.116,-209.827" style="fill-rule:nonzero;"/><path id="path20" d="M477.268,-0.001c-263.885,0 -477.268,213.383 -477.268,477.267c0,263.884 213.383,477.268 477.268,477.268c263.884,0 477.267,-213.384 477.267,-477.268c0,-262.462 -210.538,-477.267 -477.267,-477.267" style="fill-rule:nonzero;"/><path id="path22" d="M619.523,117.359l-141.544,469.444l-0.713,0.712l-1.422,-0.712l-141.544,-469.444l-182.798,601.03l34.141,0c0,0 22.761,-104.558 60.459,-167.15c20.627,-34.141 51.923,-61.881 93.888,-61.17c29.874,0.712 55.48,17.071 87.487,61.881c7.113,9.958 15.649,26.317 24.184,41.965c13.514,26.318 24.895,53.346 24.895,53.346c0,0 29.873,-68.282 49.078,-95.311c32.007,-44.81 57.613,-61.17 87.487,-61.881c41.965,-0.712 73.973,27.028 93.889,61.17c37.697,62.592 60.458,167.15 60.458,167.15l34.142,0l-182.087,-601.03Z" style="fill:#fff;fill-rule:nonzero;"/></g></svg>