<?xml version="1.0" encoding="UTF-8" standalone="no"?><!DOCTYPE svg PUBLIC "-//W3C//DTD SVG 1.1//EN" "http://www.w3.org/Graphics/SVG/1.1/DTD/svg11.dtd"><svg width="100%" height="100%" viewBox="0 0 1305 221" version="1.1" xmlns="http://www.w3.org/2000/svg" xmlns:xlink="http://www.w3.org/1999/xlink" xml:space="preserve" xmlns:serif="http://www.serif.com/" style="fill-rule:evenodd;clip-rule:evenodd;stroke-linejoin:round;stroke-miterlimit:2;"><path d="M62.796,217.619l-62.796,0l0,-213.557l108.604,0l124.597,159.434l0,-159.434l62.796,0l0,213.557l-106.404,0l-126.797,-162.157l0,162.157m533.648,-66.04c0,29.687 -5.249,39.924 -13.938,49.738c-13.319,14.607 -32.702,19.008 -70.05,19.008l-107.219,0c-37.348,0 -56.764,-4.401 -70.066,-19.008c-8.689,-9.814 -13.938,-20.051 -13.938,-49.738l0,-82.325c0,-29.67 5.249,-39.891 13.938,-49.721c13.319,-14.623 32.718,-19.025 70.066,-19.025l107.219,0c37.348,0 56.731,4.402 70.05,19.025c8.689,9.83 13.938,20.051 13.938,49.721l0,82.325m-86.629,14.64c14.346,0 19.4,-0.848 22.839,-3.978c3.212,-2.918 4.63,-6.684 4.63,-19.236l0,-65.176c0,-12.553 -1.418,-16.286 -4.63,-19.22c-3.439,-3.147 -8.493,-3.978 -22.839,-3.978l-101.953,0c-14.346,0 -19.4,0.831 -22.823,3.978c-3.228,2.934 -4.646,6.667 -4.646,19.22l0,65.176c0,12.552 1.418,16.318 4.646,19.236c3.423,3.13 8.477,3.978 22.823,3.978l101.953,0m177.888,-162.157l0,213.557l-65.616,0l0,-213.557l65.616,0m110.855,0l86.629,0l-116.919,99.883l131.868,113.674l-92.694,0l-119.739,-111.376l110.855,-102.181m113.674,0l65.632,0l0,213.557l-65.632,0m315.82,0l-19.416,-37.201l-126.976,0l-19.188,37.185l-72.495,0l116.315,-213.541l81.576,0l116.299,213.557l-76.115,0m-123.586,-83.581l81.592,0l-40.804,-77.32l-40.788,77.32" style="fill:#1c4598;fill-rule:nonzero;"/></svg>