<?xml version="1.0" encoding="UTF-8" standalone="no"?><!DOCTYPE svg PUBLIC "-//W3C//DTD SVG 1.1//EN" "http://www.w3.org/Graphics/SVG/1.1/DTD/svg11.dtd"><svg width="100%" height="100%" viewBox="0 0 1264 355" version="1.1" xmlns="http://www.w3.org/2000/svg" xmlns:xlink="http://www.w3.org/1999/xlink" xml:space="preserve" xmlns:serif="http://www.serif.com/" style="fill-rule:evenodd;clip-rule:evenodd;stroke-linejoin:round;stroke-miterlimit:2;"><path d="M87.301,240.974l0,-24.68l24.68,0l0,-74.038l-24.68,0l0,-25.144l49.359,0l0,98.717l25.145,0l0,24.679l-74.504,0l0,0.466Zm160.648,61.465l0,-160.648l-24.679,0l0,135.969l-197.434,0l0,-197.435l135.969,0l0,-24.679l-160.648,0l0,246.793l246.792,0Zm0,-184.862l0,-37.717l37.252,0l0,-24.214l-37.252,0l0,-37.252l-24.679,0l0,37.252l-37.252,0l0,24.679l37.252,0l0,37.252l24.679,0Z" style="fill:#616161;fill-rule:nonzero;"/><g><path d="M509.643,160.417c1.862,5.587 2.794,11.641 2.794,18.626c0,6.984 -0.932,13.038 -2.794,18.625c-1.863,5.588 -4.657,10.245 -7.916,13.97c-3.26,3.725 -7.451,6.519 -12.573,8.847c-5.122,1.863 -10.244,3.26 -16.763,3.26c-6.053,0 -11.641,-0.932 -16.763,-3.26c-5.122,-1.863 -9.313,-5.122 -12.573,-8.847c-3.259,-3.725 -6.053,-8.382 -7.916,-13.97c-1.862,-5.587 -2.794,-11.641 -2.794,-18.625c0,-6.985 0.932,-13.039 2.794,-18.626c1.863,-5.588 4.657,-10.245 7.916,-13.97c3.26,-3.725 7.451,-6.984 12.573,-8.847c5.122,-1.863 10.71,-3.26 16.763,-3.26c6.053,0 11.641,0.932 16.763,3.26c5.122,1.863 9.313,5.122 12.573,8.847c3.259,3.725 6.053,8.382 7.916,13.97m318.036,-31.199l-20.488,0l0,52.153l20.488,0c5.123,0 9.313,-0.466 13.039,-1.863c3.725,-1.397 6.984,-3.259 9.312,-5.588c2.329,-2.328 4.657,-5.122 5.588,-8.381c1.397,-3.26 1.863,-6.985 1.863,-10.71c0,-7.916 -2.328,-14.435 -7.451,-19.092c-4.656,-4.19 -12.106,-6.519 -22.351,-6.519m434.914,173.221l-928.499,0l0,-246.793l928.499,0l0,246.793Zm-725.943,-123.396c0,-9.313 -1.397,-17.695 -4.656,-25.611c-3.26,-7.916 -7.451,-14.901 -13.038,-20.488c-5.588,-5.588 -12.107,-10.245 -20.023,-13.504c-7.916,-3.26 -16.763,-5.122 -26.076,-5.122c-9.313,0 -18.161,1.862 -26.077,4.656c-7.916,3.26 -14.435,7.916 -20.488,13.504c-5.588,5.588 -9.779,12.572 -13.038,20.488c-3.26,7.916 -4.657,16.298 -4.657,25.611c0,9.313 1.397,17.694 4.657,25.61c3.259,7.916 7.45,14.901 13.038,20.489c5.588,5.588 12.572,10.244 20.488,13.504c7.916,3.259 16.764,4.656 26.077,4.656c9.313,0 18.16,-1.397 26.076,-4.656c7.916,-3.26 14.435,-7.916 20.023,-13.504c5.587,-5.588 9.778,-12.573 13.038,-20.489c2.794,-7.45 4.656,-15.832 4.656,-25.144m125.259,-63.328l-20.954,0l0,82.419c0,1.863 0.466,3.725 0.466,6.053l-66.122,-84.282c-0.466,-0.931 -1.397,-1.397 -1.863,-1.862c-0.465,-0.466 -0.931,-0.931 -1.397,-0.931c-0.465,-0.466 -0.931,-0.466 -1.862,-0.466l-14.901,0l0,126.19l20.489,0l0,-83.351c0,-1.862 -0.466,-3.725 -0.466,-5.587l66.122,84.282c0.931,1.397 2.328,2.794 3.725,3.259c1.397,0.466 2.794,0.931 4.656,0.931l12.107,0l0,-126.655Zm104.771,0l-79.626,0l0,126.19l79.626,0l0,-18.626l-55.878,0l0,-35.855l44.237,0l0,-18.16l-44.237,0l0,-34.458l55.878,0l0,-19.091Zm108.495,39.114c0,-6.053 -0.931,-11.176 -2.794,-16.298c-1.862,-4.656 -4.656,-8.847 -8.847,-12.572c-3.725,-3.26 -8.847,-6.054 -14.9,-7.916c-6.054,-1.863 -13.039,-2.794 -20.955,-2.794l-37.251,0l0,126.656l17.229,0l0,-47.03l20.488,0c7.45,0 14.435,-0.932 20.023,-2.794c6.053,-1.863 10.71,-4.657 14.901,-8.382c4.19,-3.725 6.984,-7.916 8.847,-12.572c1.862,-5.123 3.259,-10.245 3.259,-16.298m93.595,73.106l-54.946,0l0,-112.22l-17.229,0l0,126.655l72.175,0l0,-14.435Zm118.275,-112.22l-17.229,0l0,76.831c0,5.122 -0.932,10.245 -2.329,14.435c-1.396,4.191 -3.725,8.382 -6.519,11.641c-2.793,3.26 -6.519,5.588 -10.244,7.451c-4.191,1.862 -8.847,2.794 -13.969,2.794c-5.122,0 -9.779,-0.932 -13.97,-2.794c-4.19,-1.863 -7.916,-4.191 -10.71,-7.451c-2.793,-3.259 -5.122,-6.984 -6.519,-11.175c-1.396,-4.191 -2.328,-9.313 -2.328,-14.435l0,-77.297l-17.229,0l0,76.831c0,7.451 0.932,13.97 3.26,20.489c2.328,6.053 5.588,11.641 10.244,16.297c4.191,4.657 9.779,8.382 15.832,10.71c6.053,2.794 13.038,3.725 20.954,3.725c7.916,0 14.901,-1.397 20.954,-3.725c6.054,-2.794 11.641,-6.053 15.832,-10.71c4.191,-4.656 7.451,-9.778 9.779,-16.297c2.328,-6.054 3.259,-13.038 3.259,-20.489l0,-76.831l0.932,0Zm101.511,88.007c0,-5.122 -0.932,-9.779 -2.794,-13.038c-1.863,-3.725 -4.191,-6.519 -6.985,-9.313c-2.794,-2.328 -6.053,-4.657 -9.779,-6.054c-3.725,-1.862 -7.45,-3.259 -11.175,-4.19c-3.725,-1.397 -7.45,-2.329 -11.176,-3.726c-3.725,-1.397 -6.984,-2.794 -9.778,-4.19c-2.794,-1.863 -5.122,-3.726 -6.985,-6.054c-1.862,-2.328 -2.794,-5.122 -2.794,-8.847c0,-2.794 0.466,-5.122 1.397,-7.916c0.931,-2.328 2.328,-4.657 4.657,-6.054c1.862,-1.862 4.656,-3.259 7.45,-4.19c2.794,-0.932 6.519,-1.397 10.244,-1.397c4.191,0 7.451,0.465 10.244,1.397c2.794,0.931 5.123,2.328 7.451,3.259c1.862,1.397 3.725,2.328 5.122,3.26c1.397,0.931 2.328,1.397 3.259,1.397c0.932,0 1.863,0 2.329,-0.466c0.465,-0.466 1.397,-0.931 1.862,-1.863l4.191,-7.916c-4.191,-4.19 -9.313,-7.45 -15.366,-9.778c-5.588,-2.328 -12.107,-3.26 -19.557,-3.26c-6.52,0 -12.107,0.932 -16.764,2.794c-4.656,1.863 -8.847,4.657 -12.107,7.916c-3.259,3.26 -6.053,6.985 -7.45,11.176c-1.862,4.191 -2.794,8.381 -2.794,13.038c0,5.588 0.932,10.244 2.794,13.969c1.863,3.725 4.191,6.985 6.985,9.313c2.794,2.328 6.053,4.657 9.778,6.054c3.726,1.396 7.451,2.793 11.176,4.19c3.725,1.397 7.45,2.329 11.175,3.726c3.726,0.931 6.985,2.328 9.779,4.19c2.794,1.863 5.122,3.726 6.985,6.054c1.862,2.328 2.794,5.588 2.794,9.313c0,3.259 -0.466,6.519 -1.863,9.313c-1.397,2.793 -2.794,5.122 -5.122,7.45c-2.328,1.863 -5.122,3.725 -7.916,4.656c-3.26,0.932 -6.985,1.863 -10.71,1.863c-5.122,0 -8.847,-0.466 -12.572,-1.863c-3.26,-1.397 -6.054,-2.793 -8.848,-4.19c-2.328,-1.397 -4.191,-3.26 -6.053,-4.191c-1.397,-1.397 -2.794,-1.863 -4.191,-1.863c-0.931,0 -1.397,0 -2.328,0.466c-0.466,0.465 -1.397,0.931 -1.863,1.397l-5.122,7.916c4.657,5.122 10.71,9.313 17.229,12.107c6.985,2.793 13.969,4.656 22.351,4.656c6.519,0 12.573,-0.931 18.16,-3.259c5.122,-1.863 9.779,-5.123 13.504,-8.382c3.725,-3.725 6.519,-7.916 8.382,-12.573c1.862,-5.587 2.794,-10.709 2.794,-16.297" style="fill:#616161;fill-rule:nonzero;"/></g></svg>