<?xml version="1.0" encoding="UTF-8" standalone="no"?><!DOCTYPE svg PUBLIC "-//W3C//DTD SVG 1.1//EN" "http://www.w3.org/Graphics/SVG/1.1/DTD/svg11.dtd"><svg width="100%" height="100%" viewBox="0 0 1911 298" version="1.1" xmlns="http://www.w3.org/2000/svg" xmlns:xlink="http://www.w3.org/1999/xlink" xml:space="preserve" xmlns:serif="http://www.serif.com/" style="fill-rule:evenodd;clip-rule:evenodd;stroke-linejoin:round;stroke-miterlimit:2;"><g id="Layer_x0020_1"><path id="path7" d="M197.497,188.08c-41.54,0 -148.058,-16.691 -148.058,-80.281c0,-44.418 66.307,-80.276 148.058,-80.276c81.752,0 147.978,35.858 147.978,80.276c0,44.281 -66.226,80.281 -147.978,80.281Zm22.285,-188.08c-121.404,0 -219.782,49.029 -219.782,109.421c0,60.523 98.378,109.496 219.781,109.496c121.294,0 219.702,-48.973 219.702,-109.496c0,-60.392 -98.408,-109.421 -219.702,-109.421l0.001,0Z" style="fill:#616161;"/><path id="path9" d="M1668.59,188.08c-41.537,0 -148.075,-16.687 -148.075,-80.281c0,-44.418 66.312,-80.276 148.075,-80.276c81.742,0 147.963,35.858 147.963,80.276c0.001,44.281 -66.221,80.281 -147.963,80.281Zm22.267,-188.08c-121.388,0 -219.771,49.029 -219.771,109.421c0,60.523 98.383,109.496 219.77,109.496c121.31,0 219.713,-48.973 219.713,-109.496c0,-60.392 -98.404,-109.421 -219.713,-109.421l0.001,0Z" style="fill:#616161;"/><path id="path11" d="M715.271,0.001c-36.549,0 -70.971,4.471 -101.296,12.321l0,27.584c22.879,-7.83 49.966,-12.382 79.012,-12.382c81.746,0 147.976,35.859 147.976,80.276c0,44.281 -66.23,80.281 -147.976,80.281c-56.287,0 -105.249,-17.075 -130.291,-42.153l0,-139.445l-77.6,0l0,291.211l77.6,0l0,-109.476c39.529,18.996 93.284,30.701 152.575,30.701c121.296,0 219.7,-48.974 219.7,-109.497c0,-60.392 -98.404,-109.421 -219.7,-109.421Z" style="fill:#616161;"/><path id="path13" d="M1210.75,0.001c-36.549,0 -70.966,4.471 -101.283,12.321l0,27.584c22.863,-7.83 49.95,-12.382 79.004,-12.382c81.751,0 147.979,35.859 147.979,80.276c0,44.281 -66.229,80.281 -147.979,80.281c-56.278,0 -105.25,-17.075 -130.295,-42.153l0,-139.445l-77.592,0l0,291.211l77.592,0l0,-109.476c39.525,18.996 93.291,30.701 152.574,30.701c121.306,0 219.704,-48.974 219.704,-109.497c0.002,-60.392 -98.4,-109.421 -219.704,-109.421Z" style="fill:#616161;"/></g></svg>