<?xml version="1.0" encoding="UTF-8" standalone="no"?><!DOCTYPE svg PUBLIC "-//W3C//DTD SVG 1.1//EN" "http://www.w3.org/Graphics/SVG/1.1/DTD/svg11.dtd"><svg width="100%" height="100%" viewBox="0 0 2030 516" version="1.1" xmlns="http://www.w3.org/2000/svg" xmlns:xlink="http://www.w3.org/1999/xlink" xml:space="preserve" xmlns:serif="http://www.serif.com/" style="fill-rule:evenodd;clip-rule:evenodd;stroke-linejoin:round;stroke-miterlimit:2;"><g id="Rectangle-" serif:id="Rectangle "><path id="path826" d="M758.311,503.164c-42.444,-4.921 -76.751,-20.6 -104.322,-47.679c-34.088,-33.48 -52.178,-78.61 -52.178,-130.174c0,-103.651 74.62,-179.656 176.211,-179.48c26.796,0.047 53.499,6.301 77.091,18.057c11.253,5.608 25.637,15.186 33.244,22.139c2.879,2.631 5.509,4.784 5.844,4.784c0.336,0 0.61,-8.775 0.61,-19.5l0,-19.5l44,0l0,347l-44,0l0,-40.168l-4.022,3.334c-29.489,24.446 -56.347,36.357 -91.952,40.781c-7.792,0.969 -33.458,1.225 -40.526,0.405l0,0.001Zm40.574,-45.935c53.186,-8.928 90.056,-46.498 100.573,-102.485c2.438,-12.978 2.502,-45.635 0.118,-58.433c-2.783,-14.919 -6.516,-26.364 -12.722,-39c-18.313,-37.29 -50.568,-59.902 -93.54,-65.574c-14.895,-1.967 -36.611,-0.709 -50.839,2.943c-41.472,10.645 -73.45,40.696 -87.929,82.631c-6.015,17.42 -7.232,25.5 -7.232,48c0,17.305 0.314,21.404 2.332,30.419c12.048,53.815 50.66,92.216 102.09,101.529c10.672,1.933 35.553,1.917 47.152,-0.035l-0.003,0.005Zm-424.306,44.544c-29.422,-3.088 -56.587,-12.636 -79.815,-28.052c-12.993,-8.623 -33.31,-29.056 -42.168,-42.41c-21.637,-32.617 -32.015,-71.762 -30.488,-115c1.388,-39.309 12.324,-72.871 33.563,-103c3.102,-4.4 11.04,-13.426 17.64,-20.058c23.554,-23.668 51.928,-38.658 86.121,-45.496c13.772,-2.754 44.587,-3.796 58.918,-1.992c65.998,8.307 115.433,52.507 132.423,118.397c4.138,16.051 5.997,29.717 6.717,49.399l0.632,17.25l-291.615,0l0.662,10.25c2.938,45.57 29.388,86.409 68.875,106.344c18.657,9.419 36.458,13.515 58.845,13.541c38.382,0.047 67.386,-11.803 91.539,-37.388c6.034,-6.392 19.652,-24.677 22.004,-29.546c0.292,-0.604 38.372,24.326 38.376,25.123c0.012,2.419 -15.599,23.186 -24.201,32.195c-31.795,33.301 -71.202,49.719 -122.295,50.95c-9.35,0.226 -20.93,-0.003 -25.732,-0.507l-0.001,0Zm137.733,-214.212c-8.281,-52.136 -43.857,-89.93 -94.001,-99.863c-10.557,-2.092 -37.85,-1.847 -48.5,0.433c-25.274,5.413 -46.353,16.355 -63.868,33.154c-18.539,17.781 -30.901,40.116 -37.513,67.776l-0.656,2.75l245.213,0l-0.675,-4.25Zm1323,214.141c-76.614,-7.138 -133.499,-59.051 -148.907,-135.891c-10.484,-52.282 -0.753,-106.811 26.252,-147.107c25.877,-38.612 62.732,-62.509 110.419,-71.596c13.472,-2.568 53.516,-2.548 66.236,0.035c31.826,6.455 58.136,20.312 80.046,42.157c31.592,31.5 48.454,76.034 48.454,127.972l0,13.536l-145.25,0.254l-145.25,0.252l0.268,8c1.058,31.503 15.949,64.447 39.31,86.967c18.119,17.467 40.103,28.531 65.75,33.093c11.395,2.026 35.882,2.023 47.342,-0.006c35.543,-6.295 61.275,-23.765 83.297,-56.553c3.14,-4.675 6.083,-8.4 6.539,-8.277c1.194,0.32 35.256,22.239 36.707,23.621c1.542,1.468 -7.835,15.61 -18.814,28.376c-35.037,40.737 -90.769,60.913 -152.4,55.171l0.001,-0.004Zm137.493,-212.641c0,-1.513 -0.881,-6.393 -1.948,-10.846c-12.023,-50.143 -47.427,-83.537 -96.545,-91.062c-18.719,-2.868 -41.056,-0.887 -60,5.321c-40.967,13.425 -72.651,47.379 -83.522,89.504c-1.087,4.216 -1.978,8.154 -1.978,8.75c0,0.772 35.073,1.083 122,1.083l122,0l-0.01,-2.75l0.003,0Zm-1960.99,35.75l0,-174l208,0l0,40.988l-163.5,0.513l-0.506,306.5l-43.993,0l-0.001,-174.001Zm1004,173l0,-486l45,0l0,486l-45,0Zm122,-173.5l0,-173.5l44,0l0.094,45.5l3.705,-4.499c12.231,-14.851 24.832,-25.3 39.1,-32.422c17.017,-8.494 31.976,-12.217 53.106,-13.217c24.376,-1.154 44.209,2.622 63.499,12.09c20.477,10.05 35.198,24.482 49.078,48.113c0.956,1.629 1.531,1.168 5.14,-4.115c18.911,-27.694 47.045,-46.012 82.282,-53.575c13.972,-2.999 44.678,-3.304 58.21,-0.579c24.746,4.983 44.232,15.041 60.35,31.149c17.161,17.152 27.704,37.807 34.169,66.943l2.688,12.112l0.326,119.751l0.326,119.749l-44.07,0l0,-106.894c0,-66.641 -0.39,-110.793 -1.039,-117.25c-4.119,-41.046 -25.367,-70.717 -58.574,-81.793c-12.803,-4.27 -26.569,-5.694 -40.472,-4.186c-42.838,4.646 -70.528,27.821 -80.201,67.123c-2.051,8.336 -2.099,10.776 -2.445,125.75l-0.353,117.25l-43.916,0l0,-104.854c0,-62.674 -0.412,-109.929 -1.024,-117.467c-4.092,-50.402 -31.762,-82.354 -75.975,-87.734c-40.328,-4.907 -82.191,18.647 -97.395,54.8c-6.345,15.088 -5.983,7.268 -6.345,137.006l-0.331,118.249l-43.93,0l0,-173.5l-0.003,0Z" style="fill:#616161;fill-rule:nonzero;"/></g></svg>