<?xml version="1.0" encoding="UTF-8" standalone="no"?><!DOCTYPE svg PUBLIC "-//W3C//DTD SVG 1.1//EN" "http://www.w3.org/Graphics/SVG/1.1/DTD/svg11.dtd"><svg width="100%" height="100%" viewBox="0 0 12992 5492" version="1.1" xmlns="http://www.w3.org/2000/svg" xmlns:xlink="http://www.w3.org/1999/xlink" xml:space="preserve" xmlns:serif="http://www.serif.com/" style="fill-rule:evenodd;clip-rule:evenodd;stroke-linejoin:round;stroke-miterlimit:2;"><g><path d="M11905.4,4010.42c-199.65,-484.375 -394.095,-954.863 -588.541,-1425.35c-182.292,1.733 -357.638,-3.475 -539.929,3.471c8.679,26.041 13.887,41.666 20.833,57.291c104.167,237.846 206.596,477.429 310.762,715.279c170.142,390.625 342.017,781.251 512.155,1173.61c39.929,93.75 38.195,93.75 -1.738,189.237c-105.9,255.209 -211.804,512.154 -317.708,767.363l506.946,0c3.47,-5.209 6.945,-12.154 8.679,-17.363c156.25,-383.679 312.5,-765.625 468.75,-1149.3c227.433,-559.029 456.6,-1118.06 684.029,-1678.82c6.946,-17.362 12.154,-34.721 19.096,-57.291l-527.775,0c-184.029,470.487 -366.321,940.97 -555.559,1421.88Z" style="fill:#616161;fill-rule:nonzero;"/><path d="M1292.57,3246.53c-12.154,92.013 -8.679,440.971 8.679,489.584l819.446,0c-5.208,17.358 -8.679,27.775 -12.154,38.191c-10.417,26.042 -19.096,53.821 -29.513,78.125c-98.958,218.75 -258.679,366.321 -496.529,421.875c-151.041,34.725 -300.346,22.571 -449.65,-22.566c-328.125,-98.959 -680.558,-425.35 -626.737,-911.459c29.512,-267.362 145.833,-484.375 361.112,-642.362c213.542,-156.25 453.125,-211.805 713.542,-145.834c187.5,46.875 338.542,151.042 460.067,298.613c34.725,41.666 64.237,86.804 100.695,133.679c140.625,-90.279 279.513,-178.821 421.875,-269.096c-12.154,-20.833 -19.095,-34.725 -27.779,-46.875c-83.333,-119.792 -178.816,-229.167 -293.4,-321.183c-354.166,-282.983 -755.208,-385.417 -1194.45,-279.513c-449.654,107.638 -767.362,380.209 -942.708,810.763c-57.292,140.625 -85.071,289.933 -98.958,440.975c-12.154,142.358 -6.946,281.25 22.571,420.137c72.916,342.013 265.625,604.167 559.025,789.93c340.279,215.279 713.541,284.725 1109.38,206.6c237.85,-46.876 444.445,-156.251 614.583,-331.601c138.892,-142.358 232.642,-312.5 291.667,-501.733c43.404,-138.892 64.237,-282.987 74.654,-427.083c5.208,-76.392 1.737,-154.517 1.737,-230.904c-65.975,-13.888 -1338.54,-12.155 -1387.15,1.737Z" style="fill:#616161;fill-rule:nonzero;"/><path d="M4620.69,2598.96l0,211.805c-22.571,-19.096 -32.987,-27.776 -45.137,-38.192c-178.821,-157.988 -392.363,-223.959 -626.738,-225.696c-111.112,0 -220.487,17.362 -326.387,52.083c-246.53,78.125 -442.709,223.959 -579.863,446.179c-144.096,234.375 -180.554,491.321 -151.042,756.946c31.25,270.834 147.571,506.946 354.167,689.238c227.429,201.387 489.583,305.554 798.613,274.304c171.875,-17.362 322.916,-79.862 456.595,-185.762c38.196,-31.251 74.655,-64.238 116.321,-100.696c3.471,83.333 -1.737,163.195 5.209,246.529c171.875,-1.738 335.066,3.471 496.525,-3.475c13.891,-69.442 12.154,-2081.6 0,-2130.21c-74.65,-13.887 -451.388,-10.416 -498.263,6.946Zm-64.237,1418.4c-92.013,168.4 -237.846,256.941 -425.346,286.458c-100.696,15.625 -197.917,12.15 -295.138,-12.154c-210.071,-50.346 -348.958,-178.821 -414.933,-381.946c-67.708,-210.067 -48.608,-416.667 65.975,-607.638c118.054,-196.179 295.137,-293.404 531.25,-289.929c303.817,-6.946 527.775,197.917 598.958,487.846c45.138,180.554 29.513,354.167 -60.766,517.363Z" style="fill:#616161;fill-rule:nonzero;"/><path d="M7938.4,2586.8l0,232.642c-79.862,-83.334 -163.195,-142.363 -256.945,-184.029c-178.817,-79.863 -362.846,-105.905 -557.292,-78.125c-232.638,32.987 -435.763,125 -605.9,288.195c-210.071,201.388 -303.821,454.859 -319.446,739.584c-12.154,234.375 32.988,458.333 161.458,657.983c232.638,364.583 560.763,555.559 1003.47,522.571c180.559,-13.888 338.542,-86.804 475.696,-203.125c31.25,-26.042 60.763,-53.821 100.696,-90.279l0,244.792c79.858,13.891 451.387,10.416 498.262,-3.471l0,-2128.47c-170.137,0 -331.595,-1.738 -500,1.733Zm-45.137,1387.15c-69.446,152.779 -182.292,255.209 -342.017,305.555c-157.983,50.35 -315.971,48.612 -470.483,-8.68c-185.767,-67.708 -300.35,-201.387 -354.167,-387.154c-52.083,-182.292 -34.725,-361.108 48.609,-531.25c97.225,-199.65 288.195,-345.483 555.558,-338.542c310.762,-8.679 546.875,206.6 609.375,513.892c29.512,152.775 19.096,302.083 -46.875,446.179Z" style="fill:#616161;fill-rule:nonzero;"/><path d="M10749.2,2592.01c-20.833,-3.471 -31.25,-6.942 -41.666,-6.942c-168.4,0 -338.542,0 -506.942,-1.738c-36.458,0 -53.821,17.363 -72.917,43.404c-138.891,190.971 -277.779,381.942 -418.404,572.917c-10.416,15.625 -24.304,29.513 -38.196,45.138c-13.887,-17.363 -22.566,-31.25 -32.983,-45.138c-138.892,-190.975 -277.779,-381.946 -414.933,-574.654c-20.834,-29.513 -43.4,-43.404 -79.859,-41.667c-166.666,1.738 -333.333,0 -501.737,1.738c-15.625,0 -31.25,5.208 -57.292,8.679c260.417,355.904 513.888,704.862 770.834,1057.29c-265.625,354.166 -529.513,708.333 -800.346,1069.45l623.262,0c159.721,-225.696 322.917,-453.125 486.113,-684.03c17.358,22.571 31.25,39.93 45.137,59.03c144.096,192.708 288.196,385.416 430.554,579.858c26.042,36.458 55.559,52.083 102.434,50.35c163.191,-3.475 324.65,-1.738 487.846,-1.738c17.362,0 36.458,-1.737 64.237,-5.208c-274.308,-359.375 -539.933,-711.804 -807.292,-1064.24c253.471,-354.167 508.68,-703.125 762.15,-1062.5Z" style="fill:#616161;fill-rule:nonzero;"/><path d="M5957.49,2034.72c-1.734,-1.733 -3.471,-3.471 -5.209,-5.208c-72.916,-10.417 -458.333,-8.68 -506.941,3.475l0,2687.5l512.15,0c3.475,-12.155 5.208,-19.1 5.208,-26.042l0,-2628.47c0,-8.679 -1.733,-17.358 -3.471,-26.042c1.738,-1.733 0,-3.471 -1.737,-5.208Z" style="fill:#616161;fill-rule:nonzero;"/><path d="M2915.83,1204.86l0,-961.809c41.666,159.725 71.183,321.183 102.433,480.904c31.25,159.721 55.554,321.179 93.75,479.167l291.667,0c60.762,-326.387 119.791,-649.304 180.554,-973.958c5.208,19.095 5.208,39.929 5.208,59.029c5.208,288.192 8.679,576.387 13.888,864.583c0,15.625 3.475,32.984 6.945,50.346l286.459,0c12.154,-62.5 -20.834,-1090.28 -36.459,-1163.2c-67.708,-12.15 -409.72,-10.416 -460.07,3.475c-46.875,288.192 -92.013,576.388 -140.625,876.734c-53.817,-302.084 -93.75,-595.484 -144.096,-881.942c-114.584,-13.892 -428.821,-8.683 -472.221,5.208c-24.308,237.846 -36.458,1100.69 -15.625,1161.46l288.192,0Z" style="fill:#616161;fill-rule:nonzero;"/><path d="M6393.28,1194.45c0,1.733 1.734,3.471 3.471,5.208c1.738,1.734 3.471,3.471 8.679,8.679c41.667,0 86.809,1.738 131.946,0c45.138,-1.737 90.279,6.946 140.625,-6.945c-5.208,-303.817 -8.679,-604.167 -13.887,-904.513c3.471,0 5.208,0 8.679,-1.737c97.221,303.82 194.446,607.641 289.929,911.458l401.042,0c13.891,-74.65 10.416,-1119.79 -1.734,-1168.4l-276.041,0l0,873.262c-86.809,-293.404 -173.613,-583.333 -258.684,-869.791c-92.012,-12.154 -388.887,-8.679 -434.025,5.208c-1.737,12.154 -3.475,24.304 -3.475,38.196l0,1100.69c1.738,0 3.475,3.475 3.475,8.683Z" style="fill:#616161;fill-rule:nonzero;"/><path d="M6087.69,39.929c-76.387,-12.15 -267.358,-8.679 -319.442,5.209l0,815.975c0,27.774 0,57.291 -3.475,85.066c-5.208,45.142 -32.983,72.917 -74.65,78.125c-50.35,6.946 -88.541,-13.887 -102.433,-59.025c-8.679,-27.779 -12.15,-59.029 -12.15,-88.542c-1.737,-255.208 0,-512.154 0,-767.362c0,-22.571 -1.737,-46.875 -3.475,-71.179l-321.179,0c-1.738,15.625 -5.208,24.304 -5.208,32.983c0,277.779 -1.738,555.559 0,831.6c1.737,125 65.97,218.75 175.345,276.042c131.946,69.442 274.309,74.65 416.667,38.192c163.196,-43.4 253.475,-163.192 253.475,-333.334c1.733,-262.15 0,-524.304 0,-786.458c1.733,-20.834 -1.737,-39.929 -3.475,-57.292Z" style="fill:#616161;fill-rule:nonzero;"/><path d="M8247.44,20.833c-59.029,-12.154 -119.792,-15.625 -180.558,-17.362c-46.875,0 -95.484,5.208 -140.625,15.625c-173.609,39.933 -267.359,156.25 -269.096,333.333c-1.738,177.084 -1.738,355.904 0,532.988c1.737,145.833 67.708,241.321 208.333,286.458c144.096,46.875 289.929,46.875 434.029,1.737c111.109,-32.987 173.609,-111.112 178.817,-229.166c5.208,-123.267 5.208,-246.529 6.946,-369.792c0,-12.154 -5.208,-24.308 -6.946,-34.725c-64.233,-15.625 -366.317,-13.887 -420.137,3.475c-3.471,53.817 -8.68,109.375 3.47,166.667c38.196,1.733 74.655,5.208 112.85,6.941c0,71.184 1.734,135.417 0,201.392c-1.737,50.346 -27.779,74.65 -78.125,79.858c-17.362,1.738 -34.725,1.738 -52.083,0c-45.142,-3.47 -69.446,-27.775 -76.392,-74.65c-1.733,-15.625 -1.733,-29.516 -1.733,-45.141l0,-513.888c0,-26.041 1.733,-52.083 8.679,-76.387c10.417,-43.404 39.929,-64.238 85.071,-67.709c64.233,-5.208 102.429,26.042 111.108,90.275c3.475,31.25 6.946,62.5 10.417,98.959c104.167,0 199.654,5.208 303.821,-5.209c5.208,-72.916 -6.946,-135.416 -27.779,-194.441c-32.984,-102.434 -104.167,-168.404 -210.067,-189.238Z" style="fill:#616161;fill-rule:nonzero;"/><path d="M1770,1203.12c50.35,-326.387 102.434,-652.779 152.779,-977.429l10.417,0c46.875,324.65 95.488,651.042 144.096,980.9c105.904,0 204.862,3.475 302.083,-1.734c5.209,-57.291 -173.608,-1079.86 -201.387,-1166.67c-79.863,-13.892 -479.167,-8.684 -520.834,5.208c-104.166,531.25 -201.387,1104.17 -194.445,1157.98c98.958,1.738 199.654,1.738 307.291,1.738Z" style="fill:#616161;fill-rule:nonzero;"/><path d="M697.082,1222.22c93.75,20.833 190.975,19.1 284.725,6.946c79.858,-8.679 154.512,-41.667 211.804,-104.167c86.804,-97.221 142.362,-328.125 -12.154,-473.958c-50.346,-46.875 -109.375,-85.071 -166.667,-123.263c-55.554,-36.458 -118.054,-65.975 -173.608,-100.696c-29.517,-19.095 -55.559,-41.666 -78.125,-67.708c-24.309,-27.779 -27.78,-64.237 -12.155,-98.958c15.625,-36.459 48.613,-53.821 88.542,-55.554c62.5,-1.738 104.167,36.458 109.375,104.166c1.738,24.304 1.738,50.346 3.471,74.65c92.017,12.154 250,8.684 293.404,-5.208c34.721,-217.013 -85.071,-366.317 -303.821,-373.263c-53.816,-1.737 -109.375,-3.47 -163.191,1.738c-50.35,3.471 -100.696,12.15 -147.571,27.775c-81.596,27.779 -145.834,81.6 -173.613,164.933c-46.875,140.625 -24.304,289.929 105.904,385.417c52.084,38.192 109.375,69.442 164.93,102.429c52.083,31.25 105.904,59.029 157.987,92.013c36.458,24.308 65.971,55.558 81.596,98.958c22.571,64.237 -5.208,126.737 -65.971,149.308c-57.292,20.834 -121.529,-15.625 -142.362,-79.862c-3.471,-10.417 -5.209,-20.834 -5.209,-31.25l0,-111.113l-317.708,0c-32.983,177.084 50.35,368.059 260.417,416.667Z" style="fill:#616161;fill-rule:nonzero;"/><path d="M4443.61,1222.22c111.112,24.308 223.958,24.308 335.071,-5.208c265.625,-71.18 300.345,-423.609 144.095,-562.5c-52.083,-46.875 -112.845,-86.805 -171.875,-126.734c-55.554,-36.458 -118.054,-65.975 -173.612,-102.433c-29.513,-19.096 -60.763,-45.138 -79.858,-74.65c-41.667,-60.767 -3.475,-137.154 67.708,-145.833c64.233,-8.684 114.583,31.25 121.525,97.22c1.737,27.78 1.737,55.555 3.475,81.596c100.692,12.154 251.733,8.684 300.346,-8.679l0,-81.596c-3.471,-142.362 -79.863,-243.058 -220.488,-274.308c-118.054,-26.042 -237.846,-24.304 -354.166,1.737c-116.317,26.042 -201.388,95.488 -227.43,215.28c-27.779,123.262 -10.416,239.583 92.013,326.387c50.35,43.404 109.375,78.125 164.933,112.846c52.084,31.25 105.9,57.292 157.984,88.542c45.141,26.041 83.333,62.5 102.433,114.583c17.358,46.875 3.471,102.433 -31.25,130.208c-36.458,29.517 -86.808,32.988 -126.738,6.946c-34.72,-22.571 -53.82,-57.292 -53.82,-98.958c-1.734,-36.459 0,-72.917 0,-112.846l-326.388,0c0,29.512 -1.737,52.083 0,74.65c13.888,203.125 107.638,307.292 276.042,343.75Z" style="fill:#616161;fill-rule:nonzero;"/></g></svg>