<svg id="Samsung_Galaxy" xmlns="http://www.w3.org/2000/svg" width="82.799" height="34.985" viewBox="0 0 82.799 34.985">
  <path id="path2997" d="M30.352,417.75l-2.676,1.709a5.593,5.593,0,0,0-10.493,2.822c-.106,5.591,8.546,8.215,10.414,1.934H22.243V421.1h8.811c.715,13.461-16.456,11.739-17,1.974S25.277,409.947,30.352,417.75Z" transform="translate(-14.038 -400.52)" fill="#535353"/>
  <path id="path3792" d="M598.908,517.076a6.673,6.673,0,0,0-6.731,6.558c-.331,6.585,7.195,9.977,11.076,5.591v1.683h3.167V517.328h-3.167v1.51A5.754,5.754,0,0,0,598.908,517.076Zm.437,2.9c5.141,0,5.618,8.36,0,8.36S594.192,519.978,599.346,519.978Z" transform="translate(-573.784 -500.866)" fill="#535353"/>
  <path id="path3796" d="M1105.83,411.667v17.171h3.259V411.693Z" transform="translate(-1071.113 -398.809)" fill="#535353"/>
  <path id="path3792-7" d="M1263.491,517.076a6.673,6.673,0,0,0-6.731,6.558c-.331,6.585,7.194,9.977,11.077,5.591v1.683H1271V517.328h-3.166v1.51A5.735,5.735,0,0,0,1263.491,517.076Zm.437,2.9c5.141,0,5.618,8.36,0,8.36S1258.788,519.978,1263.929,519.978Z" transform="translate(-1217.234 -500.866)" fill="#535353"/>
  <path id="path3819" d="M1729.755,524.6l4.942,6.757-5.114,6.81h3.909l3.14-4.412,3.312,4.412h3.882l-5.168-6.784,4.876-6.8H1739.8l-3.114,4.253-3.087-4.24Z" transform="translate(-1675.031 -508.134)" fill="#535353"/>
  <path id="path3821" d="M2174.58,525l5.644,12.958-2.305,5.565h3.193L2188.677,525h-3.339l-3.564,9.129L2178,525Z" transform="translate(-2105.878 -508.538)" fill="#535353"/>
  <path id="path3869" d="M99.769,12.382h2.04c-.384,1.881,1.471,1.815,1.444.755-.026-1.577-3.432-1.4-3.432-3.776,0-2.107,2.173-2.054,2.544-2.054s2.9-.252,2.57,2.425h-1.881c.331-1.471-1.285-1.484-1.351-.609-.106,1.259,3.458,1.444,3.418,3.736a2.228,2.228,0,0,1-2.6,2.252A2.373,2.373,0,0,1,99.769,12.382Z" transform="translate(-97.035 -7.302)" fill="#535353"/>
  <path id="path3869-4" d="M849.352,12.382h2.04c-.384,1.881,1.471,1.815,1.444.755-.026-1.577-3.431-1.4-3.431-3.776,0-2.107,2.173-2.054,2.544-2.054s2.9-.252,2.57,2.425h-1.881c.331-1.471-1.285-1.5-1.351-.609-.093,1.259,3.458,1.444,3.418,3.736a2.228,2.228,0,0,1-2.6,2.252A2.367,2.367,0,0,1,849.352,12.382Z" transform="translate(-822.783 -7.302)" fill="#535353"/>
  <path id="path3889" d="M306.312,13.333,305,20.753h1.987l1.034-6.651.967,6.651h1.948l-1.325-7.42Z" transform="translate(-295.748 -13.141)" fill="#535353"/>
  <path id="path3891" d="M538.076,13.333l-.159,7.42h1.868l.053-6.519,1.232,6.519h1.842l1.219-6.585.119,6.585h1.855l-.225-7.42h-2.928l-.941,5.869-.927-5.869Z" transform="translate(-521.258 -13.141)" fill="#535353"/>
  <path id="path3903" d="M1066.25,13.333v5.5c0,1.219,1.06,2.12,2.716,2.12s2.6-.888,2.6-2.12v-5.5h-1.974v5.5c0,.6-.278.835-.636.835s-.676-.225-.676-.835v-5.5Z" transform="translate(-1032.791 -13.141)" fill="#535353"/>
  <path id="path3905" d="M1295.42,13.333v7.42h1.788l-.066-6.108,1.948,6.108h2.583v-7.42h-1.841l.066,5.843-1.749-5.843Z" transform="translate(-1254.674 -13.141)" fill="#535353"/>
  <path id="path3909" d="M1554.8,13.184V10.892h-2.663v1.073h.8v1.219a.64.64,0,0,1-.729.689.6.6,0,0,1-.689-.689v-3.5c0-.49.159-.861.7-.861s.7.344.7,1.206h1.908c.026-2.332-1.471-2.531-2.637-2.531s-2.61.464-2.61,2.2v3.5c0,1.179.888,1.921,2.65,1.921S1554.8,14.549,1554.8,13.184Z" transform="translate(-1500.755 -7.494)" fill="#535353"/>
</svg>
