<?xml version="1.0" encoding="UTF-8" standalone="no"?><!DOCTYPE svg PUBLIC "-//W3C//DTD SVG 1.1//EN" "http://www.w3.org/Graphics/SVG/1.1/DTD/svg11.dtd"><svg width="100%" height="100%" viewBox="0 0 2084 374" version="1.1" xmlns="http://www.w3.org/2000/svg" xmlns:xlink="http://www.w3.org/1999/xlink" xml:space="preserve" xmlns:serif="http://www.serif.com/" style="fill-rule:evenodd;clip-rule:evenodd;stroke-linejoin:round;stroke-miterlimit:2;"><path id="path4258" d="M743.4,369.488c-75.167,0 -144.942,-22.542 -191.517,-64.346c-35.187,-31.584 -52.096,-74.484 -52.096,-118.638c0,-43.616 17.638,-86.812 52.092,-118.229c43.254,-39.421 119.621,-64.108 191.521,-64.108c79.567,0 143.25,20.041 191.933,64.216c34.638,31.434 51.384,74.438 51.384,118.125c0,42.346 -17.771,87.442 -51.384,118.634c-45.333,42.075 -116.575,64.346 -191.933,64.346l0,-48.184c39.896,0 76.904,-13.775 102.75,-39.491c25.667,-25.542 37.625,-56.938 37.625,-95.309c0,-36.758 -12.9,-71.125 -37.625,-95.5c-25.5,-25.116 -63.392,-39.25 -102.75,-39.25c-39.479,0 -77.396,13.988 -102.917,39.25c-24.591,24.367 -37.525,58.834 -37.525,95.5c0,36.554 13.084,71 37.525,95.313c25.542,25.408 63.325,39.491 102.917,39.491l0,48.184l0,-0.004Zm-549.392,-365.146c-40.208,0 -85.887,7.521 -124.7,24.854c-35.821,15.983 -65.141,41.833 -65.141,84.687c-0.017,38.596 24.512,61.2 23.845,60.575c10.434,9.605 27.23,25.959 71.142,35.563c19.625,4.292 61.583,10.883 103.367,15.25c41.475,4.375 82.292,8.533 98.916,12.742c13.209,3.362 35.396,7.941 35.396,32.833c0,24.792 -23.375,32.358 -27.437,34c-4.058,1.604 -32.1,14.471 -82.508,14.471c-37.217,0 -81.959,-11.192 -98.267,-17.025c-18.8,-6.692 -38.521,-15.542 -56.917,-38.013c-4.575,-5.571 -11.791,-20.891 -11.791,-36.062l-45.621,0l0,127.833l50.708,0l0,-17.271c0,-1.966 2.458,-10.054 10.971,-6.208c10.591,4.812 41.683,17.192 74.191,23.979c26.655,5.575 43.842,9.571 76.98,9.571c54.066,0 83.112,-8.808 103.191,-14.542c18.917,-5.416 42.292,-15.141 61.279,-30.283c10.284,-8.188 32.834,-29.175 32.834,-67.271c0,-36.567 -19.625,-59.262 -26.529,-66.167c-9.405,-9.408 -20.892,-16.7 -32.863,-22.32c-10.429,-4.909 -26.887,-10.805 -40.354,-14.1c-26.138,-6.417 -85.238,-14.334 -113.5,-17.292c-29.638,-3.096 -81.05,-7.354 -101.583,-13.708c-6.225,-1.93 -18.917,-7.975 -18.917,-22.709c0,-10.479 5.804,-19.362 17.275,-26.541c18.208,-11.409 54.987,-18.5 93.325,-18.5c45.325,-0.167 83.708,10.195 108.125,21.112c8.304,3.708 18.021,9.033 25.737,15.333c8.709,7.1 20.934,21.855 25.355,42.434l40.958,0l0,-111.275l-45.733,0l0,12.933c0,4.175 -4.313,9.6 -12.467,5.117c-20.467,-10.738 -78.333,-33.904 -149.275,-34m1002.23,20.221l223.092,201.333l-2.292,-135.554c-0.225,-17.775 -3.5,-25.196 -22.725,-25.196l-41.946,0l0,-40.55l190.75,0l0,40.55l-40.916,0c-19.609,0 -20.846,6.271 -21.084,25.196l3.459,259.012l-65.325,0l-256.959,-229.333l0.055,162.758c0.225,17.692 1.054,26.025 19.283,26.025l45.812,0l0,40.534l-187.333,0l0,-40.53l43.792,0c16.358,0 15.708,-15.595 15.708,-26.95l0,-189.975c0,-12.262 -1.721,-26.708 -27.404,-26.708l-35.533,0l0,-40.612l159.566,0Zm564.85,284.166c1.792,0 9.75,-0.229 11.292,-0.7c4.404,-1.375 7.392,-4.516 8.775,-7.791c0.583,-1.375 0.875,-7.459 0.875,-8.78l0.033,-64.083c0,-1.542 -0.112,-2.208 -2.729,-5.642c-2.875,-3.75 -116.854,-132.916 -122.071,-138.604c-6.479,-7.062 -17.854,-17.979 -35.137,-17.979l-39.638,0l0,-40.567l223.696,0l0,40.517l-26.967,0c-6.237,0 -10.383,5.917 -5.054,12.492c0,0 75.263,90.029 75.975,90.971c0.7,0.958 1.3,1.187 2.259,0.312c0.941,-0.896 77.15,-90.458 77.75,-91.167c3.625,-4.341 1.166,-12.562 -6.646,-12.562l-27.663,0l0,-40.563l183.334,0l0,40.563l-40.959,0c-14.858,0 -20.904,2.75 -32.083,15.387c-5.112,5.784 -120.308,137.271 -123.442,140.834c-1.641,1.862 -1.5,4.458 -1.5,6l0,64.075c0,1.3 0.292,7.391 0.875,8.758c1.388,3.292 4.392,6.433 8.792,7.792c1.542,0.475 9.392,0.708 11.179,0.708l41.896,0l0,40.558l-222.542,0l0,-40.562l39.709,0.033l-0.009,0Z" style="fill:#616161;fill-rule:nonzero;"/></svg>