<?xml version="1.0" encoding="UTF-8" standalone="no"?><!DOCTYPE svg PUBLIC "-//W3C//DTD SVG 1.1//EN" "http://www.w3.org/Graphics/SVG/1.1/DTD/svg11.dtd"><svg width="100%" height="100%" viewBox="0 0 900 512" version="1.1" xmlns="http://www.w3.org/2000/svg" xmlns:xlink="http://www.w3.org/1999/xlink" xml:space="preserve" xmlns:serif="http://www.serif.com/" style="fill-rule:evenodd;clip-rule:evenodd;stroke-linejoin:round;stroke-miterlimit:2;"><g><path d="M342.468,158.98c-8.961,32.727 -23.043,87.272 -37.125,134.835c-7.681,26.182 -16.216,54.981 -21.764,68.072c-6.401,15.273 -21.336,25.309 -38.406,25.309c-17.069,0 -32.005,-10.036 -38.406,-25.309c-6.827,-17.018 -21.336,-65.454 -26.884,-82.908c-2.133,-6.982 -8.108,-10.909 -15.789,-10.909c-7.254,0 -13.228,3.927 -15.789,10.909c-5.974,17.454 -16.216,65.454 -22.617,82.908c-5.547,14.836 -19.203,25.309 -35.418,25.309c-16.216,0 -28.592,-10.909 -34.566,-25.309c-3.414,-8.291 -49.928,-126.98 -52.061,-132.653c-1.28,-3.927 -2.987,-7.854 -2.987,-12.218c0,-14.4 11.095,-26.182 25.177,-26.182c11.522,0 21.337,7.855 23.897,18.328c5.547,21.381 22.19,93.817 24.324,101.235c1.707,7.418 8.534,13.091 16.216,13.091c7.681,0 14.508,-5.673 16.215,-13.091c-0.426,1.309 27.738,-112.144 33.285,-129.599c3.414,-10.472 12.802,-18.327 23.898,-18.327c11.095,0 20.909,7.855 23.897,18.327c3.413,10.036 29.444,100.799 37.552,129.599c2.134,7.418 8.535,13.091 16.216,13.091c7.681,0 14.509,-5.673 16.216,-13.091c9.388,-40.582 35.418,-164.944 35.418,-164.944c2.134,-12.218 12.376,-21.818 24.751,-21.818c14.082,0 25.177,11.782 25.177,26.182c0.854,3.491 0.427,6.109 -0.427,9.163" style="fill:#00b2a9;fill-rule:nonzero;"/><path d="M402.638,162.908c-21.337,0 -21.337,19.636 -21.337,35.345l0,153.598c0,15.709 0,34.909 21.337,34.909c21.336,0 21.336,-19.637 21.336,-34.909l0,-153.598c0,-14.837 0,-35.345 -21.336,-35.345" style="fill:#00b2a9;fill-rule:nonzero;"/><path d="M794.378,163.344c-61.876,0 -104.549,46.254 -104.549,111.708c0,68.508 40.113,110.835 104.549,110.835c65.717,0 104.55,-41.454 104.55,-110.835c0,-66.763 -41.82,-111.708 -104.55,-111.708m0,36.654c30.725,0 61.876,28.363 61.876,75.49c0,54.981 -33.285,74.617 -61.876,74.617c-28.591,0 -61.876,-19.636 -61.876,-74.617c-0.427,-47.563 31.151,-75.49 61.876,-75.49Z" style="fill:#00b2a9;fill-rule:nonzero;"/><path d="M629.659,376.287c1.707,2.182 3.414,3.927 5.121,5.673c8.535,8.727 23.471,6.109 31.152,-3.928c6.827,-8.727 5.974,-21.381 -0.854,-29.672c0,0 -58.889,-65.89 -61.023,-68.072c-2.133,-2.182 -4.267,-6.545 -4.267,-11.782c0,-5.236 3.414,-10.472 5.548,-12.654c23.043,-27.491 42.246,-50.181 42.246,-50.181c8.535,-10.037 20.057,-23.564 5.974,-36.654c-14.508,-13.528 -25.604,-0.437 -34.565,10.036c0,0 -18.349,21.381 -21.763,25.309c-3.414,3.927 -9.815,11.345 -9.815,11.345c-13.656,15.272 -21.337,22.691 -28.164,26.181c-3.841,2.182 -10.669,3.928 -18.777,-1.745c-2.987,-2.618 -5.974,-6.982 -5.974,-13.963l0,-27.927c0,-14.837 0,-35.345 -21.763,-35.345c-21.764,0 -21.764,19.636 -21.764,35.345l0,153.162c0,14.836 0,35.345 21.764,35.345c21.763,0 21.763,-19.637 21.763,-35.345l0,-36.655c0,-9.163 0,-15.709 3.414,-20.072c4.267,-5.673 9.388,-6.546 14.509,-6.546c5.547,0 10.241,4.364 13.655,8.291c3.414,4.364 15.363,18.764 26.458,32.291l37.125,47.563Z" style="fill:#00b2a9;fill-rule:nonzero;"/></g></svg>