<?xml version="1.0" encoding="UTF-8" standalone="no"?><!DOCTYPE svg PUBLIC "-//W3C//DTD SVG 1.1//EN" "http://www.w3.org/Graphics/SVG/1.1/DTD/svg11.dtd"><svg width="100%" height="100%" viewBox="0 0 834 834" version="1.1" xmlns="http://www.w3.org/2000/svg" xmlns:xlink="http://www.w3.org/1999/xlink" xml:space="preserve" xmlns:serif="http://www.serif.com/" style="fill-rule:evenodd;clip-rule:evenodd;stroke-linejoin:round;stroke-miterlimit:2;"><g><g><g><path d="M801.595,833.273l-770.036,0c-17.472,0 -31.635,-14.163 -31.635,-31.637l0,-770.09c0,-17.473 14.163,-31.628 31.635,-31.628l770.036,0c17.472,0 31.635,14.155 31.635,31.628l0,770.09c0,17.474 -14.163,31.637 -31.635,31.637" style="fill:#ff6700;"/><g><path d="M653.35,262.024l-65.558,0c-2.807,0 -5.08,2.233 -5.08,4.984l0,299.135c0,2.727 2.273,4.96 5.08,4.96l65.558,0c2.783,0 5.088,-2.233 5.088,-4.96l0,-299.135c0,-2.751 -2.305,-4.984 -5.088,-4.984" style="fill:#fff;fill-rule:nonzero;"/><path d="M429.507,262.024l-249.719,0c-2.807,0 -5.064,2.233 -5.064,4.984l0,299.135c0,2.727 2.257,4.96 5.064,4.96l65.574,0c2.791,0 5.103,-2.233 5.103,-4.96l0,-234.776c0,-2.712 2.257,-4.961 5.064,-4.961l141.251,0c39.721,0 50.997,30.425 50.997,50.051l0,189.686c0,2.727 2.281,4.96 5.088,4.96l65.534,0c2.791,0 5.079,-2.233 5.079,-4.96l0,-212.207c0,-17.505 -2.105,-42.674 -24.689,-64.829c-23.628,-23.127 -45.183,-27.083 -69.282,-27.083" style="fill:#fff;fill-rule:nonzero;"/><path d="M383.575,381.17l-68.844,0c-2.807,0 -5.111,2.233 -5.111,4.969l0,180.028c0,2.719 2.304,4.952 5.111,4.952l68.844,0c2.783,0 5.063,-2.233 5.063,-4.952l0,-180.028c0,-2.736 -2.28,-4.969 -5.063,-4.969" style="fill:#fff;fill-rule:nonzero;"/></g></g></g></g></svg>