<?xml version="1.0" encoding="UTF-8" standalone="no"?><!DOCTYPE svg PUBLIC "-//W3C//DTD SVG 1.1//EN" "http://www.w3.org/Graphics/SVG/1.1/DTD/svg11.dtd"><svg width="100%" height="100%" viewBox="0 0 1334 645" version="1.1" xmlns="http://www.w3.org/2000/svg" xmlns:xlink="http://www.w3.org/1999/xlink" xml:space="preserve" xmlns:serif="http://www.serif.com/" style="fill-rule:evenodd;clip-rule:evenodd;stroke-linejoin:round;stroke-miterlimit:2;"><g id="Ebene-1" serif:id="Ebene 1"><path id="path3722" d="M38.344,643.692c-13.952,-1.81 -26.691,-10.641 -33.189,-23.006c-6.257,-11.907 -6.857,-26.394 -1.585,-38.25c0.937,-2.108 45.536,-72.648 99.108,-156.757c53.573,-84.108 117.172,-183.962 141.331,-221.897c24.16,-37.935 44.674,-70.811 45.587,-73.058c3.377,-8.313 2.625,-18.584 -1.945,-26.571c-2.446,-4.277 -8.362,-10.06 -12.395,-12.117c-7.236,-3.692 -2.975,-3.556 -112.284,-3.569c-113.159,0 -106.436,0.27 -117.049,-4.961c-18.58,-9.159 -28.437,-31.644 -22.591,-51.534c3.269,-11.126 12.547,-22.332 22.567,-27.258c10.418,-5.122 -5.505,-4.749 194.167,-4.548l179.61,0.18l4.529,1.549c13.501,4.619 24.542,15.792 28.761,29.105c1.239,3.912 1.545,6.531 1.544,13.238c-0.002,9.131 -1.375,14.9 -5.057,21.249c-1,1.724 -65.142,102.519 -142.537,223.987c-77.395,121.469 -141.327,222.225 -142.069,223.903c-1.754,3.961 -2.356,12.676 -1.215,17.579c2.172,9.33 8.572,17.235 17.344,21.425l5.307,2.534l115.303,0.36c128.835,0.402 117.948,-0.053 128.889,5.384c6.918,3.437 14.672,11.09 18.322,18.083c10.784,20.663 4.676,45.126 -14.464,57.928c-5.9,3.946 -11.711,6.082 -19.186,7.05c-6.442,0.835 -370.358,0.806 -376.803,-0.033l0,0.005Zm952.412,-0.29c-5.697,-1.04 -13.897,-4.665 -18.498,-8.177c-4.728,-3.611 -10.039,-10.102 -12.672,-15.49c-4.921,-10.069 -4.527,17.143 -4.33,-299.289l0.179,-285.96l1.901,-5.209c2.369,-6.492 7.185,-13.623 12.299,-18.21c4.696,-4.213 14.828,-9.295 20.588,-10.327c2.835,-0.507 51.338,-0.74 154.381,-0.74c147.343,0 150.35,0.033 155.628,1.376c8.152,2.085 13.18,5.065 19.962,11.834c4.564,4.555 6.554,7.173 8.492,11.174c5.126,10.584 5.954,22.873 2.278,33.825c-2.34,6.97 -4.566,10.693 -9.628,16.104c-5.269,5.633 -11.227,9.524 -18.251,11.918l-5.573,1.901l-103.459,0.355c-97.998,0.336 -103.662,0.423 -107.291,1.635c-15.383,5.136 -27.519,17.899 -30.979,32.576c-1.556,6.599 -1.566,113.724 -0.013,120.317c3.733,15.837 16.616,28.754 32.808,32.896c5.198,1.329 8.068,1.374 88.69,1.386c93.088,0 88.464,-0.22 98.97,4.96c10.596,5.224 19.196,15.589 22.752,27.424c2.016,6.708 1.717,18.655 -0.645,25.778c-4.298,12.959 -15.277,23.963 -28.354,28.415l-4.528,1.542l-174.174,0.697l-6.004,2.15c-11.77,4.213 -20.655,11.891 -25.733,22.234c-5.029,10.247 -4.84,7.5 -4.84,70.053c0,53.261 0.07,56.448 1.348,61.445c4.057,15.861 15.84,27.598 32.442,32.315c3.862,1.097 11.594,1.174 101.717,1.01c69.64,-0.127 99.312,0.05 103.742,0.614c19.441,2.479 34.502,16.234 38.333,35.008c1.382,6.77 1.383,11.065 0.007,17.733c-3.291,15.935 -14.23,28.212 -29.858,33.511l-5.628,1.908l-150.486,0.117c-122.71,0.097 -151.425,-0.053 -155.573,-0.81l0,0.001Zm-294.84,-0.137c-3.816,-0.638 -11.038,-3.291 -15.328,-5.631c-5.975,-3.26 -15.685,-12.961 -18.986,-18.969c-1.368,-2.491 -3.221,-6.723 -4.117,-9.405l-1.629,-4.877l-0.362,-239.315c-0.33,-217.848 -0.462,-239.637 -1.488,-242.911c-4.966,-15.848 -14.608,-26.096 -29.508,-31.361l-5.567,-1.968l-47.375,-0.377c-43.34,-0.345 -47.702,-0.485 -51.208,-1.646c-15.716,-5.203 -27.236,-17.56 -30.675,-32.904c-1.077,-4.806 -0.883,-15.955 0.363,-20.808c3.58,-13.953 14.011,-25.318 28.222,-30.748l5.226,-1.997l178.702,-0.2c126.07,-0.14 180.036,0.034 183.231,0.558c6.098,1.017 16.068,5.951 21.042,10.413c5.227,4.688 10.332,12.432 12.441,18.872c1.466,4.476 1.698,6.486 1.687,14.596c-0.01,8.05 -0.246,10.058 -1.629,13.934c-4.661,13.062 -15.392,23.559 -28.664,28.04c-4.435,1.497 -5.509,1.537 -51.904,1.926c-52.726,0.443 -49.806,0.177 -59.866,5.435c-9.981,5.218 -18.108,15.134 -22.089,26.953c-0.777,2.307 -1,43.995 -1.295,242.102c-0.339,227.156 -0.42,239.527 -1.601,243.495c-5.414,18.184 -18.718,31.542 -35.754,35.899c-5.079,1.299 -16.621,1.77 -21.869,0.893l0,0.001Z" style="fill:#00bffe;fill-rule:nonzero;"/></g></svg>