<?xml version="1.0" encoding="UTF-8" standalone="no"?><!DOCTYPE svg PUBLIC "-//W3C//DTD SVG 1.1//EN" "http://www.w3.org/Graphics/SVG/1.1/DTD/svg11.dtd"><svg width="100%" height="100%" viewBox="0 0 2481 3508" version="1.1" xmlns="http://www.w3.org/2000/svg" xmlns:xlink="http://www.w3.org/1999/xlink" xml:space="preserve" xmlns:serif="http://www.serif.com/" style="fill-rule:evenodd;clip-rule:evenodd;stroke-linecap:round;stroke-linejoin:round;stroke-miterlimit:1.5;"><g id="iPhone678"><path id="Frame" d="M687.367,61.935c0,0 1115.14,-0.089 1116.35,-0.092c27.634,-0.072 260.074,6.33 259.946,241.955l0.085,1.749l-0.085,476.801l11.706,0l0,252.942l-11.022,0l0,2151.83c0,0 3.04,259.271 -231.921,258.879c-234.962,-0.392 -1151.41,0 -1151.41,0c0,0 -262.158,9.179 -262.158,-269.677m0.001,-1.666l-0.001,-1829.22l-12.896,0l0,-251.424l11.616,0l0,-57.816l-12.633,0l0,-253.298l13.901,0l0,-150.253l-12.773,0l0,-137.953l14.013,0l0,-162.672c0,0 -25.044,-270.08 267.28,-270.08" style="stroke:#000;stroke-width:1px;"/><path id="Screen" d="M523.977,474.818l1440.47,0l0,2554.85l-1438.24,0l-2.233,-2554.85" style="fill:#fff;stroke:#000;stroke-width:1px;"/><circle id="HomeButton" cx="1242.98" cy="3222" r="130.189" style="fill:#fff;"/><g id="States"><path id="Display" d="M2006.97,185.151l-463.601,478.084l-113.285,430.722l-348.366,394.982l-303.815,-115.682l-77.145,169.374m842.611,-879.396l-461.651,77.975l-111.773,313.215m460.139,39.532l36.576,242.297l-138.745,371.212l65.055,379.413l-247.572,102.254l-175.453,-77.81l-228.936,229.966m586.906,-633.823l389.204,150.078l79.571,168.582m-403.72,60.753l150.399,74.32l-113.285,232.06" style="fill:none;stroke:#000;stroke-width:27.08px;"/></g></g></svg>