<?xml version="1.0" encoding="UTF-8" standalone="no"?><!DOCTYPE svg PUBLIC "-//W3C//DTD SVG 1.1//EN" "http://www.w3.org/Graphics/SVG/1.1/DTD/svg11.dtd"><svg width="100%" height="100%" viewBox="0 0 2481 3508" version="1.1" xmlns="http://www.w3.org/2000/svg" xmlns:xlink="http://www.w3.org/1999/xlink" xml:space="preserve" xmlns:serif="http://www.serif.com/" style="fill-rule:evenodd;clip-rule:evenodd;stroke-linecap:round;stroke-linejoin:round;stroke-miterlimit:1.5;"><g id="iPhone678"><path id="Frame" d="M687.367,61.935c0,0 1115.14,-0.089 1116.35,-0.092c27.634,-0.072 260.074,6.33 259.946,241.955l0.085,1.749l-0.085,476.801l11.706,0l0,252.942l-11.022,0l0,2151.83c0,0 3.04,259.271 -231.921,258.879c-234.962,-0.392 -1151.41,0 -1151.41,0c0,0 -262.158,9.179 -262.158,-269.677m0.001,-1.666l-0.001,-1829.22l-12.896,0l0,-251.424l11.616,0l0,-57.816l-12.633,0l0,-253.298l13.901,0l0,-150.253l-12.773,0l0,-137.953l14.013,0l0,-162.672c0,0 -25.044,-270.08 267.28,-270.08" style="stroke:#000;stroke-width:1px;"/><path id="Screen" d="M523.977,474.818l1440.47,0l0,2554.85l-1438.24,0l-2.233,-2554.85" style="fill:#fff;stroke:#000;stroke-width:1px;"/><circle id="HomeButton" cx="1242.98" cy="3222" r="130.189" style="fill:#fff;"/><g id="States"><g id="Kamera"><path d="M1665.68,1781.56c0,39.385 -34.925,71.793 -77.368,71.793l-696.315,0c-42.443,0 -77.368,-32.408 -77.368,-71.793l0,-394.867c0,-39.385 34.925,-71.794 77.368,-71.794l154.737,0l77.368,-107.691l232.105,0l77.368,107.691l154.737,0c42.443,0 77.368,32.409 77.368,71.794l0,394.867Z" style="fill:none;fill-rule:nonzero;stroke:#000;stroke-width:34.64px;stroke-miterlimit:4;"/><ellipse cx="1240.16" cy="1590.92" rx="154.308" ry="152.391" style="fill:none;stroke:#000;stroke-width:34.53px;stroke-miterlimit:4;"/><ellipse cx="941.368" cy="1420.74" rx="44.72" ry="44.164"/></g></g></g></svg>