<?xml version="1.0" encoding="UTF-8" standalone="no"?><!DOCTYPE svg PUBLIC "-//W3C//DTD SVG 1.1//EN" "http://www.w3.org/Graphics/SVG/1.1/DTD/svg11.dtd"><svg width="100%" height="100%" viewBox="0 0 2481 3508" version="1.1" xmlns="http://www.w3.org/2000/svg" xmlns:xlink="http://www.w3.org/1999/xlink" xml:space="preserve" xmlns:serif="http://www.serif.com/" style="fill-rule:evenodd;clip-rule:evenodd;stroke-linecap:round;stroke-linejoin:round;"><g id="huawei_p30lite"><path id="frame" d="M2052.38,227.789c0,-108.165 -87.816,-195.981 -195.982,-195.981l-1245.33,0c-108.165,0 -195.982,87.816 -195.982,195.981l0,3052.3c0,108.165 87.817,195.981 195.982,195.981l1245.33,0c108.166,0 195.982,-87.816 195.982,-195.981l0,-1873.23l12.852,0.087l0,-169.88l-12.852,-0.035l0,-143.491l12.393,-0.065l0,-396.501l-12.393,0.012l0,-469.19Z"/><path id="screen" d="M1986.57,254.013c0,-72.857 -59.151,-132.008 -132.008,-132.008l-510.749,0c-59.728,0 -1.363,106.476 -108.705,106.476c-107.575,0 -56.453,-106.476 -109.825,-106.476l-514.844,0c-72.858,0 -132.009,59.151 -132.009,132.008l0,2968.46c0,57.122 46.376,103.497 103.497,103.497l1307.94,0c53.371,0 96.701,-43.33 96.701,-96.701l0,-2975.25Z" style="fill:#fff;"/><g id="States"><g id="Kamera"><path d="M1665.68,1721.56c0,39.385 -34.925,71.793 -77.368,71.793l-696.315,0c-42.443,0 -77.368,-32.408 -77.368,-71.793l0,-394.867c0,-39.385 34.925,-71.794 77.368,-71.794l154.737,0l77.368,-107.691l232.105,0l77.368,107.691l154.737,0c42.443,0 77.368,32.409 77.368,71.794l0,394.867Z" style="fill:none;fill-rule:nonzero;stroke:#000;stroke-width:34.64px;"/><ellipse cx="1240.16" cy="1530.92" rx="154.308" ry="152.391" style="fill:none;stroke:#000;stroke-width:34.53px;"/><ellipse cx="941.368" cy="1360.74" rx="44.72" ry="44.164"/></g></g></g></svg>