<?xml version="1.0" encoding="UTF-8" standalone="no"?><!DOCTYPE svg PUBLIC "-//W3C//DTD SVG 1.1//EN" "http://www.w3.org/Graphics/SVG/1.1/DTD/svg11.dtd"><svg width="100%" height="100%" viewBox="0 0 2481 3508" version="1.1" xmlns="http://www.w3.org/2000/svg" xmlns:xlink="http://www.w3.org/1999/xlink" xml:space="preserve" xmlns:serif="http://www.serif.com/" style="fill-rule:evenodd;clip-rule:evenodd;stroke-linecap:round;stroke-linejoin:round;stroke-miterlimit:1.5;"><g id="huawei_p30lite"><path id="frame" d="M2052.38,227.789c0,-108.165 -87.816,-195.981 -195.982,-195.981l-1245.33,0c-108.165,0 -195.982,87.816 -195.982,195.981l0,3052.3c0,108.165 87.817,195.981 195.982,195.981l1245.33,0c108.166,0 195.982,-87.816 195.982,-195.981l0,-1873.23l12.852,0.087l0,-169.88l-12.852,-0.035l0,-143.491l12.393,-0.065l0,-396.501l-12.393,0.012l0,-469.19Z"/><path id="screen" d="M1986.57,254.013c0,-72.857 -59.151,-132.008 -132.008,-132.008l-510.749,0c-59.728,0 -1.363,106.476 -108.705,106.476c-107.575,0 -56.453,-106.476 -109.825,-106.476l-514.844,0c-72.858,0 -132.009,59.151 -132.009,132.008l0,2968.46c0,57.122 46.376,103.497 103.497,103.497l1307.94,0c53.371,0 96.701,-43.33 96.701,-96.701l0,-2975.25Z" style="fill:#fff;"/><g id="States"><g id="Battery"><g><rect x="798.097" y="1281.69" width="847.346" height="369.941" style="fill:none;stroke:#000;stroke-width:20.83px;"/><rect x="1681.38" y="1413.74" width="28.364" height="107.922" style="stroke:#000;stroke-width:25px;stroke-miterlimit:1;"/><rect x="824.269" y="1307.41" width="18.474" height="318.673" style="fill:#f00;stroke:#f00;stroke-width:12.5px;"/></g><path d="M1292.97,1339.8l-134.808,141.122l60.492,0l-51.111,92.15l136.612,-116.438l-77.209,0l66.024,-116.834Z"/></g></g></g></svg>