<?xml version="1.0" encoding="UTF-8" standalone="no"?><!DOCTYPE svg PUBLIC "-//W3C//DTD SVG 1.1//EN" "http://www.w3.org/Graphics/SVG/1.1/DTD/svg11.dtd"><svg width="100%" height="100%" viewBox="0 0 2481 3508" version="1.1" xmlns="http://www.w3.org/2000/svg" xmlns:xlink="http://www.w3.org/1999/xlink" xml:space="preserve" xmlns:serif="http://www.serif.com/" style="fill-rule:evenodd;clip-rule:evenodd;stroke-linecap:round;stroke-linejoin:round;stroke-miterlimit:1.5;"><g id="huawei_p30lite"><path id="frame" d="M2052.38,227.789c0,-108.165 -87.816,-195.981 -195.982,-195.981l-1245.33,0c-108.165,0 -195.982,87.816 -195.982,195.981l0,3052.3c0,108.165 87.817,195.981 195.982,195.981l1245.33,0c108.166,0 195.982,-87.816 195.982,-195.981l0,-1873.23l12.852,0.087l0,-169.88l-12.852,-0.035l0,-143.491l12.393,-0.065l0,-396.501l-12.393,0.012l0,-469.19Z"/><path id="screen" d="M1986.57,254.013c0,-72.857 -59.151,-132.008 -132.008,-132.008l-510.749,0c-59.728,0 -1.363,106.476 -108.705,106.476c-107.575,0 -56.453,-106.476 -109.825,-106.476l-514.844,0c-72.858,0 -132.009,59.151 -132.009,132.008l0,2968.46c0,57.122 46.376,103.497 103.497,103.497l1307.94,0c53.371,0 96.701,-43.33 96.701,-96.701l0,-2975.25Z" style="fill:#fff;"/><g id="States"><path id="Display" d="M1947.97,97.151l-463.601,478.084l-113.285,430.722l-348.366,394.982l-303.815,-115.682l-77.145,169.374m842.611,-879.396l-461.651,77.975l-111.773,313.215m460.139,39.532l36.576,242.297l-138.745,371.212l65.055,379.413l-247.572,102.254l-175.453,-77.81l-228.936,229.966m586.906,-633.823l389.204,150.078l79.571,168.582m-403.72,60.753l150.399,74.32l-113.285,232.06" style="fill:none;stroke:#000;stroke-width:27.08px;"/></g></g></svg>