<?xml version="1.0" encoding="UTF-8" standalone="no"?><!DOCTYPE svg PUBLIC "-//W3C//DTD SVG 1.1//EN" "http://www.w3.org/Graphics/SVG/1.1/DTD/svg11.dtd"><svg width="100%" height="100%" viewBox="0 0 2481 3508" version="1.1" xmlns="http://www.w3.org/2000/svg" xmlns:xlink="http://www.w3.org/1999/xlink" xml:space="preserve" xmlns:serif="http://www.serif.com/" style="fill-rule:evenodd;clip-rule:evenodd;stroke-linejoin:round;stroke-miterlimit:1.5;"><g id="default"><path id="frame" d="M2064.17,257.698c0,-120.168 -97.561,-217.729 -217.729,-217.729l-1230.47,0c-120.168,0 -217.729,97.561 -217.729,217.729l0,2992.48c0,120.168 97.561,217.729 217.729,217.729l1230.47,0c120.168,0 217.729,-97.561 217.729,-217.729l0,-1295.22l17.127,-0.001l0,-435.383l-17.127,-0.609l0,-127.274l17.898,-0.091l0,-217.656l-17.898,-0.617l0,-915.626Z" style="fill:#808080;"/><rect id="screen" x="455.102" y="403.722" width="1553.65" height="2749.07" style="fill:#fff;"/><g id="States"><path id="Display" d="M1928.87,403.186l0,9.512l-430.506,443.537l-113.285,430.722l-348.366,394.982l-303.815,-115.682l-77.145,169.374m842.611,-879.396l-461.651,77.975l-111.773,313.215m460.139,39.532l36.576,242.297l-138.745,371.212l65.055,379.413l-247.572,102.254l-175.453,-77.81l-228.936,229.966m586.906,-633.823l389.204,150.078l79.571,168.582m-403.72,60.753l150.399,74.32l-113.285,232.06" style="fill:none;stroke:#000;stroke-width:27.08px;"/></g></g></svg>