<?xml version="1.0" encoding="UTF-8" standalone="no"?><!DOCTYPE svg PUBLIC "-//W3C//DTD SVG 1.1//EN" "http://www.w3.org/Graphics/SVG/1.1/DTD/svg11.dtd"><svg width="100%" height="100%" viewBox="0 0 2481 3508" version="1.1" xmlns="http://www.w3.org/2000/svg" xmlns:xlink="http://www.w3.org/1999/xlink" xml:space="preserve" xmlns:serif="http://www.serif.com/" style="fill-rule:evenodd;clip-rule:evenodd;stroke-linecap:round;stroke-linejoin:round;"><g id="default"><path id="frame" d="M2064.17,257.698c0,-120.168 -97.561,-217.729 -217.729,-217.729l-1230.47,0c-120.168,0 -217.729,97.561 -217.729,217.729l0,2992.48c0,120.168 97.561,217.729 217.729,217.729l1230.47,0c120.168,0 217.729,-97.561 217.729,-217.729l0,-1295.22l17.127,-0.001l0,-435.383l-17.127,-0.609l0,-127.274l17.898,-0.091l0,-217.656l-17.898,-0.617l0,-915.626Z" style="fill:#808080;"/><rect id="screen" x="455.102" y="403.722" width="1553.65" height="2749.07" style="fill:#fff;"/><g id="States"><g id="Kamera"><path d="M1665.68,1721.56c0,39.385 -34.925,71.793 -77.368,71.793l-696.315,0c-42.443,0 -77.368,-32.408 -77.368,-71.793l0,-394.867c0,-39.385 34.925,-71.794 77.368,-71.794l154.737,0l77.368,-107.691l232.105,0l77.368,107.691l154.737,0c42.443,0 77.368,32.409 77.368,71.794l0,394.867Z" style="fill:none;fill-rule:nonzero;stroke:#000;stroke-width:34.64px;"/><ellipse cx="1240.16" cy="1530.92" rx="154.308" ry="152.391" style="fill:none;stroke:#000;stroke-width:34.53px;"/><ellipse cx="941.368" cy="1360.74" rx="44.72" ry="44.164"/></g></g></g></svg>