<?xml version="1.0" encoding="UTF-8" standalone="no"?><!DOCTYPE svg PUBLIC "-//W3C//DTD SVG 1.1//EN" "http://www.w3.org/Graphics/SVG/1.1/DTD/svg11.dtd"><svg width="100%" height="100%" viewBox="0 0 2481 3508" version="1.1" xmlns="http://www.w3.org/2000/svg" xmlns:xlink="http://www.w3.org/1999/xlink" xml:space="preserve" xmlns:serif="http://www.serif.com/" style="fill-rule:evenodd;clip-rule:evenodd;stroke-linecap:round;stroke-linejoin:round;stroke-miterlimit:1.5;"><g id="default_tablet"><path id="frame" d="M2455.54,187.521c0,-83.347 -67.667,-151.014 -151.013,-151.014l-2128.73,0c-83.346,0 -151.013,67.667 -151.013,151.014l0,3132.83c0,83.347 67.667,151.014 151.013,151.014l2128.73,0c83.346,0 151.013,-67.667 151.013,-151.014l0,-3132.83Z" style="fill:#818181;"/><rect id="screen" x="166.058" y="195.576" width="2148.2" height="3116.72" style="fill:#fff;"/><g id="States"><g id="Battery"><g><rect x="784.335" y="1281.69" width="847.346" height="369.941" style="fill:none;stroke:#000;stroke-width:20.83px;"/><rect x="1667.62" y="1413.74" width="28.364" height="107.922" style="stroke:#000;stroke-width:25px;stroke-miterlimit:1;"/><rect x="810.506" y="1307.41" width="18.474" height="318.673" style="fill:#f00;stroke:#f00;stroke-width:12.5px;"/></g><path d="M1279.21,1339.8l-134.807,141.122l60.492,0l-51.112,92.15l136.613,-116.438l-77.209,0l66.023,-116.834Z"/></g></g></g></svg>