<?xml version="1.0" encoding="UTF-8" standalone="no"?><!DOCTYPE svg PUBLIC "-//W3C//DTD SVG 1.1//EN" "http://www.w3.org/Graphics/SVG/1.1/DTD/svg11.dtd"><svg width="100%" height="100%" viewBox="0 0 2481 3508" version="1.1" xmlns="http://www.w3.org/2000/svg" xmlns:xlink="http://www.w3.org/1999/xlink" xml:space="preserve" xmlns:serif="http://www.serif.com/" style="fill-rule:evenodd;clip-rule:evenodd;stroke-linecap:round;stroke-linejoin:round;"><g id="default_tablet"><path id="frame" d="M2455.54,187.521c0,-83.347 -67.667,-151.014 -151.013,-151.014l-2128.73,0c-83.346,0 -151.013,67.667 -151.013,151.014l0,3132.83c0,83.347 67.667,151.014 151.013,151.014l2128.73,0c83.346,0 151.013,-67.667 151.013,-151.014l0,-3132.83Z" style="fill:#818181;"/><rect id="screen" x="166.058" y="195.576" width="2148.2" height="3116.72" style="fill:#fff;"/><g id="States"><g id="Kamera"><path d="M1665.68,1721.56c0,39.385 -34.925,71.793 -77.368,71.793l-696.315,0c-42.443,0 -77.368,-32.408 -77.368,-71.793l0,-394.867c0,-39.385 34.925,-71.794 77.368,-71.794l154.737,0l77.368,-107.691l232.105,0l77.368,107.691l154.737,0c42.443,0 77.368,32.409 77.368,71.794l0,394.867Z" style="fill:none;fill-rule:nonzero;stroke:#000;stroke-width:34.64px;"/><ellipse cx="1240.16" cy="1530.92" rx="154.308" ry="152.391" style="fill:none;stroke:#000;stroke-width:34.53px;"/><ellipse cx="941.368" cy="1360.74" rx="44.72" ry="44.164"/></g></g></g></svg>