<?xml version="1.0" encoding="UTF-8" standalone="no"?><!DOCTYPE svg PUBLIC "-//W3C//DTD SVG 1.1//EN" "http://www.w3.org/Graphics/SVG/1.1/DTD/svg11.dtd"><svg width="100%" height="100%" viewBox="0 0 2481 3508" version="1.1" xmlns="http://www.w3.org/2000/svg" xmlns:xlink="http://www.w3.org/1999/xlink" xml:space="preserve" xmlns:serif="http://www.serif.com/" style="fill-rule:evenodd;clip-rule:evenodd;stroke-linecap:round;stroke-linejoin:round;stroke-miterlimit:1.5;"><g id="default"><path id="frame" d="M2064.17,257.698c0,-120.168 -97.561,-217.729 -217.729,-217.729l-1230.47,0c-120.168,0 -217.729,97.561 -217.729,217.729l0,2992.48c0,120.168 97.561,217.729 217.729,217.729l1230.47,0c120.168,0 217.729,-97.561 217.729,-217.729l0,-1295.22l17.127,-0.001l0,-435.383l-17.127,-0.609l0,-127.274l17.898,-0.091l0,-217.656l-17.898,-0.617l0,-915.626Z" style="fill:#808080;"/><rect id="screen" x="455.102" y="403.722" width="1553.65" height="2749.07" style="fill:#fff;"/><g id="States"><g id="Battery"><g><rect x="784.335" y="1281.69" width="847.346" height="369.941" style="fill:none;stroke:#000;stroke-width:20.83px;"/><rect x="1667.62" y="1413.74" width="28.364" height="107.922" style="stroke:#000;stroke-width:25px;stroke-miterlimit:1;"/><rect x="810.506" y="1307.41" width="18.474" height="318.673" style="fill:#f00;stroke:#f00;stroke-width:12.5px;"/></g><path d="M1279.21,1339.8l-134.807,141.122l60.492,0l-51.112,92.15l136.613,-116.438l-77.209,0l66.023,-116.834Z"/></g></g></g></svg>