<?xml version="1.0" encoding="UTF-8" standalone="no"?><!DOCTYPE svg PUBLIC "-//W3C//DTD SVG 1.1//EN" "http://www.w3.org/Graphics/SVG/1.1/DTD/svg11.dtd"><svg width="100%" height="100%" viewBox="0 0 2481 3508" version="1.1" xmlns="http://www.w3.org/2000/svg" xmlns:xlink="http://www.w3.org/1999/xlink" xml:space="preserve" xmlns:serif="http://www.serif.com/" style="fill-rule:evenodd;clip-rule:evenodd;stroke-linejoin:round;stroke-miterlimit:2;"><g id="huawei_p30pro"><path id="frame" d="M2037.01,189.153c0,-87.427 -70.98,-158.407 -158.407,-158.407l-1282.43,0c-87.428,0 -158.407,70.98 -158.407,158.407l0,3129.57c0,87.427 70.979,158.407 158.407,158.407l1282.43,0c87.427,0 158.407,-70.98 158.407,-158.407l0,-1852.1l4.968,-0.021l0,-176.29l-4.968,0.015l0,-159.458l5.534,-0.042l0.008,-415.611l-5.542,-0.035l0,-526.025Z"/><path id="screen" d="M2006.56,223.283c0,-71.609 -58.137,-129.747 -129.746,-129.747l-552.421,0c-25.088,-0.157 3.28,98.343 -88.039,98.343c-94.049,0 -59.471,-97.4 -89.058,-98.343l-552.957,0c-71.609,0 -129.746,58.138 -129.746,129.747l0,3027.8c0,71.609 58.137,129.747 129.746,129.747l1282.48,0c71.609,0 129.746,-58.138 129.746,-129.747l0,-3027.8Z" style="fill:#fff;"/><g id="States"></g></g></svg>