<?xml version="1.0" encoding="UTF-8" standalone="no"?><!DOCTYPE svg PUBLIC "-//W3C//DTD SVG 1.1//EN" "http://www.w3.org/Graphics/SVG/1.1/DTD/svg11.dtd"><svg width="100%" height="100%" viewBox="0 0 2481 3508" version="1.1" xmlns="http://www.w3.org/2000/svg" xmlns:xlink="http://www.w3.org/1999/xlink" xml:space="preserve" xmlns:serif="http://www.serif.com/" style="fill-rule:evenodd;clip-rule:evenodd;stroke-linecap:round;stroke-linejoin:round;stroke-miterlimit:1.5;"><g id="huawei_p30pro"><path id="frame" d="M2037.01,189.153c0,-87.427 -70.98,-158.407 -158.407,-158.407l-1282.43,0c-87.428,0 -158.407,70.98 -158.407,158.407l0,3129.57c0,87.427 70.979,158.407 158.407,158.407l1282.43,0c87.427,0 158.407,-70.98 158.407,-158.407l0,-1852.1l4.968,-0.021l0,-176.29l-4.968,0.015l0,-159.458l5.534,-0.042l0.008,-415.611l-5.542,-0.035l0,-526.025Z"/><path id="screen" d="M2006.56,223.283c0,-71.609 -58.137,-129.747 -129.746,-129.747l-552.421,0c-25.088,-0.157 3.28,98.343 -88.039,98.343c-94.049,0 -59.471,-97.4 -89.058,-98.343l-552.957,0c-71.609,0 -129.746,58.138 -129.746,129.747l0,3027.8c0,71.609 58.137,129.747 129.746,129.747l1282.48,0c71.609,0 129.746,-58.138 129.746,-129.747l0,-3027.8Z" style="fill:#fff;"/><g id="States"><g id="Battery"><g><rect x="784.335" y="1311.69" width="847.346" height="369.941" style="fill:none;stroke:#000;stroke-width:20.83px;"/><rect x="1667.62" y="1443.74" width="28.364" height="107.922" style="stroke:#000;stroke-width:25px;stroke-miterlimit:1;"/><rect x="810.506" y="1337.41" width="18.474" height="318.673" style="fill:#f00;stroke:#f00;stroke-width:12.5px;"/></g><path d="M1279.21,1369.8l-134.807,141.122l60.492,0l-51.112,92.15l136.613,-116.438l-77.209,0l66.023,-116.834Z"/></g></g></g></svg>