<?xml version="1.0" encoding="UTF-8" standalone="no"?><!DOCTYPE svg PUBLIC "-//W3C//DTD SVG 1.1//EN" "http://www.w3.org/Graphics/SVG/1.1/DTD/svg11.dtd"><svg width="100%" height="100%" viewBox="0 0 2481 3508" version="1.1" xmlns="http://www.w3.org/2000/svg" xmlns:xlink="http://www.w3.org/1999/xlink" xml:space="preserve" xmlns:serif="http://www.serif.com/" style="fill-rule:evenodd;clip-rule:evenodd;stroke-linecap:round;stroke-linejoin:round;stroke-miterlimit:1.5;"><g id="iPhone-5-5c-5s-SE" serif:id="iPhone 5/5c/5s/SE"><path id="Frame" d="M674.39,95.463l844.818,0l0,-19.048l260.426,0l0,16.453l28.232,0c0,0 232.328,-19.946 232.328,230.99l0,2875.99c0,0 8.679,231.608 -238.387,231.608l-1117.19,0c0,0 -224.054,-11.017 -224.054,-222.679l0,-1944.51l-19.314,0l0,-120.661l18.419,0l0,-157.252l-17.433,0l0,-118.006l17.403,0l0,-168.065l-19.559,0l0,-149.606l16.753,0l0,-254.472c0,0 1.667,-200.743 217.554,-200.743Z" style="stroke:#000;stroke-width:1px;"/><path id="Screen" d="M561.776,555.776l1380.34,0l0,2418.05l-1382.74,0l2.397,-2418.05Z" style="fill:#fff;stroke:#000;stroke-width:1px;"/><circle id="Homebutton" cx="1250.19" cy="3188.76" r="144.709" style="fill:#fff;"/><g id="States"><g id="Sonstiges"><text x="958.615px" y="1960.75px" style="font-family:'Roboto-Regular', 'Roboto';font-size:1200px;">?</text></g></g></g></svg>