<?xml version="1.0" encoding="UTF-8" standalone="no"?><!DOCTYPE svg PUBLIC "-//W3C//DTD SVG 1.1//EN" "http://www.w3.org/Graphics/SVG/1.1/DTD/svg11.dtd"><svg width="100%" height="100%" viewBox="0 0 2481 3508" version="1.1" xmlns="http://www.w3.org/2000/svg" xmlns:xlink="http://www.w3.org/1999/xlink" xml:space="preserve" xmlns:serif="http://www.serif.com/" style="fill-rule:evenodd;clip-rule:evenodd;stroke-linecap:round;stroke-linejoin:round;stroke-miterlimit:1.5;"><g id="iPhone-5-5c-5s-SE" serif:id="iPhone 5/5c/5s/SE"><path id="Frame" d="M674.39,95.463l844.818,0l0,-19.048l260.426,0l0,16.453l28.232,0c0,0 232.328,-19.946 232.328,230.99l0,2875.99c0,0 8.679,231.608 -238.387,231.608l-1117.19,0c0,0 -224.054,-11.017 -224.054,-222.679l0,-1944.51l-19.314,0l0,-120.661l18.419,0l0,-157.252l-17.433,0l0,-118.006l17.403,0l0,-168.065l-19.559,0l0,-149.606l16.753,0l0,-254.472c0,0 1.667,-200.743 217.554,-200.743Z" style="stroke:#000;stroke-width:1px;"/><path id="Screen" d="M561.776,555.776l1380.34,0l0,2418.05l-1382.74,0l2.397,-2418.05Z" style="fill:#fff;stroke:#000;stroke-width:1px;"/><circle id="Homebutton" cx="1250.19" cy="3188.76" r="144.709" style="fill:#fff;"/><g id="States"><g id="Kamera"><path d="M1665.68,1781.56c0,39.385 -34.925,71.793 -77.368,71.793l-696.315,0c-42.443,0 -77.368,-32.408 -77.368,-71.793l0,-394.867c0,-39.385 34.925,-71.794 77.368,-71.794l154.737,0l77.368,-107.691l232.105,0l77.368,107.691l154.737,0c42.443,0 77.368,32.409 77.368,71.794l0,394.867Z" style="fill:none;fill-rule:nonzero;stroke:#000;stroke-width:34.64px;stroke-miterlimit:4;"/><ellipse cx="1240.16" cy="1590.92" rx="154.308" ry="152.391" style="fill:none;stroke:#000;stroke-width:34.53px;stroke-miterlimit:4;"/><ellipse cx="941.368" cy="1420.74" rx="44.72" ry="44.164"/></g></g></g></svg>