<?xml version="1.0" encoding="UTF-8" standalone="no"?><!DOCTYPE svg PUBLIC "-//W3C//DTD SVG 1.1//EN" "http://www.w3.org/Graphics/SVG/1.1/DTD/svg11.dtd"><svg width="100%" height="100%" viewBox="0 0 2481 3508" version="1.1" xmlns="http://www.w3.org/2000/svg" xmlns:xlink="http://www.w3.org/1999/xlink" xml:space="preserve" xmlns:serif="http://www.serif.com/" style="fill-rule:evenodd;clip-rule:evenodd;stroke-linecap:round;stroke-linejoin:round;stroke-miterlimit:1.5;"><g id="galaxy_a10"><path id="Frame" d="M629.683,60.783l1206.23,0c0,0 221.936,-7.692 221.936,218.025l0,272.384l10.223,0l0,499.937l-12.156,0l0,219.913l11.711,0l0,214.742l-11.614,0l0,1738.61c0,0 7.448,222.713 -223.311,222.713l-1198.19,0c0,0 -222.278,5.639 -222.278,-220.561l0,-2959.84c0,0 -0.169,-205.928 217.443,-205.928Z" style="stroke:#000;stroke-width:1px;"/><path id="Screen" d="M625.763,137.305l426.902,0c0,0 56.98,3.291 117.487,73.376c47.875,43.391 84.261,41.236 126.963,3.049c41.763,-42.726 54.979,-81.073 158.013,-81.073l380.095,0c0,0 141.969,15.061 141.969,148.307l0,2888.3c0,0 8.647,105.968 -108.381,105.968l-1284.38,0c0,0 -89.248,-5.052 -89.248,-94.471l0,-2889.42c0,0 1.145,-154.038 130.575,-154.038Z" style="fill:#fff;stroke:#000;stroke-width:1px;"/><g id="States"><g id="Sonstiges"><text x="958.615px" y="1960.75px" style="font-family:'Roboto-Regular', 'Roboto';font-size:1200px;">?</text></g></g></g></svg>