<?xml version="1.0" encoding="UTF-8" standalone="no"?><!DOCTYPE svg PUBLIC "-//W3C//DTD SVG 1.1//EN" "http://www.w3.org/Graphics/SVG/1.1/DTD/svg11.dtd"><svg width="100%" height="100%" viewBox="0 0 2481 3508" version="1.1" xmlns="http://www.w3.org/2000/svg" xmlns:xlink="http://www.w3.org/1999/xlink" xml:space="preserve" xmlns:serif="http://www.serif.com/" style="fill-rule:evenodd;clip-rule:evenodd;stroke-linecap:round;stroke-linejoin:round;stroke-miterlimit:1.5;"><g id="galaxy_j52017"><path id="frame" d="M684.722,44.102l1104.3,0c0,0 286.08,1.593 286.08,286.057l0,682.148l12.786,0l0,230.103l-12.14,0l0,1906.43c0,0 8.94,314.77 -314.176,314.77l-1045.05,0c0,0 -313.439,17.724 -313.439,-313.786l0,-1992.7l-10.657,0l0,-233.909l12.193,0l0,-93.637l-12.177,0l0,-232.009l11.113,0l0,-283.939c0,0 6.74,-269.525 281.165,-269.525Z" style="stroke:#000;stroke-width:1px;"/><rect id="screen" x="452.608" y="397.026" width="1563.7" height="2749.21" style="fill:#fff;"/><path id="homebutton" d="M1433.1,3285.07c0,-43.81 -35.568,-79.379 -79.379,-79.379l-226.36,0c-43.811,0 -79.38,35.569 -79.38,79.379c0,43.811 35.569,79.38 79.38,79.38l226.36,0c43.811,0 79.379,-35.569 79.379,-79.38Z" style="fill:#fff;"/><g id="States"></g></g></svg>