<?xml version="1.0" encoding="UTF-8" standalone="no"?><!DOCTYPE svg PUBLIC "-//W3C//DTD SVG 1.1//EN" "http://www.w3.org/Graphics/SVG/1.1/DTD/svg11.dtd"><svg width="100%" height="100%" viewBox="0 0 2481 3508" version="1.1" xmlns="http://www.w3.org/2000/svg" xmlns:xlink="http://www.w3.org/1999/xlink" xml:space="preserve" xmlns:serif="http://www.serif.com/" style="fill-rule:evenodd;clip-rule:evenodd;stroke-linecap:round;stroke-linejoin:round;stroke-miterlimit:1.5;"><g id="galaxy_j52017"><path id="frame" d="M684.722,44.102l1104.3,0c0,0 286.08,1.593 286.08,286.057l0,682.148l12.786,0l0,230.103l-12.14,0l0,1906.43c0,0 8.94,314.77 -314.176,314.77l-1045.05,0c0,0 -313.439,17.724 -313.439,-313.786l0,-1992.7l-10.657,0l0,-233.909l12.193,0l0,-93.637l-12.177,0l0,-232.009l11.113,0l0,-283.939c0,0 6.74,-269.525 281.165,-269.525Z" style="stroke:#000;stroke-width:1px;"/><rect id="screen" x="452.608" y="397.026" width="1563.7" height="2749.21" style="fill:#fff;"/><path id="homebutton" d="M1433.1,3285.07c0,-43.81 -35.568,-79.379 -79.379,-79.379l-226.36,0c-43.811,0 -79.38,35.569 -79.38,79.379c0,43.811 35.569,79.38 79.38,79.38l226.36,0c43.811,0 79.379,-35.569 79.379,-79.38Z" style="fill:#fff;"/><g id="States"><g id="Kamera"><path d="M1665.68,1781.56c0,39.385 -34.925,71.793 -77.368,71.793l-696.315,0c-42.443,0 -77.368,-32.408 -77.368,-71.793l0,-394.867c0,-39.385 34.925,-71.794 77.368,-71.794l154.737,0l77.368,-107.691l232.105,0l77.368,107.691l154.737,0c42.443,0 77.368,32.409 77.368,71.794l0,394.867Z" style="fill:none;fill-rule:nonzero;stroke:#000;stroke-width:34.64px;stroke-miterlimit:4;"/><ellipse cx="1240.16" cy="1590.92" rx="154.308" ry="152.391" style="fill:none;stroke:#000;stroke-width:34.53px;stroke-miterlimit:4;"/><ellipse cx="941.368" cy="1420.74" rx="44.72" ry="44.164"/></g></g></g></svg>