<?xml version="1.0" encoding="UTF-8" standalone="no"?><!DOCTYPE svg PUBLIC "-//W3C//DTD SVG 1.1//EN" "http://www.w3.org/Graphics/SVG/1.1/DTD/svg11.dtd"><svg width="100%" height="100%" viewBox="0 0 2481 3508" version="1.1" xmlns="http://www.w3.org/2000/svg" xmlns:xlink="http://www.w3.org/1999/xlink" xml:space="preserve" xmlns:serif="http://www.serif.com/" style="fill-rule:evenodd;clip-rule:evenodd;stroke-linecap:round;stroke-linejoin:round;"><g id="galaxy_s20"><path id="frame" d="M2013.72,239.566c0,-110.096 -89.385,-199.48 -199.481,-199.48l-1161.78,0c-110.096,0 -199.48,89.384 -199.48,199.48l0,3028.74c0,110.096 89.384,199.48 199.48,199.48l1161.78,0c110.096,0 199.481,-89.384 199.481,-199.48l0,-1718.33l13.553,-0.015l-0.012,-230.612l-13.541,0.031l0,-224.588l13.617,-0.028l-0.359,-434.788l-13.258,-0.001l0,-420.408Z"/><path id="screen" d="M1973.84,251.286c0,-86.744 -70.426,-157.17 -157.17,-157.17l-1168.44,0c-86.744,0 -157.17,70.426 -157.17,157.17l0,2981.13c0,86.745 70.426,157.171 157.17,157.171l1168.44,0c86.744,0 157.17,-70.426 157.17,-157.171l0,-2981.13Z" style="fill:#fff;"/><circle id="camera" cx="1233.35" cy="165.096" r="43.855"/><g id="States"><g id="Kamera"><path d="M1665.68,1781.56c0,39.385 -34.925,71.793 -77.368,71.793l-696.315,0c-42.443,0 -77.368,-32.408 -77.368,-71.793l0,-394.867c0,-39.385 34.925,-71.794 77.368,-71.794l154.737,0l77.368,-107.691l232.105,0l77.368,107.691l154.737,0c42.443,0 77.368,32.409 77.368,71.794l0,394.867Z" style="fill:none;fill-rule:nonzero;stroke:#000;stroke-width:34.64px;"/><ellipse cx="1240.16" cy="1590.92" rx="154.308" ry="152.391" style="fill:none;stroke:#000;stroke-width:34.53px;"/><ellipse cx="941.368" cy="1420.74" rx="44.72" ry="44.164"/></g></g></g></svg>