<?xml version="1.0" encoding="UTF-8" standalone="no"?><!DOCTYPE svg PUBLIC "-//W3C//DTD SVG 1.1//EN" "http://www.w3.org/Graphics/SVG/1.1/DTD/svg11.dtd"><svg width="100%" height="100%" viewBox="0 0 2481 3508" version="1.1" xmlns="http://www.w3.org/2000/svg" xmlns:xlink="http://www.w3.org/1999/xlink" xml:space="preserve" xmlns:serif="http://www.serif.com/" style="fill-rule:evenodd;clip-rule:evenodd;stroke-linecap:round;stroke-linejoin:round;stroke-miterlimit:1.5;"><g id="galaxy_s20"><path id="frame" d="M2013.72,239.566c0,-110.096 -89.385,-199.48 -199.481,-199.48l-1161.78,0c-110.096,0 -199.48,89.384 -199.48,199.48l0,3028.74c0,110.096 89.384,199.48 199.48,199.48l1161.78,0c110.096,0 199.481,-89.384 199.481,-199.48l0,-1718.33l13.553,-0.015l-0.012,-230.612l-13.541,0.031l0,-224.588l13.617,-0.028l-0.359,-434.788l-13.258,-0.001l0,-420.408Z"/><path id="screen" d="M1973.84,251.286c0,-86.744 -70.426,-157.17 -157.17,-157.17l-1168.44,0c-86.744,0 -157.17,70.426 -157.17,157.17l0,2981.13c0,86.745 70.426,157.171 157.17,157.171l1168.44,0c86.744,0 157.17,-70.426 157.17,-157.171l0,-2981.13Z" style="fill:#fff;"/><circle id="camera" cx="1233.35" cy="165.096" r="43.855"/><g id="States"><g id="Battery"><g><rect x="798.097" y="1341.69" width="847.346" height="369.941" style="fill:none;stroke:#000;stroke-width:20.83px;"/><rect x="1681.38" y="1473.74" width="28.364" height="107.922" style="stroke:#000;stroke-width:25px;stroke-miterlimit:1;"/><rect x="824.269" y="1367.41" width="18.474" height="318.673" style="fill:#f00;stroke:#f00;stroke-width:12.5px;"/></g><path d="M1292.97,1399.8l-134.808,141.122l60.492,0l-51.111,92.15l136.612,-116.438l-77.209,0l66.024,-116.834Z"/></g></g></g></svg>