<?xml version="1.0" encoding="UTF-8" standalone="no"?><!DOCTYPE svg PUBLIC "-//W3C//DTD SVG 1.1//EN" "http://www.w3.org/Graphics/SVG/1.1/DTD/svg11.dtd"><svg width="100%" height="100%" viewBox="0 0 2481 3508" version="1.1" xmlns="http://www.w3.org/2000/svg" xmlns:xlink="http://www.w3.org/1999/xlink" xml:space="preserve" xmlns:serif="http://www.serif.com/" style="fill-rule:evenodd;clip-rule:evenodd;stroke-linecap:round;stroke-linejoin:round;stroke-miterlimit:1.5;"><g id="galaxy_s20"><path id="frame" d="M2013.72,239.566c0,-110.096 -89.385,-199.48 -199.481,-199.48l-1161.78,0c-110.096,0 -199.48,89.384 -199.48,199.48l0,3028.74c0,110.096 89.384,199.48 199.48,199.48l1161.78,0c110.096,0 199.481,-89.384 199.481,-199.48l0,-1718.33l13.553,-0.015l-0.012,-230.612l-13.541,0.031l0,-224.588l13.617,-0.028l-0.359,-434.788l-13.258,-0.001l0,-420.408Z"/><path id="screen" d="M1973.84,251.286c0,-86.744 -70.426,-157.17 -157.17,-157.17l-1168.44,0c-86.744,0 -157.17,70.426 -157.17,157.17l0,2981.13c0,86.745 70.426,157.171 157.17,157.171l1168.44,0c86.744,0 157.17,-70.426 157.17,-157.171l0,-2981.13Z" style="fill:#fff;"/><circle id="camera" cx="1233.35" cy="165.096" r="43.855"/><g id="States"><path id="Display" d="M1961.97,140.151l-463.601,478.084l-113.285,430.722l-348.366,394.982l-303.815,-115.682l-77.145,169.374m842.611,-879.396l-461.651,77.975l-111.773,313.215m460.139,39.532l36.576,242.297l-138.745,371.212l65.055,379.413l-247.572,102.254l-175.453,-77.81l-228.936,229.966m586.906,-633.823l389.204,150.078l79.571,168.582m-403.72,60.753l150.399,74.32l-113.285,232.06" style="fill:none;stroke:#000;stroke-width:27.08px;"/></g></g></svg>