<?xml version="1.0" encoding="UTF-8" standalone="no"?><!DOCTYPE svg PUBLIC "-//W3C//DTD SVG 1.1//EN" "http://www.w3.org/Graphics/SVG/1.1/DTD/svg11.dtd"><svg width="100%" height="100%" viewBox="0 0 2481 3508" version="1.1" xmlns="http://www.w3.org/2000/svg" xmlns:xlink="http://www.w3.org/1999/xlink" xml:space="preserve" xmlns:serif="http://www.serif.com/" style="fill-rule:evenodd;clip-rule:evenodd;stroke-linecap:round;stroke-linejoin:round;stroke-miterlimit:1.5;"><g id="galaxy_a50"><path id="frame" d="M650.026,56.298l1171.88,0c0,0 208.464,-2.29 208.464,208.369l0,337.689l11.834,0l0,453.249l-11.617,0l0,224.177l12.077,0l0,200.831l-12.37,0l0,1763.27c0,0 4.044,207.69 -209.286,207.69l-1184.99,0c0,0 -198.365,0.507 -198.365,-198.365l0,-2983.05c0,0 2.466,-213.863 212.373,-213.863Z" style="stroke:#000;stroke-width:1px;"/><path id="screen" d="M1119.69,128.897c0,0 30.61,-0.314 32.71,28.855c3.816,51.622 46.335,70.089 78.895,75.148c36.797,-5.146 82.059,-17.824 82.895,-74.826c0,-20.121 24.172,-25.217 24.172,-25.217l473.394,0c0,0 152.59,-6.261 152.59,151.366l0,2863.52c0,0 3.039,141.457 -141.112,141.457l-1193.53,0c0,0 -128.758,-3.103 -128.758,-131.059l0,-2888.26c0,0 3.858,-140.141 138.887,-140.141c135.03,0 479.853,-0.838 479.853,-0.838Z" style="fill:#fff;stroke:#000;stroke-width:1px;"/><g id="States"><path id="Display" d="M1947.97,157.151l-463.601,478.084l-113.285,430.722l-348.366,394.982l-303.815,-115.682l-77.145,169.374m842.611,-879.396l-461.651,77.975l-111.773,313.215m460.139,39.532l36.576,242.297l-138.745,371.212l65.055,379.413l-247.572,102.254l-175.453,-77.81l-228.936,229.966m586.906,-633.823l389.204,150.078l79.571,168.582m-403.72,60.753l150.399,74.32l-113.285,232.06" style="fill:none;stroke:#000;stroke-width:27.08px;"/></g></g></svg>