<?xml version="1.0" encoding="UTF-8" standalone="no"?><!DOCTYPE svg PUBLIC "-//W3C//DTD SVG 1.1//EN" "http://www.w3.org/Graphics/SVG/1.1/DTD/svg11.dtd"><svg width="100%" height="100%" viewBox="0 0 2481 3508" version="1.1" xmlns="http://www.w3.org/2000/svg" xmlns:xlink="http://www.w3.org/1999/xlink" xml:space="preserve" xmlns:serif="http://www.serif.com/" style="fill-rule:evenodd;clip-rule:evenodd;stroke-linecap:round;stroke-linejoin:round;stroke-miterlimit:1.5;"><g id="GalaxyS8S9"><path d="M576.522,1521.81l7.379,0l0,1468.09c0,0 -11.575,176.003 170.022,179.213c181.596,3.21 973.81,0 973.81,0c0,0 172.105,-0.432 172.489,-168.86c0.384,-168.428 0,-1636.78 0,-1636.78l7.362,0l0,-227.836l-8.066,0l0,-638.781c0,0 -0.155,-162.814 -163.83,-163.058c-163.676,-0.244 -143.634,0 -143.634,0l-0.705,-0.038l-837.956,0c0,0 -167.856,-1.461 -167.468,158.793c0.387,160.255 -0.687,252.657 -0.687,252.657l-9.337,-0.014l0,399.709l10.342,0l0,150.662l-9.728,0l0,227.665" style="stroke:#000;stroke-width:1px;"/><path d="M726.491,482.575c0,0 -112.856,-13.63 -112.382,115.824c0.474,129.455 0,2353.43 0,2353.43c0,0 5.517,93.939 97.769,95.052c92.251,1.113 1043.18,0 1043.18,0l29.696,0c0,0 82.04,-17.565 82.098,-73.828c0.058,-56.264 0,-2389.16 0,-2389.16c0,0 7.647,-101.45 -111.741,-102.026l-1027.87,0.566l-9.285,-0.048" style="fill:#fff;stroke:#000;stroke-width:1px;"/><g id="States"><path id="Crack" d="M1847.13,507.399l-394.115,404.607l-64.655,600.898l-327.801,97.903l-258.278,-97.903l-65.582,143.343m716.316,-744.241l-297.305,99.536l-323.006,-45.53m835.664,310.518l-248.563,-33.456l-31.445,269.83l114.644,113.908l-233.149,168.936l55.304,321.101l-210.464,86.538l-149.156,-65.851l-194.622,194.622m732.087,-705.346l-233.149,168.936l330.868,127.013l67.645,142.672m-343.209,51.416l127.856,62.898l-96.305,196.394" style="fill:none;stroke:#000;stroke-width:12.5px;"/></g></g></svg>