<?xml version="1.0" encoding="UTF-8" standalone="no"?><!DOCTYPE svg PUBLIC "-//W3C//DTD SVG 1.1//EN" "http://www.w3.org/Graphics/SVG/1.1/DTD/svg11.dtd"><svg width="100%" height="100%" viewBox="0 0 2481 3508" version="1.1" xmlns="http://www.w3.org/2000/svg" xmlns:xlink="http://www.w3.org/1999/xlink" xml:space="preserve" xmlns:serif="http://www.serif.com/" style="fill-rule:evenodd;clip-rule:evenodd;stroke-linecap:round;stroke-linejoin:round;stroke-miterlimit:1.5;"><g id="Galaxy-S10" serif:id="Galaxy S10"><path id="Frame" d="M759.375,559.534l890.399,0c0,0 98.146,-12.577 98.146,116.925l0,291.219l6,0l0,154.836l-7.402,0l0,1642.36c0,0 -0.706,100.825 -100.176,101.095c-99.47,0.271 -877.502,0 -877.502,0c0,0 -101.557,2.006 -101.44,-113.805c0.117,-115.81 0,-1287.51 0,-1287.51l-6.958,0l0,-154.648l6.471,0l0,-133.913l-6.283,0l0,-301.562l6.498,0l0.008,-202.253c0,0 -3.971,-112.744 92.239,-112.744Z" style="stroke:#000;stroke-width:1px;"/><path id="Screen" d="M756.067,613.167l897.51,0c0,0 61.439,-1.511 61.439,67.027l0,2031.03c0,0 1.957,80.557 -75.673,80.557l-869.446,0c0,0 -80.416,2.243 -80.416,-80.183l0,-2039.41c0,0 9.334,-59.028 66.586,-59.028Z" style="fill:#fff;stroke:#000;stroke-width:1px;"/><circle id="Camera" cx="1615.86" cy="688.975" r="34.829"/><g id="States"><path id="Crack" d="M1718.27,791.947l-318.719,342.039l-77.882,308.154l-239.496,282.584l-208.869,-82.763l-53.036,121.176m579.283,-629.151l-317.378,55.785l-76.843,224.086m316.339,28.283l25.146,173.348l-95.385,265.578l44.724,271.445l-170.202,73.157l-120.622,-55.669l-157.39,164.526m403.49,-453.459l267.572,107.371l54.703,120.61m-277.551,43.464l103.397,53.172l-77.882,166.024" style="fill:none;stroke:#000;stroke-width:12.5px;"/></g></g></svg>