<?xml version="1.0" encoding="UTF-8" standalone="no"?><!DOCTYPE svg PUBLIC "-//W3C//DTD SVG 1.1//EN" "http://www.w3.org/Graphics/SVG/1.1/DTD/svg11.dtd"><svg width="100%" height="100%" viewBox="0 0 2481 3508" version="1.1" xmlns="http://www.w3.org/2000/svg" xmlns:xlink="http://www.w3.org/1999/xlink" xml:space="preserve" xmlns:serif="http://www.serif.com/" style="fill-rule:evenodd;clip-rule:evenodd;stroke-linecap:round;stroke-linejoin:round;stroke-miterlimit:1.5;"><g id="Galaxy-S10" serif:id="Galaxy S10"><path id="Frame" d="M759.375,559.534l890.399,0c0,0 98.146,-12.577 98.146,116.925l0,291.219l6,0l0,154.836l-7.402,0l0,1642.36c0,0 -0.706,100.825 -100.176,101.095c-99.47,0.271 -877.502,0 -877.502,0c0,0 -101.557,2.006 -101.44,-113.805c0.117,-115.81 0,-1287.51 0,-1287.51l-6.958,0l0,-154.648l6.471,0l0,-133.913l-6.283,0l0,-301.562l6.498,0l0.008,-202.253c0,0 -3.971,-112.744 92.239,-112.744Z" style="stroke:#000;stroke-width:1px;"/><path id="Screen" d="M756.067,613.167l897.51,0c0,0 61.439,-1.511 61.439,67.027l0,2031.03c0,0 1.957,80.557 -75.673,80.557l-869.446,0c0,0 -80.416,2.243 -80.416,-80.183l0,-2039.41c0,0 9.334,-59.028 66.586,-59.028Z" style="fill:#fff;stroke:#000;stroke-width:1px;"/><circle id="Camera" cx="1615.86" cy="688.975" r="34.829"/><g id="States"><g id="Battery"><g><rect x="990.868" y="1568.25" width="441.03" height="200.376" style="fill:none;stroke:#000;stroke-width:12.5px;"/><rect x="1449.04" y="1639.77" width="14.763" height="58.455" style="stroke:#000;stroke-width:12.5px;"/><rect x="1004.49" y="1582.17" width="9.615" height="172.607" style="fill:none;stroke:#f00;stroke-width:12.5px;"/></g><path d="M1248.44,1599.72l-70.166,76.438l31.485,0l-26.602,49.912l71.104,-63.068l-40.186,0l34.365,-63.282Z"/></g></g></g></svg>