<?xml version="1.0" encoding="UTF-8" standalone="no"?><!DOCTYPE svg PUBLIC "-//W3C//DTD SVG 1.1//EN" "http://www.w3.org/Graphics/SVG/1.1/DTD/svg11.dtd"><svg width="100%" height="100%" viewBox="0 0 2481 3508" version="1.1" xmlns="http://www.w3.org/2000/svg" xmlns:xlink="http://www.w3.org/1999/xlink" xml:space="preserve" xmlns:serif="http://www.serif.com/" style="fill-rule:evenodd;clip-rule:evenodd;stroke-linecap:round;stroke-linejoin:round;stroke-miterlimit:1.5;"><g id="galaxy_a20-a20e" serif:id="galaxy_a20/a20e"><path id="Frame" d="M667.919,71.63l1131.01,0c0,0 210.757,-10.716 210.757,206.191l0,224.287l15.791,0l0,452.177l-17.476,0l0,202.878l21.192,0l0,224.302l-22.313,0l0,1854.49c0,0 -2.284,200.376 -209.594,200.376l-1165.1,0c0,0 -181.063,-26.192 -181.063,-187.317l0,-2967.2c0,0 -0.146,-210.179 216.794,-210.179Z" style="stroke:#000;stroke-width:1px;"/><path id="Screen" d="M667.214,126.143l384.582,0c131.578,25.734 103.945,101.316 180.856,103.237c70.148,-0.513 56.615,-93.765 190.729,-98.858l376.988,0c0,0 169.643,-5.762 169.643,170.591l0,2896.74c0,0 4.198,157.768 -158.841,157.768l-1170.46,0c0,0 -142.937,-17.977 -142.937,-142.936l0,-2928.89c0,0 11.354,-157.655 169.439,-157.655Z" style="fill:#fff;stroke:#000;stroke-width:1px;"/><g id="States"><g id="Kamera"><path d="M1665.68,1781.56c0,39.385 -34.925,71.793 -77.368,71.793l-696.315,0c-42.443,0 -77.368,-32.408 -77.368,-71.793l0,-394.867c0,-39.385 34.925,-71.794 77.368,-71.794l154.737,0l77.368,-107.691l232.105,0l77.368,107.691l154.737,0c42.443,0 77.368,32.409 77.368,71.794l0,394.867Z" style="fill:none;fill-rule:nonzero;stroke:#000;stroke-width:34.64px;stroke-miterlimit:4;"/><ellipse cx="1240.16" cy="1590.92" rx="154.308" ry="152.391" style="fill:none;stroke:#000;stroke-width:34.53px;stroke-miterlimit:4;"/><ellipse cx="941.368" cy="1420.74" rx="44.72" ry="44.164"/></g></g></g></svg>