<?xml version="1.0" encoding="UTF-8" standalone="no"?><!DOCTYPE svg PUBLIC "-//W3C//DTD SVG 1.1//EN" "http://www.w3.org/Graphics/SVG/1.1/DTD/svg11.dtd"><svg width="100%" height="100%" viewBox="0 0 2481 3508" version="1.1" xmlns="http://www.w3.org/2000/svg" xmlns:xlink="http://www.w3.org/1999/xlink" xml:space="preserve" xmlns:serif="http://www.serif.com/" style="fill-rule:evenodd;clip-rule:evenodd;stroke-linecap:round;stroke-linejoin:round;stroke-miterlimit:1.5;"><g id="GalaxyS8S9"><path d="M443.637,1478.18l8.836,0l0,1757.86c0,0 -13.859,210.743 203.58,214.586c217.439,3.843 1166.02,0 1166.02,0c0,0 206.075,-0.518 206.535,-202.19c0.46,-201.671 0,-1959.84 0,-1959.84l8.814,0l0,-272.807l-9.658,0l0,-764.862c0,0 -0.185,-194.949 -196.166,-195.242c-195.981,-0.292 -171.983,0 -171.983,0l-0.845,-0.045l-1003.35,0c0,0 -200.987,-1.75 -200.523,190.136c0.464,191.885 -0.822,302.525 -0.822,302.525l-11.18,-0.017l0,478.603l12.383,0l0,180.399l-11.648,0l0,272.602" style="stroke:#000;stroke-width:1px;"/><path d="M623.208,233.817c0,0 -135.132,-16.322 -134.564,138.684c0.567,155.006 0,2817.95 0,2817.95c0,0 6.606,112.481 117.065,113.813c110.46,1.333 1249.08,0 1249.08,0l35.557,0c0,0 98.233,-21.031 98.303,-88.401c0.069,-67.369 0,-2860.73 0,-2860.73c0,0 9.155,-121.474 -133.797,-122.164l-1230.75,0.677l-11.118,-0.056" style="fill:#fff;stroke:#000;stroke-width:1px;"/><g id="States"><g id="Sonstiges"><text x="952.615px" y="2054.75px" style="font-family:'Roboto-Regular', 'Roboto';font-size:1200px;">?</text></g></g></g></svg>