<?xml version="1.0" encoding="UTF-8" standalone="no"?><!DOCTYPE svg PUBLIC "-//W3C//DTD SVG 1.1//EN" "http://www.w3.org/Graphics/SVG/1.1/DTD/svg11.dtd"><svg width="100%" height="100%" viewBox="0 0 2481 3508" version="1.1" xmlns="http://www.w3.org/2000/svg" xmlns:xlink="http://www.w3.org/1999/xlink" xml:space="preserve" xmlns:serif="http://www.serif.com/" style="fill-rule:evenodd;clip-rule:evenodd;stroke-linecap:round;stroke-linejoin:round;stroke-miterlimit:1.5;"><path id="Frame" d="M966.392,462.82c0,0 762.089,-0.06 762.915,-0.063c18.886,-0.048 177.735,4.326 177.648,165.353l0.058,1.196l-0.058,325.846l8,0l0,172.861l-7.532,0l0,1470.56c0,0 2.077,177.185 -158.496,176.918c-160.573,-0.268 -786.875,0 -786.875,0c0,0 -179.159,6.273 -179.159,-184.298m0.001,-1.139l-0.001,-1250.09l-8.813,0l0,-171.824l7.938,0l0,-39.511l-8.633,0l0,-173.105l9.5,0l0,-102.683l-8.729,0l0,-94.277l9.577,0l0,-111.17c0,0 -17.116,-184.574 182.659,-184.574" style="stroke:#000;stroke-width:1px;"/><path id="Screen" d="M854.731,744.986l984.418,0l0,1745.99l-982.892,0l-1.526,-1745.99" style="fill:#fff;stroke:#000;stroke-width:1px;"/><circle id="HomeButton" cx="1346.1" cy="2622.42" r="88.971" style="fill:#fff;"/><path id="Crack" d="M1838.13,734.068l-293.288,301.096l-48.115,447.169l-243.938,72.856l-192.202,-72.856l-48.804,106.671m533.059,-553.84l-221.245,74.072l-240.371,-33.882m621.874,231.077l-184.972,-24.897l-23.401,200.799l85.315,84.767l-173.502,125.716l41.156,238.953l-156.621,64.4l-110.997,-49.005l-144.832,144.832m544.796,-524.896l-173.502,125.716l246.222,94.519l50.338,106.173m-255.404,38.261l95.146,46.807l-71.667,146.15" style="fill:none;stroke:#000;stroke-width:12.5px;"/></svg>