<?xml version="1.0" encoding="UTF-8" standalone="no"?><!DOCTYPE svg PUBLIC "-//W3C//DTD SVG 1.1//EN" "http://www.w3.org/Graphics/SVG/1.1/DTD/svg11.dtd"><svg width="100%" height="100%" viewBox="0 0 2481 3508" version="1.1" xmlns="http://www.w3.org/2000/svg" xmlns:xlink="http://www.w3.org/1999/xlink" xml:space="preserve" xmlns:serif="http://www.serif.com/" style="fill-rule:evenodd;clip-rule:evenodd;stroke-linecap:round;stroke-linejoin:round;stroke-miterlimit:1.5;"><path id="Frame" d="M966.392,462.82c0,0 762.089,-0.06 762.915,-0.063c18.886,-0.048 177.735,4.326 177.648,165.353l0.058,1.196l-0.058,325.846l8,0l0,172.861l-7.532,0l0,1470.56c0,0 2.077,177.185 -158.496,176.918c-160.573,-0.268 -786.875,0 -786.875,0c0,0 -179.159,6.273 -179.159,-184.298m0.001,-1.139l-0.001,-1250.09l-8.813,0l0,-171.824l7.938,0l0,-39.511l-8.633,0l0,-173.105l9.5,0l0,-102.683l-8.729,0l0,-94.277l9.577,0l0,-111.17c0,0 -17.116,-184.574 182.659,-184.574" style="stroke:#000;stroke-width:1px;"/><path id="Screen" d="M854.731,744.986l984.418,0l0,1745.99l-982.892,0l-1.526,-1745.99" style="fill:#fff;stroke:#000;stroke-width:1px;"/><circle id="HomeButton" cx="1346.1" cy="2622.42" r="88.971" style="fill:#fff;"/><g id="Battery"><g><rect x="1083.65" y="1456.01" width="517.377" height="224.869" style="fill:#fff;stroke:#000;stroke-width:12.5px;"/><rect x="1621.14" y="1536.27" width="17.319" height="65.601" style="stroke:#000;stroke-width:12.5px;"/><rect x="1099.63" y="1471.64" width="11.28" height="193.706" style="fill:#f00;stroke:#f00;stroke-width:12.5px;"/></g><path d="M1385.82,1491.33l-82.312,85.781l36.936,0l-31.208,56.014l83.413,-70.777l-47.142,0l40.313,-71.018Z"/></g></svg>