<?xml version="1.0" encoding="UTF-8" standalone="no"?><!DOCTYPE svg PUBLIC "-//W3C//DTD SVG 1.1//EN" "http://www.w3.org/Graphics/SVG/1.1/DTD/svg11.dtd"><svg width="100%" height="100%" viewBox="0 0 2481 3508" version="1.1" xmlns="http://www.w3.org/2000/svg" xmlns:xlink="http://www.w3.org/1999/xlink" xml:space="preserve" xmlns:serif="http://www.serif.com/" style="fill-rule:evenodd;clip-rule:evenodd;stroke-linecap:round;stroke-linejoin:round;stroke-miterlimit:1.5;"><path d="M946.317,544.052l735.777,0c0,0 167.88,6.655 167.88,159.814l0,329.438l4.706,0l0,235.542l-3.965,0l0,1256c0,0 0.94,167.577 -160.453,167.577c-161.394,0 -755.827,0.914 -755.827,0.914c0,0 -162.827,-13.111 -162.827,-169.741l0,-1202.67l-5.226,0l0,-147.326l4.63,0l0,-41.142l-3.916,0l0,-143.243l3.892,0l0,-72.072l-4.165,0l0,-76.019l4.153,0l0,-129.251c0,0 -3.021,-167.82 175.341,-167.82Z" style="stroke:#000;stroke-width:1px;"/><path d="M1051.6,622.224l0,15.332c0,0 -3.373,56.018 48.846,56.018l421.812,0c0,0 45.904,-0.208 45.904,-54.694c0,-54.486 0,-17.095 0,-17.095l101.331,0c0,0 101.041,-6.443 101.041,79.998l0,1833.13c0,0 -8.245,81.108 -80.323,81.108l-751.44,0c0,0 -87.394,-6.225 -87.394,-74.472l0,-1837.53c0,0 0.094,-82.997 95.535,-82.997l104.675,0l0.013,1.2Z" style="fill:#fff;stroke:#000;stroke-width:1px;"/><g id="States"><g id="Battery"><g><rect x="1068.27" y="1423.42" width="517.377" height="224.869" style="fill:none;stroke:#000;stroke-width:12.5px;"/><rect x="1605.76" y="1503.69" width="17.319" height="65.601" style="stroke:#000;stroke-width:12.5px;"/><rect x="1084.25" y="1439.05" width="11.28" height="193.706" style="fill:none;stroke:#f00;stroke-width:12.5px;"/></g><path d="M1370.43,1458.75l-82.312,85.781l36.936,0l-31.208,56.013l83.413,-70.777l-47.142,0l40.313,-71.017Z"/></g></g></svg>