<?xml version="1.0" encoding="UTF-8" standalone="no"?><!DOCTYPE svg PUBLIC "-//W3C//DTD SVG 1.1//EN" "http://www.w3.org/Graphics/SVG/1.1/DTD/svg11.dtd"><svg width="100%" height="100%" viewBox="0 0 2481 3508" version="1.1" xmlns="http://www.w3.org/2000/svg" xmlns:xlink="http://www.w3.org/1999/xlink" xml:space="preserve" xmlns:serif="http://www.serif.com/" style="fill-rule:evenodd;clip-rule:evenodd;stroke-linecap:round;stroke-linejoin:round;stroke-miterlimit:1.5;"><g id="iPhone678Plus"><path d="M679.891,395.758l0,-152.805c0,0 -1.245,-176.972 186.387,-172.969c187.672,4.004 781.29,-6.207 974.529,0c43.984,1.412 174.495,24.593 175.222,172.969c0.799,162.927 0,348.958 0,348.958l9.039,0l0,177.454l-9.039,0l0,1845.62c0,0 -4.324,178.558 -198.669,178.558l-951.082,0c0,0 -190.368,-12.027 -190.478,-178.558c-0.11,-166.531 0,-1625.07 0,-1625.07l-8.999,0l0,-169.566l13.09,0l0,-50.98l-13.09,0l0,-165.047l13.09,0l0,-112.141l-13.09,0l0,-96.419l13.09,0Z"/><rect x="751.47" y="379.398" width="1188.68" height="2103.3" style="fill:#fff;"/><circle cx="1345.21" cy="2623.56" r="92.002" style="fill:#fff;"/><g id="States"><g id="Battery"><g><rect x="1081.27" y="1213.42" width="517.377" height="224.869" style="fill:none;stroke:#000;stroke-width:12.5px;"/><rect x="1618.76" y="1293.69" width="17.319" height="65.601" style="stroke:#000;stroke-width:12.5px;"/><rect x="1097.25" y="1229.05" width="11.28" height="193.706" style="fill:none;stroke:#f00;stroke-width:12.5px;"/></g><path d="M1383.43,1248.75l-82.312,85.781l36.936,0l-31.208,56.013l83.413,-70.777l-47.142,0l40.313,-71.017Z"/></g></g></g></svg>