<?xml version="1.0" encoding="UTF-8" standalone="no"?><!DOCTYPE svg PUBLIC "-//W3C//DTD SVG 1.1//EN" "http://www.w3.org/Graphics/SVG/1.1/DTD/svg11.dtd"><svg width="100%" height="100%" viewBox="0 0 10338 14617" version="1.1" xmlns="http://www.w3.org/2000/svg" xmlns:xlink="http://www.w3.org/1999/xlink" xml:space="preserve" xmlns:serif="http://www.serif.com/" style="fill-rule:evenodd;clip-rule:evenodd;stroke-linejoin:round;stroke-miterlimit:2;"><g id="iPhone678Plus"><path d="M1737.64,1976.69l0,-787.193c0,0 -6.413,-911.668 960.169,-891.046c966.789,20.626 4024.8,-31.975 5020.27,0c226.582,7.274 898.907,126.69 902.652,891.046c4.116,839.315 0,1797.65 0,1797.65l46.565,0l0,914.151l-46.565,0l0,9507.67c0,0 -22.275,919.838 -1023.44,919.838l-4899.48,0c0,0 -980.677,-61.957 -981.243,-919.838c-0.567,-857.881 0,-8371.51 0,-8371.51l-46.359,0l0,-873.516l67.433,0l0,-262.622l-67.433,0l0,-850.237l67.433,0l0,-577.692l-67.433,0l0,-496.7l67.433,0Z"/><rect x="2106.38" y="1892.39" width="6123.46" height="10835.1" style="fill:#fff;"/><circle cx="5165.02" cy="13453.1" r="473.946" style="fill:#fff;"/></g></svg>