<?xml version="1.0" encoding="UTF-8" standalone="no"?><!DOCTYPE svg PUBLIC "-//W3C//DTD SVG 1.1//EN" "http://www.w3.org/Graphics/SVG/1.1/DTD/svg11.dtd"><svg width="100%" height="100%" viewBox="0 0 2481 3508" version="1.1" xmlns="http://www.w3.org/2000/svg" xmlns:xlink="http://www.w3.org/1999/xlink" xml:space="preserve" xmlns:serif="http://www.serif.com/" style="fill-rule:evenodd;clip-rule:evenodd;stroke-linecap:round;stroke-linejoin:round;stroke-miterlimit:1.5;"><g id="galaxy_s7edge"><path id="frame" d="M709.971,54.264c304.096,-9.748 737.836,-11.865 1057.43,0c93.902,0.137 297.754,14.989 295.568,297.254l0,817.552l10.661,0l0,227.975l-12.652,0l0,1760.17c-2.744,248.414 -126.596,296.77 -304.32,302.196c-171.434,5.233 -1013.58,0 -1013.58,0c-232.556,-4.03 -324.364,-73.97 -324.364,-324.993c0,-345.692 1.762,-1953.6 1.762,-1953.6l-13.143,0l0,-227.654l11.048,0l0,-108.689l-11.703,0l0,-228.288l12.49,0l0,-279.265c8.559,-174.695 72.344,-281.567 290.799,-282.654Z" style="stroke:#000;stroke-width:1px;"/><path id="screen" d="M2028.15,384.856c0,-11.064 -8.983,-20.046 -20.046,-20.046l-1536.62,0c-11.064,0 -20.046,8.982 -20.046,20.046l0,2751.87c0,11.064 8.982,20.046 20.046,20.046l1536.62,0c11.063,0 20.046,-8.982 20.046,-20.046l0,-2751.87Z" style="fill:#fff;"/><path id="homebutton" d="M1426.15,3285.83c0,-39.584 -32.137,-71.722 -71.721,-71.722l-227.245,0c-39.584,0 -71.722,32.138 -71.722,71.722l0,18.332c0,39.585 32.138,71.722 71.722,71.722l227.245,0c39.584,0 71.721,-32.137 71.721,-71.722l0,-18.332Z" style="fill:#fff;"/><g id="States"><g id="Sonstiges"><text x="958.615px" y="1960.75px" style="font-family:'Roboto-Regular', 'Roboto';font-size:1200px;">?</text></g></g></g></svg>