<?xml version="1.0" encoding="UTF-8" standalone="no"?><!DOCTYPE svg PUBLIC "-//W3C//DTD SVG 1.1//EN" "http://www.w3.org/Graphics/SVG/1.1/DTD/svg11.dtd"><svg width="100%" height="100%" viewBox="0 0 2481 3508" version="1.1" xmlns="http://www.w3.org/2000/svg" xmlns:xlink="http://www.w3.org/1999/xlink" xml:space="preserve" xmlns:serif="http://www.serif.com/" style="fill-rule:evenodd;clip-rule:evenodd;stroke-linecap:round;stroke-linejoin:round;"><g id="redmi_note8pro"><path id="frame" d="M2052.95,222.739c0,-110.543 -89.747,-200.29 -200.291,-200.29l-1235.15,0c-110.543,0 -200.29,89.747 -200.29,200.29l0,3062.4c0,110.543 89.747,200.29 200.29,200.29l1235.15,0c110.544,0 200.291,-89.747 200.291,-200.29l0,-1801.33l10.139,-0.009l0,-212.824l-10.139,-0.014l0,-152.827l9.86,-0.004l0,-450.169l-9.86,0.002l0,-445.217Z"/><path id="screen" d="M1979.24,240.429c0,-65.964 -53.555,-119.519 -119.52,-119.519l-440.767,0c-71.701,11.894 -118.045,99.294 -182.277,99.294c-64.232,0 -117.464,-87.584 -189.17,-99.294l-436.69,0c-65.965,0 -119.52,53.555 -119.52,119.519l0,3006.54c0,65.965 53.555,119.52 119.52,119.52l1248.9,0c65.965,0 119.52,-53.555 119.52,-119.52l0,-3006.54Z" style="fill:#fff;"/><g id="States"><g id="Kamera"><path d="M1665.68,1721.56c0,39.385 -34.925,71.793 -77.368,71.793l-696.315,0c-42.443,0 -77.368,-32.408 -77.368,-71.793l0,-394.867c0,-39.385 34.925,-71.794 77.368,-71.794l154.737,0l77.368,-107.691l232.105,0l77.368,107.691l154.737,0c42.443,0 77.368,32.409 77.368,71.794l0,394.867Z" style="fill:none;fill-rule:nonzero;stroke:#000;stroke-width:34.64px;"/><ellipse cx="1240.16" cy="1530.92" rx="154.308" ry="152.391" style="fill:none;stroke:#000;stroke-width:34.53px;"/><ellipse cx="941.368" cy="1360.74" rx="44.72" ry="44.164"/></g></g></g></svg>