<?xml version="1.0" encoding="UTF-8" standalone="no"?><!DOCTYPE svg PUBLIC "-//W3C//DTD SVG 1.1//EN" "http://www.w3.org/Graphics/SVG/1.1/DTD/svg11.dtd"><svg width="100%" height="100%" viewBox="0 0 2481 3508" version="1.1" xmlns="http://www.w3.org/2000/svg" xmlns:xlink="http://www.w3.org/1999/xlink" xml:space="preserve" xmlns:serif="http://www.serif.com/" style="fill-rule:evenodd;clip-rule:evenodd;stroke-linecap:round;stroke-linejoin:round;stroke-miterlimit:1.5;"><g id="redmi_note8pro"><path id="frame" d="M2052.95,222.739c0,-110.543 -89.747,-200.29 -200.291,-200.29l-1235.15,0c-110.543,0 -200.29,89.747 -200.29,200.29l0,3062.4c0,110.543 89.747,200.29 200.29,200.29l1235.15,0c110.544,0 200.291,-89.747 200.291,-200.29l0,-1801.33l10.139,-0.009l0,-212.824l-10.139,-0.014l0,-152.827l9.86,-0.004l0,-450.169l-9.86,0.002l0,-445.217Z"/><path id="screen" d="M1979.24,240.429c0,-65.964 -53.555,-119.519 -119.52,-119.519l-440.767,0c-71.701,11.894 -118.045,99.294 -182.277,99.294c-64.232,0 -117.464,-87.584 -189.17,-99.294l-436.69,0c-65.965,0 -119.52,53.555 -119.52,119.519l0,3006.54c0,65.965 53.555,119.52 119.52,119.52l1248.9,0c65.965,0 119.52,-53.555 119.52,-119.52l0,-3006.54Z" style="fill:#fff;"/><g id="States"><path id="Display" d="M1947.97,97.151l-463.601,478.084l-113.285,430.722l-348.366,394.982l-303.815,-115.682l-77.145,169.374m842.611,-879.396l-461.651,77.975l-111.773,313.215m460.139,39.532l36.576,242.297l-138.745,371.212l65.055,379.413l-247.572,102.254l-175.453,-77.81l-228.936,229.966m586.906,-633.823l389.204,150.078l79.571,168.582m-403.72,60.753l150.399,74.32l-113.285,232.06" style="fill:none;stroke:#000;stroke-width:27.08px;"/></g></g></svg>