<?xml version="1.0" encoding="UTF-8" standalone="no"?><!DOCTYPE svg PUBLIC "-//W3C//DTD SVG 1.1//EN" "http://www.w3.org/Graphics/SVG/1.1/DTD/svg11.dtd"><svg width="100%" height="100%" viewBox="0 0 2481 3508" version="1.1" xmlns="http://www.w3.org/2000/svg" xmlns:xlink="http://www.w3.org/1999/xlink" xml:space="preserve" xmlns:serif="http://www.serif.com/" style="fill-rule:evenodd;clip-rule:evenodd;stroke-linecap:round;stroke-linejoin:round;stroke-miterlimit:1.5;"><g id="galaxy_a40"><path id="frame" d="M675.758,57.569l1125.31,0c0,0 245.386,-8.881 245.386,241.118c0,249.999 0,157.277 0,157.277l15.276,0l0,510.723l-13.256,0l0,243.901l15.693,0l0,230.362l-13.665,0l0,1781.12c0,0 9.045,228.273 -231.941,228.273l-1164.3,0c0,0 -237.875,3.511 -237.875,-245.326l0,-2895.67c0,0 -18.233,-251.772 259.369,-251.772Z" style="stroke:#000;stroke-width:1px;"/><path id="screen" d="M1091.32,111.572c0,0 44.541,7.847 58.361,59.281c13.631,54.649 72.748,62.978 82.508,62.978c9.76,0 67.831,-4.862 86.275,-64.365c21.109,-49.906 68.006,-54.142 68.006,-54.142l412.328,0c0,0 187.923,-13.79 187.923,182.023l0,2853.59c0,0 8.38,199.023 -200.03,199.023l-1125.51,0c0,0 -180,12.438 -180,-174.074l0,-2907.43c0,0 -1.787,-154.105 155.902,-154.105c157.689,0 454.236,-2.785 454.236,-2.785Z" style="fill:#fff;stroke:#000;stroke-width:1px;"/><g id="States"><g id="Battery"><g><rect x="798.097" y="1341.69" width="847.346" height="369.941" style="fill:none;stroke:#000;stroke-width:20.83px;"/><rect x="1681.38" y="1473.74" width="28.364" height="107.922" style="stroke:#000;stroke-width:25px;stroke-miterlimit:1;"/><rect x="824.269" y="1367.41" width="18.474" height="318.673" style="fill:#f00;stroke:#f00;stroke-width:12.5px;"/></g><path d="M1292.97,1399.8l-134.808,141.122l60.492,0l-51.111,92.15l136.612,-116.438l-77.209,0l66.024,-116.834Z"/></g></g></g></svg>