<?xml version="1.0" encoding="UTF-8" standalone="no"?><!DOCTYPE svg PUBLIC "-//W3C//DTD SVG 1.1//EN" "http://www.w3.org/Graphics/SVG/1.1/DTD/svg11.dtd"><svg width="100%" height="100%" viewBox="0 0 2481 3508" version="1.1" xmlns="http://www.w3.org/2000/svg" xmlns:xlink="http://www.w3.org/1999/xlink" xml:space="preserve" xmlns:serif="http://www.serif.com/" style="fill-rule:evenodd;clip-rule:evenodd;stroke-linecap:round;stroke-linejoin:round;stroke-miterlimit:1.5;"><g id="galaxy_a40"><path id="frame" d="M675.758,57.569l1125.31,0c0,0 245.386,-8.881 245.386,241.118c0,249.999 0,157.277 0,157.277l15.276,0l0,510.723l-13.256,0l0,243.901l15.693,0l0,230.362l-13.665,0l0,1781.12c0,0 9.045,228.273 -231.941,228.273l-1164.3,0c0,0 -237.875,3.511 -237.875,-245.326l0,-2895.67c0,0 -18.233,-251.772 259.369,-251.772Z" style="stroke:#000;stroke-width:1px;"/><path id="screen" d="M1091.32,111.572c0,0 44.541,7.847 58.361,59.281c13.631,54.649 72.748,62.978 82.508,62.978c9.76,0 67.831,-4.862 86.275,-64.365c21.109,-49.906 68.006,-54.142 68.006,-54.142l412.328,0c0,0 187.923,-13.79 187.923,182.023l0,2853.59c0,0 8.38,199.023 -200.03,199.023l-1125.51,0c0,0 -180,12.438 -180,-174.074l0,-2907.43c0,0 -1.787,-154.105 155.902,-154.105c157.689,0 454.236,-2.785 454.236,-2.785Z" style="fill:#fff;stroke:#000;stroke-width:1px;"/><g id="States"><g id="Kamera"><path d="M1665.68,1781.56c0,39.385 -34.925,71.793 -77.368,71.793l-696.315,0c-42.443,0 -77.368,-32.408 -77.368,-71.793l0,-394.867c0,-39.385 34.925,-71.794 77.368,-71.794l154.737,0l77.368,-107.691l232.105,0l77.368,107.691l154.737,0c42.443,0 77.368,32.409 77.368,71.794l0,394.867Z" style="fill:none;fill-rule:nonzero;stroke:#000;stroke-width:34.64px;stroke-miterlimit:4;"/><ellipse cx="1240.16" cy="1590.92" rx="154.308" ry="152.391" style="fill:none;stroke:#000;stroke-width:34.53px;stroke-miterlimit:4;"/><ellipse cx="941.368" cy="1420.74" rx="44.72" ry="44.164"/></g></g></g></svg>