<?xml version="1.0" encoding="UTF-8" standalone="no"?><!DOCTYPE svg PUBLIC "-//W3C//DTD SVG 1.1//EN" "http://www.w3.org/Graphics/SVG/1.1/DTD/svg11.dtd"><svg width="100%" height="100%" viewBox="0 0 2481 3508" version="1.1" xmlns="http://www.w3.org/2000/svg" xmlns:xlink="http://www.w3.org/1999/xlink" xml:space="preserve" xmlns:serif="http://www.serif.com/" style="fill-rule:evenodd;clip-rule:evenodd;stroke-linecap:round;stroke-linejoin:round;stroke-miterlimit:1.5;"><g id="galaxy_s7"><path id="frame" d="M672.331,48.613l1119.63,0c0,0 281.209,-4.561 281.209,280.375l0,860.669l18.708,0l0,240.593l-17.413,0l0,1732.22c0,0 29.602,296.555 -295.594,296.555l-1062.41,0c0,0 -307.703,20.061 -307.703,-302.978l0,-1966.24l-19.315,0l0,-240.303l14.612,0l0,-115.645l-15.63,0l0,-242.751l14.253,0l0,-262.52c0,0 -0.375,-279.976 269.645,-279.976Z" style="stroke:#000;stroke-width:1px;"/><rect id="screen" x="466.881" y="392.344" width="1546.73" height="2739.05" style="fill:#fff;"/><path id="homebutton" d="M1440.28,3281.07c0,-45.426 -36.88,-82.305 -82.305,-82.305l-234.52,0c-45.425,0 -82.304,36.879 -82.304,82.305c0,45.425 36.879,82.304 82.304,82.304l234.52,0c45.425,0 82.305,-36.879 82.305,-82.304Z" style="fill:#fff;"/><g id="States"><path id="Display" d="M1947.97,157.151l-463.601,478.084l-113.285,430.722l-348.366,394.982l-303.815,-115.682l-77.145,169.374m842.611,-879.396l-461.651,77.975l-111.773,313.215m460.139,39.532l36.576,242.297l-138.745,371.212l65.055,379.413l-247.572,102.254l-175.453,-77.81l-228.936,229.966m586.906,-633.823l389.204,150.078l79.571,168.582m-403.72,60.753l150.399,74.32l-113.285,232.06" style="fill:none;stroke:#000;stroke-width:27.08px;"/></g></g></svg>