<?xml version="1.0" encoding="UTF-8" standalone="no"?><!DOCTYPE svg PUBLIC "-//W3C//DTD SVG 1.1//EN" "http://www.w3.org/Graphics/SVG/1.1/DTD/svg11.dtd"><svg width="100%" height="100%" viewBox="0 0 2481 3508" version="1.1" xmlns="http://www.w3.org/2000/svg" xmlns:xlink="http://www.w3.org/1999/xlink" xml:space="preserve" xmlns:serif="http://www.serif.com/" style="fill-rule:evenodd;clip-rule:evenodd;stroke-linecap:round;stroke-linejoin:round;"><g id="galaxy_s10-" serif:id="galaxy_s10+"><path id="frame" d="M2048.74,185.383c0,-80.781 -65.584,-146.365 -146.366,-146.365l-1320.95,0c-80.781,0 -146.365,65.584 -146.365,146.365l0,447.318l-10.573,-0.017l-0.056,440.222l10.629,-0.048l0.213,189.179l-10.613,0.04l-0.098,221.866l10.498,0.126l0,1838.42c0,80.781 65.584,146.365 146.365,146.365l1320.95,0c80.782,0 146.366,-65.584 146.366,-146.365l0,-2493l7.141,-0.042l-0.072,-218.357l-7.069,0.051l0,-425.758Z"/><path id="screen" d="M2034.08,255.375c0,-80.141 -65.065,-145.206 -145.207,-145.206l-1293.08,0c-80.141,0 -145.206,65.065 -145.206,145.206l0,2968.45c0,80.142 65.065,145.206 145.206,145.206l1293.08,0c80.142,0 145.207,-65.064 145.207,-145.206l0,-2968.45Z" style="fill:#fff;"/><path id="camera" d="M1927.51,211.156c0,-28.392 -23.05,-51.442 -51.441,-51.442l-155.381,0c-28.392,0 -51.442,23.05 -51.442,51.442l0,2.039c0,28.391 23.05,51.441 51.442,51.441l155.381,0c28.391,0 51.441,-23.05 51.441,-51.441l0,-2.039Z"/><g id="States"><g id="Kamera"><path d="M1665.68,1781.56c0,39.385 -34.925,71.793 -77.368,71.793l-696.315,0c-42.443,0 -77.368,-32.408 -77.368,-71.793l0,-394.867c0,-39.385 34.925,-71.794 77.368,-71.794l154.737,0l77.368,-107.691l232.105,0l77.368,107.691l154.737,0c42.443,0 77.368,32.409 77.368,71.794l0,394.867Z" style="fill:none;fill-rule:nonzero;stroke:#000;stroke-width:34.64px;"/><ellipse cx="1240.16" cy="1590.92" rx="154.308" ry="152.391" style="fill:none;stroke:#000;stroke-width:34.53px;"/><ellipse cx="941.368" cy="1420.74" rx="44.72" ry="44.164"/></g></g></g></svg>