<?xml version="1.0" encoding="UTF-8" standalone="no"?><!DOCTYPE svg PUBLIC "-//W3C//DTD SVG 1.1//EN" "http://www.w3.org/Graphics/SVG/1.1/DTD/svg11.dtd"><svg width="100%" height="100%" viewBox="0 0 2481 3508" version="1.1" xmlns="http://www.w3.org/2000/svg" xmlns:xlink="http://www.w3.org/1999/xlink" xml:space="preserve" xmlns:serif="http://www.serif.com/" style="fill-rule:evenodd;clip-rule:evenodd;stroke-linejoin:round;stroke-miterlimit:2;"><g id="galaxy_s10-" serif:id="galaxy_s10+"><path id="frame" d="M2048.74,185.383c0,-80.781 -65.584,-146.365 -146.366,-146.365l-1320.95,0c-80.781,0 -146.365,65.584 -146.365,146.365l0,447.318l-10.573,-0.017l-0.056,440.222l10.629,-0.048l0.213,189.179l-10.613,0.04l-0.098,221.866l10.498,0.126l0,1838.42c0,80.781 65.584,146.365 146.365,146.365l1320.95,0c80.782,0 146.366,-65.584 146.366,-146.365l0,-2493l7.141,-0.042l-0.072,-218.357l-7.069,0.051l0,-425.758Z"/><path id="screen" d="M2034.08,255.375c0,-80.141 -65.065,-145.206 -145.207,-145.206l-1293.08,0c-80.141,0 -145.206,65.065 -145.206,145.206l0,2968.45c0,80.142 65.065,145.206 145.206,145.206l1293.08,0c80.142,0 145.207,-65.064 145.207,-145.206l0,-2968.45Z" style="fill:#fff;"/><path id="camera" d="M1927.51,211.156c0,-28.392 -23.05,-51.442 -51.441,-51.442l-155.381,0c-28.392,0 -51.442,23.05 -51.442,51.442l0,2.039c0,28.391 23.05,51.441 51.442,51.441l155.381,0c28.391,0 51.441,-23.05 51.441,-51.441l0,-2.039Z"/><g id="States"><g id="Sonstiges"><text x="958.615px" y="1960.75px" style="font-family:'Roboto-Regular', 'Roboto';font-size:1200px;">?</text></g></g></g></svg>