<?xml version="1.0" encoding="UTF-8" standalone="no"?><!DOCTYPE svg PUBLIC "-//W3C//DTD SVG 1.1//EN" "http://www.w3.org/Graphics/SVG/1.1/DTD/svg11.dtd"><svg width="100%" height="100%" viewBox="0 0 2830 1080" version="1.1" xmlns="http://www.w3.org/2000/svg" xmlns:xlink="http://www.w3.org/1999/xlink" xml:space="preserve" xmlns:serif="http://www.serif.com/" style="fill-rule:evenodd;clip-rule:evenodd;stroke-linejoin:round;stroke-miterlimit:2;"><g id="Gruppe_2"><g><path id="Rechteck_4-2" d="M62.5,25l2704.17,0c13.714,0 25,11.285 25,25l0,87.5l-2754.17,0l0,-87.5c0,-13.715 11.285,-25 25,-25Z" style="fill:#ff6c00;fill-rule:nonzero;"/></g><g><path id="Rechteck_1-2" d="M37.5,137.5l2754.17,0l0,866.667c0,13.714 -11.286,25 -25,25l-2704.17,0c-13.715,0 -25,-11.286 -25,-25l0,-866.667Z" style="fill:#fff;fill-rule:nonzero;"/></g><g id="google-color"><path id="Pfad_1" d="M850.662,592.108c0.041,-21.335 -1.771,-42.633 -5.416,-63.654l-295.488,0l0,120.638l169.213,0c-7.006,38.931 -29.646,73.348 -62.621,95.195l0,78.275l100.954,0c59.284,-54.562 93.354,-135.141 93.354,-230.45l0.004,-0.004Z" style="fill:#4285f4;fill-rule:nonzero;"/><path id="Pfad_2" d="M549.742,898.188c84.491,0 155.746,-27.742 207.658,-75.63l-100.954,-78.275c-28.088,19.109 -64.346,29.929 -106.592,29.929c-81.729,0 -151.025,-55.137 -175.887,-129.27l-104.167,0l0,80.691c53.128,105.636 161.707,172.56 279.95,172.55l-0.008,0.005Z" style="fill:#34a853;fill-rule:nonzero;"/><path id="Pfad_3" d="M373.875,644.942c-13.12,-38.899 -13.12,-81.048 0,-119.946l0,-80.692l-104.062,0c-44.399,88.446 -44.399,192.884 0,281.329l104.058,-80.691l0.004,0Z" style="fill:#fbbc04;fill-rule:nonzero;"/><path id="Pfad_4" d="M549.767,395.612c44.652,-0.719 87.843,16.161 120.175,46.967l89.441,-89.442c-56.703,-53.202 -131.867,-82.425 -209.616,-81.495c-118.277,-0.017 -226.878,66.965 -279.95,172.666l104.058,80.692c24.75,-74.246 94.167,-129.383 175.888,-129.383l0.004,-0.005Z" style="fill:#ea4335;fill-rule:nonzero;"/></g><g id="Smartphoniker_GmbH"><g><path d="M1150.38,378.227c0,-4.427 -1.556,-7.84 -4.669,-10.238c-3.113,-2.398 -8.727,-4.819 -16.843,-7.263c-8.117,-2.444 -14.573,-5.165 -19.369,-8.163c-9.177,-5.764 -13.765,-13.281 -13.765,-22.55c0,-8.116 3.308,-14.803 9.926,-20.06c6.618,-5.257 15.207,-7.886 25.767,-7.886c7.01,0 13.258,1.291 18.746,3.874c5.488,2.582 9.799,6.26 12.935,11.033c3.136,4.773 4.704,10.065 4.704,15.875l-17.432,0c0,-5.257 -1.648,-9.373 -4.945,-12.347c-3.298,-2.975 -8.013,-4.462 -14.146,-4.462c-5.719,0 -10.157,1.222 -13.316,3.666c-3.159,2.444 -4.739,5.857 -4.739,10.238c0,3.689 1.707,6.767 5.119,9.234c3.413,2.468 9.039,4.866 16.878,7.194c7.84,2.329 14.135,4.981 18.885,7.955c4.75,2.975 8.231,6.387 10.445,10.238c2.213,3.851 3.32,8.358 3.32,13.523c0,8.393 -3.216,15.069 -9.649,20.026c-6.434,4.957 -15.161,7.436 -26.182,7.436c-7.287,0 -13.985,-1.349 -20.095,-4.047c-6.111,-2.697 -10.86,-6.421 -14.25,-11.171c-3.389,-4.75 -5.084,-10.284 -5.084,-16.602l17.501,0c0,5.719 1.89,10.146 5.672,13.282c3.781,3.136 9.2,4.703 16.256,4.703c6.087,0 10.664,-1.233 13.73,-3.7c3.067,-2.467 4.6,-5.73 4.6,-9.788Z" style="fill:#2b2b2b;fill-rule:nonzero;"/><path d="M1197.42,329.321l0.484,7.817c5.258,-6.133 12.452,-9.2 21.582,-9.2c10.007,0 16.856,3.827 20.545,11.483c5.441,-7.656 13.097,-11.483 22.965,-11.483c8.255,0 14.4,2.283 18.435,6.848c4.035,4.565 6.099,11.298 6.191,20.199l0,49.182l-16.809,0l0,-48.698c0,-4.75 -1.038,-8.232 -3.113,-10.445c-2.075,-2.214 -5.511,-3.321 -10.307,-3.321c-3.827,0 -6.952,1.026 -9.373,3.078c-2.421,2.053 -4.115,4.739 -5.084,8.059l0.069,51.327l-16.809,0l0,-49.252c-0.23,-8.808 -4.727,-13.212 -13.489,-13.212c-6.732,0 -11.505,2.744 -14.318,8.232l0,54.232l-16.809,0l0,-74.846l15.84,0Z" style="fill:#2b2b2b;fill-rule:nonzero;"/><path d="M1349.6,404.167c-0.738,-1.43 -1.383,-3.759 -1.937,-6.987c-5.349,5.58 -11.897,8.37 -19.645,8.37c-7.517,0 -13.65,-2.144 -18.4,-6.433c-4.75,-4.289 -7.125,-9.592 -7.125,-15.91c0,-7.978 2.963,-14.1 8.889,-18.365c5.926,-4.266 14.4,-6.399 25.421,-6.399l10.307,0l0,-4.911c0,-3.874 -1.084,-6.975 -3.251,-9.304c-2.168,-2.329 -5.465,-3.493 -9.892,-3.493c-3.828,0 -6.963,0.957 -9.408,2.871c-2.444,1.913 -3.666,4.346 -3.666,7.297l-16.809,0c0,-4.104 1.361,-7.943 4.081,-11.517c2.721,-3.574 6.422,-6.375 11.103,-8.405c4.68,-2.029 9.903,-3.043 15.667,-3.043c8.762,0 15.749,2.202 20.96,6.606c5.211,4.404 7.886,10.595 8.024,18.573l0,33.756c0,6.733 0.945,12.106 2.836,16.118l0,1.176l-17.155,0Zm-18.469,-12.106c3.32,0 6.445,-0.807 9.373,-2.421c2.928,-1.614 5.13,-3.781 6.606,-6.502l0,-14.111l-9.062,0c-6.225,0 -10.906,1.083 -14.042,3.251c-3.136,2.167 -4.704,5.234 -4.704,9.2c0,3.228 1.073,5.799 3.217,7.713c2.144,1.913 5.015,2.87 8.612,2.87Z" style="fill:#2b2b2b;fill-rule:nonzero;"/><path d="M1420.71,344.678c-2.213,-0.369 -4.496,-0.554 -6.848,-0.554c-7.701,0 -12.889,2.952 -15.564,8.855l0,51.188l-16.809,0l0,-74.846l16.048,0l0.415,8.37c4.058,-6.502 9.684,-9.753 16.878,-9.753c2.398,0 4.381,0.323 5.949,0.968l-0.069,15.772Z" style="fill:#2b2b2b;fill-rule:nonzero;"/><path d="M1455.85,311.129l0,18.192l13.212,0l0,12.451l-13.212,0l0,41.781c0,2.859 0.565,4.923 1.695,6.191c1.13,1.268 3.147,1.902 6.053,1.902c1.936,0 3.896,-0.23 5.879,-0.691l0,13.004c-3.827,1.061 -7.517,1.591 -11.067,1.591c-12.913,0 -19.369,-7.125 -19.369,-21.374l0,-42.404l-12.313,0l0,-12.451l12.313,0l0,-18.192l16.809,0Z" style="fill:#2b2b2b;fill-rule:nonzero;"/><path d="M1547.43,367.505c0,11.575 -2.628,20.809 -7.885,27.704c-5.257,6.894 -12.313,10.341 -21.167,10.341c-8.209,0 -14.78,-2.698 -19.715,-8.093l0,35.486l-16.809,0l0,-103.622l15.495,0l0.692,7.609c4.934,-5.995 11.644,-8.992 20.129,-8.992c9.131,0 16.29,3.401 21.478,10.203c5.188,6.802 7.782,16.244 7.782,28.326l0,1.038Zm-16.739,-1.453c0,-7.47 -1.488,-13.396 -4.462,-17.777c-2.975,-4.381 -7.229,-6.572 -12.763,-6.572c-6.871,0 -11.805,2.836 -14.803,8.509l0,33.203c3.044,5.81 8.024,8.716 14.942,8.716c5.349,0 9.534,-2.156 12.555,-6.468c3.02,-4.312 4.531,-10.849 4.531,-19.611Z" style="fill:#2b2b2b;fill-rule:nonzero;"/><path d="M1578.22,337.484c5.487,-6.364 12.428,-9.546 20.821,-9.546c15.956,0 24.049,9.108 24.279,27.323l0,48.906l-16.809,0l0,-48.283c0,-5.165 -1.118,-8.82 -3.355,-10.964c-2.236,-2.145 -5.522,-3.217 -9.857,-3.217c-6.733,0 -11.759,2.998 -15.079,8.993l0,53.471l-16.81,0l0,-106.25l16.81,0l0,39.567Z" style="fill:#2b2b2b;fill-rule:nonzero;"/><path d="M1637.15,366.052c0,-7.332 1.453,-13.938 4.358,-19.818c2.905,-5.88 6.986,-10.399 12.244,-13.558c5.257,-3.159 11.298,-4.738 18.123,-4.738c10.099,0 18.296,3.251 24.591,9.753c6.295,6.503 9.696,15.126 10.203,25.871l0.069,3.943c0,7.378 -1.418,13.973 -4.254,19.783c-2.836,5.811 -6.894,10.307 -12.174,13.489c-5.281,3.182 -11.379,4.773 -18.297,4.773c-10.56,0 -19.011,-3.516 -25.352,-10.549c-6.34,-7.032 -9.511,-16.405 -9.511,-28.119l0,-0.83Zm16.809,1.453c0,7.701 1.591,13.731 4.773,18.089c3.182,4.358 7.609,6.537 13.281,6.537c5.673,0 10.088,-2.214 13.247,-6.641c3.159,-4.427 4.738,-10.906 4.738,-19.438c0,-7.563 -1.625,-13.558 -4.876,-17.985c-3.251,-4.427 -7.667,-6.64 -13.247,-6.64c-5.488,0 -9.846,2.179 -13.074,6.536c-3.228,4.358 -4.842,10.872 -4.842,19.542Z" style="fill:#2b2b2b;fill-rule:nonzero;"/><path d="M1736.55,329.321l0.484,8.647c5.534,-6.687 12.797,-10.03 21.79,-10.03c15.587,0 23.519,8.923 23.795,26.77l0,49.459l-16.809,0l0,-48.491c0,-4.75 -1.026,-8.266 -3.078,-10.549c-2.052,-2.282 -5.407,-3.424 -10.065,-3.424c-6.779,0 -11.828,3.067 -15.149,9.2l0,53.264l-16.809,0l0,-74.846l15.841,0Z" style="fill:#2b2b2b;fill-rule:nonzero;"/><path d="M1817.62,404.167l-16.809,0l0,-74.846l16.809,0l0,74.846Zm-17.847,-94.283c0,-2.583 0.819,-4.727 2.456,-6.433c1.637,-1.707 3.977,-2.56 7.021,-2.56c3.044,0 5.395,0.853 7.056,2.56c1.66,1.706 2.49,3.85 2.49,6.433c0,2.536 -0.83,4.646 -2.49,6.329c-1.661,1.683 -4.012,2.525 -7.056,2.525c-3.044,0 -5.384,-0.842 -7.021,-2.525c-1.637,-1.683 -2.456,-3.793 -2.456,-6.329Z" style="fill:#2b2b2b;fill-rule:nonzero;"/><path d="M1860.23,372.07l-7.471,7.679l0,24.418l-16.809,0l0,-106.25l16.809,0l0,61.287l5.257,-6.571l20.683,-23.312l20.198,0l-27.807,31.197l30.782,43.649l-19.438,0l-22.204,-32.097Z" style="fill:#2b2b2b;fill-rule:nonzero;"/><path d="M1941.44,405.55c-10.653,0 -19.288,-3.355 -25.905,-10.065c-6.618,-6.709 -9.927,-15.644 -9.927,-26.804l0,-2.075c0,-7.471 1.441,-14.146 4.323,-20.026c2.883,-5.88 6.929,-10.457 12.14,-13.731c5.211,-3.274 11.022,-4.911 17.432,-4.911c10.192,0 18.066,3.251 23.623,9.753c5.557,6.503 8.335,15.703 8.335,27.6l0,6.779l-48.905,0c0.507,6.18 2.571,11.068 6.191,14.665c3.62,3.597 8.174,5.396 13.661,5.396c7.702,0 13.973,-3.113 18.815,-9.339l9.062,8.647c-2.997,4.473 -6.998,7.943 -12.001,10.41c-5.004,2.468 -10.619,3.701 -16.844,3.701Zm-2.006,-64.123c-4.612,0 -8.336,1.614 -11.172,4.842c-2.836,3.228 -4.646,7.724 -5.43,13.488l32.027,0l0,-1.245c-0.368,-5.626 -1.867,-9.88 -4.496,-12.762c-2.628,-2.882 -6.271,-4.323 -10.929,-4.323Z" style="fill:#2b2b2b;fill-rule:nonzero;"/><path d="M2023.69,344.678c-2.214,-0.369 -4.496,-0.554 -6.848,-0.554c-7.702,0 -12.89,2.952 -15.564,8.855l0,51.188l-16.809,0l0,-74.846l16.048,0l0.415,8.37c4.058,-6.502 9.684,-9.753 16.878,-9.753c2.398,0 4.381,0.323 5.949,0.968l-0.069,15.772Z" style="fill:#2b2b2b;fill-rule:nonzero;"/><path d="M2148.41,391.093c-3.643,4.75 -8.693,8.347 -15.149,10.791c-6.456,2.444 -13.788,3.666 -21.997,3.666c-8.439,0 -15.91,-1.914 -22.412,-5.741c-6.502,-3.828 -11.517,-9.304 -15.045,-16.429c-3.528,-7.125 -5.361,-15.437 -5.5,-24.937l0,-7.886c0,-15.218 3.644,-27.104 10.93,-35.658c7.286,-8.555 17.455,-12.832 30.505,-12.832c11.206,0 20.107,2.767 26.701,8.301c6.595,5.534 10.56,13.512 11.898,23.934l-17.155,0c-1.937,-12.129 -8.97,-18.193 -21.098,-18.193c-7.84,0 -13.8,2.825 -17.881,8.474c-4.081,5.649 -6.191,13.938 -6.33,24.868l0,7.747c0,10.883 2.295,19.334 6.883,25.352c4.589,6.018 10.964,9.027 19.127,9.027c8.946,0 15.31,-2.029 19.091,-6.087l0,-19.714l-20.752,0l0,-13.282l38.184,0l0,38.599Z" style="fill:#2b2b2b;fill-rule:nonzero;"/><path d="M2181.82,329.321l0.484,7.817c5.257,-6.133 12.451,-9.2 21.582,-9.2c10.007,0 16.855,3.827 20.544,11.483c5.442,-7.656 13.097,-11.483 22.966,-11.483c8.254,0 14.399,2.283 18.434,6.848c4.036,4.565 6.099,11.298 6.191,20.199l0,49.182l-16.809,0l0,-48.698c0,-4.75 -1.037,-8.232 -3.112,-10.445c-2.076,-2.214 -5.511,-3.321 -10.307,-3.321c-3.828,0 -6.952,1.026 -9.373,3.078c-2.421,2.053 -4.116,4.739 -5.084,8.059l0.069,51.327l-16.809,0l0,-49.252c-0.231,-8.808 -4.727,-13.212 -13.489,-13.212c-6.733,0 -11.506,2.744 -14.319,8.232l0,54.232l-16.809,0l0,-74.846l15.841,0Z" style="fill:#2b2b2b;fill-rule:nonzero;"/><path d="M2354.96,367.505c0,11.621 -2.594,20.867 -7.782,27.738c-5.188,6.872 -12.324,10.307 -21.409,10.307c-8.762,0 -15.587,-3.159 -20.475,-9.477l-0.83,8.094l-15.218,0l0,-106.25l16.809,0l0,38.598c4.842,-5.718 11.367,-8.577 19.576,-8.577c9.131,0 16.302,3.389 21.513,10.168c5.211,6.779 7.816,16.256 7.816,28.43l0,0.969Zm-16.809,-1.453c0,-8.116 -1.43,-14.203 -4.289,-18.261c-2.859,-4.059 -7.009,-6.088 -12.451,-6.088c-7.286,0 -12.405,3.182 -15.356,9.546l0,30.851c2.997,6.503 8.162,9.754 15.494,9.754c5.258,0 9.316,-1.96 12.175,-5.88c2.859,-3.92 4.335,-9.846 4.427,-17.777l0,-2.145Z" style="fill:#2b2b2b;fill-rule:nonzero;"/><path d="M2450.63,404.167l-17.432,0l0,-44.755l-45.032,0l0,44.755l-17.501,0l0,-100.716l17.501,0l0,41.918l45.032,0l0,-41.918l17.432,0l0,100.716Z" style="fill:#2b2b2b;fill-rule:nonzero;"/></g></g><g id="Basiert_auf_616_Bewertungen_05_2020_"><g><path d="M1094.24,845.833l0,-53.32l15.747,0c5.713,0 10.047,1.178 13.001,3.534c2.954,2.356 4.431,5.829 4.431,10.419c0,2.758 -0.751,5.157 -2.252,7.196c-1.502,2.038 -3.559,3.497 -6.171,4.376c3.101,0.684 5.597,2.209 7.489,4.578c1.892,2.368 2.838,5.102 2.838,8.203c0,4.712 -1.519,8.392 -4.559,11.041c-3.04,2.649 -7.269,3.973 -12.689,3.973l-17.835,0Zm4.505,-25.634l0,21.826l13.513,0c3.857,0 6.915,-0.983 9.173,-2.948c2.259,-1.966 3.388,-4.694 3.388,-8.185c0,-3.296 -1.08,-5.902 -3.241,-7.819c-2.161,-1.916 -5.145,-2.874 -8.954,-2.874l-13.879,0Zm0,-3.772l12.304,0c3.76,-0.074 6.672,-0.959 8.734,-2.655c2.063,-1.697 3.095,-4.169 3.095,-7.416c0,-3.418 -1.068,-5.939 -3.204,-7.562c-2.137,-1.624 -5.365,-2.436 -9.687,-2.436l-11.242,0l0,20.069Z" style="fill:#3c3c3c;fill-rule:nonzero;"/><path d="M1164.18,845.833c-0.44,-1.245 -0.721,-3.088 -0.843,-5.529c-1.538,2.002 -3.497,3.546 -5.877,4.632c-2.381,1.087 -4.902,1.63 -7.563,1.63c-3.808,0 -6.891,-1.062 -9.246,-3.186c-2.356,-2.124 -3.534,-4.81 -3.534,-8.057c0,-3.857 1.605,-6.909 4.815,-9.155c3.211,-2.246 7.685,-3.369 13.422,-3.369l7.947,0l0,-4.505c0,-2.832 -0.873,-5.06 -2.619,-6.683c-1.745,-1.624 -4.291,-2.435 -7.635,-2.435c-3.052,0 -5.579,0.781 -7.581,2.343c-2.002,1.563 -3.003,3.443 -3.003,5.64l-4.394,-0.037c0,-3.149 1.465,-5.877 4.394,-8.184c2.93,-2.308 6.531,-3.461 10.803,-3.461c4.419,0 7.905,1.105 10.456,3.314c2.551,2.21 3.863,5.292 3.937,9.247l0,18.75c0,3.833 0.402,6.702 1.208,8.606l0,0.439l-4.687,0Zm-13.77,-3.149c2.93,0 5.548,-0.708 7.855,-2.124c2.307,-1.416 3.986,-3.308 5.036,-5.676l0,-8.716l-7.837,0c-4.37,0.049 -7.788,0.848 -10.254,2.398c-2.466,1.551 -3.699,3.681 -3.699,6.391c0,2.222 0.824,4.065 2.472,5.53c1.648,1.464 3.79,2.197 6.427,2.197Z" style="fill:#3c3c3c;fill-rule:nonzero;"/><path d="M1203.08,835.763c0,-2.173 -0.873,-3.919 -2.618,-5.237c-1.746,-1.319 -4.376,-2.35 -7.892,-3.095c-3.516,-0.744 -6.244,-1.599 -8.185,-2.563c-1.941,-0.965 -3.381,-2.143 -4.321,-3.534c-0.94,-1.392 -1.41,-3.076 -1.41,-5.054c0,-3.125 1.306,-5.707 3.918,-7.745c2.613,-2.039 5.957,-3.058 10.035,-3.058c4.418,0 7.965,1.092 10.638,3.277c2.673,2.186 4.01,5.036 4.01,8.552l-4.395,0c0,-2.32 -0.97,-4.249 -2.911,-5.787c-1.941,-1.538 -4.388,-2.307 -7.342,-2.307c-2.881,0 -5.195,0.641 -6.94,1.923c-1.746,1.282 -2.619,2.948 -2.619,4.999c0,1.977 0.727,3.509 2.179,4.596c1.453,1.086 4.102,2.081 7.947,2.984c3.845,0.904 6.726,1.868 8.643,2.893c1.916,1.026 3.338,2.259 4.266,3.699c0.928,1.44 1.392,3.186 1.392,5.237c0,3.345 -1.349,6.018 -4.047,8.02c-2.698,2.002 -6.219,3.003 -10.565,3.003c-4.614,0 -8.356,-1.117 -11.224,-3.351c-2.869,-2.234 -4.303,-5.06 -4.303,-8.478l4.394,0c0.171,2.564 1.251,4.559 3.241,5.988c1.99,1.428 4.62,2.142 7.892,2.142c3.052,0 5.517,-0.671 7.397,-2.014c1.88,-1.343 2.82,-3.04 2.82,-5.09Z" style="fill:#3c3c3c;fill-rule:nonzero;"/><path d="M1222.23,845.833l-4.395,0l0,-39.624l4.395,0l0,39.624Zm-5.164,-51.086c0,-0.83 0.269,-1.532 0.806,-2.106c0.537,-0.574 1.27,-0.86 2.197,-0.86c0.928,0 1.667,0.286 2.216,0.86c0.549,0.574 0.824,1.276 0.824,2.106c0,0.83 -0.275,1.526 -0.824,2.087c-0.549,0.562 -1.288,0.843 -2.216,0.843c-0.927,0 -1.66,-0.281 -2.197,-0.843c-0.537,-0.561 -0.806,-1.257 -0.806,-2.087Z" style="fill:#3c3c3c;fill-rule:nonzero;"/><path d="M1249.48,846.566c-3.369,0 -6.415,-0.83 -9.137,-2.49c-2.722,-1.661 -4.84,-3.974 -6.354,-6.94c-1.513,-2.966 -2.27,-6.293 -2.27,-9.979l0,-1.575c0,-3.809 0.738,-7.239 2.215,-10.291c1.477,-3.051 3.534,-5.45 6.171,-7.196c2.637,-1.745 5.493,-2.618 8.569,-2.618c4.81,0 8.625,1.642 11.445,4.925c2.819,3.284 4.229,7.77 4.229,13.459l0,2.453l-28.271,0l0,0.843c0,4.492 1.288,8.233 3.863,11.224c2.576,2.991 5.817,4.486 9.723,4.486c2.344,0 4.413,-0.427 6.207,-1.282c1.795,-0.854 3.425,-2.221 4.889,-4.101l2.747,2.087c-3.223,4.663 -7.898,6.995 -14.026,6.995Zm-0.806,-37.354c-3.295,0 -6.073,1.209 -8.331,3.626c-2.258,2.417 -3.631,5.664 -4.12,9.741l23.767,0l0,-0.476c-0.122,-3.809 -1.208,-6.909 -3.259,-9.302c-2.051,-2.392 -4.736,-3.589 -8.057,-3.589Z" style="fill:#3c3c3c;fill-rule:nonzero;"/><path d="M1291.19,809.945c-0.928,-0.171 -1.917,-0.257 -2.967,-0.257c-2.734,0 -5.047,0.763 -6.939,2.289c-1.893,1.526 -3.241,3.742 -4.047,6.647l0,27.209l-4.358,0l0,-39.624l4.285,0l0.073,6.299c2.319,-4.687 6.042,-7.031 11.169,-7.031c1.221,0 2.185,0.159 2.893,0.476l-0.109,3.992Z" style="fill:#3c3c3c;fill-rule:nonzero;"/><path d="M1306.75,796.065l0,10.144l8.204,0l0,3.589l-8.204,0l0,26.404c0,2.197 0.397,3.833 1.191,4.907c0.793,1.074 2.118,1.612 3.973,1.612c0.732,0 1.917,-0.123 3.552,-0.367l0.183,3.589c-1.147,0.415 -2.71,0.623 -4.687,0.623c-3.003,0 -5.188,-0.873 -6.555,-2.619c-1.367,-1.745 -2.051,-4.315 -2.051,-7.708l0,-26.441l-7.288,0l0,-3.589l7.288,0l0,-10.144l4.394,0Z" style="fill:#3c3c3c;fill-rule:nonzero;"/><path d="M1367.29,845.833c-0.439,-1.245 -0.72,-3.088 -0.842,-5.529c-1.538,2.002 -3.497,3.546 -5.878,4.632c-2.38,1.087 -4.901,1.63 -7.562,1.63c-3.809,0 -6.891,-1.062 -9.247,-3.186c-2.356,-2.124 -3.534,-4.81 -3.534,-8.057c0,-3.857 1.605,-6.909 4.816,-9.155c3.21,-2.246 7.684,-3.369 13.421,-3.369l7.947,0l0,-4.505c0,-2.832 -0.873,-5.06 -2.618,-6.683c-1.746,-1.624 -4.291,-2.435 -7.636,-2.435c-3.051,0 -5.578,0.781 -7.58,2.343c-2.002,1.563 -3.003,3.443 -3.003,5.64l-4.395,-0.037c0,-3.149 1.465,-5.877 4.395,-8.184c2.93,-2.308 6.531,-3.461 10.803,-3.461c4.419,0 7.904,1.105 10.455,3.314c2.552,2.21 3.864,5.292 3.937,9.247l0,18.75c0,3.833 0.403,6.702 1.209,8.606l0,0.439l-4.688,0Zm-13.769,-3.149c2.929,0 5.548,-0.708 7.855,-2.124c2.307,-1.416 3.985,-3.308 5.035,-5.676l0,-8.716l-7.837,0c-4.37,0.049 -7.788,0.848 -10.254,2.398c-2.465,1.551 -3.698,3.681 -3.698,6.391c0,2.222 0.824,4.065 2.472,5.53c1.648,1.464 3.79,2.197 6.427,2.197Z" style="fill:#3c3c3c;fill-rule:nonzero;"/><path d="M1407.93,840.816c-2.637,3.833 -6.849,5.75 -12.635,5.75c-4.223,0 -7.434,-1.227 -9.631,-3.681c-2.197,-2.453 -3.32,-6.085 -3.369,-10.894l0,-25.782l4.358,0l0,25.232c0,7.544 3.051,11.316 9.155,11.316c6.348,0 10.364,-2.624 12.048,-7.873l0,-28.675l4.395,0l0,39.624l-4.248,0l-0.073,-5.017Z" style="fill:#3c3c3c;fill-rule:nonzero;"/><path d="M1426.79,845.833l0,-36.035l-6.555,0l0,-3.589l6.555,0l0,-4.797c0,-4.053 1.032,-7.166 3.095,-9.338c2.063,-2.173 4.938,-3.26 8.624,-3.26c1.66,0 3.211,0.208 4.651,0.623l-0.33,3.662c-1.22,-0.293 -2.551,-0.439 -3.991,-0.439c-2.417,0 -4.297,0.75 -5.64,2.252c-1.343,1.501 -2.014,3.631 -2.014,6.39l0,4.907l9.448,0l0,3.589l-9.448,0l0,36.035l-4.395,0Z" style="fill:#3c3c3c;fill-rule:nonzero;"/><path d="M1491.87,792.11l0,3.845l-0.513,0c-6.372,0 -11.389,1.874 -15.051,5.622c-3.662,3.747 -5.688,8.954 -6.079,15.619c1.465,-2.027 3.333,-3.595 5.603,-4.706c2.271,-1.111 4.81,-1.666 7.617,-1.666c4.688,0 8.417,1.617 11.188,4.852c2.771,3.235 4.157,7.464 4.157,12.689c0,3.467 -0.647,6.592 -1.941,9.375c-1.294,2.783 -3.15,4.95 -5.567,6.5c-2.417,1.551 -5.176,2.326 -8.276,2.326c-5.103,0 -9.253,-1.85 -12.451,-5.548c-3.199,-3.699 -4.798,-8.478 -4.798,-14.337l0,-4.395c0,-9.546 2.173,-16.937 6.519,-22.174c4.346,-5.237 10.51,-7.904 18.493,-8.002l1.099,0Zm-9.119,22.486c-2.783,0 -5.377,0.824 -7.782,2.471c-2.404,1.648 -4.01,3.742 -4.815,6.281l0,3.735c0,4.639 1.19,8.423 3.57,11.353c2.381,2.93 5.475,4.394 9.284,4.394c3.418,0 6.183,-1.355 8.294,-4.065c2.112,-2.709 3.168,-6.127 3.168,-10.253c0,-4.2 -1.056,-7.569 -3.168,-10.108c-2.111,-2.539 -4.962,-3.808 -8.551,-3.808Z" style="fill:#3c3c3c;fill-rule:nonzero;"/><path d="M1527.98,845.833l-4.395,0l0,-48.047l-14.502,5.384l0,-4.102l18.164,-6.738l0.733,0l0,53.503Z" style="fill:#3c3c3c;fill-rule:nonzero;"/><path d="M1575,792.11l0,3.845l-0.513,0c-6.372,0 -11.389,1.874 -15.051,5.622c-3.662,3.747 -5.688,8.954 -6.079,15.619c1.465,-2.027 3.332,-3.595 5.603,-4.706c2.27,-1.111 4.81,-1.666 7.617,-1.666c4.688,0 8.417,1.617 11.188,4.852c2.771,3.235 4.156,7.464 4.156,12.689c0,3.467 -0.647,6.592 -1.941,9.375c-1.293,2.783 -3.149,4.95 -5.566,6.5c-2.417,1.551 -5.176,2.326 -8.276,2.326c-5.103,0 -9.253,-1.85 -12.451,-5.548c-3.199,-3.699 -4.798,-8.478 -4.798,-14.337l0,-4.395c0,-9.546 2.173,-16.937 6.519,-22.174c4.345,-5.237 10.51,-7.904 18.493,-8.002l1.099,0Zm-9.119,22.486c-2.783,0 -5.377,0.824 -7.782,2.471c-2.404,1.648 -4.01,3.742 -4.815,6.281l0,3.735c0,4.639 1.19,8.423 3.57,11.353c2.381,2.93 5.475,4.394 9.284,4.394c3.418,0 6.183,-1.355 8.294,-4.065c2.112,-2.709 3.168,-6.127 3.168,-10.253c0,-4.2 -1.056,-7.569 -3.168,-10.108c-2.111,-2.539 -4.962,-3.808 -8.551,-3.808Z" style="fill:#3c3c3c;fill-rule:nonzero;"/><path d="M1610.67,845.833l0,-53.32l15.747,0c5.713,0 10.046,1.178 13.001,3.534c2.954,2.356 4.431,5.829 4.431,10.419c0,2.758 -0.751,5.157 -2.253,7.196c-1.501,2.038 -3.558,3.497 -6.17,4.376c3.1,0.684 5.597,2.209 7.489,4.578c1.892,2.368 2.838,5.102 2.838,8.203c0,4.712 -1.52,8.392 -4.559,11.041c-3.04,2.649 -7.27,3.973 -12.69,3.973l-17.834,0Zm4.504,-25.634l0,21.826l13.514,0c3.857,0 6.915,-0.983 9.173,-2.948c2.258,-1.966 3.388,-4.694 3.388,-8.185c0,-3.296 -1.081,-5.902 -3.241,-7.819c-2.161,-1.916 -5.146,-2.874 -8.954,-2.874l-13.88,0Zm0,-3.772l12.305,0c3.76,-0.074 6.671,-0.959 8.734,-2.655c2.063,-1.697 3.095,-4.169 3.095,-7.416c0,-3.418 -1.068,-5.939 -3.205,-7.562c-2.136,-1.624 -5.365,-2.436 -9.686,-2.436l-11.243,0l0,20.069Z" style="fill:#3c3c3c;fill-rule:nonzero;"/><path d="M1670.95,846.566c-3.369,0 -6.415,-0.83 -9.137,-2.49c-2.722,-1.661 -4.84,-3.974 -6.353,-6.94c-1.514,-2.966 -2.271,-6.293 -2.271,-9.979l0,-1.575c0,-3.809 0.739,-7.239 2.216,-10.291c1.477,-3.051 3.534,-5.45 6.17,-7.196c2.637,-1.745 5.493,-2.618 8.57,-2.618c4.809,0 8.624,1.642 11.444,4.925c2.82,3.284 4.229,7.77 4.229,13.459l0,2.453l-28.271,0l0,0.843c0,4.492 1.288,8.233 3.863,11.224c2.576,2.991 5.817,4.486 9.723,4.486c2.344,0 4.413,-0.427 6.208,-1.282c1.794,-0.854 3.424,-2.221 4.889,-4.101l2.746,2.087c-3.223,4.663 -7.898,6.995 -14.026,6.995Zm-0.805,-37.354c-3.296,0 -6.073,1.209 -8.332,3.626c-2.258,2.417 -3.631,5.664 -4.12,9.741l23.768,0l0,-0.476c-0.123,-3.809 -1.209,-6.909 -3.26,-9.302c-2.051,-2.392 -4.736,-3.589 -8.056,-3.589Z" style="fill:#3c3c3c;fill-rule:nonzero;"/><path d="M1703.83,836.715l0.659,3.405l0.879,-3.588l9.522,-30.323l3.735,0l9.412,30.066l1.025,4.175l0.842,-3.845l8.13,-30.396l4.541,0l-11.536,39.624l-3.735,0l-10.181,-31.421l-0.476,-2.16l-0.476,2.197l-9.997,31.384l-3.736,0l-11.499,-39.624l4.505,0l8.386,30.506Z" style="fill:#3c3c3c;fill-rule:nonzero;"/><path d="M1766.24,846.566c-3.369,0 -6.414,-0.83 -9.137,-2.49c-2.722,-1.661 -4.84,-3.974 -6.353,-6.94c-1.514,-2.966 -2.271,-6.293 -2.271,-9.979l0,-1.575c0,-3.809 0.739,-7.239 2.216,-10.291c1.477,-3.051 3.534,-5.45 6.17,-7.196c2.637,-1.745 5.494,-2.618 8.57,-2.618c4.809,0 8.624,1.642 11.444,4.925c2.82,3.284 4.23,7.77 4.23,13.459l0,2.453l-28.272,0l0,0.843c0,4.492 1.288,8.233 3.864,11.224c2.575,2.991 5.816,4.486 9.722,4.486c2.344,0 4.413,-0.427 6.208,-1.282c1.794,-0.854 3.424,-2.221 4.889,-4.101l2.746,2.087c-3.222,4.663 -7.898,6.995 -14.026,6.995Zm-0.805,-37.354c-3.296,0 -6.073,1.209 -8.332,3.626c-2.258,2.417 -3.631,5.664 -4.119,9.741l23.767,0l0,-0.476c-0.122,-3.809 -1.209,-6.909 -3.26,-9.302c-2.05,-2.392 -4.736,-3.589 -8.056,-3.589Z" style="fill:#3c3c3c;fill-rule:nonzero;"/><path d="M1807.95,809.945c-0.928,-0.171 -1.917,-0.257 -2.967,-0.257c-2.734,0 -5.047,0.763 -6.939,2.289c-1.892,1.526 -3.241,3.742 -4.047,6.647l0,27.209l-4.358,0l0,-39.624l4.285,0l0.073,6.299c2.319,-4.687 6.043,-7.031 11.17,-7.031c1.22,0 2.185,0.159 2.893,0.476l-0.11,3.992Z" style="fill:#3c3c3c;fill-rule:nonzero;"/><path d="M1823.51,796.065l0,10.144l8.203,0l0,3.589l-8.203,0l0,26.404c0,2.197 0.396,3.833 1.19,4.907c0.793,1.074 2.118,1.612 3.973,1.612c0.733,0 1.917,-0.123 3.553,-0.367l0.183,3.589c-1.148,0.415 -2.71,0.623 -4.688,0.623c-3.003,0 -5.188,-0.873 -6.555,-2.619c-1.367,-1.745 -2.051,-4.315 -2.051,-7.708l0,-26.441l-7.287,0l0,-3.589l7.287,0l0,-10.144l4.395,0Z" style="fill:#3c3c3c;fill-rule:nonzero;"/><path d="M1866.28,840.816c-2.637,3.833 -6.848,5.75 -12.634,5.75c-4.224,0 -7.434,-1.227 -9.631,-3.681c-2.198,-2.453 -3.321,-6.085 -3.37,-10.894l0,-25.782l4.358,0l0,25.232c0,7.544 3.052,11.316 9.156,11.316c6.347,0 10.363,-2.624 12.048,-7.873l0,-28.675l4.394,0l0,39.624l-4.248,0l-0.073,-5.017Z" style="fill:#3c3c3c;fill-rule:nonzero;"/><path d="M1886.17,806.209l0.147,6.775c1.489,-2.441 3.345,-4.303 5.566,-5.585c2.222,-1.281 4.676,-1.922 7.361,-1.922c4.248,0 7.41,1.196 9.485,3.589c2.075,2.392 3.125,5.981 3.149,10.766l0,26.001l-4.357,0l0,-26.037c-0.025,-3.54 -0.776,-6.177 -2.253,-7.91c-1.477,-1.734 -3.839,-2.601 -7.086,-2.601c-2.71,0 -5.108,0.849 -7.196,2.546c-2.087,1.696 -3.631,3.985 -4.632,6.866l0,27.136l-4.358,0l0,-39.624l4.174,0Z" style="fill:#3c3c3c;fill-rule:nonzero;"/><path d="M1921.44,825.655c0,-6.201 1.373,-11.114 4.119,-14.74c2.747,-3.625 6.476,-5.438 11.188,-5.438c5.396,0 9.497,2.148 12.305,6.445l0.22,-5.713l4.101,0l0,38.819c0,5.102 -1.428,9.143 -4.285,12.121c-2.856,2.979 -6.726,4.468 -11.608,4.468c-2.759,0 -5.39,-0.616 -7.892,-1.849c-2.503,-1.233 -4.474,-2.875 -5.915,-4.926l2.454,-2.637c3.101,3.809 6.787,5.713 11.06,5.713c3.662,0 6.518,-1.08 8.569,-3.241c2.051,-2.16 3.113,-5.157 3.186,-8.99l0,-4.981c-2.808,3.907 -6.897,5.86 -12.268,5.86c-4.59,0 -8.276,-1.831 -11.06,-5.493c-2.783,-3.663 -4.174,-8.606 -4.174,-14.832l0,-0.586Zm4.431,0.769c0,5.054 1.013,9.039 3.039,11.957c2.027,2.917 4.883,4.376 8.57,4.376c5.395,0 9.216,-2.417 11.462,-7.251l0,-18.42c-1.025,-2.539 -2.502,-4.474 -4.431,-5.805c-1.929,-1.33 -4.248,-1.996 -6.958,-1.996c-3.687,0 -6.555,1.447 -8.606,4.34c-2.051,2.893 -3.076,7.16 -3.076,12.799Z" style="fill:#3c3c3c;fill-rule:nonzero;"/><path d="M1980.14,846.566c-3.369,0 -6.415,-0.83 -9.137,-2.49c-2.722,-1.661 -4.84,-3.974 -6.354,-6.94c-1.513,-2.966 -2.27,-6.293 -2.27,-9.979l0,-1.575c0,-3.809 0.738,-7.239 2.216,-10.291c1.477,-3.051 3.533,-5.45 6.17,-7.196c2.637,-1.745 5.493,-2.618 8.569,-2.618c4.81,0 8.625,1.642 11.445,4.925c2.819,3.284 4.229,7.77 4.229,13.459l0,2.453l-28.271,0l0,0.843c0,4.492 1.288,8.233 3.863,11.224c2.576,2.991 5.817,4.486 9.723,4.486c2.344,0 4.413,-0.427 6.208,-1.282c1.794,-0.854 3.424,-2.221 4.888,-4.101l2.747,2.087c-3.223,4.663 -7.898,6.995 -14.026,6.995Zm-0.806,-37.354c-3.295,0 -6.073,1.209 -8.331,3.626c-2.258,2.417 -3.631,5.664 -4.12,9.741l23.767,0l0,-0.476c-0.122,-3.809 -1.208,-6.909 -3.259,-9.302c-2.051,-2.392 -4.736,-3.589 -8.057,-3.589Z" style="fill:#3c3c3c;fill-rule:nonzero;"/><path d="M2007.72,806.209l0.146,6.775c1.49,-2.441 3.345,-4.303 5.567,-5.585c2.221,-1.281 4.675,-1.922 7.361,-1.922c4.248,0 7.409,1.196 9.484,3.589c2.076,2.392 3.125,5.981 3.15,10.766l0,26.001l-4.358,0l0,-26.037c-0.024,-3.54 -0.775,-6.177 -2.252,-7.91c-1.477,-1.734 -3.839,-2.601 -7.086,-2.601c-2.71,0 -5.109,0.849 -7.196,2.546c-2.088,1.696 -3.632,3.985 -4.633,6.866l0,27.136l-4.358,0l0,-39.624l4.175,0Z" style="fill:#3c3c3c;fill-rule:nonzero;"/><path d="M2062.39,824.3c0,-5.322 0.684,-10.492 2.051,-15.509c1.367,-5.017 3.369,-9.607 6.006,-13.769c2.636,-4.163 5.469,-7.148 8.496,-8.954l1.062,2.966c-1.611,1.147 -3.211,2.82 -4.797,5.017c-1.587,2.197 -3.003,4.81 -4.249,7.837c-1.245,3.027 -2.252,6.427 -3.021,10.199c-0.769,3.772 -1.153,8.051 -1.153,12.836c0,5.102 0.58,10.009 1.739,14.721c1.16,4.712 2.753,8.869 4.779,12.47c2.027,3.601 4.26,6.305 6.702,8.111l-1.062,2.82c-3.101,-1.855 -5.969,-4.852 -8.606,-8.99c-2.637,-4.138 -4.62,-8.692 -5.951,-13.66c-1.331,-4.968 -1.996,-10.333 -1.996,-16.095Z" style="fill:#3c3c3c;fill-rule:nonzero;"/><path d="M2118.35,823.604c0,7.52 -1.379,13.227 -4.138,17.121c-2.759,3.894 -6.824,5.841 -12.195,5.841c-5.273,0 -9.314,-1.911 -12.121,-5.731c-2.808,-3.821 -4.248,-9.382 -4.322,-16.681l0,-9.558c0,-7.496 1.392,-13.172 4.175,-17.029c2.783,-3.858 6.848,-5.786 12.195,-5.786c5.273,0 9.302,1.861 12.085,5.584c2.783,3.723 4.224,9.211 4.321,16.461l0,9.778Zm-4.394,-9.558c0,-6.103 -0.995,-10.718 -2.985,-13.843c-1.99,-3.125 -4.999,-4.687 -9.027,-4.687c-3.955,0 -6.934,1.526 -8.936,4.578c-2.002,3.051 -3.027,7.556 -3.076,13.513l0,10.473c0,6.08 1.032,10.73 3.095,13.953c2.063,3.223 5.059,4.834 8.99,4.834c3.906,0 6.867,-1.575 8.881,-4.724c2.014,-3.15 3.033,-7.764 3.058,-13.843l0,-10.254Z" style="fill:#3c3c3c;fill-rule:nonzero;"/><path d="M2130.72,818.514l2.6,-26.001l26.66,0l0,4.065l-22.888,0l-1.868,18.018c2.857,-1.954 6.202,-2.93 10.035,-2.93c4.809,0 8.642,1.562 11.499,4.687c2.856,3.125 4.284,7.288 4.284,12.488c0,5.615 -1.391,9.973 -4.174,13.074c-2.784,3.1 -6.702,4.651 -11.756,4.651c-4.638,0 -8.398,-1.294 -11.279,-3.882c-2.881,-2.588 -4.529,-6.213 -4.944,-10.877l4.211,0c0.416,3.638 1.648,6.391 3.699,8.259c2.051,1.867 4.822,2.801 8.313,2.801c3.809,0 6.684,-1.208 8.624,-3.625c1.941,-2.417 2.912,-5.86 2.912,-10.328c0,-3.906 -1.087,-7.092 -3.259,-9.558c-2.173,-2.466 -5.14,-3.698 -8.899,-3.698c-2.076,0 -3.882,0.262 -5.42,0.787c-1.538,0.525 -3.162,1.544 -4.871,3.058l-3.479,-0.989Z" style="fill:#3c3c3c;fill-rule:nonzero;"/><path d="M2169.4,850.411l-3.992,0l22.266,-57.898l3.955,0l-22.229,57.898Z" style="fill:#3c3c3c;fill-rule:nonzero;"/><path d="M2232.49,845.833l-33.398,0l0,-3.369l18.274,-20.727c3.027,-3.492 5.127,-6.372 6.298,-8.643c1.172,-2.27 1.758,-4.48 1.758,-6.628c0,-3.369 -0.989,-6.037 -2.966,-8.002c-1.978,-1.965 -4.7,-2.948 -8.167,-2.948c-3.588,0 -6.488,1.147 -8.697,3.442c-2.21,2.295 -3.314,5.274 -3.314,8.936l-4.358,0c0,-3.003 0.677,-5.737 2.032,-8.203c1.355,-2.466 3.284,-4.401 5.786,-5.805c2.503,-1.403 5.353,-2.105 8.551,-2.105c4.883,0 8.698,1.281 11.445,3.845c2.746,2.563 4.119,6.055 4.119,10.473c0,2.491 -0.775,5.213 -2.325,8.167c-1.55,2.954 -4.279,6.641 -8.185,11.06l-14.868,16.809l28.015,0l0,3.698Z" style="fill:#3c3c3c;fill-rule:nonzero;"/><path d="M2272.82,823.604c0,7.52 -1.379,13.227 -4.138,17.121c-2.759,3.894 -6.824,5.841 -12.195,5.841c-5.274,0 -9.314,-1.911 -12.122,-5.731c-2.807,-3.821 -4.248,-9.382 -4.321,-16.681l0,-9.558c0,-7.496 1.392,-13.172 4.175,-17.029c2.783,-3.858 6.848,-5.786 12.195,-5.786c5.273,0 9.301,1.861 12.085,5.584c2.783,3.723 4.223,9.211 4.321,16.461l0,9.778Zm-4.395,-9.558c0,-6.103 -0.994,-10.718 -2.984,-13.843c-1.99,-3.125 -4.999,-4.687 -9.027,-4.687c-3.955,0 -6.934,1.526 -8.936,4.578c-2.002,3.051 -3.027,7.556 -3.076,13.513l0,10.473c0,6.08 1.031,10.73 3.094,13.953c2.063,3.223 5.06,4.834 8.991,4.834c3.906,0 6.866,-1.575 8.881,-4.724c2.014,-3.15 3.033,-7.764 3.057,-13.843l0,-10.254Z" style="fill:#3c3c3c;fill-rule:nonzero;"/><path d="M2315.62,845.833l-33.398,0l0,-3.369l18.273,-20.727c3.028,-3.492 5.127,-6.372 6.299,-8.643c1.172,-2.27 1.758,-4.48 1.758,-6.628c0,-3.369 -0.989,-6.037 -2.966,-8.002c-1.978,-1.965 -4.7,-2.948 -8.167,-2.948c-3.589,0 -6.488,1.147 -8.697,3.442c-2.21,2.295 -3.314,5.274 -3.314,8.936l-4.358,0c0,-3.003 0.677,-5.737 2.032,-8.203c1.355,-2.466 3.284,-4.401 5.786,-5.805c2.503,-1.403 5.353,-2.105 8.551,-2.105c4.883,0 8.698,1.281 11.444,3.845c2.747,2.563 4.12,6.055 4.12,10.473c0,2.491 -0.775,5.213 -2.325,8.167c-1.55,2.954 -4.279,6.641 -8.185,11.06l-14.868,16.809l28.015,0l0,3.698Z" style="fill:#3c3c3c;fill-rule:nonzero;"/><path d="M2355.95,823.604c0,7.52 -1.38,13.227 -4.138,17.121c-2.759,3.894 -6.824,5.841 -12.195,5.841c-5.274,0 -9.314,-1.911 -12.122,-5.731c-2.807,-3.821 -4.248,-9.382 -4.321,-16.681l0,-9.558c0,-7.496 1.392,-13.172 4.175,-17.029c2.783,-3.858 6.848,-5.786 12.195,-5.786c5.273,0 9.301,1.861 12.085,5.584c2.783,3.723 4.223,9.211 4.321,16.461l0,9.778Zm-4.395,-9.558c0,-6.103 -0.995,-10.718 -2.984,-13.843c-1.99,-3.125 -4.999,-4.687 -9.027,-4.687c-3.956,0 -6.934,1.526 -8.936,4.578c-2.002,3.051 -3.027,7.556 -3.076,13.513l0,10.473c0,6.08 1.031,10.73 3.094,13.953c2.063,3.223 5.06,4.834 8.991,4.834c3.906,0 6.866,-1.575 8.88,-4.724c2.015,-3.15 3.034,-7.764 3.058,-13.843l0,-10.254Z" style="fill:#3c3c3c;fill-rule:nonzero;"/><path d="M2379.16,824.849c0,5.372 -0.666,10.541 -1.996,15.509c-1.331,4.969 -3.302,9.516 -5.915,13.642c-2.612,4.126 -5.493,7.141 -8.642,9.045l-1.062,-2.82c2.392,-1.709 4.608,-4.357 6.647,-7.946c2.038,-3.589 3.643,-7.77 4.815,-12.543c1.172,-4.773 1.758,-9.955 1.758,-15.546c0,-5.053 -0.586,-9.93 -1.758,-14.63c-1.172,-4.7 -2.789,-8.899 -4.852,-12.598c-2.063,-3.698 -4.266,-6.39 -6.61,-8.074l1.062,-2.82c3.076,1.88 5.92,4.883 8.533,9.008c2.612,4.126 4.602,8.704 5.969,13.733c1.367,5.03 2.051,10.376 2.051,16.04Z" style="fill:#3c3c3c;fill-rule:nonzero;"/></g></g><g id="Gruppe_1"><path id="Polygon_1" d="M1516.67,491.667l27.5,58.75l64.166,8.096l-47.171,44.404l12.171,63.75l-56.666,-31.304l-56.667,31.304l12.158,-63.75l-47.158,-44.404l64.167,-8.096l27.5,-58.75Z" style="fill:#ff6c00;fill-rule:nonzero;"/><path id="Polygon_2" d="M1725,491.667l27.5,58.75l64.167,8.096l-47.171,44.404l12.171,63.75l-56.667,-31.304l-56.667,31.304l12.159,-63.75l-47.159,-44.404l64.167,-8.096l27.5,-58.75Z" style="fill:#ff6c00;fill-rule:nonzero;"/><path id="Polygon_3" d="M1931.25,491.667l28.125,58.75l65.625,8.096l-48.242,44.404l12.434,63.75l-57.942,-31.304l-57.942,31.304l12.434,-63.75l-48.242,-44.404l65.625,-8.096l28.125,-58.75Z" style="fill:#ff6c00;fill-rule:nonzero;"/><path id="Polygon_4" d="M2137.5,491.667l27.5,58.75l64.167,8.096l-47.171,44.404l12.171,63.75l-56.667,-31.304l-56.667,31.304l12.159,-63.75l-47.159,-44.404l64.167,-8.096l27.5,-58.75Z" style="fill:#ff6c00;fill-rule:nonzero;"/><path id="Differenzmenge_1" d="M2289.17,666.667l12.154,-63.75l-47.154,-44.409l64.166,-8.091l27.5,-58.75l0,143.696l-56.645,31.304l-0.021,0Z" style="fill:#ff6c00;fill-rule:nonzero;"/><path id="Differenzmenge_2" d="M2402.5,666.667l-12.154,-63.75l47.154,-44.409l-64.167,-8.091l-27.5,-58.75l0,143.695l56.646,31.305l0.021,0Z" style="fill:#a8a8a8;fill-rule:nonzero;"/></g><g id="_4.5"><g><path d="M1161.26,599.3l12.756,0l0,18.014l-12.756,0l0,24.353l-22.343,0l0,-24.353l-46.155,0l-1.005,-14.071l46.928,-74.141l22.575,0l0,70.198Zm-47.237,0l24.894,0l0,-39.738l-1.469,2.551l-23.425,37.187Z" style="fill:#ff6c00;fill-rule:nonzero;"/><path d="M1188.08,630.688c0,-3.556 1.198,-6.442 3.595,-8.658c2.396,-2.217 5.399,-3.325 9.007,-3.325c3.659,0 6.687,1.108 9.084,3.325c2.396,2.216 3.595,5.102 3.595,8.658c0,3.505 -1.186,6.353 -3.557,8.543c-2.371,2.191 -5.411,3.286 -9.122,3.286c-3.66,0 -6.675,-1.095 -9.046,-3.286c-2.371,-2.19 -3.556,-5.038 -3.556,-8.543Z" style="fill:#ff6c00;fill-rule:nonzero;"/><path d="M1235.32,586.312l6.494,-57.21l63.086,0l0,18.632l-44.763,0l-2.783,24.198c5.308,-2.835 10.952,-4.252 16.931,-4.252c10.72,0 19.121,3.324 25.203,9.973c6.082,6.649 9.123,15.952 9.123,27.909c0,7.268 -1.533,13.775 -4.6,19.521c-3.067,5.747 -7.461,10.205 -13.182,13.375c-5.721,3.17 -12.472,4.755 -20.255,4.755c-6.803,0 -13.117,-1.379 -18.941,-4.136c-5.824,-2.758 -10.424,-6.636 -13.8,-11.636c-3.376,-4.999 -5.167,-10.694 -5.374,-17.085l22.111,0c0.464,4.69 2.101,8.336 4.91,10.939c2.809,2.603 6.481,3.904 11.017,3.904c5.051,0 8.942,-1.816 11.674,-5.45c2.731,-3.634 4.097,-8.775 4.097,-15.424c0,-6.391 -1.572,-11.287 -4.716,-14.689c-3.144,-3.401 -7.602,-5.102 -13.375,-5.102c-5.308,0 -9.612,1.391 -12.911,4.174l-2.164,2.011l-17.782,-4.407Z" style="fill:#ff6c00;fill-rule:nonzero;"/></g></g></g></svg>