<?xml version="1.0" encoding="UTF-8" standalone="no"?><!DOCTYPE svg PUBLIC "-//W3C//DTD SVG 1.1//EN" "http://www.w3.org/Graphics/SVG/1.1/DTD/svg11.dtd"><svg width="100%" height="100%" viewBox="0 0 11792 4500" version="1.1" xmlns="http://www.w3.org/2000/svg" xmlns:xlink="http://www.w3.org/1999/xlink" xml:space="preserve" xmlns:serif="http://www.serif.com/" style="fill-rule:evenodd;clip-rule:evenodd;stroke-linejoin:round;stroke-miterlimit:2;"><g id="Gruppe_2"><g><path id="Rechteck_4-2" d="M-17.419,0l12118.3,0c61.457,0 112.033,50.572 112.033,112.033l0,392.116l-12342.3,0l0,-392.116c0,-61.461 50.572,-112.033 112.033,-112.033Z" style="fill:#ff6c00;fill-rule:nonzero;"/></g><g><path id="Rechteck_1-2" d="M-129.452,504.149l12342.3,0l0,3883.82c0,61.457 -50.576,112.033 -112.033,112.033l-12118.3,0c-61.461,0 -112.033,-50.576 -112.033,-112.033l0,-3883.82Z" style="fill:#fff;fill-rule:nonzero;"/></g><g id="google-color"><path id="Pfad_1" d="M3514.59,2541.4c0.184,-95.609 -7.936,-191.052 -24.271,-285.254l-1324.18,0l0,540.618l758.299,0c-31.396,174.462 -132.854,328.696 -280.625,426.6l0,350.776l452.407,0c265.671,-244.511 418.35,-605.611 418.35,-1032.72l0.018,-0.018Z" style="fill:#4285f4;fill-rule:nonzero;"/><path id="Pfad_2" d="M2166.07,3913.04c378.632,0 697.949,-124.321 930.584,-338.922l-452.408,-350.776c-125.872,85.633 -288.356,134.121 -477.674,134.121c-366.254,0 -676.792,-247.086 -788.207,-579.301l-466.806,0l0,361.603c238.084,473.389 724.662,773.298 1254.55,773.253l-0.036,0.022Z" style="fill:#34a853;fill-rule:nonzero;"/><path id="Pfad_3" d="M1377.95,2778.16c-58.795,-174.319 -58.795,-363.202 0,-537.517l0,-361.607l-466.336,0c-198.966,396.355 -198.966,864.376 0,1260.73l466.318,-361.603l0.018,0Z" style="fill:#fbbc04;fill-rule:nonzero;"/><path id="Pfad_4" d="M2166.18,1660.83c200.101,-3.222 393.654,72.423 538.544,210.475l400.814,-400.819c-254.105,-238.416 -590.939,-369.373 -939.358,-365.206c-530.037,-0.076 -1016.71,300.092 -1254.55,773.773l466.318,361.607c110.913,-332.72 421.993,-579.807 788.211,-579.807l0.018,-0.023Z" style="fill:#ea4335;fill-rule:nonzero;"/></g><g id="Smartphoniker_GmbH"><g><path d="M4857.73,1582.92c0,-19.838 -6.973,-35.133 -20.923,-45.879c-13.95,-10.747 -39.109,-21.596 -75.479,-32.548c-36.375,-10.953 -65.306,-23.146 -86.799,-36.581c-41.125,-25.831 -61.685,-59.517 -61.685,-101.054c0,-36.371 14.824,-66.337 44.481,-89.896c29.658,-23.558 68.148,-35.339 115.471,-35.339c31.414,0 59.413,5.785 84.007,17.36c24.593,11.571 43.912,28.053 57.966,49.443c14.053,21.389 21.08,45.104 21.08,71.141l-78.119,0c0,-23.559 -7.385,-42.004 -22.16,-55.331c-14.779,-13.332 -35.909,-19.996 -63.393,-19.996c-25.628,0 -45.517,5.476 -59.673,16.429c-14.157,10.952 -21.237,26.247 -21.237,45.88c0,16.531 7.65,30.325 22.94,41.38c15.295,11.06 40.507,21.806 75.636,32.239c35.133,10.437 63.343,22.321 84.629,35.649c21.287,13.332 36.886,28.622 46.808,45.88c9.917,17.257 14.878,37.454 14.878,60.601c0,37.611 -14.412,67.529 -43.24,89.743c-28.833,22.214 -67.942,33.323 -117.33,33.323c-32.656,0 -62.672,-6.046 -90.053,-18.136c-27.385,-12.086 -48.667,-28.775 -63.859,-50.061c-15.187,-21.286 -22.783,-46.086 -22.783,-74.399l78.428,0c0,25.629 8.47,45.467 25.418,59.521c16.944,14.053 41.228,21.076 72.849,21.076c27.277,0 47.788,-5.526 61.528,-16.581c13.744,-11.056 20.614,-25.678 20.614,-43.864Z" style="fill:#2b2b2b;fill-rule:nonzero;"/><path d="M5068.53,1363.76l2.169,35.03c23.563,-27.484 55.801,-41.228 96.716,-41.228c44.844,0 75.537,17.15 92.069,51.459c24.383,-34.309 58.692,-51.459 102.913,-51.459c36.994,0 64.531,10.231 82.614,30.688c18.082,20.457 27.331,50.63 27.743,90.518l0,220.401l-75.326,0l0,-218.232c0,-21.286 -4.652,-36.89 -13.951,-46.807c-9.298,-9.922 -24.696,-14.883 -46.189,-14.883c-17.15,0 -31.154,4.598 -42.003,13.794c-10.849,9.2 -18.441,21.237 -22.783,36.115l0.309,230.013l-75.327,0l0,-220.714c-1.03,-39.472 -21.183,-59.208 -60.448,-59.208c-30.168,0 -51.558,12.297 -64.164,36.891l0,243.031l-75.326,0l0,-335.409l70.984,0Z" style="fill:#2b2b2b;fill-rule:nonzero;"/><path d="M5750.5,1699.17c-3.307,-6.408 -6.198,-16.845 -8.68,-31.311c-23.971,25.006 -53.315,37.509 -88.036,37.509c-33.686,0 -61.17,-9.608 -82.456,-28.829c-21.287,-19.22 -31.93,-42.985 -31.93,-71.298c0,-35.752 13.278,-63.186 39.835,-82.299c26.556,-19.117 64.531,-28.676 113.92,-28.676l46.189,0l0,-22.008c0,-17.361 -4.858,-31.257 -14.569,-41.694c-9.716,-10.437 -24.491,-15.653 -44.33,-15.653c-17.154,0 -31.203,4.288 -42.16,12.865c-10.952,8.573 -16.428,19.476 -16.428,32.701l-75.327,0c0,-18.392 6.099,-35.595 18.288,-51.612c12.194,-16.016 28.779,-28.568 49.756,-37.665c20.973,-9.093 44.379,-13.637 70.209,-13.637c39.266,0 70.577,9.868 93.929,29.604c23.352,19.735 35.34,47.479 35.958,83.231l0,151.272c0,30.173 4.235,54.251 12.709,72.23l0,5.27l-76.877,0Zm-82.766,-54.251c14.878,0 28.883,-3.616 42.004,-10.849c13.121,-7.233 22.989,-16.944 29.604,-29.138l0,-63.236l-40.61,0c-27.896,0 -48.874,4.854 -62.927,14.569c-14.053,9.711 -21.08,23.455 -21.08,41.228c0,14.466 4.808,25.987 14.416,34.565c9.608,8.572 22.474,12.861 38.593,12.861Z" style="fill:#2b2b2b;fill-rule:nonzero;"/><path d="M6069.16,1432.58c-9.917,-1.653 -20.148,-2.482 -30.688,-2.482c-34.511,0 -57.76,13.229 -69.747,39.682l0,229.39l-75.327,0l0,-335.409l71.916,0l1.86,37.508c18.185,-29.137 43.397,-43.706 75.636,-43.706c10.746,0 19.633,1.447 26.659,4.338l-0.309,70.679Z" style="fill:#2b2b2b;fill-rule:nonzero;"/><path d="M6226.64,1282.24l0,81.525l59.207,0l0,55.797l-59.207,0l0,187.234c0,12.812 2.532,22.062 7.596,27.744c5.064,5.682 14.103,8.523 27.125,8.523c8.676,0 17.46,-1.03 26.346,-3.096l0,58.275c-17.15,4.755 -33.686,7.13 -49.595,7.13c-57.867,0 -86.799,-31.93 -86.799,-95.784l0,-190.026l-55.178,0l0,-55.797l55.178,0l0,-81.525l75.327,0Z" style="fill:#2b2b2b;fill-rule:nonzero;"/><path d="M6637.04,1534.88c0,51.871 -11.777,93.252 -35.335,124.15c-23.559,30.895 -55.179,46.342 -94.857,46.342c-36.787,0 -66.234,-12.091 -88.349,-36.268l0,159.025l-75.327,0l0,-464.364l69.439,0l3.101,34.098c22.11,-26.865 52.18,-40.296 90.204,-40.296c40.919,0 73.001,15.241 96.25,45.723c23.249,30.482 34.874,72.795 34.874,126.938l0,4.652Zm-75.013,-6.512c0,-33.475 -6.668,-60.032 -19.996,-79.664c-13.332,-19.633 -32.395,-29.452 -57.195,-29.452c-30.791,0 -52.902,12.71 -66.337,38.132l0,148.794c13.641,26.036 35.958,39.059 66.96,39.059c23.971,0 42.725,-9.662 56.263,-28.985c13.534,-19.324 20.305,-48.618 20.305,-87.884Z" style="fill:#2b2b2b;fill-rule:nonzero;"/><path d="M6775.02,1400.34c24.589,-28.519 55.694,-42.779 93.306,-42.779c71.504,0 107.771,40.816 108.802,122.443l0,219.164l-75.327,0l0,-216.372c0,-23.146 -5.01,-39.525 -15.035,-49.133c-10.02,-9.613 -24.746,-14.417 -44.172,-14.417c-30.173,0 -52.696,13.436 -67.574,40.301l0,239.621l-75.331,0l0,-476.141l75.331,0l0,177.313Z" style="fill:#2b2b2b;fill-rule:nonzero;"/><path d="M7039.1,1528.37c0,-32.857 6.512,-62.46 19.53,-88.811c13.018,-26.35 31.307,-46.601 54.869,-60.757c23.559,-14.157 50.63,-21.233 81.216,-21.233c45.256,0 81.99,14.569 110.2,43.706c28.21,29.142 43.451,67.785 45.723,115.937l0.309,17.67c0,33.063 -6.355,62.617 -19.064,88.654c-12.709,26.041 -30.894,46.189 -54.555,60.448c-23.666,14.26 -50.993,21.39 -81.995,21.39c-47.323,0 -85.195,-15.757 -113.611,-47.274c-28.411,-31.512 -42.622,-73.516 -42.622,-126.01l0,-3.72Zm75.327,6.512c0,34.51 7.13,61.533 21.389,81.062c14.26,19.53 34.099,29.295 59.517,29.295c25.422,0 45.208,-9.922 59.364,-29.761c14.157,-19.839 21.233,-48.873 21.233,-87.108c0,-33.892 -7.283,-60.758 -21.851,-80.596c-14.569,-19.839 -34.359,-29.756 -59.364,-29.756c-24.594,0 -44.124,9.764 -58.589,29.29c-14.466,19.529 -21.699,48.721 -21.699,87.574Z" style="fill:#2b2b2b;fill-rule:nonzero;"/><path d="M7484.55,1363.76l2.169,38.75c24.8,-29.967 57.348,-44.948 97.648,-44.948c69.851,0 105.397,39.987 106.634,119.965l0,221.642l-75.327,0l0,-217.304c0,-21.286 -4.598,-37.043 -13.794,-47.273c-9.195,-10.227 -24.23,-15.345 -45.104,-15.345c-30.379,0 -53.005,13.745 -67.888,41.229l0,238.693l-75.326,0l0,-335.409l70.988,0Z" style="fill:#2b2b2b;fill-rule:nonzero;"/><path d="M7847.85,1699.17l-75.326,0l0,-335.409l75.326,0l0,335.409Zm-79.978,-422.513c0,-11.575 3.67,-21.183 11.006,-28.828c7.336,-7.65 17.823,-11.472 31.464,-11.472c13.641,0 24.176,3.822 31.62,11.472c7.439,7.645 11.158,17.253 11.158,28.828c0,11.365 -3.719,20.82 -11.158,28.362c-7.444,7.543 -17.979,11.316 -31.62,11.316c-13.641,0 -24.128,-3.773 -31.464,-11.316c-7.336,-7.542 -11.006,-16.997 -11.006,-28.362Z" style="fill:#2b2b2b;fill-rule:nonzero;"/><path d="M8038.8,1555.33l-33.48,34.412l0,109.425l-75.327,0l0,-476.141l75.327,0l0,274.647l23.558,-29.447l92.687,-104.468l90.514,0l-124.612,139.804l137.944,195.605l-87.108,0l-99.503,-143.837Z" style="fill:#2b2b2b;fill-rule:nonzero;"/><path d="M8402.72,1705.37c-47.739,0 -86.436,-15.035 -116.089,-45.105c-29.657,-30.065 -44.486,-70.106 -44.486,-120.117l0,-9.299c0,-33.48 6.458,-63.393 19.373,-89.743c12.92,-26.35 31.051,-46.861 54.403,-61.533c23.353,-14.672 49.394,-22.008 78.119,-22.008c45.674,0 80.96,14.569 105.862,43.706c24.903,29.142 37.352,70.371 37.352,123.685l0,30.379l-219.159,0c2.272,27.695 11.521,49.599 27.744,65.719c16.222,16.119 36.63,24.181 61.219,24.181c34.515,0 62.618,-13.951 84.316,-41.851l40.61,38.75c-13.43,20.045 -31.36,35.595 -53.78,46.65c-22.425,11.06 -47.588,16.586 -75.484,16.586Zm-8.989,-287.356c-20.668,0 -37.357,7.233 -50.066,21.698c-12.709,14.466 -20.82,34.614 -24.333,60.444l143.523,0l0,-5.579c-1.649,-25.212 -8.366,-44.275 -20.148,-57.191c-11.777,-12.915 -28.102,-19.372 -48.976,-19.372Z" style="fill:#2b2b2b;fill-rule:nonzero;"/><path d="M8771.31,1432.58c-9.921,-1.653 -20.148,-2.482 -30.688,-2.482c-34.515,0 -57.764,13.229 -69.747,39.682l0,229.39l-75.327,0l0,-335.409l71.917,0l1.859,37.508c18.186,-29.137 43.397,-43.706 75.636,-43.706c10.746,0 19.633,1.447 26.66,4.338l-0.31,70.679Z" style="fill:#2b2b2b;fill-rule:nonzero;"/><path d="M9330.22,1640.58c-16.325,21.286 -38.956,37.406 -67.887,48.358c-28.932,10.953 -61.789,16.429 -98.576,16.429c-37.818,0 -71.298,-8.578 -100.435,-25.728c-29.138,-17.154 -51.612,-41.694 -67.422,-73.623c-15.81,-31.93 -24.024,-69.179 -24.647,-111.751l0,-35.34c0,-68.197 16.33,-121.462 48.981,-159.795c32.65,-38.338 78.221,-57.504 136.702,-57.504c50.218,0 90.106,12.399 119.656,37.199c29.555,24.8 47.323,60.552 53.319,107.256l-76.877,0c-8.68,-54.354 -40.198,-81.529 -94.547,-81.529c-35.134,0 -61.842,12.66 -80.131,37.975c-18.288,25.315 -27.744,62.461 -28.366,111.442l0,34.717c0,48.77 10.284,86.642 30.845,113.61c20.564,26.969 49.133,40.453 85.714,40.453c40.09,0 68.609,-9.092 85.553,-27.278l0,-88.345l-92.997,0l0,-59.521l171.115,0l0,172.975Z" style="fill:#2b2b2b;fill-rule:nonzero;"/><path d="M9479.94,1363.76l2.169,35.03c23.559,-27.484 55.797,-41.228 96.716,-41.228c44.845,0 75.533,17.15 92.065,51.459c24.387,-34.309 58.692,-51.459 102.918,-51.459c36.989,0 64.527,10.231 82.609,30.688c18.086,20.457 27.331,50.63 27.744,90.518l0,220.401l-75.327,0l0,-218.232c0,-21.286 -4.647,-36.89 -13.946,-46.807c-9.303,-9.922 -24.697,-14.883 -46.189,-14.883c-17.154,0 -31.154,4.598 -42.003,13.794c-10.85,9.2 -18.446,21.237 -22.783,36.115l0.309,230.013l-75.327,0l0,-220.714c-1.035,-39.472 -21.183,-59.208 -60.449,-59.208c-30.172,0 -51.562,12.297 -64.168,36.891l0,243.031l-75.326,0l0,-335.409l70.988,0Z" style="fill:#2b2b2b;fill-rule:nonzero;"/><path d="M10255.8,1534.88c0,52.077 -11.624,93.512 -34.873,124.303c-23.25,30.795 -55.228,46.189 -95.941,46.189c-39.265,0 -69.851,-14.157 -91.755,-42.47l-3.72,36.272l-68.197,0l0,-476.141l75.327,0l0,172.97c21.699,-25.624 50.939,-38.436 87.726,-38.436c40.919,0 73.055,15.187 96.407,45.566c23.352,30.379 35.026,72.849 35.026,127.404l0,4.343Zm-75.326,-6.512c0,-36.37 -6.409,-63.648 -19.221,-81.833c-12.812,-18.19 -31.409,-27.283 -55.797,-27.283c-32.651,0 -55.591,14.26 -68.815,42.779l0,138.254c13.431,29.142 36.577,43.71 69.434,43.71c23.563,0 41.748,-8.783 54.56,-26.35c12.812,-17.567 19.426,-44.123 19.839,-79.664l0,-9.613Z" style="fill:#2b2b2b;fill-rule:nonzero;"/><path d="M10684.6,1699.17l-78.119,0l0,-200.562l-201.803,0l0,200.562l-78.427,0l0,-451.341l78.427,0l0,187.848l201.803,0l0,-187.848l78.119,0l0,451.341Z" style="fill:#2b2b2b;fill-rule:nonzero;"/></g></g><g id="Basiert_auf_616_Bewertungen_05_2020_"><g><path d="M4606.15,3678.42l0,-238.945l70.567,0c25.602,0 45.024,5.279 58.262,15.837c13.238,10.558 19.857,26.122 19.857,46.691c0,12.36 -3.366,23.11 -10.092,32.248c-6.731,9.133 -15.949,15.671 -27.655,19.61c13.897,3.065 25.082,9.899 33.561,20.516c8.479,10.611 12.718,22.863 12.718,36.76c0,21.116 -6.807,37.607 -20.43,49.478c-13.624,11.871 -32.575,17.805 -56.864,17.805l-79.924,0Zm20.188,-114.875l0,97.81l60.556,0c17.285,0 30.988,-4.406 41.107,-13.211c10.124,-8.811 15.183,-21.036 15.183,-36.68c0,-14.77 -4.84,-26.449 -14.524,-35.039c-9.684,-8.587 -23.056,-12.88 -40.126,-12.88l-62.196,0Zm0,-16.903l55.138,0c16.85,-0.332 29.9,-4.298 39.14,-11.898c9.245,-7.605 13.87,-18.683 13.87,-33.234c0,-15.317 -4.786,-26.614 -14.358,-33.888c-9.577,-7.277 -24.043,-10.916 -43.411,-10.916l-50.379,0l0,89.936Z" style="fill:#3c3c3c;fill-rule:nonzero;"/><path d="M4919.57,3678.42c-1.972,-5.58 -3.231,-13.839 -3.778,-24.778c-6.892,8.972 -15.671,15.891 -26.337,20.758c-10.67,4.871 -21.967,7.304 -33.892,7.304c-17.065,0 -30.881,-4.759 -41.435,-14.277c-10.558,-9.519 -15.837,-21.555 -15.837,-36.106c0,-17.285 7.193,-30.962 21.578,-41.027c14.39,-10.065 34.439,-15.097 60.148,-15.097l35.613,0l0,-20.189c0,-12.691 -3.912,-22.675 -11.736,-29.948c-7.82,-7.278 -19.23,-10.912 -34.215,-10.912c-13.677,0 -25.001,3.499 -33.973,10.499c-8.972,7.005 -13.457,15.429 -13.457,25.275l-19.691,-0.166c0,-14.112 6.565,-26.337 19.691,-36.675c13.13,-10.343 29.267,-15.51 48.411,-15.51c19.803,0 35.425,4.952 46.857,14.851c11.432,9.904 17.311,23.715 17.643,41.439l0,84.025c0,17.177 1.802,30.034 5.414,38.566l0,1.968l-21.004,0Zm-61.708,-14.112c13.13,0 24.862,-3.173 35.2,-9.519c10.339,-6.345 17.863,-14.824 22.568,-25.436l0,-39.059l-35.12,0c-19.583,0.22 -34.9,3.8 -45.951,10.746c-11.051,6.951 -16.577,16.496 -16.577,28.641c0,9.957 3.693,18.216 11.078,24.781c7.385,6.561 16.984,9.846 28.802,9.846Z" style="fill:#3c3c3c;fill-rule:nonzero;"/><path d="M5093.89,3633.29c0,-9.738 -3.912,-17.563 -11.732,-23.469c-7.824,-5.911 -19.61,-10.531 -35.367,-13.87c-15.756,-3.334 -27.981,-7.165 -36.679,-11.485c-8.699,-4.325 -15.152,-9.604 -19.364,-15.837c-4.213,-6.238 -6.319,-13.785 -6.319,-22.649c0,-14.004 5.853,-25.575 17.558,-34.708c11.71,-9.137 26.695,-13.704 44.97,-13.704c19.799,0 35.694,4.894 47.673,14.685c11.978,9.797 17.97,22.568 17.97,38.325l-19.696,0c0,-10.397 -4.347,-19.041 -13.045,-25.934c-8.698,-6.892 -19.664,-10.338 -32.902,-10.338c-12.91,0 -23.28,2.872 -31.1,8.617c-7.825,5.746 -11.737,13.211 -11.737,22.403c0,8.859 3.258,15.725 9.765,20.596c6.511,4.867 18.382,9.325 35.613,13.372c17.231,4.051 30.142,8.371 38.732,12.965c8.586,4.597 14.959,10.123 19.118,16.576c4.158,6.453 6.238,14.277 6.238,23.469c0,14.99 -6.046,26.968 -18.136,35.94c-12.091,8.972 -27.87,13.457 -47.346,13.457c-20.676,0 -37.446,-5.005 -50.298,-15.017c-12.857,-10.011 -19.283,-22.675 -19.283,-37.992l19.691,0c0.766,11.49 5.606,20.43 14.524,26.834c8.918,6.399 20.704,9.599 35.366,9.599c13.677,0 24.724,-3.007 33.149,-9.025c8.425,-6.019 12.637,-13.624 12.637,-22.81Z" style="fill:#3c3c3c;fill-rule:nonzero;"/><path d="M5179.71,3678.42l-19.696,0l0,-177.569l19.696,0l0,177.569Zm-23.142,-228.934c0,-3.719 1.205,-6.865 3.612,-9.437c2.406,-2.572 5.691,-3.854 9.845,-3.854c4.159,0 7.471,1.282 9.931,3.854c2.46,2.572 3.693,5.718 3.693,9.437c0,3.72 -1.233,6.839 -3.693,9.353c-2.46,2.519 -5.772,3.778 -9.931,3.778c-4.154,0 -7.439,-1.259 -9.845,-3.778c-2.407,-2.514 -3.612,-5.633 -3.612,-9.353Z" style="fill:#3c3c3c;fill-rule:nonzero;"/><path d="M5301.83,3681.7c-15.098,0 -28.748,-3.719 -40.946,-11.158c-12.198,-7.444 -21.69,-17.809 -28.475,-31.101c-6.78,-13.291 -10.172,-28.201 -10.172,-44.719l0,-7.058c0,-17.069 3.307,-32.44 9.926,-46.117c6.619,-13.673 15.837,-24.423 27.654,-32.248c11.818,-7.82 24.616,-11.732 38.401,-11.732c21.555,0 38.651,7.358 51.289,22.071c12.632,14.716 18.951,34.82 18.951,60.314l0,10.993l-126.692,0l0,3.777c0,20.13 5.772,36.895 17.312,50.299c11.544,13.403 26.068,20.103 43.572,20.103c10.504,0 19.776,-1.914 27.815,-5.745c8.044,-3.827 15.349,-9.953 21.91,-18.378l12.31,9.352c-14.444,20.897 -35.394,31.347 -62.855,31.347Zm-3.612,-167.395c-14.766,0 -27.215,5.418 -37.334,16.249c-10.119,10.832 -16.272,25.382 -18.463,43.653l106.507,0l0,-2.133c-0.546,-17.07 -5.413,-30.962 -14.604,-41.686c-9.191,-10.719 -21.224,-16.083 -36.106,-16.083Z" style="fill:#3c3c3c;fill-rule:nonzero;"/><path d="M5488.74,3517.6c-4.159,-0.767 -8.591,-1.152 -13.296,-1.152c-12.252,0 -22.618,3.419 -31.096,10.258c-8.483,6.838 -14.524,16.769 -18.136,29.787l0,121.933l-19.53,0l0,-177.569l19.203,0l0.327,28.228c10.392,-21.004 27.076,-31.508 50.052,-31.508c5.471,0 9.791,0.713 12.964,2.133l-0.488,17.89Z" style="fill:#3c3c3c;fill-rule:nonzero;"/><path d="M5558.47,3455.39l0,45.458l36.765,0l0,16.084l-36.765,0l0,118.325c0,9.845 1.779,17.177 5.337,21.99c3.554,4.813 9.492,7.224 17.805,7.224c3.28,0 8.591,-0.552 15.917,-1.645l0.821,16.083c-5.141,1.86 -12.145,2.792 -21.004,2.792c-13.458,0 -23.25,-3.912 -29.376,-11.736c-6.125,-7.82 -9.191,-19.337 -9.191,-34.542l0,-118.491l-32.66,0l0,-16.084l32.66,0l0,-45.458l19.691,0Z" style="fill:#3c3c3c;fill-rule:nonzero;"/><path d="M5829.77,3678.42c-1.968,-5.58 -3.227,-13.839 -3.774,-24.778c-6.892,8.972 -15.671,15.891 -26.341,20.758c-10.665,4.871 -21.963,7.304 -33.888,7.304c-17.069,0 -30.88,-4.759 -41.438,-14.277c-10.558,-9.519 -15.837,-21.555 -15.837,-36.106c0,-17.285 7.192,-30.962 21.582,-41.027c14.385,-10.065 34.434,-15.097 60.144,-15.097l35.613,0l0,-20.189c0,-12.691 -3.913,-22.675 -11.732,-29.948c-7.825,-7.278 -19.23,-10.912 -34.22,-10.912c-13.672,0 -24.997,3.499 -33.968,10.499c-8.972,7.005 -13.458,15.429 -13.458,25.275l-19.695,-0.166c0,-14.112 6.565,-26.337 19.695,-36.675c13.131,-10.343 29.268,-15.51 48.412,-15.51c19.803,0 35.42,4.952 46.852,14.851c11.437,9.904 17.316,23.715 17.643,41.439l0,84.025c0,17.177 1.806,30.034 5.418,38.566l0,1.968l-21.008,0Zm-61.704,-14.112c13.126,0 24.863,-3.173 35.201,-9.519c10.339,-6.345 17.858,-14.824 22.564,-25.436l0,-39.059l-35.121,0c-19.583,0.22 -34.9,3.8 -45.951,10.746c-11.046,6.951 -16.572,16.496 -16.572,28.641c0,9.957 3.693,18.216 11.078,24.781c7.385,6.561 16.984,9.846 28.801,9.846Z" style="fill:#3c3c3c;fill-rule:nonzero;"/><path d="M6011.89,3655.94c-11.817,17.177 -30.693,25.767 -56.622,25.767c-18.924,0 -33.314,-5.498 -43.159,-16.495c-9.846,-10.993 -14.878,-27.269 -15.098,-48.82l0,-115.538l19.53,0l0,113.073c0,33.807 13.672,50.711 41.026,50.711c28.448,0 46.445,-11.759 53.991,-35.282l0,-128.502l19.696,0l0,177.569l-19.037,0l-0.327,-22.483Z" style="fill:#3c3c3c;fill-rule:nonzero;"/><path d="M6096.41,3678.42l0,-161.485l-29.375,0l0,-16.084l29.375,0l0,-21.496c0,-18.163 4.624,-32.114 13.869,-41.847c9.245,-9.738 22.129,-14.609 38.647,-14.609c7.439,0 14.39,0.932 20.843,2.792l-1.479,16.41c-5.467,-1.313 -11.432,-1.967 -17.885,-1.967c-10.831,0 -19.256,3.361 -25.275,10.092c-6.018,6.726 -9.025,16.272 -9.025,28.636l0,21.989l42.34,0l0,16.084l-42.34,0l0,161.485l-19.695,0Z" style="fill:#3c3c3c;fill-rule:nonzero;"/><path d="M6388.05,3437.67l0,17.231l-2.299,0c-28.555,0 -51.037,8.398 -67.448,25.194c-16.411,16.791 -25.49,40.126 -27.242,69.994c6.565,-9.084 14.936,-16.111 25.109,-21.089c10.177,-4.979 21.555,-7.466 34.134,-7.466c21.009,0 37.719,7.246 50.137,21.743c12.418,14.497 18.629,33.449 18.629,56.864c0,15.536 -2.899,29.541 -8.698,42.012c-5.799,12.472 -14.116,22.183 -24.948,29.129c-10.831,6.95 -23.195,10.423 -37.087,10.423c-22.868,0 -41.466,-8.29 -55.797,-24.862c-14.336,-16.576 -21.502,-37.993 -21.502,-64.249l0,-19.695c0,-42.779 9.738,-75.9 29.214,-99.369c19.476,-23.469 47.099,-35.421 82.873,-35.86l4.925,0Zm-40.865,100.767c-12.471,0 -24.096,3.693 -34.874,11.074c-10.773,7.385 -17.97,16.769 -21.577,28.147l0,16.738c0,20.789 5.333,37.746 15.998,50.876c10.67,13.13 24.535,19.691 41.605,19.691c15.317,0 27.708,-6.072 37.168,-18.216c9.465,-12.14 14.197,-27.458 14.197,-45.948c0,-18.821 -4.732,-33.919 -14.197,-45.297c-9.46,-11.378 -22.236,-17.065 -38.32,-17.065Z" style="fill:#3c3c3c;fill-rule:nonzero;"/><path d="M6549.88,3678.42l-19.695,0l0,-215.315l-64.989,24.128l0,-18.383l81.399,-30.195l3.285,0l0,239.765Z" style="fill:#3c3c3c;fill-rule:nonzero;"/><path d="M6760.59,3437.67l0,17.231l-2.299,0c-28.555,0 -51.038,8.398 -67.448,25.194c-16.411,16.791 -25.49,40.126 -27.242,69.994c6.565,-9.084 14.931,-16.111 25.109,-21.089c10.172,-4.979 21.555,-7.466 34.134,-7.466c21.008,0 37.719,7.246 50.137,21.743c12.418,14.497 18.624,33.449 18.624,56.864c0,15.536 -2.899,29.541 -8.698,42.012c-5.794,12.472 -14.112,22.183 -24.943,29.129c-10.831,6.95 -23.195,10.423 -37.087,10.423c-22.869,0 -41.466,-8.29 -55.797,-24.862c-14.336,-16.576 -21.502,-37.993 -21.502,-64.249l0,-19.695c0,-42.779 9.738,-75.9 29.214,-99.369c19.471,-23.469 47.099,-35.421 82.873,-35.86l4.925,0Zm-40.865,100.767c-12.472,0 -24.096,3.693 -34.874,11.074c-10.773,7.385 -17.97,16.769 -21.577,28.147l0,16.738c0,20.789 5.332,37.746 15.998,50.876c10.67,13.13 24.535,19.691 41.605,19.691c15.317,0 27.708,-6.072 37.168,-18.216c9.464,-12.14 14.196,-27.458 14.196,-45.948c0,-18.821 -4.732,-33.919 -14.196,-45.297c-9.46,-11.378 -22.237,-17.065 -38.32,-17.065Z" style="fill:#3c3c3c;fill-rule:nonzero;"/><path d="M6920.44,3678.42l0,-238.945l70.567,0c25.602,0 45.02,5.279 58.262,15.837c13.238,10.558 19.857,26.122 19.857,46.691c0,12.36 -3.366,23.11 -10.097,32.248c-6.726,9.133 -15.944,15.671 -27.649,19.61c13.892,3.065 25.082,9.899 33.56,20.516c8.479,10.611 12.718,22.863 12.718,36.76c0,21.116 -6.811,37.607 -20.43,49.478c-13.623,11.871 -32.579,17.805 -56.868,17.805l-79.92,0Zm20.184,-114.875l0,97.81l60.56,0c17.285,0 30.989,-4.406 41.108,-13.211c10.119,-8.811 15.182,-21.036 15.182,-36.68c0,-14.77 -4.844,-26.449 -14.524,-35.039c-9.684,-8.587 -23.06,-12.88 -40.125,-12.88l-62.201,0Zm0,-16.903l55.143,0c16.849,-0.332 29.894,-4.298 39.139,-11.898c9.245,-7.605 13.87,-18.683 13.87,-33.234c0,-15.317 -4.786,-26.614 -14.362,-33.888c-9.573,-7.277 -24.043,-10.916 -43.407,-10.916l-50.383,0l0,89.936Z" style="fill:#3c3c3c;fill-rule:nonzero;"/><path d="M7190.57,3681.7c-15.097,0 -28.747,-3.719 -40.946,-11.158c-12.198,-7.444 -21.689,-17.809 -28.469,-31.101c-6.785,-13.291 -10.178,-28.201 -10.178,-44.719l0,-7.058c0,-17.069 3.312,-32.44 9.931,-46.117c6.619,-13.673 15.837,-24.423 27.65,-32.248c11.817,-7.82 24.616,-11.732 38.405,-11.732c21.551,0 38.647,7.358 51.284,22.071c12.637,14.716 18.952,34.82 18.952,60.314l0,10.993l-126.692,0l0,3.777c0,20.13 5.772,36.895 17.311,50.299c11.544,13.403 26.068,20.103 43.572,20.103c10.505,0 19.776,-1.914 27.82,-5.745c8.04,-3.827 15.344,-9.953 21.91,-18.378l12.305,9.352c-14.443,20.897 -35.393,31.347 -62.855,31.347Zm-3.607,-167.395c-14.771,0 -27.215,5.418 -37.339,16.249c-10.118,10.832 -16.271,25.382 -18.463,43.653l106.512,0l0,-2.133c-0.551,-17.07 -5.417,-30.962 -14.609,-41.686c-9.191,-10.719 -21.223,-16.083 -36.101,-16.083Z" style="fill:#3c3c3c;fill-rule:nonzero;"/><path d="M7337.92,3637.56l2.953,15.259l3.94,-16.079l42.671,-135.888l16.738,0l42.178,134.736l4.593,18.71l3.773,-17.231l36.434,-136.215l20.349,0l-51.696,177.569l-16.738,0l-45.624,-140.808l-2.134,-9.68l-2.133,9.846l-44.799,140.642l-16.743,0l-51.53,-177.569l20.188,0l37.58,136.708Z" style="fill:#3c3c3c;fill-rule:nonzero;"/><path d="M7617.6,3681.7c-15.098,0 -28.743,-3.719 -40.946,-11.158c-12.198,-7.444 -21.69,-17.809 -28.47,-31.101c-6.785,-13.291 -10.177,-28.201 -10.177,-44.719l0,-7.058c0,-17.069 3.312,-32.44 9.931,-46.117c6.619,-13.673 15.837,-24.423 27.649,-32.248c11.818,-7.82 24.621,-11.732 38.405,-11.732c21.551,0 38.647,7.358 51.285,22.071c12.637,14.716 18.956,34.82 18.956,60.314l0,10.993l-126.696,0l0,3.777c0,20.13 5.772,36.895 17.315,50.299c11.54,13.403 26.064,20.103 43.568,20.103c10.504,0 19.776,-1.914 27.82,-5.745c8.04,-3.827 15.344,-9.953 21.909,-18.378l12.306,9.352c-14.439,20.897 -35.394,31.347 -62.855,31.347Zm-3.608,-167.395c-14.77,0 -27.215,5.418 -37.338,16.249c-10.119,10.832 -16.272,25.382 -18.459,43.653l106.508,0l0,-2.133c-0.547,-17.07 -5.418,-30.962 -14.609,-41.686c-9.187,-10.719 -21.224,-16.083 -36.102,-16.083Z" style="fill:#3c3c3c;fill-rule:nonzero;"/><path d="M7804.51,3517.6c-4.159,-0.767 -8.591,-1.152 -13.296,-1.152c-12.252,0 -22.617,3.419 -31.096,10.258c-8.479,6.838 -14.524,16.769 -18.136,29.787l0,121.933l-19.53,0l0,-177.569l19.203,0l0.327,28.228c10.392,-21.004 27.081,-31.508 50.056,-31.508c5.468,0 9.792,0.713 12.965,2.133l-0.493,17.89Z" style="fill:#3c3c3c;fill-rule:nonzero;"/><path d="M7874.24,3455.39l0,45.458l36.761,0l0,16.084l-36.761,0l0,118.325c0,9.845 1.775,17.177 5.333,21.99c3.554,4.813 9.492,7.224 17.805,7.224c3.284,0 8.59,-0.552 15.922,-1.645l0.82,16.083c-5.145,1.86 -12.145,2.792 -21.009,2.792c-13.457,0 -23.249,-3.912 -29.375,-11.736c-6.126,-7.82 -9.191,-19.337 -9.191,-34.542l0,-118.491l-32.655,0l0,-16.084l32.655,0l0,-45.458l19.695,0Z" style="fill:#3c3c3c;fill-rule:nonzero;"/><path d="M8065.91,3655.94c-11.818,17.177 -30.688,25.767 -56.617,25.767c-18.929,0 -33.315,-5.498 -43.16,-16.495c-9.85,-10.993 -14.882,-27.269 -15.102,-48.82l0,-115.538l19.53,0l0,113.073c0,33.807 13.677,50.711 41.031,50.711c28.443,0 46.44,-11.759 53.991,-35.282l0,-128.502l19.691,0l0,177.569l-19.037,0l-0.327,-22.483Z" style="fill:#3c3c3c;fill-rule:nonzero;"/><path d="M8155.04,3500.85l0.659,30.361c6.673,-10.938 14.99,-19.283 24.943,-25.028c9.958,-5.74 20.955,-8.613 32.987,-8.613c19.037,0 33.207,5.36 42.506,16.084c9.298,10.719 14.004,26.802 14.111,48.246l0,116.519l-19.525,0l0,-116.681c-0.112,-15.864 -3.477,-27.681 -10.096,-35.447c-6.619,-7.771 -17.204,-11.656 -31.755,-11.656c-12.144,0 -22.891,3.805 -32.248,11.409c-9.352,7.601 -16.271,17.859 -20.757,30.769l0,121.606l-19.53,0l0,-177.569l18.705,0Z" style="fill:#3c3c3c;fill-rule:nonzero;"/><path d="M8313.1,3588c0,-27.788 6.153,-49.805 18.458,-66.054c12.31,-16.245 29.021,-24.37 50.137,-24.37c24.182,0 42.56,9.626 55.143,28.882l0.986,-25.602l18.378,0l0,173.961c0,22.864 -6.399,40.973 -19.203,54.318c-12.798,13.35 -30.141,20.023 -52.019,20.023c-12.364,0 -24.154,-2.761 -35.366,-8.286c-11.217,-5.526 -20.05,-12.884 -26.507,-22.075l10.997,-11.817c13.896,17.069 30.414,25.601 49.563,25.601c16.411,0 29.209,-4.839 38.401,-14.524c9.191,-9.679 13.95,-23.11 14.277,-40.287l0,-22.321c-12.583,17.508 -30.908,26.26 -54.977,26.26c-20.569,0 -37.087,-8.205 -49.563,-24.616c-12.472,-16.415 -18.705,-38.566 -18.705,-66.467l0,-2.626Zm19.856,3.446c0,22.649 4.54,40.507 13.619,53.584c9.084,13.072 21.883,19.61 38.405,19.61c24.177,0 41.3,-10.831 51.365,-32.494l0,-82.546c-4.593,-11.378 -11.212,-20.05 -19.857,-26.014c-8.644,-5.96 -19.036,-8.945 -31.181,-8.945c-16.522,0 -29.375,6.484 -38.566,19.449c-9.191,12.964 -13.785,32.086 -13.785,57.356Z" style="fill:#3c3c3c;fill-rule:nonzero;"/><path d="M8576.15,3681.7c-15.098,0 -28.748,-3.719 -40.946,-11.158c-12.198,-7.444 -21.69,-17.809 -28.475,-31.101c-6.78,-13.291 -10.172,-28.201 -10.172,-44.719l0,-7.058c0,-17.069 3.307,-32.44 9.93,-46.117c6.619,-13.673 15.833,-24.423 27.65,-32.248c11.817,-7.82 24.616,-11.732 38.401,-11.732c21.555,0 38.651,7.358 51.288,22.071c12.633,14.716 18.952,34.82 18.952,60.314l0,10.993l-126.692,0l0,3.777c0,20.13 5.772,36.895 17.312,50.299c11.544,13.403 26.068,20.103 43.572,20.103c10.504,0 19.776,-1.914 27.82,-5.745c8.039,-3.827 15.344,-9.953 21.904,-18.378l12.311,9.352c-14.444,20.897 -35.394,31.347 -62.855,31.347Zm-3.612,-167.395c-14.766,0 -27.215,5.418 -37.334,16.249c-10.119,10.832 -16.272,25.382 -18.463,43.653l106.507,0l0,-2.133c-0.546,-17.07 -5.413,-30.962 -14.604,-41.686c-9.192,-10.719 -21.224,-16.083 -36.106,-16.083Z" style="fill:#3c3c3c;fill-rule:nonzero;"/><path d="M8699.75,3500.85l0.654,30.361c6.677,-10.938 14.99,-19.283 24.947,-25.028c9.953,-5.74 20.951,-8.613 32.987,-8.613c19.037,0 33.203,5.36 42.501,16.084c9.304,10.719 14.004,26.802 14.116,48.246l0,116.519l-19.529,0l0,-116.681c-0.108,-15.864 -3.473,-27.681 -10.092,-35.447c-6.619,-7.771 -17.204,-11.656 -31.755,-11.656c-12.144,0 -22.895,3.805 -32.247,11.409c-9.357,7.601 -16.277,17.859 -20.762,30.769l0,121.606l-19.53,0l0,-177.569l18.71,0Z" style="fill:#3c3c3c;fill-rule:nonzero;"/><path d="M8944.74,3581.92c0,-23.849 3.065,-47.018 9.191,-69.501c6.126,-22.483 15.097,-43.052 26.915,-61.703c11.812,-18.656 24.508,-32.033 38.073,-40.126l4.759,13.292c-7.219,5.14 -14.389,12.637 -21.497,22.482c-7.112,9.846 -13.457,21.556 -19.041,35.121c-5.579,13.565 -10.092,28.801 -13.538,45.705c-3.446,16.903 -5.167,36.079 -5.167,57.522c0,22.864 2.599,44.854 7.793,65.97c5.198,21.116 12.337,39.744 21.416,55.882c9.084,16.137 19.091,28.254 30.034,36.348l-4.759,12.637c-13.897,-8.313 -26.749,-21.743 -38.566,-40.287c-11.818,-18.544 -20.704,-38.952 -26.669,-61.215c-5.964,-22.263 -8.944,-46.305 -8.944,-72.127Z" style="fill:#3c3c3c;fill-rule:nonzero;"/><path d="M9195.52,3578.81c0,33.7 -6.18,59.275 -18.544,76.725c-12.364,17.45 -30.581,26.175 -54.65,26.175c-23.63,0 -41.739,-8.563 -54.318,-25.682c-12.584,-17.123 -19.037,-42.044 -19.368,-74.753l0,-42.833c0,-33.592 6.238,-59.028 18.709,-76.312c12.472,-17.289 30.688,-25.929 54.65,-25.929c23.63,0 41.685,8.34 54.157,25.024c12.471,16.684 18.929,41.277 19.364,73.767l0,43.818Zm-19.691,-42.832c0,-27.35 -4.459,-48.031 -13.377,-62.035c-8.918,-14.005 -22.402,-21.004 -40.453,-21.004c-17.724,0 -31.073,6.838 -40.045,20.515c-8.972,13.673 -13.565,33.861 -13.785,60.556l0,46.933c0,27.247 4.625,48.085 13.87,62.528c9.245,14.443 22.671,21.663 40.287,21.663c17.504,0 30.773,-7.058 39.799,-21.17c9.025,-14.116 13.592,-34.793 13.704,-62.035l0,-45.951Z" style="fill:#3c3c3c;fill-rule:nonzero;"/><path d="M9250.95,3555.99l11.651,-116.519l119.472,0l0,18.217l-102.568,0l-8.371,80.744c12.803,-8.756 27.793,-13.13 44.97,-13.13c21.55,0 38.727,7 51.53,21.004c12.799,14.004 19.198,32.66 19.198,55.963c0,25.162 -6.233,44.692 -18.705,58.589c-12.476,13.892 -30.033,20.842 -52.682,20.842c-20.784,0 -37.634,-5.799 -50.545,-17.396c-12.911,-11.598 -20.296,-27.843 -22.156,-48.744l18.871,0c1.864,16.304 7.385,28.641 16.577,37.012c9.191,8.366 21.609,12.552 37.253,12.552c17.069,0 29.953,-5.414 38.647,-16.245c8.698,-10.831 13.05,-26.26 13.05,-46.283c0,-17.504 -4.872,-31.782 -14.605,-42.833c-9.738,-11.051 -23.034,-16.571 -39.879,-16.571c-9.304,0 -17.397,1.174 -24.289,3.526c-6.893,2.353 -14.17,6.919 -21.829,13.704l-15.59,-4.432Z" style="fill:#3c3c3c;fill-rule:nonzero;"/><path d="M9424.29,3698.94l-17.889,0l99.781,-259.46l17.724,0l-99.616,259.46Z" style="fill:#3c3c3c;fill-rule:nonzero;"/><path d="M9707.01,3678.42l-149.667,0l0,-15.098l81.892,-92.885c13.565,-15.648 22.975,-28.555 28.223,-38.732c5.252,-10.172 7.878,-20.076 7.878,-29.702c0,-15.097 -4.432,-27.054 -13.291,-35.859c-8.864,-8.806 -21.063,-13.211 -36.599,-13.211c-16.079,0 -29.075,5.14 -38.974,15.424c-9.904,10.285 -14.852,23.635 -14.852,40.045l-19.529,0c0,-13.457 3.034,-25.709 9.106,-36.76c6.072,-11.051 14.717,-19.722 25.929,-26.014c11.217,-6.287 23.988,-9.433 38.32,-9.433c21.882,0 38.978,5.74 51.288,17.231c12.306,11.485 18.459,27.134 18.459,46.933c0,11.162 -3.473,23.361 -10.419,36.598c-6.946,13.238 -19.176,29.761 -36.68,49.564l-66.628,75.327l125.544,0l0,16.572Z" style="fill:#3c3c3c;fill-rule:nonzero;"/><path d="M9887.75,3578.81c0,33.7 -6.18,59.275 -18.544,76.725c-12.364,17.45 -30.58,26.175 -54.649,26.175c-23.635,0 -41.739,-8.563 -54.323,-25.682c-12.579,-17.123 -19.037,-42.044 -19.364,-74.753l0,-42.833c0,-33.592 6.238,-59.028 18.71,-76.312c12.471,-17.289 30.688,-25.929 54.65,-25.929c23.63,0 41.68,8.34 54.156,25.024c12.472,16.684 18.925,41.277 19.364,73.767l0,43.818Zm-19.695,-42.832c0,-27.35 -4.455,-48.031 -13.373,-62.035c-8.917,-14.005 -22.402,-21.004 -40.452,-21.004c-17.724,0 -31.074,6.838 -40.046,20.515c-8.971,13.673 -13.565,33.861 -13.784,60.556l0,46.933c0,27.247 4.62,48.085 13.865,62.528c9.245,14.443 22.676,21.663 40.292,21.663c17.504,0 30.768,-7.058 39.798,-21.17c9.026,-14.116 13.592,-34.793 13.7,-62.035l0,-45.951Z" style="fill:#3c3c3c;fill-rule:nonzero;"/><path d="M10079.5,3678.42l-149.667,0l0,-15.098l81.887,-92.885c13.569,-15.648 22.976,-28.555 28.228,-38.732c5.252,-10.172 7.878,-20.076 7.878,-29.702c0,-15.097 -4.432,-27.054 -13.292,-35.859c-8.864,-8.806 -21.062,-13.211 -36.599,-13.211c-16.083,0 -29.075,5.14 -38.974,15.424c-9.904,10.285 -14.851,23.635 -14.851,40.045l-19.53,0c0,-13.457 3.034,-25.709 9.107,-36.76c6.072,-11.051 14.716,-19.722 25.928,-26.014c11.217,-6.287 23.989,-9.433 38.32,-9.433c21.883,0 38.979,5.74 51.285,17.231c12.31,11.485 18.463,27.134 18.463,46.933c0,11.162 -3.473,23.361 -10.419,36.598c-6.946,13.238 -19.176,29.761 -36.68,49.564l-66.628,75.327l125.544,0l0,16.572Z" style="fill:#3c3c3c;fill-rule:nonzero;"/><path d="M10260.3,3578.81c0,33.7 -6.184,59.275 -18.544,76.725c-12.364,17.45 -30.58,26.175 -54.65,26.175c-23.634,0 -41.739,-8.563 -54.322,-25.682c-12.579,-17.123 -19.037,-42.044 -19.364,-74.753l0,-42.833c0,-33.592 6.238,-59.028 18.709,-76.312c12.472,-17.289 30.689,-25.929 54.65,-25.929c23.63,0 41.681,8.34 54.157,25.024c12.472,16.684 18.925,41.277 19.364,73.767l0,43.818Zm-19.696,-42.832c0,-27.35 -4.459,-48.031 -13.372,-62.035c-8.918,-14.005 -22.402,-21.004 -40.453,-21.004c-17.728,0 -31.073,6.838 -40.045,20.515c-8.972,13.673 -13.565,33.861 -13.785,60.556l0,46.933c0,27.247 4.621,48.085 13.866,62.528c9.245,14.443 22.675,21.663 40.291,21.663c17.504,0 30.769,-7.058 39.794,-21.17c9.03,-14.116 13.597,-34.793 13.704,-62.035l0,-45.951Z" style="fill:#3c3c3c;fill-rule:nonzero;"/><path d="M10364.3,3584.38c0,24.074 -2.984,47.238 -8.944,69.501c-5.965,22.268 -14.798,42.645 -26.507,61.135c-11.706,18.489 -24.616,32.001 -38.728,40.533l-4.759,-12.637c10.719,-7.659 20.65,-19.525 29.787,-35.609c9.133,-16.083 16.326,-34.82 21.578,-56.209c5.252,-21.389 7.878,-44.612 7.878,-69.667c0,-22.644 -2.626,-44.499 -7.878,-65.562c-5.252,-21.062 -12.499,-39.879 -21.744,-56.455c-9.245,-16.572 -19.117,-28.636 -29.621,-36.183l4.759,-12.637c13.785,8.425 26.529,21.882 38.239,40.368c11.705,18.49 20.623,39.005 26.749,61.542c6.126,22.541 9.191,46.498 9.191,71.88Z" style="fill:#3c3c3c;fill-rule:nonzero;"/></g></g><g id="Gruppe_1"><path id="Polygon_1" d="M6499.19,2091.29l123.237,263.278l287.549,36.281l-211.389,198.989l54.542,285.684l-253.939,-140.283l-253.943,140.283l54.484,-285.684l-211.33,-198.989l287.553,-36.281l123.236,-263.278Z" style="fill:#ff6c00;fill-rule:nonzero;"/><path id="Polygon_2" d="M7432.79,2091.29l123.236,263.278l287.554,36.281l-211.389,198.989l54.542,285.684l-253.943,-140.283l-253.943,140.283l54.488,-285.684l-211.335,-198.989l287.553,-36.281l123.237,-263.278Z" style="fill:#ff6c00;fill-rule:nonzero;"/><path id="Polygon_3" d="M8357.06,2091.29l126.037,263.278l294.087,36.281l-216.188,198.989l55.721,285.684l-259.657,-140.283l-259.657,140.283l55.72,-285.684l-216.188,-198.989l294.087,-36.281l126.038,-263.278Z" style="fill:#ff6c00;fill-rule:nonzero;"/><path id="Polygon_4" d="M9281.33,2091.29l123.237,263.278l287.553,36.281l-211.389,198.989l54.542,285.684l-253.943,-140.283l-253.943,140.283l54.488,-285.684l-211.335,-198.989l287.554,-36.281l123.236,-263.278Z" style="fill:#ff6c00;fill-rule:nonzero;"/><path id="Differenzmenge_1" d="M9961.02,2875.52l54.466,-285.684l-211.313,-199.012l287.549,-36.258l123.237,-263.278l0,643.949l-253.845,140.283l-0.094,0Z" style="fill:#ff6c00;fill-rule:nonzero;"/><path id="Differenzmenge_2" d="M10468.9,2875.52l-54.466,-285.684l211.312,-199.012l-287.553,-36.258l-123.237,-263.278l0,643.944l253.849,140.288l0.095,0Z" style="fill:#a8a8a8;fill-rule:nonzero;"/></g><g id="_4.5"><g><path d="M4906.48,2573.63l57.164,0l0,80.726l-57.164,0l0,109.134l-100.126,0l0,-109.134l-206.836,0l-4.504,-63.056l210.3,-332.25l101.166,0l0,314.58Zm-211.684,0l111.558,0l0,-178.079l-6.583,11.432l-104.975,166.647Z" style="fill:#ff6c00;fill-rule:nonzero;"/><path d="M5026.67,2714.29c0,-15.936 5.369,-28.869 16.111,-38.8c10.737,-9.935 24.194,-14.9 40.363,-14.9c16.397,0 29.967,4.965 40.708,14.9c10.738,9.931 16.111,22.864 16.111,38.8c0,15.707 -5.315,28.469 -15.94,38.284c-10.626,9.818 -24.249,14.725 -40.879,14.725c-16.402,0 -29.913,-4.907 -40.538,-14.725c-10.625,-9.815 -15.936,-22.577 -15.936,-38.284Z" style="fill:#ff6c00;fill-rule:nonzero;"/><path d="M5238.37,2515.42l29.102,-256.376l282.709,0l0,83.496l-200.598,0l-12.471,108.439c23.787,-12.705 49.079,-19.055 75.873,-19.055c48.04,0 85.687,14.896 112.943,44.692c27.255,29.797 40.883,71.487 40.883,125.07c0,32.57 -6.87,61.73 -20.614,87.48c-13.744,25.754 -33.435,45.732 -59.073,59.937c-25.638,14.206 -55.891,21.309 -90.769,21.309c-30.487,0 -58.782,-6.18 -84.881,-18.535c-26.099,-12.359 -46.713,-29.738 -61.842,-52.144c-15.129,-22.402 -23.155,-47.924 -24.083,-76.564l99.087,0c2.079,21.018 9.415,37.357 22.003,49.021c12.588,11.665 29.043,17.496 49.371,17.496c22.635,0 40.072,-8.139 52.315,-24.424c12.238,-16.285 18.36,-39.323 18.36,-69.12c0,-28.64 -7.045,-50.58 -21.134,-65.826c-14.09,-15.241 -34.067,-22.864 -59.938,-22.864c-23.787,0 -43.074,6.234 -57.858,18.705l-9.698,9.012l-79.687,-19.749Z" style="fill:#ff6c00;fill-rule:nonzero;"/></g></g></g></svg>