<?xml version="1.0" encoding="UTF-8" standalone="no"?>
<!DOCTYPE svg PUBLIC "-//W3C//DTD SVG 1.1//EN" "http://www.w3.org/Graphics/SVG/1.1/DTD/svg11.dtd">
<svg width="100%" height="100%" viewBox="0 0 1000 500" version="1.1" xmlns="http://www.w3.org/2000/svg" xmlns:xlink="http://www.w3.org/1999/xlink" xml:space="preserve" xmlns:serif="http://www.serif.com/" style="fill-rule:evenodd;clip-rule:evenodd;stroke-linecap:round;stroke-linejoin:round;">
    <g id="_1.-Auftrag-online-erstellen" serif:id="1. Auftrag online erstellen" transform="matrix(1,0,0,1,-1.23745,-35.2471)">
        <g transform="matrix(1,0,0,1,16.0631,183.551)">
            <g>
                <rect x="0" y="0" width="192" height="192" style="fill:none;"/>
                <g transform="matrix(-1,-7.65714e-16,7.65714e-16,-1,192,180)">
                    <path d="M168,48C168,41.377 162.623,36 156,36L36,36C29.377,36 24,41.377 24,48L24,132C24,138.623 29.377,144 36,144L156,144C162.623,144 168,138.623 168,132L168,48Z" style="fill:none;stroke:black;stroke-width:12px;"/>
                </g>
                <path d="M120,168L72,168" style="fill:none;fill-rule:nonzero;stroke:black;stroke-width:12px;"/>
                <g transform="matrix(1,0,0,1,0,18)">
                    <path d="M24,114L168,114" style="fill:none;fill-rule:nonzero;stroke:black;stroke-width:12px;"/>
                </g>
                <path d="M96,144L96,168" style="fill:none;fill-rule:nonzero;stroke:black;stroke-width:12px;"/>
            </g>
        </g>
        <g transform="matrix(1,0,0,1,-108.391,-85.7556)">
            <path d="M124.609,473.582L119.473,473.582L118.496,476.512L115.381,476.512L120.674,462.293L123.389,462.293L128.711,476.512L125.596,476.512L124.609,473.582ZM120.264,471.209L123.818,471.209L122.031,465.887L120.264,471.209Z" style="fill-rule:nonzero;"/>
            <path d="M136.074,475.438C135.378,476.284 134.414,476.707 133.184,476.707C132.051,476.707 131.187,476.382 130.591,475.731C129.995,475.08 129.691,474.126 129.678,472.87L129.678,465.946L132.5,465.946L132.5,472.772C132.5,473.872 133.001,474.422 134.004,474.422C134.961,474.422 135.618,474.09 135.977,473.426L135.977,465.946L138.809,465.946L138.809,476.512L136.152,476.512L136.074,475.438Z" style="fill-rule:nonzero;"/>
            <path d="M141.709,476.512L141.709,468.016L140.137,468.016L140.137,465.946L141.709,465.946L141.709,465.047C141.709,463.862 142.049,462.943 142.729,462.288C143.41,461.634 144.362,461.307 145.586,461.307C145.977,461.307 146.455,461.372 147.021,461.502L146.992,463.69C146.758,463.631 146.471,463.602 146.133,463.602C145.072,463.602 144.541,464.1 144.541,465.096L144.541,465.946L146.641,465.946L146.641,468.016L144.541,468.016L144.541,476.512L141.709,476.512Z" style="fill-rule:nonzero;"/>
            <path d="M151.484,463.348L151.484,465.946L153.291,465.946L153.291,468.016L151.484,468.016L151.484,473.289C151.484,473.68 151.559,473.96 151.709,474.129C151.859,474.299 152.145,474.383 152.568,474.383C152.881,474.383 153.158,474.36 153.398,474.315L153.398,476.454C152.845,476.623 152.275,476.707 151.689,476.707C149.71,476.707 148.701,475.708 148.662,473.709L148.662,468.016L147.119,468.016L147.119,465.946L148.662,465.946L148.662,463.348L151.484,463.348Z" style="fill-rule:nonzero;"/>
            <path d="M160.801,468.592C160.417,468.54 160.078,468.514 159.785,468.514C158.717,468.514 158.018,468.875 157.686,469.598L157.686,476.512L154.863,476.512L154.863,465.946L157.529,465.946L157.607,467.205C158.174,466.235 158.958,465.75 159.961,465.75C160.273,465.75 160.566,465.793 160.84,465.877L160.801,468.592Z" style="fill-rule:nonzero;"/>
            <path d="M167.988,476.512C167.858,476.258 167.764,475.942 167.705,475.565C167.021,476.327 166.133,476.707 165.039,476.707C164.004,476.707 163.146,476.408 162.466,475.809C161.785,475.21 161.445,474.455 161.445,473.543C161.445,472.424 161.86,471.564 162.69,470.965C163.52,470.366 164.72,470.064 166.289,470.057L167.588,470.057L167.588,469.452C167.588,468.963 167.463,468.573 167.212,468.28C166.961,467.987 166.566,467.84 166.025,467.84C165.55,467.84 165.177,467.954 164.907,468.182C164.637,468.41 164.502,468.722 164.502,469.12L161.68,469.12C161.68,468.508 161.868,467.941 162.246,467.42C162.624,466.899 163.158,466.491 163.848,466.195C164.538,465.899 165.312,465.75 166.172,465.75C167.474,465.75 168.507,466.078 169.272,466.732C170.037,467.386 170.42,468.306 170.42,469.491L170.42,474.071C170.426,475.073 170.566,475.832 170.84,476.346L170.84,476.512L167.988,476.512ZM165.654,474.549C166.071,474.549 166.455,474.456 166.807,474.271C167.158,474.085 167.419,473.836 167.588,473.524L167.588,471.707L166.533,471.707C165.12,471.707 164.368,472.196 164.277,473.172L164.268,473.338C164.268,473.69 164.391,473.98 164.639,474.207C164.886,474.435 165.225,474.549 165.654,474.549Z" style="fill-rule:nonzero;"/>
            <path d="M172.178,471.151C172.178,469.53 172.563,468.224 173.335,467.235C174.106,466.245 175.146,465.75 176.455,465.75C177.614,465.75 178.516,466.148 179.16,466.942L179.277,465.946L181.836,465.946L181.836,476.161C181.836,477.085 181.626,477.889 181.206,478.573C180.786,479.256 180.195,479.777 179.434,480.135C178.672,480.493 177.78,480.672 176.758,480.672C175.983,480.672 175.228,480.518 174.492,480.208C173.756,479.899 173.2,479.5 172.822,479.012L174.072,477.293C174.775,478.081 175.628,478.475 176.631,478.475C177.38,478.475 177.962,478.275 178.379,477.874C178.796,477.474 179.004,476.906 179.004,476.17L179.004,475.604C178.353,476.34 177.497,476.707 176.436,476.707C175.166,476.707 174.139,476.211 173.354,475.218C172.57,474.225 172.178,472.909 172.178,471.268L172.178,471.151ZM175,471.356C175,472.313 175.192,473.063 175.576,473.607C175.96,474.15 176.488,474.422 177.158,474.422C178.018,474.422 178.633,474.1 179.004,473.455L179.004,469.012C178.626,468.368 178.018,468.045 177.178,468.045C176.501,468.045 175.968,468.322 175.581,468.875C175.194,469.429 175,470.256 175,471.356Z" style="fill-rule:nonzero;"/>
            <path d="M188.545,471.131C188.545,470.083 188.747,469.149 189.15,468.329C189.554,467.508 190.135,466.873 190.894,466.424C191.652,465.975 192.533,465.75 193.535,465.75C194.961,465.75 196.125,466.187 197.026,467.059C197.928,467.931 198.431,469.116 198.535,470.614L198.555,471.336C198.555,472.957 198.102,474.258 197.197,475.238C196.292,476.218 195.078,476.707 193.555,476.707C192.031,476.707 190.815,476.219 189.907,475.243C188.999,474.266 188.545,472.938 188.545,471.258L188.545,471.131ZM191.367,471.336C191.367,472.339 191.556,473.106 191.934,473.636C192.311,474.167 192.852,474.432 193.555,474.432C194.238,474.432 194.772,474.17 195.156,473.646C195.54,473.122 195.732,472.284 195.732,471.131C195.732,470.148 195.54,469.386 195.156,468.846C194.772,468.306 194.232,468.036 193.535,468.036C192.845,468.036 192.311,468.304 191.934,468.841C191.556,469.378 191.367,470.21 191.367,471.336Z" style="fill-rule:nonzero;"/>
            <path d="M202.891,465.946L202.978,467.166C203.734,466.222 204.746,465.75 206.016,465.75C207.135,465.75 207.969,466.079 208.516,466.737C209.062,467.394 209.342,468.377 209.355,469.686L209.355,476.512L206.533,476.512L206.533,469.754C206.533,469.155 206.403,468.721 206.143,468.451C205.882,468.18 205.449,468.045 204.844,468.045C204.049,468.045 203.454,468.384 203.057,469.061L203.057,476.512L200.234,476.512L200.234,465.946L202.891,465.946Z" style="fill-rule:nonzero;"/>
            <rect x="211.641" y="461.512" width="2.832" height="15"/>
            <path d="M219.775,476.512L216.943,476.512L216.943,465.946L219.775,465.946L219.775,476.512ZM216.777,463.211C216.777,462.788 216.919,462.44 217.202,462.166C217.485,461.893 217.871,461.756 218.359,461.756C218.841,461.756 219.225,461.893 219.512,462.166C219.798,462.44 219.941,462.788 219.941,463.211C219.941,463.641 219.797,463.993 219.507,464.266C219.217,464.539 218.835,464.676 218.359,464.676C217.884,464.676 217.502,464.539 217.212,464.266C216.922,463.993 216.777,463.641 216.777,463.211Z" style="fill-rule:nonzero;"/>
            <path d="M224.697,465.946L224.785,467.166C225.54,466.222 226.553,465.75 227.822,465.75C228.942,465.75 229.775,466.079 230.322,466.737C230.869,467.394 231.149,468.377 231.162,469.686L231.162,476.512L228.34,476.512L228.34,469.754C228.34,469.155 228.21,468.721 227.949,468.451C227.689,468.18 227.256,468.045 226.65,468.045C225.856,468.045 225.26,468.384 224.863,469.061L224.863,476.512L222.041,476.512L222.041,465.946L224.697,465.946Z" style="fill-rule:nonzero;"/>
            <path d="M238.164,476.707C236.615,476.707 235.353,476.232 234.38,475.282C233.407,474.331 232.92,473.065 232.92,471.483L232.92,471.209C232.92,470.148 233.125,469.199 233.535,468.363C233.945,467.526 234.526,466.882 235.278,466.429C236.03,465.977 236.888,465.75 237.852,465.75C239.297,465.75 240.435,466.206 241.265,467.118C242.095,468.029 242.51,469.321 242.51,470.995L242.51,472.147L235.781,472.147C235.872,472.837 236.147,473.39 236.606,473.807C237.065,474.224 237.646,474.432 238.35,474.432C239.437,474.432 240.286,474.038 240.898,473.25L242.285,474.803C241.862,475.402 241.289,475.869 240.566,476.204C239.844,476.54 239.043,476.707 238.164,476.707ZM237.842,468.036C237.282,468.036 236.828,468.224 236.479,468.602C236.131,468.98 235.908,469.52 235.811,470.223L239.736,470.223L239.736,469.998C239.723,469.373 239.554,468.89 239.228,468.548C238.903,468.206 238.441,468.036 237.842,468.036Z" style="fill-rule:nonzero;"/>
            <path d="M253.955,476.707C252.406,476.707 251.144,476.232 250.171,475.282C249.198,474.331 248.711,473.065 248.711,471.483L248.711,471.209C248.711,470.148 248.916,469.199 249.326,468.363C249.736,467.526 250.317,466.882 251.069,466.429C251.821,465.977 252.679,465.75 253.643,465.75C255.088,465.75 256.226,466.206 257.056,467.118C257.886,468.029 258.301,469.321 258.301,470.995L258.301,472.147L251.572,472.147C251.663,472.837 251.938,473.39 252.397,473.807C252.856,474.224 253.437,474.432 254.141,474.432C255.228,474.432 256.077,474.038 256.689,473.25L258.076,474.803C257.653,475.402 257.08,475.869 256.357,476.204C255.635,476.54 254.834,476.707 253.955,476.707ZM253.633,468.036C253.073,468.036 252.619,468.224 252.27,468.602C251.922,468.98 251.699,469.52 251.602,470.223L255.527,470.223L255.527,469.998C255.514,469.373 255.345,468.89 255.02,468.548C254.694,468.206 254.232,468.036 253.633,468.036Z" style="fill-rule:nonzero;"/>
            <path d="M265.84,468.592C265.456,468.54 265.117,468.514 264.824,468.514C263.756,468.514 263.057,468.875 262.725,469.598L262.725,476.512L259.902,476.512L259.902,465.946L262.568,465.946L262.646,467.205C263.213,466.235 263.997,465.75 265,465.75C265.312,465.75 265.605,465.793 265.879,465.877L265.84,468.592Z" style="fill-rule:nonzero;"/>
            <path d="M272.92,473.592C272.92,473.247 272.749,472.975 272.407,472.777C272.065,472.578 271.517,472.401 270.762,472.245C268.249,471.717 266.992,470.649 266.992,469.041C266.992,468.104 267.381,467.321 268.159,466.693C268.937,466.065 269.954,465.75 271.211,465.75C272.552,465.75 273.625,466.066 274.429,466.698C275.233,467.329 275.635,468.149 275.635,469.159L272.812,469.159C272.812,468.755 272.682,468.421 272.422,468.158C272.161,467.894 271.755,467.762 271.201,467.762C270.726,467.762 270.358,467.87 270.098,468.084C269.837,468.299 269.707,468.573 269.707,468.905C269.707,469.217 269.855,469.469 270.151,469.662C270.448,469.854 270.947,470.02 271.65,470.16C272.353,470.3 272.946,470.457 273.428,470.633C274.919,471.18 275.664,472.127 275.664,473.475C275.664,474.439 275.251,475.218 274.424,475.814C273.597,476.41 272.529,476.707 271.221,476.707C270.335,476.707 269.549,476.55 268.862,476.234C268.175,475.918 267.637,475.485 267.246,474.935C266.855,474.385 266.66,473.791 266.66,473.153L269.336,473.153C269.362,473.654 269.548,474.038 269.893,474.305C270.238,474.572 270.7,474.705 271.279,474.705C271.82,474.705 272.228,474.603 272.505,474.398C272.782,474.193 272.92,473.924 272.92,473.592Z" style="fill-rule:nonzero;"/>
            <path d="M280.859,463.348L280.859,465.946L282.666,465.946L282.666,468.016L280.859,468.016L280.859,473.289C280.859,473.68 280.934,473.96 281.084,474.129C281.234,474.299 281.52,474.383 281.943,474.383C282.256,474.383 282.533,474.36 282.773,474.315L282.773,476.454C282.22,476.623 281.65,476.707 281.064,476.707C279.085,476.707 278.076,475.708 278.037,473.709L278.037,468.016L276.494,468.016L276.494,465.946L278.037,465.946L278.037,463.348L280.859,463.348Z" style="fill-rule:nonzero;"/>
            <path d="M289.102,476.707C287.552,476.707 286.291,476.232 285.317,475.282C284.344,474.331 283.857,473.065 283.857,471.483L283.857,471.209C283.857,470.148 284.062,469.199 284.473,468.363C284.883,467.526 285.464,466.882 286.216,466.429C286.968,465.977 287.826,465.75 288.789,465.75C290.234,465.75 291.372,466.206 292.202,467.118C293.032,468.029 293.447,469.321 293.447,470.995L293.447,472.147L286.719,472.147C286.81,472.837 287.085,473.39 287.544,473.807C288.003,474.224 288.584,474.432 289.287,474.432C290.374,474.432 291.224,474.038 291.836,473.25L293.223,474.803C292.799,475.402 292.227,475.869 291.504,476.204C290.781,476.54 289.98,476.707 289.102,476.707ZM288.779,468.036C288.219,468.036 287.765,468.224 287.417,468.602C287.069,468.98 286.846,469.52 286.748,470.223L290.674,470.223L290.674,469.998C290.661,469.373 290.492,468.89 290.166,468.548C289.84,468.206 289.378,468.036 288.779,468.036Z" style="fill-rule:nonzero;"/>
            <rect x="295.195" y="461.512" width="2.832" height="15"/>
            <rect x="300.498" y="461.512" width="2.832" height="15"/>
            <path d="M310.518,476.707C308.968,476.707 307.707,476.232 306.733,475.282C305.76,474.331 305.273,473.065 305.273,471.483L305.273,471.209C305.273,470.148 305.478,469.199 305.889,468.363C306.299,467.526 306.88,466.882 307.632,466.429C308.384,465.977 309.242,465.75 310.205,465.75C311.65,465.75 312.788,466.206 313.618,467.118C314.448,468.029 314.863,469.321 314.863,470.995L314.863,472.147L308.135,472.147C308.226,472.837 308.501,473.39 308.96,473.807C309.419,474.224 310,474.432 310.703,474.432C311.79,474.432 312.64,474.038 313.252,473.25L314.639,474.803C314.215,475.402 313.643,475.869 312.92,476.204C312.197,476.54 311.396,476.707 310.518,476.707ZM310.195,468.036C309.635,468.036 309.181,468.224 308.833,468.602C308.485,468.98 308.262,469.52 308.164,470.223L312.09,470.223L312.09,469.998C312.077,469.373 311.908,468.89 311.582,468.548C311.256,468.206 310.794,468.036 310.195,468.036Z" style="fill-rule:nonzero;"/>
            <path d="M319.062,465.946L319.15,467.166C319.906,466.222 320.918,465.75 322.187,465.75C323.307,465.75 324.141,466.079 324.687,466.737C325.234,467.394 325.514,468.377 325.527,469.686L325.527,476.512L322.705,476.512L322.705,469.754C322.705,469.155 322.575,468.721 322.314,468.451C322.054,468.18 321.621,468.045 321.016,468.045C320.221,468.045 319.626,468.384 319.228,469.061L319.228,476.512L316.406,476.512L316.406,465.946L319.062,465.946Z" style="fill-rule:nonzero;"/>
        </g>
    </g>
    <g id="_2a-Vor-Ort-Reparatur" serif:id="2a Vor Ort Reparatur" transform="matrix(1,0,0,1,-12.6653,0)">
        <g transform="matrix(1,0,0,1,406.876,1.388)">
            <g>
                <rect x="0" y="0" width="192" height="192" style="fill:none;"/>
                <path d="M36,104.7L36,156C36,159.292 38.708,162 42,162L150,162C153.292,162 156,159.292 156,156L156,104.7" style="fill:none;fill-rule:nonzero;stroke:black;stroke-width:12px;"/>
                <path d="M40.5,30L151.5,30C154.165,30.022 156.518,31.795 157.275,34.35L168,72L24,72L34.725,34.35C35.482,31.795 37.835,30.022 40.5,30Z" style="fill:none;fill-rule:nonzero;stroke:black;stroke-width:12px;"/>
                <path d="M72,72L72,84C72,97.166 61.166,108 48,108C34.834,108 24,97.166 24,84L24,72" style="fill:none;fill-rule:nonzero;stroke:black;stroke-width:12px;"/>
                <path d="M120,72L120,84C120,97.166 109.166,108 96,108C82.834,108 72,97.166 72,84L72,72" style="fill:none;fill-rule:nonzero;stroke:black;stroke-width:12px;"/>
                <path d="M168,72L168,84C168,97.166 157.166,108 144,108C130.834,108 120,97.166 120,84L120,72" style="fill:none;fill-rule:nonzero;stroke:black;stroke-width:12px;"/>
            </g>
        </g>
        <g transform="matrix(1,0,0,1,230.659,-277.655)">
            <path d="M123.955,472.782C123.955,472.228 123.76,471.803 123.369,471.507C122.978,471.211 122.275,470.899 121.26,470.57C120.244,470.241 119.44,469.917 118.848,469.598C117.233,468.726 116.426,467.551 116.426,466.073C116.426,465.304 116.642,464.619 117.075,464.017C117.508,463.415 118.13,462.944 118.94,462.606C119.751,462.267 120.661,462.098 121.67,462.098C122.686,462.098 123.59,462.282 124.385,462.65C125.179,463.018 125.796,463.537 126.235,464.207C126.675,464.878 126.895,465.64 126.895,466.493L123.965,466.493C123.965,465.842 123.76,465.335 123.35,464.974C122.939,464.613 122.363,464.432 121.621,464.432C120.905,464.432 120.348,464.583 119.951,464.886C119.554,465.189 119.355,465.588 119.355,466.082C119.355,466.545 119.588,466.932 120.054,467.245C120.519,467.557 121.204,467.85 122.109,468.123C123.776,468.625 124.99,469.246 125.752,469.989C126.514,470.731 126.895,471.655 126.895,472.762C126.895,473.993 126.429,474.958 125.498,475.658C124.567,476.357 123.314,476.707 121.738,476.707C120.645,476.707 119.648,476.507 118.75,476.107C117.852,475.706 117.166,475.158 116.694,474.461C116.222,473.765 115.986,472.957 115.986,472.039L118.926,472.039C118.926,473.608 119.863,474.393 121.738,474.393C122.435,474.393 122.978,474.251 123.369,473.968C123.76,473.685 123.955,473.289 123.955,472.782Z" style="fill-rule:nonzero;"/>
            <path d="M131.445,467.098C132.194,466.2 133.135,465.75 134.268,465.75C136.559,465.75 137.721,467.082 137.754,469.745L137.754,476.512L134.932,476.512L134.932,469.823C134.932,469.217 134.801,468.77 134.541,468.48C134.281,468.19 133.848,468.045 133.242,468.045C132.415,468.045 131.816,468.364 131.445,469.002L131.445,476.512L128.623,476.512L128.623,461.512L131.445,461.512L131.445,467.098Z" style="fill-rule:nonzero;"/>
            <path d="M139.443,471.131C139.443,470.083 139.645,469.149 140.049,468.329C140.452,467.508 141.034,466.873 141.792,466.424C142.55,465.975 143.431,465.75 144.434,465.75C145.859,465.75 147.023,466.187 147.925,467.059C148.826,467.931 149.329,469.116 149.434,470.614L149.453,471.336C149.453,472.957 149.001,474.258 148.096,475.238C147.191,476.218 145.977,476.707 144.453,476.707C142.93,476.707 141.714,476.219 140.806,475.243C139.897,474.266 139.443,472.938 139.443,471.258L139.443,471.131ZM142.266,471.336C142.266,472.339 142.454,473.106 142.832,473.636C143.21,474.167 143.75,474.432 144.453,474.432C145.137,474.432 145.671,474.17 146.055,473.646C146.439,473.122 146.631,472.284 146.631,471.131C146.631,470.148 146.439,469.386 146.055,468.846C145.671,468.306 145.13,468.036 144.434,468.036C143.743,468.036 143.21,468.304 142.832,468.841C142.454,469.378 142.266,470.21 142.266,471.336Z" style="fill-rule:nonzero;"/>
            <path d="M160.703,471.327C160.703,472.954 160.334,474.258 159.595,475.238C158.856,476.218 157.858,476.707 156.602,476.707C155.534,476.707 154.671,476.336 154.014,475.594L154.014,480.575L151.191,480.575L151.191,465.946L153.809,465.946L153.906,466.981C154.59,466.161 155.482,465.75 156.582,465.75C157.884,465.75 158.896,466.232 159.619,467.196C160.342,468.159 160.703,469.487 160.703,471.18L160.703,471.327ZM157.881,471.121C157.881,470.138 157.707,469.38 157.358,468.846C157.01,468.312 156.504,468.045 155.84,468.045C154.954,468.045 154.346,468.384 154.014,469.061L154.014,473.387C154.359,474.084 154.974,474.432 155.859,474.432C157.207,474.432 157.881,473.329 157.881,471.121Z" style="fill-rule:nonzero;"/>
            <path d="M168.203,476.512L168.203,468.016L166.631,468.016L166.631,465.946L168.203,465.946L168.203,465.047C168.203,463.862 168.543,462.943 169.224,462.288C169.904,461.634 170.856,461.307 172.08,461.307C172.471,461.307 172.949,461.372 173.516,461.502L173.486,463.69C173.252,463.631 172.965,463.602 172.627,463.602C171.566,463.602 171.035,464.1 171.035,465.096L171.035,465.946L173.135,465.946L173.135,468.016L171.035,468.016L171.035,476.512L168.203,476.512Z" style="fill-rule:nonzero;"/>
            <path d="M180.928,475.438C180.231,476.284 179.268,476.707 178.037,476.707C176.904,476.707 176.04,476.382 175.444,475.731C174.849,475.08 174.544,474.126 174.531,472.87L174.531,465.946L177.353,465.946L177.353,472.772C177.353,473.872 177.855,474.422 178.857,474.422C179.814,474.422 180.472,474.09 180.83,473.426L180.83,465.946L183.662,465.946L183.662,476.512L181.006,476.512L180.928,475.438ZM178.076,463.182C178.076,463.527 177.949,463.818 177.695,464.056C177.441,464.294 177.116,464.413 176.719,464.413C176.315,464.413 175.99,464.292 175.742,464.051C175.495,463.81 175.371,463.521 175.371,463.182C175.371,462.843 175.495,462.552 175.742,462.308C175.99,462.064 176.315,461.942 176.719,461.942C177.122,461.942 177.45,462.064 177.7,462.308C177.951,462.552 178.076,462.843 178.076,463.182ZM180.127,463.182C180.127,462.83 180.259,462.536 180.522,462.298C180.786,462.061 181.107,461.942 181.484,461.942C181.868,461.942 182.189,462.062 182.446,462.303C182.703,462.544 182.832,462.837 182.832,463.182C182.832,463.521 182.708,463.812 182.461,464.056C182.214,464.3 181.888,464.422 181.484,464.422C181.081,464.422 180.754,464.3 180.503,464.056C180.252,463.812 180.127,463.521 180.127,463.182Z" style="fill-rule:nonzero;"/>
            <path d="M191.728,468.592C191.344,468.54 191.006,468.514 190.713,468.514C189.645,468.514 188.945,468.875 188.613,469.598L188.613,476.512L185.791,476.512L185.791,465.946L188.457,465.946L188.535,467.205C189.102,466.235 189.886,465.75 190.889,465.75C191.201,465.75 191.494,465.793 191.768,465.877L191.728,468.592Z" style="fill-rule:nonzero;"/>
            <path d="M203.506,472.987L206.728,462.293L209.99,462.293L205.039,476.512L201.982,476.512L197.051,462.293L200.303,462.293L203.506,472.987Z" style="fill-rule:nonzero;"/>
            <path d="M210.254,471.131C210.254,470.083 210.456,469.149 210.859,468.329C211.263,467.508 211.844,466.873 212.603,466.424C213.361,465.975 214.242,465.75 215.244,465.75C216.67,465.75 217.834,466.187 218.735,467.059C219.637,467.931 220.14,469.116 220.244,470.614L220.264,471.336C220.264,472.957 219.811,474.258 218.906,475.238C218.001,476.218 216.787,476.707 215.264,476.707C213.74,476.707 212.524,476.219 211.616,475.243C210.708,474.266 210.254,472.938 210.254,471.258L210.254,471.131ZM213.076,471.336C213.076,472.339 213.265,473.106 213.643,473.636C214.02,474.167 214.561,474.432 215.264,474.432C215.947,474.432 216.481,474.17 216.865,473.646C217.249,473.122 217.441,472.284 217.441,471.131C217.441,470.148 217.249,469.386 216.865,468.846C216.481,468.306 215.941,468.036 215.244,468.036C214.554,468.036 214.02,468.304 213.643,468.841C213.265,469.378 213.076,470.21 213.076,471.336Z" style="fill-rule:nonzero;"/>
            <path d="M227.939,468.592C227.555,468.54 227.217,468.514 226.924,468.514C225.856,468.514 225.156,468.875 224.824,469.598L224.824,476.512L222.002,476.512L222.002,465.946L224.668,465.946L224.746,467.205C225.312,466.235 226.097,465.75 227.1,465.75C227.412,465.75 227.705,465.793 227.978,465.877L227.939,468.592Z" style="fill-rule:nonzero;"/>
            <rect x="229.287" y="469.286" width="5.498" height="2.275"/>
            <path d="M248.916,469.725C248.916,471.125 248.669,472.352 248.174,473.407C247.679,474.461 246.971,475.275 246.05,475.848C245.129,476.421 244.072,476.707 242.881,476.707C241.702,476.707 240.651,476.424 239.727,475.858C238.802,475.291 238.086,474.482 237.578,473.431C237.07,472.38 236.813,471.17 236.807,469.803L236.807,469.1C236.807,467.7 237.059,466.468 237.563,465.404C238.068,464.339 238.781,463.522 239.702,462.953C240.623,462.383 241.676,462.098 242.861,462.098C244.046,462.098 245.099,462.383 246.02,462.953C246.942,463.522 247.655,464.339 248.159,465.404C248.664,466.468 248.916,467.697 248.916,469.09L248.916,469.725ZM245.947,469.08C245.947,467.59 245.68,466.457 245.146,465.682C244.613,464.907 243.851,464.52 242.861,464.52C241.878,464.52 241.12,464.902 240.586,465.667C240.052,466.432 239.782,467.554 239.775,469.032L239.775,469.725C239.775,471.177 240.042,472.303 240.576,473.104C241.11,473.905 241.878,474.305 242.881,474.305C243.864,474.305 244.619,473.919 245.146,473.148C245.674,472.376 245.941,471.252 245.947,469.774L245.947,469.08Z" style="fill-rule:nonzero;"/>
            <path d="M256.797,468.592C256.413,468.54 256.074,468.514 255.781,468.514C254.714,468.514 254.014,468.875 253.682,469.598L253.682,476.512L250.859,476.512L250.859,465.946L253.525,465.946L253.603,467.205C254.17,466.235 254.954,465.75 255.957,465.75C256.27,465.75 256.562,465.793 256.836,465.877L256.797,468.592Z" style="fill-rule:nonzero;"/>
            <path d="M262.021,463.348L262.021,465.946L263.828,465.946L263.828,468.016L262.021,468.016L262.021,473.289C262.021,473.68 262.096,473.96 262.246,474.129C262.396,474.299 262.682,474.383 263.105,474.383C263.418,474.383 263.695,474.36 263.936,474.315L263.936,476.454C263.382,476.623 262.812,476.707 262.227,476.707C260.247,476.707 259.238,475.708 259.199,473.709L259.199,468.016L257.656,468.016L257.656,465.946L259.199,465.946L259.199,463.348L262.021,463.348Z" style="fill-rule:nonzero;"/>
            <rect x="265.391" y="469.286" width="5.498" height="2.275"/>
            <path d="M278.603,471.307L276.27,471.307L276.27,476.512L273.34,476.512L273.34,462.293L278.623,462.293C280.303,462.293 281.598,462.668 282.51,463.416C283.421,464.165 283.877,465.223 283.877,466.59C283.877,467.56 283.667,468.369 283.247,469.017C282.827,469.665 282.191,470.181 281.338,470.565L284.414,476.375L284.414,476.512L281.27,476.512L278.603,471.307ZM276.27,468.934L278.633,468.934C279.368,468.934 279.938,468.747 280.342,468.372C280.745,467.998 280.947,467.482 280.947,466.825C280.947,466.154 280.757,465.627 280.376,465.243C279.995,464.858 279.411,464.666 278.623,464.666L276.27,464.666L276.27,468.934Z" style="fill-rule:nonzero;"/>
            <path d="M290.781,476.707C289.232,476.707 287.97,476.232 286.997,475.282C286.024,474.331 285.537,473.065 285.537,471.483L285.537,471.209C285.537,470.148 285.742,469.199 286.152,468.363C286.562,467.526 287.144,466.882 287.895,466.429C288.647,465.977 289.505,465.75 290.469,465.75C291.914,465.75 293.052,466.206 293.882,467.118C294.712,468.029 295.127,469.321 295.127,470.995L295.127,472.147L288.398,472.147C288.49,472.837 288.765,473.39 289.224,473.807C289.683,474.224 290.264,474.432 290.967,474.432C292.054,474.432 292.904,474.038 293.516,473.25L294.902,474.803C294.479,475.402 293.906,475.869 293.184,476.204C292.461,476.54 291.66,476.707 290.781,476.707ZM290.459,468.036C289.899,468.036 289.445,468.224 289.097,468.602C288.748,468.98 288.525,469.52 288.428,470.223L292.353,470.223L292.353,469.998C292.34,469.373 292.171,468.89 291.846,468.548C291.52,468.206 291.058,468.036 290.459,468.036Z" style="fill-rule:nonzero;"/>
            <path d="M306.24,471.327C306.24,472.954 305.871,474.258 305.132,475.238C304.393,476.218 303.395,476.707 302.139,476.707C301.071,476.707 300.208,476.336 299.551,475.594L299.551,480.575L296.728,480.575L296.728,465.946L299.346,465.946L299.443,466.981C300.127,466.161 301.019,465.75 302.119,465.75C303.421,465.75 304.434,466.232 305.156,467.196C305.879,468.159 306.24,469.487 306.24,471.18L306.24,471.327ZM303.418,471.121C303.418,470.138 303.244,469.38 302.895,468.846C302.547,468.312 302.041,468.045 301.377,468.045C300.492,468.045 299.883,468.384 299.551,469.061L299.551,473.387C299.896,474.084 300.511,474.432 301.396,474.432C302.744,474.432 303.418,473.329 303.418,471.121Z" style="fill-rule:nonzero;"/>
            <path d="M314.111,476.512C313.981,476.258 313.887,475.942 313.828,475.565C313.145,476.327 312.256,476.707 311.162,476.707C310.127,476.707 309.269,476.408 308.589,475.809C307.909,475.21 307.568,474.455 307.568,473.543C307.568,472.424 307.983,471.564 308.813,470.965C309.644,470.366 310.843,470.064 312.412,470.057L313.711,470.057L313.711,469.452C313.711,468.963 313.586,468.573 313.335,468.28C313.084,467.987 312.689,467.84 312.148,467.84C311.673,467.84 311.3,467.954 311.03,468.182C310.76,468.41 310.625,468.722 310.625,469.12L307.803,469.12C307.803,468.508 307.992,467.941 308.369,467.42C308.747,466.899 309.281,466.491 309.971,466.195C310.661,465.899 311.436,465.75 312.295,465.75C313.597,465.75 314.631,466.078 315.395,466.732C316.16,467.386 316.543,468.306 316.543,469.491L316.543,474.071C316.549,475.073 316.689,475.832 316.963,476.346L316.963,476.512L314.111,476.512ZM311.777,474.549C312.194,474.549 312.578,474.456 312.93,474.271C313.281,474.085 313.542,473.836 313.711,473.524L313.711,471.707L312.656,471.707C311.243,471.707 310.492,472.196 310.4,473.172L310.391,473.338C310.391,473.69 310.514,473.98 310.762,474.207C311.009,474.435 311.348,474.549 311.777,474.549Z" style="fill-rule:nonzero;"/>
            <path d="M324.648,468.592C324.264,468.54 323.926,468.514 323.633,468.514C322.565,468.514 321.865,468.875 321.533,469.598L321.533,476.512L318.711,476.512L318.711,465.946L321.377,465.946L321.455,467.205C322.021,466.235 322.806,465.75 323.809,465.75C324.121,465.75 324.414,465.793 324.687,465.877L324.648,468.592Z" style="fill-rule:nonzero;"/>
            <path d="M331.836,476.512C331.706,476.258 331.611,475.942 331.553,475.565C330.869,476.327 329.98,476.707 328.887,476.707C327.852,476.707 326.994,476.408 326.313,475.809C325.633,475.21 325.293,474.455 325.293,473.543C325.293,472.424 325.708,471.564 326.538,470.965C327.368,470.366 328.568,470.064 330.137,470.057L331.436,470.057L331.436,469.452C331.436,468.963 331.31,468.573 331.06,468.28C330.809,467.987 330.413,467.84 329.873,467.84C329.398,467.84 329.025,467.954 328.755,468.182C328.485,468.41 328.35,468.722 328.35,469.12L325.527,469.12C325.527,468.508 325.716,467.941 326.094,467.42C326.471,466.899 327.005,466.491 327.695,466.195C328.385,465.899 329.16,465.75 330.02,465.75C331.322,465.75 332.355,466.078 333.12,466.732C333.885,467.386 334.268,468.306 334.268,469.491L334.268,474.071C334.274,475.073 334.414,475.832 334.687,476.346L334.687,476.512L331.836,476.512ZM329.502,474.549C329.919,474.549 330.303,474.456 330.654,474.271C331.006,474.085 331.266,473.836 331.436,473.524L331.436,471.707L330.381,471.707C328.968,471.707 328.216,472.196 328.125,473.172L328.115,473.338C328.115,473.69 328.239,473.98 328.486,474.207C328.734,474.435 329.072,474.549 329.502,474.549Z" style="fill-rule:nonzero;"/>
            <path d="M339.814,463.348L339.814,465.946L341.621,465.946L341.621,468.016L339.814,468.016L339.814,473.289C339.814,473.68 339.889,473.96 340.039,474.129C340.189,474.299 340.475,474.383 340.898,474.383C341.211,474.383 341.488,474.36 341.728,474.315L341.728,476.454C341.175,476.623 340.605,476.707 340.02,476.707C338.04,476.707 337.031,475.708 336.992,473.709L336.992,468.016L335.449,468.016L335.449,465.946L336.992,465.946L336.992,463.348L339.814,463.348Z" style="fill-rule:nonzero;"/>
            <path d="M349.521,475.438C348.825,476.284 347.861,476.707 346.631,476.707C345.498,476.707 344.634,476.382 344.038,475.731C343.442,475.08 343.138,474.126 343.125,472.87L343.125,465.946L345.947,465.946L345.947,472.772C345.947,473.872 346.449,474.422 347.451,474.422C348.408,474.422 349.066,474.09 349.424,473.426L349.424,465.946L352.256,465.946L352.256,476.512L349.6,476.512L349.521,475.438Z" style="fill-rule:nonzero;"/>
            <path d="M360.322,468.592C359.938,468.54 359.6,468.514 359.307,468.514C358.239,468.514 357.539,468.875 357.207,469.598L357.207,476.512L354.385,476.512L354.385,465.946L357.051,465.946L357.129,467.205C357.695,466.235 358.48,465.75 359.482,465.75C359.795,465.75 360.088,465.793 360.361,465.877L360.322,468.592Z" style="fill-rule:nonzero;"/>
            <path d="M375.85,472.674L377.236,465.946L379.961,465.946L377.266,476.512L374.902,476.512L372.9,469.862L370.898,476.512L368.545,476.512L365.85,465.946L368.574,465.946L369.951,472.664L371.885,465.946L373.926,465.946L375.85,472.674Z" style="fill-rule:nonzero;"/>
            <path d="M387.48,476.512C387.35,476.258 387.256,475.942 387.197,475.565C386.514,476.327 385.625,476.707 384.531,476.707C383.496,476.707 382.638,476.408 381.958,475.809C381.278,475.21 380.937,474.455 380.937,473.543C380.937,472.424 381.353,471.564 382.183,470.965C383.013,470.366 384.212,470.064 385.781,470.057L387.08,470.057L387.08,469.452C387.08,468.963 386.955,468.573 386.704,468.28C386.453,467.987 386.058,467.84 385.518,467.84C385.042,467.84 384.67,467.954 384.399,468.182C384.129,468.41 383.994,468.722 383.994,469.12L381.172,469.12C381.172,468.508 381.361,467.941 381.738,467.42C382.116,466.899 382.65,466.491 383.34,466.195C384.03,465.899 384.805,465.75 385.664,465.75C386.966,465.75 388,466.078 388.765,466.732C389.53,467.386 389.912,468.306 389.912,469.491L389.912,474.071C389.919,475.073 390.059,475.832 390.332,476.346L390.332,476.512L387.48,476.512ZM385.146,474.549C385.563,474.549 385.947,474.456 386.299,474.271C386.65,474.085 386.911,473.836 387.08,473.524L387.08,471.707L386.025,471.707C384.613,471.707 383.861,472.196 383.77,473.172L383.76,473.338C383.76,473.69 383.883,473.98 384.131,474.207C384.378,474.435 384.717,474.549 385.146,474.549ZM384.629,463.182C384.629,463.527 384.502,463.818 384.248,464.056C383.994,464.294 383.669,464.413 383.271,464.413C382.868,464.413 382.542,464.292 382.295,464.051C382.048,463.81 381.924,463.521 381.924,463.182C381.924,462.843 382.048,462.552 382.295,462.308C382.542,462.064 382.868,461.942 383.271,461.942C383.675,461.942 384.002,462.064 384.253,462.308C384.504,462.552 384.629,462.843 384.629,463.182ZM386.68,463.182C386.68,462.83 386.812,462.536 387.075,462.298C387.339,462.061 387.659,461.942 388.037,461.942C388.421,461.942 388.742,462.062 388.999,462.303C389.256,462.544 389.385,462.837 389.385,463.182C389.385,463.521 389.261,463.812 389.014,464.056C388.766,464.3 388.441,464.422 388.037,464.422C387.633,464.422 387.306,464.3 387.056,464.056C386.805,463.812 386.68,463.521 386.68,463.182Z" style="fill-rule:nonzero;"/>
            <path d="M394.834,467.098C395.583,466.2 396.523,465.75 397.656,465.75C399.948,465.75 401.11,467.082 401.143,469.745L401.143,476.512L398.32,476.512L398.32,469.823C398.32,469.217 398.19,468.77 397.93,468.48C397.669,468.19 397.236,468.045 396.631,468.045C395.804,468.045 395.205,468.364 394.834,469.002L394.834,476.512L392.012,476.512L392.012,461.512L394.834,461.512L394.834,467.098Z" style="fill-rule:nonzero;"/>
            <rect x="403.418" y="461.512" width="2.832" height="15"/>
            <path d="M413.437,476.707C411.888,476.707 410.627,476.232 409.653,475.282C408.68,474.331 408.193,473.065 408.193,471.483L408.193,471.209C408.193,470.148 408.398,469.199 408.809,468.363C409.219,467.526 409.8,466.882 410.552,466.429C411.304,465.977 412.161,465.75 413.125,465.75C414.57,465.75 415.708,466.206 416.538,467.118C417.368,468.029 417.783,469.321 417.783,470.995L417.783,472.147L411.055,472.147C411.146,472.837 411.421,473.39 411.88,473.807C412.339,474.224 412.92,474.432 413.623,474.432C414.71,474.432 415.56,474.038 416.172,473.25L417.559,474.803C417.135,475.402 416.562,475.869 415.84,476.204C415.117,476.54 414.316,476.707 413.437,476.707ZM413.115,468.036C412.555,468.036 412.101,468.224 411.753,468.602C411.405,468.98 411.182,469.52 411.084,470.223L415.01,470.223L415.01,469.998C414.997,469.373 414.827,468.89 414.502,468.548C414.176,468.206 413.714,468.036 413.115,468.036Z" style="fill-rule:nonzero;"/>
            <path d="M421.982,465.946L422.07,467.166C422.826,466.222 423.838,465.75 425.107,465.75C426.227,465.75 427.061,466.079 427.607,466.737C428.154,467.394 428.434,468.377 428.447,469.686L428.447,476.512L425.625,476.512L425.625,469.754C425.625,469.155 425.495,468.721 425.234,468.451C424.974,468.18 424.541,468.045 423.936,468.045C423.141,468.045 422.546,468.384 422.148,469.061L422.148,476.512L419.326,476.512L419.326,465.946L421.982,465.946Z" style="fill-rule:nonzero;"/>
        </g>
    </g>
    <g id="_2b.-Gerät-einsenden" serif:id="2b. Gerät einsenden" transform="matrix(1,0,0,1,-12.6653,0)">
        <g transform="matrix(1,0,0,1,406.876,289.234)">
            <g>
                <rect x="0" y="0" width="192" height="192" style="fill:none;"/>
                <path d="M186,138L186,89.775C186.012,89.597 185.987,89.418 185.925,89.25L185.925,89.025C185.925,88.875 185.85,88.725 185.85,88.575L185.85,88.425L185.7,87.825L185.625,87.825L175.125,61.725C173.415,57.055 168.923,53.95 163.95,54L138,54L138,48C138,44.708 135.292,42 132,42L18,42C11.417,42 6,47.417 6,54L6,138C6,144.583 11.417,150 18,150L27.75,150C30.46,160.585 40.073,168.047 51,168.047C61.927,168.047 71.54,160.585 74.25,150L117.75,150C120.46,160.585 130.073,168.047 141,168.047C151.927,168.047 161.54,160.585 164.25,150L174,150C180.583,150 186,144.583 186,138ZM138,66L163.95,66L171.15,84L138,84L138,66ZM18,54L126,54L126,102L18,102L18,54ZM51,156C44.417,156 39,150.583 39,144C39,137.417 44.417,132 51,132C57.583,132 63,137.417 63,144C63,150.583 57.583,156 51,156ZM141,156C134.417,156 129,150.583 129,144C129,137.417 134.417,132 141,132C147.583,132 153,137.417 153,144C153,150.583 147.583,156 141,156Z" style="fill-rule:nonzero;"/>
            </g>
        </g>
        <g transform="matrix(1,0,0,1,314.238,19.722)">
            <path d="M127.832,474.715C127.305,475.347 126.559,475.837 125.596,476.185C124.632,476.533 123.564,476.707 122.393,476.707C121.162,476.707 120.083,476.439 119.155,475.902C118.228,475.365 117.511,474.585 117.007,473.563C116.502,472.541 116.243,471.34 116.23,469.959L116.23,468.993C116.23,467.573 116.47,466.344 116.948,465.306C117.427,464.268 118.117,463.473 119.019,462.923C119.92,462.373 120.977,462.098 122.187,462.098C123.874,462.098 125.192,462.5 126.143,463.304C127.093,464.108 127.656,465.278 127.832,466.815L124.98,466.815C124.85,466.001 124.562,465.405 124.116,465.028C123.67,464.65 123.057,464.461 122.275,464.461C121.279,464.461 120.521,464.836 120,465.584C119.479,466.333 119.215,467.446 119.209,468.924L119.209,469.832C119.209,471.323 119.492,472.45 120.059,473.211C120.625,473.973 121.455,474.354 122.549,474.354C123.649,474.354 124.434,474.12 124.902,473.651L124.902,471.2L122.236,471.2L122.236,469.041L127.832,469.041L127.832,474.715Z" style="fill-rule:nonzero;"/>
            <path d="M134.883,476.707C133.333,476.707 132.072,476.232 131.099,475.282C130.125,474.331 129.639,473.065 129.639,471.483L129.639,471.209C129.639,470.148 129.844,469.199 130.254,468.363C130.664,467.526 131.245,466.882 131.997,466.429C132.749,465.977 133.607,465.75 134.57,465.75C136.016,465.75 137.153,466.206 137.983,467.118C138.813,468.029 139.228,469.321 139.228,470.995L139.228,472.147L132.5,472.147C132.591,472.837 132.866,473.39 133.325,473.807C133.784,474.224 134.365,474.432 135.068,474.432C136.156,474.432 137.005,474.038 137.617,473.25L139.004,474.803C138.581,475.402 138.008,475.869 137.285,476.204C136.562,476.54 135.762,476.707 134.883,476.707ZM134.561,468.036C134.001,468.036 133.547,468.224 133.198,468.602C132.85,468.98 132.627,469.52 132.529,470.223L136.455,470.223L136.455,469.998C136.442,469.373 136.273,468.89 135.947,468.548C135.622,468.206 135.159,468.036 134.561,468.036Z" style="fill-rule:nonzero;"/>
            <path d="M146.768,468.592C146.383,468.54 146.045,468.514 145.752,468.514C144.684,468.514 143.984,468.875 143.652,469.598L143.652,476.512L140.83,476.512L140.83,465.946L143.496,465.946L143.574,467.205C144.141,466.235 144.925,465.75 145.928,465.75C146.24,465.75 146.533,465.793 146.807,465.877L146.768,468.592Z" style="fill-rule:nonzero;"/>
            <path d="M153.955,476.512C153.825,476.258 153.73,475.942 153.672,475.565C152.988,476.327 152.1,476.707 151.006,476.707C149.971,476.707 149.113,476.408 148.433,475.809C147.752,475.21 147.412,474.455 147.412,473.543C147.412,472.424 147.827,471.564 148.657,470.965C149.487,470.366 150.687,470.064 152.256,470.057L153.555,470.057L153.555,469.452C153.555,468.963 153.429,468.573 153.179,468.28C152.928,467.987 152.533,467.84 151.992,467.84C151.517,467.84 151.144,467.954 150.874,468.182C150.604,468.41 150.469,468.722 150.469,469.12L147.646,469.12C147.646,468.508 147.835,467.941 148.213,467.42C148.59,466.899 149.124,466.491 149.814,466.195C150.505,465.899 151.279,465.75 152.139,465.75C153.441,465.75 154.474,466.078 155.239,466.732C156.004,467.386 156.387,468.306 156.387,469.491L156.387,474.071C156.393,475.073 156.533,475.832 156.807,476.346L156.807,476.512L153.955,476.512ZM151.621,474.549C152.038,474.549 152.422,474.456 152.773,474.271C153.125,474.085 153.385,473.836 153.555,473.524L153.555,471.707L152.5,471.707C151.087,471.707 150.335,472.196 150.244,473.172L150.234,473.338C150.234,473.69 150.358,473.98 150.605,474.207C150.853,474.435 151.191,474.549 151.621,474.549ZM151.103,463.182C151.103,463.527 150.977,463.818 150.723,464.056C150.469,464.294 150.143,464.413 149.746,464.413C149.342,464.413 149.017,464.292 148.77,464.051C148.522,463.81 148.398,463.521 148.398,463.182C148.398,462.843 148.522,462.552 148.77,462.308C149.017,462.064 149.342,461.942 149.746,461.942C150.15,461.942 150.477,462.064 150.728,462.308C150.978,462.552 151.103,462.843 151.103,463.182ZM153.154,463.182C153.154,462.83 153.286,462.536 153.55,462.298C153.813,462.061 154.134,461.942 154.512,461.942C154.896,461.942 155.216,462.062 155.474,462.303C155.731,462.544 155.859,462.837 155.859,463.182C155.859,463.521 155.736,463.812 155.488,464.056C155.241,464.3 154.915,464.422 154.512,464.422C154.108,464.422 153.781,464.3 153.53,464.056C153.28,463.812 153.154,463.521 153.154,463.182Z" style="fill-rule:nonzero;"/>
            <path d="M161.934,463.348L161.934,465.946L163.74,465.946L163.74,468.016L161.934,468.016L161.934,473.289C161.934,473.68 162.008,473.96 162.158,474.129C162.308,474.299 162.594,474.383 163.018,474.383C163.33,474.383 163.607,474.36 163.848,474.315L163.848,476.454C163.294,476.623 162.725,476.707 162.139,476.707C160.159,476.707 159.15,475.708 159.111,473.709L159.111,468.016L157.568,468.016L157.568,465.946L159.111,465.946L159.111,463.348L161.934,463.348Z" style="fill-rule:nonzero;"/>
            <path d="M175.156,476.707C173.607,476.707 172.345,476.232 171.372,475.282C170.399,474.331 169.912,473.065 169.912,471.483L169.912,471.209C169.912,470.148 170.117,469.199 170.527,468.363C170.937,467.526 171.519,466.882 172.27,466.429C173.022,465.977 173.88,465.75 174.844,465.75C176.289,465.75 177.427,466.206 178.257,467.118C179.087,468.029 179.502,469.321 179.502,470.995L179.502,472.147L172.773,472.147C172.865,472.837 173.14,473.39 173.599,473.807C174.058,474.224 174.639,474.432 175.342,474.432C176.429,474.432 177.279,474.038 177.891,473.25L179.277,474.803C178.854,475.402 178.281,475.869 177.559,476.204C176.836,476.54 176.035,476.707 175.156,476.707ZM174.834,468.036C174.274,468.036 173.82,468.224 173.472,468.602C173.123,468.98 172.9,469.52 172.803,470.223L176.728,470.223L176.728,469.998C176.715,469.373 176.546,468.89 176.221,468.548C175.895,468.206 175.433,468.036 174.834,468.036Z" style="fill-rule:nonzero;"/>
            <path d="M184.082,476.512L181.25,476.512L181.25,465.946L184.082,465.946L184.082,476.512ZM181.084,463.211C181.084,462.788 181.226,462.44 181.509,462.166C181.792,461.893 182.178,461.756 182.666,461.756C183.148,461.756 183.532,461.893 183.818,462.166C184.105,462.44 184.248,462.788 184.248,463.211C184.248,463.641 184.103,463.993 183.813,464.266C183.524,464.539 183.141,464.676 182.666,464.676C182.191,464.676 181.808,464.539 181.519,464.266C181.229,463.993 181.084,463.641 181.084,463.211Z" style="fill-rule:nonzero;"/>
            <path d="M189.004,465.946L189.092,467.166C189.847,466.222 190.859,465.75 192.129,465.75C193.249,465.75 194.082,466.079 194.629,466.737C195.176,467.394 195.456,468.377 195.469,469.686L195.469,476.512L192.646,476.512L192.646,469.754C192.646,469.155 192.516,468.721 192.256,468.451C191.995,468.18 191.562,468.045 190.957,468.045C190.163,468.045 189.567,468.384 189.17,469.061L189.17,476.512L186.348,476.512L186.348,465.946L189.004,465.946Z" style="fill-rule:nonzero;"/>
            <path d="M203.33,473.592C203.33,473.247 203.159,472.975 202.817,472.777C202.476,472.578 201.927,472.401 201.172,472.245C198.659,471.717 197.402,470.649 197.402,469.041C197.402,468.104 197.791,467.321 198.569,466.693C199.347,466.065 200.365,465.75 201.621,465.75C202.962,465.75 204.035,466.066 204.839,466.698C205.643,467.329 206.045,468.149 206.045,469.159L203.223,469.159C203.223,468.755 203.092,468.421 202.832,468.158C202.572,467.894 202.165,467.762 201.611,467.762C201.136,467.762 200.768,467.87 200.508,468.084C200.247,468.299 200.117,468.573 200.117,468.905C200.117,469.217 200.265,469.469 200.562,469.662C200.858,469.854 201.357,470.02 202.061,470.16C202.764,470.3 203.356,470.457 203.838,470.633C205.329,471.18 206.074,472.127 206.074,473.475C206.074,474.439 205.661,475.218 204.834,475.814C204.007,476.41 202.939,476.707 201.631,476.707C200.745,476.707 199.959,476.55 199.272,476.234C198.586,475.918 198.047,475.485 197.656,474.935C197.266,474.385 197.07,473.791 197.07,473.153L199.746,473.153C199.772,473.654 199.958,474.038 200.303,474.305C200.648,474.572 201.11,474.705 201.689,474.705C202.23,474.705 202.638,474.603 202.915,474.398C203.192,474.193 203.33,473.924 203.33,473.592Z" style="fill-rule:nonzero;"/>
            <path d="M212.754,476.707C211.204,476.707 209.943,476.232 208.97,475.282C207.996,474.331 207.51,473.065 207.51,471.483L207.51,471.209C207.51,470.148 207.715,469.199 208.125,468.363C208.535,467.526 209.116,466.882 209.868,466.429C210.62,465.977 211.478,465.75 212.441,465.75C213.887,465.75 215.024,466.206 215.854,467.118C216.685,468.029 217.1,469.321 217.1,470.995L217.1,472.147L210.371,472.147C210.462,472.837 210.737,473.39 211.196,473.807C211.655,474.224 212.236,474.432 212.939,474.432C214.027,474.432 214.876,474.038 215.488,473.25L216.875,474.803C216.452,475.402 215.879,475.869 215.156,476.204C214.434,476.54 213.633,476.707 212.754,476.707ZM212.432,468.036C211.872,468.036 211.418,468.224 211.069,468.602C210.721,468.98 210.498,469.52 210.4,470.223L214.326,470.223L214.326,469.998C214.313,469.373 214.144,468.89 213.818,468.548C213.493,468.206 213.031,468.036 212.432,468.036Z" style="fill-rule:nonzero;"/>
            <path d="M221.299,465.946L221.387,467.166C222.142,466.222 223.154,465.75 224.424,465.75C225.544,465.75 226.377,466.079 226.924,466.737C227.471,467.394 227.751,468.377 227.764,469.686L227.764,476.512L224.941,476.512L224.941,469.754C224.941,469.155 224.811,468.721 224.551,468.451C224.29,468.18 223.857,468.045 223.252,468.045C222.458,468.045 221.862,468.384 221.465,469.061L221.465,476.512L218.643,476.512L218.643,465.946L221.299,465.946Z" style="fill-rule:nonzero;"/>
            <path d="M229.463,471.151C229.463,469.504 229.832,468.192 230.571,467.215C231.31,466.239 232.321,465.75 233.603,465.75C234.632,465.75 235.482,466.135 236.152,466.903L236.152,461.512L238.984,461.512L238.984,476.512L236.436,476.512L236.299,475.389C235.596,476.268 234.691,476.707 233.584,476.707C232.34,476.707 231.343,476.218 230.591,475.238C229.839,474.258 229.463,472.896 229.463,471.151ZM232.285,471.356C232.285,472.345 232.458,473.104 232.803,473.631C233.148,474.159 233.649,474.422 234.307,474.422C235.179,474.422 235.794,474.054 236.152,473.319L236.152,469.149C235.801,468.413 235.192,468.045 234.326,468.045C232.965,468.045 232.285,469.149 232.285,471.356Z" style="fill-rule:nonzero;"/>
            <path d="M246.035,476.707C244.486,476.707 243.224,476.232 242.251,475.282C241.278,474.331 240.791,473.065 240.791,471.483L240.791,471.209C240.791,470.148 240.996,469.199 241.406,468.363C241.816,467.526 242.397,466.882 243.149,466.429C243.901,465.977 244.759,465.75 245.723,465.75C247.168,465.75 248.306,466.206 249.136,467.118C249.966,468.029 250.381,469.321 250.381,470.995L250.381,472.147L243.652,472.147C243.743,472.837 244.019,473.39 244.478,473.807C244.937,474.224 245.518,474.432 246.221,474.432C247.308,474.432 248.158,474.038 248.77,473.25L250.156,474.803C249.733,475.402 249.16,475.869 248.437,476.204C247.715,476.54 246.914,476.707 246.035,476.707ZM245.713,468.036C245.153,468.036 244.699,468.224 244.351,468.602C244.002,468.98 243.779,469.52 243.682,470.223L247.607,470.223L247.607,469.998C247.594,469.373 247.425,468.89 247.1,468.548C246.774,468.206 246.312,468.036 245.713,468.036Z" style="fill-rule:nonzero;"/>
            <path d="M254.58,465.946L254.668,467.166C255.423,466.222 256.436,465.75 257.705,465.75C258.825,465.75 259.658,466.079 260.205,466.737C260.752,467.394 261.032,468.377 261.045,469.686L261.045,476.512L258.223,476.512L258.223,469.754C258.223,469.155 258.092,468.721 257.832,468.451C257.572,468.18 257.139,468.045 256.533,468.045C255.739,468.045 255.143,468.384 254.746,469.061L254.746,476.512L251.924,476.512L251.924,465.946L254.58,465.946Z" style="fill-rule:nonzero;"/>
        </g>
    </g>
    <g id="_3a.-Termin-per-Link-buchen" serif:id="3a. Termin per Link buchen" transform="matrix(1,0,0,1,-38.5981,0)">
        <g transform="matrix(1,0,0,1,804.756,1.388)">
            <g>
                <rect x="0" y="0" width="192" height="192" style="fill:none;"/>
                <path d="M162,36C162,32.689 159.311,30 156,30L36,30C32.689,30 30,32.689 30,36L30,156C30,159.311 32.689,162 36,162L156,162C159.311,162 162,159.311 162,156L162,36Z" style="fill:none;stroke:black;stroke-width:12px;"/>
                <path d="M132,18L132,42" style="fill:none;fill-rule:nonzero;stroke:black;stroke-width:12px;"/>
                <path d="M60,18L60,42" style="fill:none;fill-rule:nonzero;stroke:black;stroke-width:12px;"/>
                <path d="M30,66L162,66" style="fill:none;fill-rule:nonzero;stroke:black;stroke-width:12px;"/>
                <path d="M69,96L90,96L78,111L78.021,111C84.604,111 90.021,116.417 90.021,123C90.021,129.583 84.604,135 78.021,135C74.834,135 71.775,133.731 69.525,131.475" style="fill:none;fill-rule:nonzero;stroke:black;stroke-width:12px;"/>
                <path d="M108,105L120,96L120,135" style="fill:none;fill-rule:nonzero;stroke:black;stroke-width:12px;"/>
            </g>
        </g>
        <g transform="matrix(1,0,0,1,679.853,-277.86)">
            <path d="M127.285,464.666L122.93,464.666L122.93,476.512L120,476.512L120,464.666L115.703,464.666L115.703,462.293L127.285,462.293L127.285,464.666Z" style="fill-rule:nonzero;"/>
            <path d="M132.764,476.707C131.214,476.707 129.953,476.232 128.979,475.282C128.006,474.331 127.52,473.065 127.52,471.483L127.52,471.209C127.52,470.148 127.725,469.199 128.135,468.363C128.545,467.526 129.126,466.882 129.878,466.429C130.63,465.977 131.488,465.75 132.451,465.75C133.896,465.75 135.034,466.206 135.864,467.118C136.694,468.029 137.109,469.321 137.109,470.995L137.109,472.147L130.381,472.147C130.472,472.837 130.747,473.39 131.206,473.807C131.665,474.224 132.246,474.432 132.949,474.432C134.036,474.432 134.886,474.038 135.498,473.25L136.885,474.803C136.462,475.402 135.889,475.869 135.166,476.204C134.443,476.54 133.643,476.707 132.764,476.707ZM132.441,468.036C131.881,468.036 131.427,468.224 131.079,468.602C130.731,468.98 130.508,469.52 130.41,470.223L134.336,470.223L134.336,469.998C134.323,469.373 134.154,468.89 133.828,468.548C133.503,468.206 133.04,468.036 132.441,468.036Z" style="fill-rule:nonzero;"/>
            <path d="M144.648,468.592C144.264,468.54 143.926,468.514 143.633,468.514C142.565,468.514 141.865,468.875 141.533,469.598L141.533,476.512L138.711,476.512L138.711,465.946L141.377,465.946L141.455,467.205C142.021,466.235 142.806,465.75 143.809,465.75C144.121,465.75 144.414,465.793 144.687,465.877L144.648,468.592Z" style="fill-rule:nonzero;"/>
            <path d="M148.652,465.946L148.74,467.127C149.489,466.209 150.501,465.75 151.777,465.75C153.138,465.75 154.072,466.288 154.58,467.362C155.322,466.288 156.38,465.75 157.754,465.75C158.9,465.75 159.753,466.084 160.312,466.751C160.872,467.419 161.152,468.423 161.152,469.764L161.152,476.512L158.32,476.512L158.32,469.774C158.32,469.175 158.203,468.737 157.969,468.46C157.734,468.184 157.321,468.045 156.728,468.045C155.882,468.045 155.296,468.449 154.971,469.256L154.98,476.512L152.158,476.512L152.158,469.784C152.158,469.172 152.038,468.729 151.797,468.455C151.556,468.182 151.146,468.045 150.566,468.045C149.766,468.045 149.186,468.377 148.828,469.041L148.828,476.512L146.006,476.512L146.006,465.946L148.652,465.946Z" style="fill-rule:nonzero;"/>
            <path d="M166.299,476.512L163.467,476.512L163.467,465.946L166.299,465.946L166.299,476.512ZM163.301,463.211C163.301,462.788 163.442,462.44 163.726,462.166C164.009,461.893 164.395,461.756 164.883,461.756C165.365,461.756 165.749,461.893 166.035,462.166C166.322,462.44 166.465,462.788 166.465,463.211C166.465,463.641 166.32,463.993 166.03,464.266C165.741,464.539 165.358,464.676 164.883,464.676C164.408,464.676 164.025,464.539 163.735,464.266C163.446,463.993 163.301,463.641 163.301,463.211Z" style="fill-rule:nonzero;"/>
            <path d="M171.221,465.946L171.309,467.166C172.064,466.222 173.076,465.75 174.346,465.75C175.465,465.75 176.299,466.079 176.846,466.737C177.393,467.394 177.673,468.377 177.686,469.686L177.686,476.512L174.863,476.512L174.863,469.754C174.863,469.155 174.733,468.721 174.473,468.451C174.212,468.18 173.779,468.045 173.174,468.045C172.38,468.045 171.784,468.384 171.387,469.061L171.387,476.512L168.564,476.512L168.564,465.946L171.221,465.946Z" style="fill-rule:nonzero;"/>
            <path d="M194.316,471.327C194.316,472.954 193.947,474.258 193.208,475.238C192.469,476.218 191.471,476.707 190.215,476.707C189.147,476.707 188.284,476.336 187.627,475.594L187.627,480.575L184.805,480.575L184.805,465.946L187.422,465.946L187.52,466.981C188.203,466.161 189.095,465.75 190.195,465.75C191.497,465.75 192.51,466.232 193.232,467.196C193.955,468.159 194.316,469.487 194.316,471.18L194.316,471.327ZM191.494,471.121C191.494,470.138 191.32,469.38 190.972,468.846C190.623,468.312 190.117,468.045 189.453,468.045C188.568,468.045 187.959,468.384 187.627,469.061L187.627,473.387C187.972,474.084 188.587,474.432 189.473,474.432C190.82,474.432 191.494,473.329 191.494,471.121Z" style="fill-rule:nonzero;"/>
            <path d="M200.928,476.707C199.378,476.707 198.117,476.232 197.144,475.282C196.17,474.331 195.684,473.065 195.684,471.483L195.684,471.209C195.684,470.148 195.889,469.199 196.299,468.363C196.709,467.526 197.29,466.882 198.042,466.429C198.794,465.977 199.652,465.75 200.615,465.75C202.061,465.75 203.198,466.206 204.028,467.118C204.858,468.029 205.273,469.321 205.273,470.995L205.273,472.147L198.545,472.147C198.636,472.837 198.911,473.39 199.37,473.807C199.829,474.224 200.41,474.432 201.113,474.432C202.201,474.432 203.05,474.038 203.662,473.25L205.049,474.803C204.626,475.402 204.053,475.869 203.33,476.204C202.607,476.54 201.807,476.707 200.928,476.707ZM200.605,468.036C200.046,468.036 199.591,468.224 199.243,468.602C198.895,468.98 198.672,469.52 198.574,470.223L202.5,470.223L202.5,469.998C202.487,469.373 202.318,468.89 201.992,468.548C201.667,468.206 201.204,468.036 200.605,468.036Z" style="fill-rule:nonzero;"/>
            <path d="M212.812,468.592C212.428,468.54 212.09,468.514 211.797,468.514C210.729,468.514 210.029,468.875 209.697,469.598L209.697,476.512L206.875,476.512L206.875,465.946L209.541,465.946L209.619,467.205C210.186,466.235 210.97,465.75 211.973,465.75C212.285,465.75 212.578,465.793 212.852,465.877L212.812,468.592Z" style="fill-rule:nonzero;"/>
            <path d="M222.266,474.159L228.486,474.159L228.486,476.512L219.336,476.512L219.336,462.293L222.266,462.293L222.266,474.159Z" style="fill-rule:nonzero;"/>
            <path d="M232.959,476.512L230.127,476.512L230.127,465.946L232.959,465.946L232.959,476.512ZM229.961,463.211C229.961,462.788 230.103,462.44 230.386,462.166C230.669,461.893 231.055,461.756 231.543,461.756C232.025,461.756 232.409,461.893 232.695,462.166C232.982,462.44 233.125,462.788 233.125,463.211C233.125,463.641 232.98,463.993 232.69,464.266C232.401,464.539 232.018,464.676 231.543,464.676C231.068,464.676 230.685,464.539 230.395,464.266C230.106,463.993 229.961,463.641 229.961,463.211Z" style="fill-rule:nonzero;"/>
            <path d="M237.881,465.946L237.969,467.166C238.724,466.222 239.736,465.75 241.006,465.75C242.126,465.75 242.959,466.079 243.506,466.737C244.053,467.394 244.333,468.377 244.346,469.686L244.346,476.512L241.523,476.512L241.523,469.754C241.523,469.155 241.393,468.721 241.133,468.451C240.872,468.18 240.439,468.045 239.834,468.045C239.04,468.045 238.444,468.384 238.047,469.061L238.047,476.512L235.225,476.512L235.225,465.946L237.881,465.946Z" style="fill-rule:nonzero;"/>
            <path d="M250.322,472.274L249.307,473.289L249.307,476.512L246.484,476.512L246.484,461.512L249.307,461.512L249.307,469.823L249.853,469.12L252.559,465.946L255.947,465.946L252.129,470.35L256.279,476.512L253.037,476.512L250.322,472.274Z" style="fill-rule:nonzero;"/>
            <path d="M271.67,471.327C271.67,473.019 271.309,474.339 270.586,475.287C269.863,476.234 268.854,476.707 267.559,476.707C266.413,476.707 265.498,476.268 264.814,475.389L264.687,476.512L262.148,476.512L262.148,461.512L264.971,461.512L264.971,466.893C265.622,466.131 266.478,465.75 267.539,465.75C268.828,465.75 269.839,466.224 270.571,467.171C271.304,468.119 271.67,469.452 271.67,471.17L271.67,471.327ZM268.848,471.121C268.848,470.054 268.678,469.274 268.34,468.783C268.001,468.291 267.497,468.045 266.826,468.045C265.928,468.045 265.309,468.413 264.971,469.149L264.971,473.319C265.316,474.061 265.941,474.432 266.846,474.432C267.757,474.432 268.356,473.983 268.643,473.084C268.779,472.655 268.848,472 268.848,471.121Z" style="fill-rule:nonzero;"/>
            <path d="M279.736,475.438C279.04,476.284 278.076,476.707 276.846,476.707C275.713,476.707 274.849,476.382 274.253,475.731C273.657,475.08 273.353,474.126 273.34,472.87L273.34,465.946L276.162,465.946L276.162,472.772C276.162,473.872 276.663,474.422 277.666,474.422C278.623,474.422 279.281,474.09 279.639,473.426L279.639,465.946L282.471,465.946L282.471,476.512L279.814,476.512L279.736,475.438Z" style="fill-rule:nonzero;"/>
            <path d="M288.994,474.432C289.515,474.432 289.938,474.289 290.264,474.002C290.589,473.716 290.758,473.335 290.771,472.86L293.418,472.86C293.411,473.576 293.216,474.232 292.832,474.828C292.448,475.423 291.922,475.885 291.255,476.214C290.588,476.543 289.85,476.707 289.043,476.707C287.533,476.707 286.341,476.227 285.469,475.267C284.596,474.307 284.16,472.98 284.16,471.288L284.16,471.102C284.16,469.474 284.593,468.176 285.459,467.205C286.325,466.235 287.513,465.75 289.023,465.75C290.345,465.75 291.405,466.126 292.202,466.878C293,467.63 293.405,468.631 293.418,469.881L290.771,469.881C290.758,469.334 290.589,468.89 290.264,468.548C289.938,468.206 289.508,468.036 288.975,468.036C288.317,468.036 287.821,468.275 287.485,468.753C287.15,469.232 286.982,470.008 286.982,471.082L286.982,471.375C286.982,472.463 287.148,473.244 287.48,473.719C287.812,474.194 288.317,474.432 288.994,474.432Z" style="fill-rule:nonzero;"/>
            <path d="M297.783,467.098C298.532,466.2 299.473,465.75 300.605,465.75C302.897,465.75 304.059,467.082 304.092,469.745L304.092,476.512L301.27,476.512L301.27,469.823C301.27,469.217 301.139,468.77 300.879,468.48C300.618,468.19 300.186,468.045 299.58,468.045C298.753,468.045 298.154,468.364 297.783,469.002L297.783,476.512L294.961,476.512L294.961,461.512L297.783,461.512L297.783,467.098Z" style="fill-rule:nonzero;"/>
            <path d="M311.084,476.707C309.534,476.707 308.273,476.232 307.3,475.282C306.326,474.331 305.84,473.065 305.84,471.483L305.84,471.209C305.84,470.148 306.045,469.199 306.455,468.363C306.865,467.526 307.446,466.882 308.198,466.429C308.95,465.977 309.808,465.75 310.771,465.75C312.217,465.75 313.354,466.206 314.185,467.118C315.015,468.029 315.43,469.321 315.43,470.995L315.43,472.147L308.701,472.147C308.792,472.837 309.067,473.39 309.526,473.807C309.985,474.224 310.566,474.432 311.27,474.432C312.357,474.432 313.206,474.038 313.818,473.25L315.205,474.803C314.782,475.402 314.209,475.869 313.486,476.204C312.764,476.54 311.963,476.707 311.084,476.707ZM310.762,468.036C310.202,468.036 309.748,468.224 309.399,468.602C309.051,468.98 308.828,469.52 308.73,470.223L312.656,470.223L312.656,469.998C312.643,469.373 312.474,468.89 312.148,468.548C311.823,468.206 311.361,468.036 310.762,468.036Z" style="fill-rule:nonzero;"/>
            <path d="M319.629,465.946L319.717,467.166C320.472,466.222 321.484,465.75 322.754,465.75C323.874,465.75 324.707,466.079 325.254,466.737C325.801,467.394 326.081,468.377 326.094,469.686L326.094,476.512L323.271,476.512L323.271,469.754C323.271,469.155 323.141,468.721 322.881,468.451C322.62,468.18 322.187,468.045 321.582,468.045C320.788,468.045 320.192,468.384 319.795,469.061L319.795,476.512L316.973,476.512L316.973,465.946L319.629,465.946Z" style="fill-rule:nonzero;"/>
        </g>
    </g>
    <g id="_3b.-Kostenvoranschlag-bekommen" serif:id="3b. Kostenvoranschlag bekommen" transform="matrix(1,0,0,1,-38.5981,0)">
        <g transform="matrix(1,0,0,1,804.756,289.234)">
            <g>
                <rect x="0" y="0" width="192" height="192" style="fill:none;"/>
                <path d="M150,168L42,168C38.708,168 36,165.292 36,162L36,30C36,26.708 38.708,24 42,24L114,24L156,66L156,162C156,165.292 153.292,168 150,168Z" style="fill:none;fill-rule:nonzero;stroke:black;stroke-width:12px;"/>
                <path d="M114,24L114,66L156,66" style="fill:none;fill-rule:nonzero;stroke:black;stroke-width:12px;"/>
            </g>
        </g>
        <g transform="matrix(1,0,0,1,646.323,17.94)">
            <path d="M121.035,470.809L119.512,472.45L119.512,476.512L116.582,476.512L116.582,462.293L119.512,462.293L119.512,468.739L120.801,466.971L124.424,462.293L128.027,462.293L122.978,468.612L128.174,476.512L124.687,476.512L121.035,470.809Z" style="fill-rule:nonzero;"/>
            <path d="M128.389,471.131C128.389,470.083 128.59,469.149 128.994,468.329C129.398,467.508 129.979,466.873 130.737,466.424C131.496,465.975 132.376,465.75 133.379,465.75C134.805,465.75 135.968,466.187 136.87,467.059C137.772,467.931 138.275,469.116 138.379,470.614L138.398,471.336C138.398,472.957 137.946,474.258 137.041,475.238C136.136,476.218 134.922,476.707 133.398,476.707C131.875,476.707 130.659,476.219 129.751,475.243C128.843,474.266 128.389,472.938 128.389,471.258L128.389,471.131ZM131.211,471.336C131.211,472.339 131.4,473.106 131.777,473.636C132.155,474.167 132.695,474.432 133.398,474.432C134.082,474.432 134.616,474.17 135,473.646C135.384,473.122 135.576,472.284 135.576,471.131C135.576,470.148 135.384,469.386 135,468.846C134.616,468.306 134.076,468.036 133.379,468.036C132.689,468.036 132.155,468.304 131.777,468.841C131.4,469.378 131.211,470.21 131.211,471.336Z" style="fill-rule:nonzero;"/>
            <path d="M145.859,473.592C145.859,473.247 145.688,472.975 145.347,472.777C145.005,472.578 144.456,472.401 143.701,472.245C141.188,471.717 139.932,470.649 139.932,469.041C139.932,468.104 140.321,467.321 141.099,466.693C141.877,466.065 142.894,465.75 144.15,465.75C145.492,465.75 146.564,466.066 147.368,466.698C148.172,467.329 148.574,468.149 148.574,469.159L145.752,469.159C145.752,468.755 145.622,468.421 145.361,468.158C145.101,467.894 144.694,467.762 144.141,467.762C143.665,467.762 143.298,467.87 143.037,468.084C142.777,468.299 142.646,468.573 142.646,468.905C142.646,469.217 142.795,469.469 143.091,469.662C143.387,469.854 143.887,470.02 144.59,470.16C145.293,470.3 145.885,470.457 146.367,470.633C147.858,471.18 148.603,472.127 148.603,473.475C148.603,474.439 148.19,475.218 147.363,475.814C146.536,476.41 145.469,476.707 144.16,476.707C143.275,476.707 142.489,476.55 141.802,476.234C141.115,475.918 140.576,475.485 140.186,474.935C139.795,474.385 139.6,473.791 139.6,473.153L142.275,473.153C142.301,473.654 142.487,474.038 142.832,474.305C143.177,474.572 143.639,474.705 144.219,474.705C144.759,474.705 145.168,474.603 145.444,474.398C145.721,474.193 145.859,473.924 145.859,473.592Z" style="fill-rule:nonzero;"/>
            <path d="M153.799,463.348L153.799,465.946L155.605,465.946L155.605,468.016L153.799,468.016L153.799,473.289C153.799,473.68 153.874,473.96 154.023,474.129C154.173,474.299 154.46,474.383 154.883,474.383C155.195,474.383 155.472,474.36 155.713,474.315L155.713,476.454C155.159,476.623 154.59,476.707 154.004,476.707C152.025,476.707 151.016,475.708 150.977,473.709L150.977,468.016L149.434,468.016L149.434,465.946L150.977,465.946L150.977,463.348L153.799,463.348Z" style="fill-rule:nonzero;"/>
            <path d="M162.041,476.707C160.492,476.707 159.23,476.232 158.257,475.282C157.284,474.331 156.797,473.065 156.797,471.483L156.797,471.209C156.797,470.148 157.002,469.199 157.412,468.363C157.822,467.526 158.403,466.882 159.155,466.429C159.907,465.977 160.765,465.75 161.728,465.75C163.174,465.75 164.312,466.206 165.142,467.118C165.972,468.029 166.387,469.321 166.387,470.995L166.387,472.147L159.658,472.147C159.749,472.837 160.024,473.39 160.483,473.807C160.942,474.224 161.523,474.432 162.227,474.432C163.314,474.432 164.163,474.038 164.775,473.25L166.162,474.803C165.739,475.402 165.166,475.869 164.443,476.204C163.721,476.54 162.92,476.707 162.041,476.707ZM161.719,468.036C161.159,468.036 160.705,468.224 160.356,468.602C160.008,468.98 159.785,469.52 159.687,470.223L163.613,470.223L163.613,469.998C163.6,469.373 163.431,468.89 163.105,468.548C162.78,468.206 162.318,468.036 161.719,468.036Z" style="fill-rule:nonzero;"/>
            <path d="M170.586,465.946L170.674,467.166C171.429,466.222 172.441,465.75 173.711,465.75C174.831,465.75 175.664,466.079 176.211,466.737C176.758,467.394 177.038,468.377 177.051,469.686L177.051,476.512L174.228,476.512L174.228,469.754C174.228,469.155 174.098,468.721 173.838,468.451C173.577,468.18 173.145,468.045 172.539,468.045C171.745,468.045 171.149,468.384 170.752,469.061L170.752,476.512L167.93,476.512L167.93,465.946L170.586,465.946Z" style="fill-rule:nonzero;"/>
            <path d="M183.145,473.065L185.107,465.946L188.057,465.946L184.492,476.512L181.797,476.512L178.232,465.946L181.182,465.946L183.145,473.065Z" style="fill-rule:nonzero;"/>
            <path d="M188.711,471.131C188.711,470.083 188.913,469.149 189.316,468.329C189.72,467.508 190.301,466.873 191.06,466.424C191.818,465.975 192.699,465.75 193.701,465.75C195.127,465.75 196.291,466.187 197.192,467.059C198.094,467.931 198.597,469.116 198.701,470.614L198.721,471.336C198.721,472.957 198.268,474.258 197.363,475.238C196.458,476.218 195.244,476.707 193.721,476.707C192.197,476.707 190.981,476.219 190.073,475.243C189.165,474.266 188.711,472.938 188.711,471.258L188.711,471.131ZM191.533,471.336C191.533,472.339 191.722,473.106 192.1,473.636C192.477,474.167 193.018,474.432 193.721,474.432C194.404,474.432 194.938,474.17 195.322,473.646C195.706,473.122 195.898,472.284 195.898,471.131C195.898,470.148 195.706,469.386 195.322,468.846C194.938,468.306 194.398,468.036 193.701,468.036C193.011,468.036 192.477,468.304 192.1,468.841C191.722,469.378 191.533,470.21 191.533,471.336Z" style="fill-rule:nonzero;"/>
            <path d="M206.396,468.592C206.012,468.54 205.674,468.514 205.381,468.514C204.313,468.514 203.613,468.875 203.281,469.598L203.281,476.512L200.459,476.512L200.459,465.946L203.125,465.946L203.203,467.205C203.77,466.235 204.554,465.75 205.557,465.75C205.869,465.75 206.162,465.793 206.436,465.877L206.396,468.592Z" style="fill-rule:nonzero;"/>
            <path d="M213.584,476.512C213.454,476.258 213.359,475.942 213.301,475.565C212.617,476.327 211.728,476.707 210.635,476.707C209.6,476.707 208.742,476.408 208.062,475.809C207.381,475.21 207.041,474.455 207.041,473.543C207.041,472.424 207.456,471.564 208.286,470.965C209.116,470.366 210.316,470.064 211.885,470.057L213.184,470.057L213.184,469.452C213.184,468.963 213.058,468.573 212.808,468.28C212.557,467.987 212.161,467.84 211.621,467.84C211.146,467.84 210.773,467.954 210.503,468.182C210.233,468.41 210.098,468.722 210.098,469.12L207.275,469.12C207.275,468.508 207.464,467.941 207.842,467.42C208.219,466.899 208.753,466.491 209.443,466.195C210.133,465.899 210.908,465.75 211.768,465.75C213.07,465.75 214.103,466.078 214.868,466.732C215.633,467.386 216.016,468.306 216.016,469.491L216.016,474.071C216.022,475.073 216.162,475.832 216.436,476.346L216.436,476.512L213.584,476.512ZM211.25,474.549C211.667,474.549 212.051,474.456 212.402,474.271C212.754,474.085 213.014,473.836 213.184,473.524L213.184,471.707L212.129,471.707C210.716,471.707 209.964,472.196 209.873,473.172L209.863,473.338C209.863,473.69 209.987,473.98 210.234,474.207C210.482,474.435 210.82,474.549 211.25,474.549Z" style="fill-rule:nonzero;"/>
            <path d="M220.781,465.946L220.869,467.166C221.624,466.222 222.637,465.75 223.906,465.75C225.026,465.75 225.859,466.079 226.406,466.737C226.953,467.394 227.233,468.377 227.246,469.686L227.246,476.512L224.424,476.512L224.424,469.754C224.424,469.155 224.294,468.721 224.033,468.451C223.773,468.18 223.34,468.045 222.734,468.045C221.94,468.045 221.344,468.384 220.947,469.061L220.947,476.512L218.125,476.512L218.125,465.946L220.781,465.946Z" style="fill-rule:nonzero;"/>
            <path d="M235.107,473.592C235.107,473.247 234.937,472.975 234.595,472.777C234.253,472.578 233.704,472.401 232.949,472.245C230.436,471.717 229.18,470.649 229.18,469.041C229.18,468.104 229.569,467.321 230.347,466.693C231.125,466.065 232.142,465.75 233.398,465.75C234.74,465.75 235.812,466.066 236.616,466.698C237.42,467.329 237.822,468.149 237.822,469.159L235,469.159C235,468.755 234.87,468.421 234.609,468.158C234.349,467.894 233.942,467.762 233.389,467.762C232.913,467.762 232.546,467.87 232.285,468.084C232.025,468.299 231.895,468.573 231.895,468.905C231.895,469.217 232.043,469.469 232.339,469.662C232.635,469.854 233.135,470.02 233.838,470.16C234.541,470.3 235.133,470.457 235.615,470.633C237.106,471.18 237.852,472.127 237.852,473.475C237.852,474.439 237.438,475.218 236.611,475.814C235.784,476.41 234.717,476.707 233.408,476.707C232.523,476.707 231.737,476.55 231.05,476.234C230.363,475.918 229.824,475.485 229.434,474.935C229.043,474.385 228.848,473.791 228.848,473.153L231.523,473.153C231.549,473.654 231.735,474.038 232.08,474.305C232.425,474.572 232.887,474.705 233.467,474.705C234.007,474.705 234.416,474.603 234.692,474.398C234.969,474.193 235.107,473.924 235.107,473.592Z" style="fill-rule:nonzero;"/>
            <path d="M244.062,474.432C244.583,474.432 245.006,474.289 245.332,474.002C245.658,473.716 245.827,473.335 245.84,472.86L248.486,472.86C248.48,473.576 248.284,474.232 247.9,474.828C247.516,475.423 246.991,475.885 246.323,476.214C245.656,476.543 244.919,476.707 244.111,476.707C242.601,476.707 241.409,476.227 240.537,475.267C239.665,474.307 239.228,472.98 239.228,471.288L239.228,471.102C239.228,469.474 239.661,468.176 240.527,467.205C241.393,466.235 242.581,465.75 244.092,465.75C245.413,465.75 246.473,466.126 247.27,466.878C248.068,467.63 248.473,468.631 248.486,469.881L245.84,469.881C245.827,469.334 245.658,468.89 245.332,468.548C245.006,468.206 244.577,468.036 244.043,468.036C243.385,468.036 242.889,468.275 242.554,468.753C242.218,469.232 242.051,470.008 242.051,471.082L242.051,471.375C242.051,472.463 242.217,473.244 242.549,473.719C242.881,474.194 243.385,474.432 244.062,474.432Z" style="fill-rule:nonzero;"/>
            <path d="M252.852,467.098C253.6,466.2 254.541,465.75 255.674,465.75C257.965,465.75 259.128,467.082 259.16,469.745L259.16,476.512L256.338,476.512L256.338,469.823C256.338,469.217 256.208,468.77 255.947,468.48C255.687,468.19 255.254,468.045 254.648,468.045C253.822,468.045 253.223,468.364 252.852,469.002L252.852,476.512L250.029,476.512L250.029,461.512L252.852,461.512L252.852,467.098Z" style="fill-rule:nonzero;"/>
            <rect x="261.436" y="461.512" width="2.832" height="15"/>
            <path d="M272.715,476.512C272.585,476.258 272.49,475.942 272.432,475.565C271.748,476.327 270.859,476.707 269.766,476.707C268.73,476.707 267.873,476.408 267.192,475.809C266.512,475.21 266.172,474.455 266.172,473.543C266.172,472.424 266.587,471.564 267.417,470.965C268.247,470.366 269.447,470.064 271.016,470.057L272.314,470.057L272.314,469.452C272.314,468.963 272.189,468.573 271.938,468.28C271.688,467.987 271.292,467.84 270.752,467.84C270.277,467.84 269.904,467.954 269.634,468.182C269.364,468.41 269.228,468.722 269.228,469.12L266.406,469.12C266.406,468.508 266.595,467.941 266.973,467.42C267.35,466.899 267.884,466.491 268.574,466.195C269.264,465.899 270.039,465.75 270.898,465.75C272.201,465.75 273.234,466.078 273.999,466.732C274.764,467.386 275.146,468.306 275.146,469.491L275.146,474.071C275.153,475.073 275.293,475.832 275.566,476.346L275.566,476.512L272.715,476.512ZM270.381,474.549C270.798,474.549 271.182,474.456 271.533,474.271C271.885,474.085 272.145,473.836 272.314,473.524L272.314,471.707L271.26,471.707C269.847,471.707 269.095,472.196 269.004,473.172L268.994,473.338C268.994,473.69 269.118,473.98 269.365,474.207C269.613,474.435 269.951,474.549 270.381,474.549Z" style="fill-rule:nonzero;"/>
            <path d="M276.904,471.151C276.904,469.53 277.29,468.224 278.062,467.235C278.833,466.245 279.873,465.75 281.182,465.75C282.34,465.75 283.242,466.148 283.887,466.942L284.004,465.946L286.562,465.946L286.562,476.161C286.562,477.085 286.353,477.889 285.933,478.573C285.513,479.256 284.922,479.777 284.16,480.135C283.398,480.493 282.506,480.672 281.484,480.672C280.71,480.672 279.954,480.518 279.219,480.208C278.483,479.899 277.926,479.5 277.549,479.012L278.799,477.293C279.502,478.081 280.355,478.475 281.357,478.475C282.106,478.475 282.689,478.275 283.105,477.874C283.522,477.474 283.73,476.906 283.73,476.17L283.73,475.604C283.079,476.34 282.223,476.707 281.162,476.707C279.893,476.707 278.866,476.211 278.081,475.218C277.297,474.225 276.904,472.909 276.904,471.268L276.904,471.151ZM279.727,471.356C279.727,472.313 279.919,473.063 280.303,473.607C280.687,474.15 281.214,474.422 281.885,474.422C282.744,474.422 283.359,474.1 283.73,473.455L283.73,469.012C283.353,468.368 282.744,468.045 281.904,468.045C281.227,468.045 280.695,468.322 280.308,468.875C279.92,469.429 279.727,470.256 279.727,471.356Z" style="fill-rule:nonzero;"/>
            <path d="M303.232,471.327C303.232,473.019 302.871,474.339 302.148,475.287C301.426,476.234 300.417,476.707 299.121,476.707C297.975,476.707 297.061,476.268 296.377,475.389L296.25,476.512L293.711,476.512L293.711,461.512L296.533,461.512L296.533,466.893C297.184,466.131 298.04,465.75 299.102,465.75C300.391,465.75 301.401,466.224 302.134,467.171C302.866,468.119 303.232,469.452 303.232,471.17L303.232,471.327ZM300.41,471.121C300.41,470.054 300.241,469.274 299.902,468.783C299.564,468.291 299.059,468.045 298.389,468.045C297.49,468.045 296.872,468.413 296.533,469.149L296.533,473.319C296.878,474.061 297.503,474.432 298.408,474.432C299.32,474.432 299.919,473.983 300.205,473.084C300.342,472.655 300.41,472 300.41,471.121Z" style="fill-rule:nonzero;"/>
            <path d="M309.834,476.707C308.284,476.707 307.023,476.232 306.05,475.282C305.076,474.331 304.59,473.065 304.59,471.483L304.59,471.209C304.59,470.148 304.795,469.199 305.205,468.363C305.615,467.526 306.196,466.882 306.948,466.429C307.7,465.977 308.558,465.75 309.521,465.75C310.967,465.75 312.104,466.206 312.935,467.118C313.765,468.029 314.18,469.321 314.18,470.995L314.18,472.147L307.451,472.147C307.542,472.837 307.817,473.39 308.276,473.807C308.735,474.224 309.316,474.432 310.02,474.432C311.107,474.432 311.956,474.038 312.568,473.25L313.955,474.803C313.532,475.402 312.959,475.869 312.236,476.204C311.514,476.54 310.713,476.707 309.834,476.707ZM309.512,468.036C308.952,468.036 308.498,468.224 308.149,468.602C307.801,468.98 307.578,469.52 307.48,470.223L311.406,470.223L311.406,469.998C311.393,469.373 311.224,468.89 310.898,468.548C310.573,468.206 310.111,468.036 309.512,468.036Z" style="fill-rule:nonzero;"/>
            <path d="M319.619,472.274L318.603,473.289L318.603,476.512L315.781,476.512L315.781,461.512L318.603,461.512L318.603,469.823L319.15,469.12L321.855,465.946L325.244,465.946L321.426,470.35L325.576,476.512L322.334,476.512L319.619,472.274Z" style="fill-rule:nonzero;"/>
            <path d="M326.025,471.131C326.025,470.083 326.227,469.149 326.631,468.329C327.034,467.508 327.616,466.873 328.374,466.424C329.132,465.975 330.013,465.75 331.016,465.75C332.441,465.75 333.605,466.187 334.507,467.059C335.409,467.931 335.911,469.116 336.016,470.614L336.035,471.336C336.035,472.957 335.583,474.258 334.678,475.238C333.773,476.218 332.559,476.707 331.035,476.707C329.512,476.707 328.296,476.219 327.388,475.243C326.479,474.266 326.025,472.938 326.025,471.258L326.025,471.131ZM328.848,471.336C328.848,472.339 329.036,473.106 329.414,473.636C329.792,474.167 330.332,474.432 331.035,474.432C331.719,474.432 332.253,474.17 332.637,473.646C333.021,473.122 333.213,472.284 333.213,471.131C333.213,470.148 333.021,469.386 332.637,468.846C332.253,468.306 331.712,468.036 331.016,468.036C330.326,468.036 329.792,468.304 329.414,468.841C329.036,469.378 328.848,470.21 328.848,471.336Z" style="fill-rule:nonzero;"/>
            <path d="M340.42,465.946L340.508,467.127C341.256,466.209 342.269,465.75 343.545,465.75C344.906,465.75 345.84,466.288 346.348,467.362C347.09,466.288 348.148,465.75 349.521,465.75C350.667,465.75 351.52,466.084 352.08,466.751C352.64,467.419 352.92,468.423 352.92,469.764L352.92,476.512L350.088,476.512L350.088,469.774C350.088,469.175 349.971,468.737 349.736,468.46C349.502,468.184 349.089,468.045 348.496,468.045C347.65,468.045 347.064,468.449 346.738,469.256L346.748,476.512L343.926,476.512L343.926,469.784C343.926,469.172 343.805,468.729 343.564,468.455C343.324,468.182 342.913,468.045 342.334,468.045C341.533,468.045 340.954,468.377 340.596,469.041L340.596,476.512L337.773,476.512L337.773,465.946L340.42,465.946Z" style="fill-rule:nonzero;"/>
            <path d="M357.734,465.946L357.822,467.127C358.571,466.209 359.583,465.75 360.859,465.75C362.22,465.75 363.154,466.288 363.662,467.362C364.404,466.288 365.462,465.75 366.836,465.75C367.982,465.75 368.835,466.084 369.395,466.751C369.954,467.419 370.234,468.423 370.234,469.764L370.234,476.512L367.402,476.512L367.402,469.774C367.402,469.175 367.285,468.737 367.051,468.46C366.816,468.184 366.403,468.045 365.811,468.045C364.964,468.045 364.378,468.449 364.053,469.256L364.062,476.512L361.24,476.512L361.24,469.784C361.24,469.172 361.12,468.729 360.879,468.455C360.638,468.182 360.228,468.045 359.648,468.045C358.848,468.045 358.268,468.377 357.91,469.041L357.91,476.512L355.088,476.512L355.088,465.946L357.734,465.946Z" style="fill-rule:nonzero;"/>
            <path d="M377.266,476.707C375.716,476.707 374.455,476.232 373.481,475.282C372.508,474.331 372.021,473.065 372.021,471.483L372.021,471.209C372.021,470.148 372.227,469.199 372.637,468.363C373.047,467.526 373.628,466.882 374.38,466.429C375.132,465.977 375.99,465.75 376.953,465.75C378.398,465.75 379.536,466.206 380.366,467.118C381.196,468.029 381.611,469.321 381.611,470.995L381.611,472.147L374.883,472.147C374.974,472.837 375.249,473.39 375.708,473.807C376.167,474.224 376.748,474.432 377.451,474.432C378.538,474.432 379.388,474.038 380,473.25L381.387,474.803C380.964,475.402 380.391,475.869 379.668,476.204C378.945,476.54 378.145,476.707 377.266,476.707ZM376.943,468.036C376.383,468.036 375.929,468.224 375.581,468.602C375.233,468.98 375.01,469.52 374.912,470.223L378.838,470.223L378.838,469.998C378.825,469.373 378.656,468.89 378.33,468.548C378.005,468.206 377.542,468.036 376.943,468.036Z" style="fill-rule:nonzero;"/>
            <path d="M385.811,465.946L385.898,467.166C386.654,466.222 387.666,465.75 388.936,465.75C390.055,465.75 390.889,466.079 391.436,466.737C391.982,467.394 392.262,468.377 392.275,469.686L392.275,476.512L389.453,476.512L389.453,469.754C389.453,469.155 389.323,468.721 389.062,468.451C388.802,468.18 388.369,468.045 387.764,468.045C386.969,468.045 386.374,468.384 385.977,469.061L385.977,476.512L383.154,476.512L383.154,465.946L385.811,465.946Z" style="fill-rule:nonzero;"/>
        </g>
        <g transform="matrix(1,0,0,1,753.157,-78.4285)">
            <path d="M132.082,466.879L134.982,466.879L134.982,470.975L132.082,470.975L132.082,476.512L127.002,476.512L127.002,470.975L116.508,470.975L116.279,467.776L126.949,450.918L132.082,450.918L132.082,466.879ZM121.342,466.879L127.002,466.879L127.002,457.844L126.668,458.424L121.342,466.879Z" style="fill-rule:nonzero;"/>
            <path d="M149.59,466.282C148.266,467.582 146.719,468.233 144.949,468.233C142.687,468.233 140.877,467.456 139.518,465.904C138.158,464.351 137.478,462.256 137.478,459.62C137.478,457.944 137.845,456.406 138.577,455.005C139.31,453.605 140.332,452.515 141.645,451.736C142.957,450.956 144.434,450.567 146.074,450.567C147.762,450.567 149.262,450.989 150.574,451.832C151.887,452.676 152.906,453.889 153.633,455.471C154.359,457.053 154.728,458.864 154.74,460.903L154.74,462.784C154.74,467.049 153.68,470.401 151.559,472.838C149.437,475.276 146.432,476.577 142.541,476.741L141.293,476.758L141.293,472.522L142.418,472.504C146.836,472.305 149.227,470.231 149.59,466.282ZM146.197,464.348C147.018,464.348 147.724,464.137 148.315,463.715C148.907,463.293 149.355,462.784 149.66,462.186L149.66,460.094C149.66,458.371 149.332,457.036 148.676,456.086C148.02,455.137 147.141,454.663 146.039,454.663C145.02,454.663 144.182,455.128 143.525,456.06C142.869,456.992 142.541,458.161 142.541,459.567C142.541,460.961 142.86,462.107 143.499,463.003C144.138,463.9 145.037,464.348 146.197,464.348Z" style="fill-rule:nonzero;"/>
            <path d="M158.836,474.016C158.836,473.207 159.108,472.551 159.653,472.047C160.198,471.543 160.881,471.291 161.701,471.291C162.533,471.291 163.222,471.543 163.767,472.047C164.312,472.551 164.584,473.207 164.584,474.016C164.584,474.813 164.314,475.46 163.775,475.958C163.236,476.456 162.545,476.705 161.701,476.705C160.869,476.705 160.184,476.456 159.645,475.958C159.105,475.46 158.836,474.813 158.836,474.016Z" style="fill-rule:nonzero;"/>
            <rect x="169.014" y="463.504" width="9.896" height="4.096"/>
        </g>
    </g>
    <g transform="matrix(0.866025,-0.5,0.5,0.866025,-88.6321,149.348)">
        <path d="M278.701,200.403L278.701,181.617L356.938,181.617L356.938,164.173L383.775,191.01L356.938,217.847L356.938,200.403L278.701,200.403Z" style="fill:rgb(245,130,37);"/>
    </g>
    <g transform="matrix(0.866025,0.5,-0.5,0.866025,102.378,3.3109)">
        <path d="M278.701,200.403L278.701,181.617L356.938,181.617L356.938,164.173L383.775,191.01L356.938,217.847L356.938,200.403L278.701,200.403Z" style="fill:rgb(245,130,37);"/>
    </g>
    <g transform="matrix(1,5.55112e-17,-5.55112e-17,1,357.544,201.822)">
        <path d="M278.701,200.403L278.701,181.617L356.938,181.617L356.938,164.173L383.775,191.01L356.938,217.847L356.938,200.403L278.701,200.403Z" style="fill:rgb(245,130,37);"/>
    </g>
    <g transform="matrix(1,5.55112e-17,-5.55112e-17,1,357.544,-91.7979)">
        <path d="M278.701,200.403L278.701,181.617L356.938,181.617L356.938,164.173L383.775,191.01L356.938,217.847L356.938,200.403L278.701,200.403Z" style="fill:rgb(245,130,37);"/>
    </g>
</svg>
