<?xml version="1.0" encoding="UTF-8" standalone="no"?>
<!DOCTYPE svg PUBLIC "-//W3C//DTD SVG 1.1//EN" "http://www.w3.org/Graphics/SVG/1.1/DTD/svg11.dtd">
<svg width="100%" height="100%" viewBox="0 0 1200 350" version="1.1" xmlns="http://www.w3.org/2000/svg" xmlns:xlink="http://www.w3.org/1999/xlink" xml:space="preserve" xmlns:serif="http://www.serif.com/" style="fill-rule:evenodd;clip-rule:evenodd;stroke-linejoin:round;stroke-miterlimit:2;">
    <g id="_1.-Einsendelabel" serif:id="1. Einsendelabel" transform="matrix(1.30165,0,0,1.14266,-102.613,7.02929)">
        <g transform="matrix(1,0,0,1,-23.3065,-140.797)">
            <path d="M294.59,174.209C294.59,167.478 289.793,162.013 283.884,162.013L125.502,162.013C119.592,162.013 114.795,167.478 114.795,174.209L114.795,401.383C114.795,408.114 119.592,413.579 125.502,413.579L283.884,413.579C289.793,413.579 294.59,408.114 294.59,401.383L294.59,174.209ZM286.908,174.209C286.908,172.308 285.553,170.765 283.884,170.765L125.502,170.765C123.833,170.765 122.478,172.308 122.478,174.209L122.478,401.383C122.478,403.284 123.833,404.828 125.502,404.828L283.884,404.828C285.553,404.828 286.908,403.284 286.908,401.383L286.908,174.209Z"/>
        </g>
        <g transform="matrix(1,0,0,3.4578,-21.7498,-790.825)">
            <path d="M262.607,248.519C262.607,248.009 261.348,247.594 259.797,247.594L146.475,247.594C144.924,247.594 143.665,248.009 143.665,248.519L143.665,250.37C143.665,250.881 144.924,251.296 146.475,251.296L259.797,251.296C261.348,251.296 262.607,250.881 262.607,250.37L262.607,248.519Z"/>
        </g>
        <g transform="matrix(1,0,0,3.38199,-21.7498,-745.712)">
            <path d="M262.607,248.519C262.607,248.009 261.375,247.594 259.859,247.594L146.413,247.594C144.897,247.594 143.665,248.009 143.665,248.519L143.665,250.37C143.665,250.881 144.897,251.296 146.413,251.296L259.859,251.296C261.375,251.296 262.607,250.881 262.607,250.37L262.607,248.519Z"/>
        </g>
        <g transform="matrix(4.21502e-17,0.704837,-1.16533,6.90064e-17,414.756,57.9813)">
            <path d="M262.607,248.519C262.607,248.009 261.826,247.594 260.864,247.594L145.408,247.594C144.446,247.594 143.665,248.009 143.665,248.519L143.665,250.37C143.665,250.881 144.446,251.296 145.408,251.296L260.864,251.296C261.826,251.296 262.607,250.881 262.607,250.37L262.607,248.519Z" style="fill:rgb(245,130,37);"/>
        </g>
        <g transform="matrix(4.21502e-17,0.704837,-0.88009,5.21158e-17,349.321,57.9813)">
            <path d="M262.607,248.519C262.607,248.009 262.017,247.594 261.29,247.594L144.982,247.594C144.255,247.594 143.665,248.009 143.665,248.519L143.665,250.37C143.665,250.881 144.255,251.296 144.982,251.296L261.29,251.296C262.017,251.296 262.607,250.881 262.607,250.37L262.607,248.519Z" style="fill:rgb(245,130,37);"/>
        </g>
        <g transform="matrix(4.21502e-17,0.704837,-2.49834,1.47943e-16,762.632,57.9813)">
            <path d="M262.607,248.519C262.607,248.009 260.932,247.594 258.87,247.594L147.402,247.594C145.34,247.594 143.665,248.009 143.665,248.519L143.665,250.37C143.665,250.881 145.34,251.296 147.402,251.296L258.87,251.296C260.932,251.296 262.607,250.881 262.607,250.37L262.607,248.519Z" style="fill:rgb(245,130,37);"/>
        </g>
        <g transform="matrix(4.21502e-17,0.704837,-1.56742,9.28168e-17,540.684,57.9813)">
            <path d="M262.607,248.519C262.607,248.009 261.556,247.594 260.262,247.594L146.01,247.594C144.716,247.594 143.665,248.009 143.665,248.519L143.665,250.37C143.665,250.881 144.716,251.296 146.01,251.296L260.262,251.296C261.556,251.296 262.607,250.881 262.607,250.37L262.607,248.519Z" style="fill:rgb(245,130,37);"/>
        </g>
        <g transform="matrix(4.21502e-17,0.704837,-2.43491,1.44186e-16,766.973,57.9813)">
            <path d="M262.607,248.519C262.607,248.009 260.975,247.594 258.965,247.594L147.307,247.594C145.297,247.594 143.665,248.009 143.665,248.519L143.665,250.37C143.665,250.881 145.297,251.296 147.307,251.296L258.965,251.296C260.975,251.296 262.607,250.881 262.607,250.37L262.607,248.519Z" style="fill:rgb(245,130,37);"/>
        </g>
        <g transform="matrix(4.21502e-17,0.704837,-3.95856,2.34412e-16,1171.26,57.9813)">
            <path d="M262.607,248.519C262.607,248.009 259.954,247.594 256.686,247.594L149.586,247.594C146.318,247.594 143.665,248.009 143.665,248.519L143.665,250.37C143.665,250.881 146.318,251.296 149.586,251.296L256.686,251.296C259.954,251.296 262.607,250.881 262.607,250.37L262.607,248.519Z" style="fill:rgb(245,130,37);"/>
        </g>
        <g transform="matrix(4.21502e-17,0.704837,-1.63064,9.65609e-17,576.498,57.9813)">
            <path d="M262.607,248.519C262.607,248.009 261.514,247.594 260.168,247.594L146.104,247.594C144.758,247.594 143.665,248.009 143.665,248.519L143.665,250.37C143.665,250.881 144.758,251.296 146.104,251.296L260.168,251.296C261.514,251.296 262.607,250.881 262.607,250.37L262.607,248.519Z" style="fill:rgb(245,130,37);"/>
        </g>
        <g transform="matrix(4.21502e-17,0.704837,-1.09151,6.46356e-17,468.354,57.9813)">
            <path d="M262.607,248.519C262.607,248.009 261.875,247.594 260.974,247.594L145.298,247.594C144.397,247.594 143.665,248.009 143.665,248.519L143.665,250.37C143.665,250.881 144.397,251.296 145.298,251.296L260.974,251.296C261.875,251.296 262.607,250.881 262.607,250.37L262.607,248.519Z" style="fill:rgb(245,130,37);"/>
        </g>
        <g transform="matrix(4.21502e-17,0.704837,-0.52892,3.13208e-17,333.776,57.9813)">
            <path d="M262.607,248.519C262.607,248.009 262.252,247.594 261.815,247.594L144.456,247.594C144.02,247.594 143.665,248.009 143.665,248.519L143.665,250.37C143.665,250.881 144.02,251.296 144.456,251.296L261.815,251.296C262.252,251.296 262.607,250.881 262.607,250.37L262.607,248.519Z" style="fill:rgb(245,130,37);"/>
        </g>
        <g transform="matrix(4.21502e-17,0.704837,-2.32428,1.37635e-16,789.869,57.9813)">
            <path d="M262.607,248.519C262.607,248.009 261.049,247.594 259.13,247.594L147.142,247.594C145.223,247.594 143.665,248.009 143.665,248.519L143.665,250.37C143.665,250.881 145.223,251.296 147.142,251.296L259.13,251.296C261.049,251.296 262.607,250.881 262.607,250.37L262.607,248.519Z" style="fill:rgb(245,130,37);"/>
        </g>
        <g transform="matrix(4.21502e-17,0.704837,-1.03451,6.126e-17,476.519,57.9813)">
            <path d="M262.607,248.519C262.607,248.009 261.913,247.594 261.059,247.594L145.213,247.594C144.359,247.594 143.665,248.009 143.665,248.519L143.665,250.37C143.665,250.881 144.359,251.296 145.213,251.296L261.059,251.296C261.913,251.296 262.607,250.881 262.607,250.37L262.607,248.519Z" style="fill:rgb(245,130,37);"/>
        </g>
        <g transform="matrix(4.21502e-17,0.704837,-1.62376,9.61535e-17,632.187,57.9813)">
            <path d="M262.607,248.519C262.607,248.009 261.518,247.594 260.178,247.594L146.094,247.594C144.754,247.594 143.665,248.009 143.665,248.519L143.665,250.37C143.665,250.881 144.754,251.296 146.094,251.296L260.178,251.296C261.518,251.296 262.607,250.881 262.607,250.37L262.607,248.519Z" style="fill:rgb(245,130,37);"/>
        </g>
        <g transform="matrix(4.21502e-17,0.704837,-0.693048,4.10398e-17,407.46,57.9813)">
            <path d="M262.607,248.519C262.607,248.009 262.142,247.594 261.57,247.594L144.702,247.594C144.13,247.594 143.665,248.009 143.665,248.519L143.665,250.37C143.665,250.881 144.13,251.296 144.702,251.296L261.57,251.296C262.142,251.296 262.607,250.881 262.607,250.37L262.607,248.519Z" style="fill:rgb(245,130,37);"/>
        </g>
        <g transform="matrix(4.21502e-17,0.704837,-0.693048,4.10398e-17,412.451,57.9813)">
            <path d="M262.607,248.519C262.607,248.009 262.142,247.594 261.57,247.594L144.702,247.594C144.13,247.594 143.665,248.009 143.665,248.519L143.665,250.37C143.665,250.881 144.13,251.296 144.702,251.296L261.57,251.296C262.142,251.296 262.607,250.881 262.607,250.37L262.607,248.519Z" style="fill:rgb(245,130,37);"/>
        </g>
    </g>
    <g transform="matrix(-0.405554,0,0,0.404136,833.298,78.397)">
        <g id="_2.-Versenden" serif:id="2. Versenden">
            <g>
                <g id="g5452">
                    <path id="path5439" d="M295.784,86.817L295.784,335.083L687.716,335.403C664.716,354.194 650.357,380.094 650.545,414.088L261.479,413.857C257.752,281.974 70.643,282.422 66.577,413.094C38.474,412.885 34.576,406.502 34.305,380.615L34.305,281.615C33.952,237.373 28.427,266.577 61.177,182.68C94.875,93.246 85.585,101.513 116.065,99.205L295.784,86.817ZM217.939,233.2L219.49,127.72L119.44,133.925C101.2,135.147 101.048,135.262 94.621,156.417L69.027,224.668C60.429,245.603 61.797,251.771 85.314,248.711L217.939,233.2ZM966.635,335.591L966.826,391.368L902.218,414.238L845.491,414.202C845.722,381.859 832.281,354.657 808.45,335.549L966.635,335.591Z"/>
                    <rect id="rect5441" x="335.827" y="12.159" width="631.324" height="301.702" style="fill:rgb(245,130,37);"/>
                    <circle id="circle5443" cx="164" cy="412" r="77"/>
                    <circle id="circle5445" cx="748" cy="412" r="77"/>
                </g>
            </g>
        </g>
    </g>
    <g id="_3.-Reparatur" serif:id="3. Reparatur" transform="matrix(1.30281,0,0,1.30281,-243.206,-44.3165)">
        <g transform="matrix(0.49779,0,0,0.49779,728.497,-11.3028)">
            <g>
                <g id="iPhone-12" serif:id="iPhone 12">
                    <path id="Frame" d="M734.763,149.504C734.763,128.189 717.458,110.883 696.142,110.883L530.083,110.883C508.767,110.883 491.462,128.189 491.462,149.504L491.462,189.785C491.462,189.836 491.421,189.877 491.37,189.877C491.076,189.879 490.156,189.883 489.713,189.885C489.578,189.885 489.469,189.995 489.469,190.13L489.469,208.71C489.469,208.805 489.545,208.882 489.64,208.883C490.04,208.885 491.031,208.891 491.356,208.893C491.415,208.893 491.462,208.941 491.462,208.999L491.462,225.746C491.462,225.821 491.401,225.882 491.326,225.882L489.658,225.882C489.607,225.882 489.559,225.902 489.524,225.937C489.488,225.973 489.469,226.021 489.469,226.071L489.469,263.71C489.469,263.759 489.488,263.806 489.523,263.841C489.558,263.876 489.605,263.896 489.654,263.896L491.368,263.896C491.42,263.896 491.462,263.938 491.462,263.99L491.462,273.792C491.462,273.815 491.452,273.838 491.435,273.855C491.418,273.872 491.396,273.881 491.372,273.881L489.621,273.881C489.58,273.881 489.542,273.898 489.513,273.926C489.485,273.955 489.469,273.993 489.469,274.034L489.469,310.731C489.469,310.772 489.485,310.811 489.514,310.84C489.543,310.869 489.582,310.885 489.623,310.885L491.379,310.885C491.425,310.885 491.462,310.922 491.462,310.968L491.462,572.262C491.462,593.578 508.767,610.883 530.083,610.883L696.142,610.883C717.458,610.883 734.763,593.578 734.763,572.262L734.763,298.979C734.763,298.929 734.803,298.888 734.853,298.888L736.309,298.888C736.36,298.888 736.409,298.868 736.445,298.832C736.481,298.796 736.501,298.747 736.501,298.696L736.501,239.044C736.501,238.999 736.484,238.957 736.452,238.925C736.421,238.894 736.378,238.876 736.334,238.876L734.819,238.876C734.788,238.876 734.763,238.851 734.763,238.82L734.763,149.504ZM722.838,148.058C722.838,134.187 711.577,122.926 697.706,122.926L675.401,122.926C674.637,122.926 673.904,123.229 673.364,123.769C672.824,124.309 672.521,125.042 672.521,125.806L672.521,126.277C672.521,134.35 665.976,140.894 657.903,140.894L568.16,140.894C564.29,140.894 560.578,139.357 557.841,136.62C555.104,133.883 553.567,130.171 553.567,126.3L553.567,125.827C553.567,124.225 552.267,122.926 550.665,122.926L528.624,122.926C514.753,122.926 503.491,134.187 503.491,148.058L503.491,572.751C503.491,586.623 514.753,597.884 528.624,597.884L697.706,597.884C711.577,597.884 722.838,586.623 722.838,572.751L722.838,148.058Z" style="stroke:black;stroke-width:10.66px;"/>
                    <g id="Earpiece" transform="matrix(1.00222,0,0,0.949845,-1.30176,6.33544)">
                        <path d="M627.377,129.566C627.377,128.704 626.714,128.004 625.896,128.004L600.949,128.004C600.132,128.004 599.468,128.704 599.468,129.566C599.468,130.428 600.132,131.128 600.949,131.128L625.896,131.128C626.714,131.128 627.377,130.428 627.377,129.566Z" style="fill:rgb(48,48,48);"/>
                    </g>
                    <g id="Front-Camera" serif:id="Front Camera" transform="matrix(0.90049,0,0,0.90049,63.493,12.2319)">
                        <circle cx="638.274" cy="130.119" r="4.767" style="fill:rgb(48,48,48);"/>
                    </g>
                </g>
            </g>
        </g>
        <g transform="matrix(0.000749541,0.0962351,-0.0962351,0.000749541,1172.62,47.9059)">
            <g id="States">
                <g id="Kleinteilreparatur">
                    <path d="M908.771,1007.31L1043.99,1141.84L1021.08,1236.62L926.777,1260.1L791.97,1126.46C771.839,1192.84 793.089,1266.83 848.632,1321.83C905.747,1378.5 983.398,1398.97 1050.97,1374.86L1339.67,1659.07C1331.71,1679.65 1327.3,1702.21 1327.46,1725.6C1327.82,1827.21 1410.69,1909.42 1512.26,1908.9C1614.22,1908.47 1696.17,1825.62 1695.79,1724.26C1695.45,1622.22 1612.62,1540.24 1510.97,1540.53C1488.73,1540.83 1467.89,1544.78 1448.15,1551.9L1159.53,1267.86C1185.42,1199.09 1164.68,1119.72 1106.13,1061.87C1064.75,1020.97 1013,998.984 961.955,998.984C943.97,998.984 926.077,1001.71 908.771,1007.31ZM1343.26,1543.31L1137.57,1341.28C1130.54,1334.27 1130.54,1322.96 1137.42,1316.1C1144.56,1308.87 1155.91,1308.87 1163.02,1315.79L1287.14,1438.75L1368.65,1517.71C1375.59,1524.69 1375.59,1536.18 1368.81,1543.15C1365.2,1546.66 1360.51,1548.41 1355.85,1548.41C1351.28,1548.41 1346.73,1546.71 1343.26,1543.31ZM1552.01,1601.57C1552.49,1601.97 1561.63,1627.82 1575.48,1638.73C1589.91,1648.76 1617.48,1648.76 1618.08,1649.46L1618.08,1649.1L1618.23,1649.1L1618.08,1649.46C1618.61,1649.76 1610.2,1676.37 1615.49,1693.18C1621.34,1709.57 1643.41,1725.9 1643.74,1726.83C1643.35,1727.55 1621.54,1744.39 1615.83,1760.61C1610.73,1777.28 1619.27,1803.81 1618.61,1804.36C1618.32,1805.02 1590.54,1805.42 1576.09,1815.43C1562.49,1826.43 1553.53,1852.45 1552.9,1852.7C1552.19,1853.05 1529.66,1836.63 1512.1,1836.63C1494.55,1836.89 1472.18,1853.23 1471.35,1853.08C1470.74,1852.57 1461.75,1826.86 1447.87,1815.73C1433.6,1806.24 1406.52,1806.08 1405.12,1805.3C1405.12,1805.28 1405.12,1805.25 1405.07,1805.25C1404.69,1804.88 1413.13,1778.2 1407.8,1761.49C1401.87,1745.01 1379.76,1728.66 1379.6,1727.75C1379.76,1727.2 1401.7,1710.55 1407.72,1693.79C1412.68,1677.21 1403.89,1650.84 1404.55,1650.33C1405.12,1649.52 1432.63,1649.46 1447.15,1639.23C1460.83,1628.51 1469.71,1602.29 1470.25,1601.83L1470.22,1601.83L1470.25,1601.83C1471.06,1601.57 1493.52,1617.91 1511.13,1618.03C1528.83,1617.63 1551.14,1601.32 1552.01,1601.57ZM1404.4,1650.16C1404.4,1650.16 1404.4,1650.06 1404.55,1650.06C1404.4,1650.15 1404.54,1650.31 1404.55,1650.33L1404.4,1650.16ZM1618.61,1804.36C1618.61,1804.38 1618.63,1804.55 1618.76,1804.55L1618.61,1804.55L1618.61,1804.36Z" style="fill:rgb(245,130,37);fill-rule:nonzero;stroke:rgb(245,130,37);stroke-width:27.92px;"/>
                </g>
            </g>
        </g>
    </g>
    <g transform="matrix(0.686855,0,0,1.28607,101.868,-18.1468)">
        <g transform="matrix(1,0,0,1,-44.1679,-125.096)">
            <path d="M332.623,285.729L332.623,264.834L407.96,264.834L407.96,247.775L459.462,275.281L407.96,302.787L407.96,285.729L332.623,285.729Z"/>
        </g>
        <g transform="matrix(1,0,0,1,-44.1679,-125.096)">
            <path d="M331.24,264.095L331.24,286.467L406.577,286.467L406.577,302.787L408.938,303.31L461.418,275.281L408.938,247.253L406.577,247.775L406.577,264.095L331.24,264.095ZM332.623,285.729L332.623,264.834L407.96,264.834L407.96,247.775L459.462,275.281L407.96,302.787L407.96,285.729L332.623,285.729Z"/>
        </g>
    </g>
    <g transform="matrix(0.686855,0,0,1.28607,669.339,-18.1468)">
        <g transform="matrix(1,0,0,1,-44.1679,-125.096)">
            <path d="M332.623,285.729L332.623,264.834L407.96,264.834L407.96,247.775L459.462,275.281L407.96,302.787L407.96,285.729L332.623,285.729Z"/>
        </g>
        <g transform="matrix(1,0,0,1,-44.1679,-125.096)">
            <path d="M331.24,264.095L331.24,286.467L406.577,286.467L406.577,302.787L408.938,303.31L461.418,275.281L408.938,247.253L406.577,247.775L406.577,264.095L331.24,264.095ZM332.623,285.729L332.623,264.834L407.96,264.834L407.96,247.775L459.462,275.281L407.96,302.787L407.96,285.729L332.623,285.729Z"/>
        </g>
    </g>
</svg>
