<?xml version="1.0" encoding="UTF-8" standalone="no"?>
<!DOCTYPE svg PUBLIC "-//W3C//DTD SVG 1.1//EN" "http://www.w3.org/Graphics/SVG/1.1/DTD/svg11.dtd">
<svg width="100%" height="100%" viewBox="0 0 792 347" version="1.1" xmlns="http://www.w3.org/2000/svg" xmlns:xlink="http://www.w3.org/1999/xlink" xml:space="preserve" xmlns:serif="http://www.serif.com/" style="fill-rule:evenodd;clip-rule:evenodd;stroke-miterlimit:10;">
    <g id="Logo" transform="matrix(1,0,0,1,-3636.59,-101.584)">
        <g id="SMARTPHON---Black" serif:id="SMARTPHON - Black">
            <g transform="matrix(4.16667,0,0,4.16667,3726.77,216.147)">
                <path d="M0,-15.446L-5.942,-15.446L-5.942,-16.623C-5.942,-17.816 -6.261,-18.847 -6.903,-19.717C-7.543,-20.586 -8.621,-21.021 -10.135,-21.021C-10.951,-21.021 -11.612,-20.885 -12.116,-20.612C-12.621,-20.338 -13.029,-19.998 -13.339,-19.589C-13.65,-19.146 -13.864,-18.643 -13.98,-18.08C-14.097,-17.518 -14.155,-16.93 -14.155,-16.316C-14.155,-15.6 -14.125,-15.003 -14.067,-14.526C-14.009,-14.047 -13.864,-13.622 -13.631,-13.247C-13.397,-12.871 -13.058,-12.547 -12.611,-12.275C-12.165,-12.001 -11.554,-11.73 -10.776,-11.457L-6.233,-9.871C-4.913,-9.427 -3.844,-8.907 -3.029,-8.311C-2.213,-7.714 -1.573,-7.023 -1.107,-6.24C-0.68,-5.421 -0.388,-4.492 -0.233,-3.452C-0.078,-2.411 0,-1.227 0,0.103C0,1.637 -0.175,3.061 -0.524,4.373C-0.873,5.687 -1.437,6.804 -2.213,7.724C-3.029,8.678 -4.097,9.429 -5.417,9.974C-6.738,10.519 -8.35,10.793 -10.252,10.793C-11.689,10.793 -13.029,10.571 -14.271,10.128C-15.514,9.685 -16.582,9.071 -17.475,8.286C-18.368,7.503 -19.077,6.591 -19.601,5.55C-20.125,4.511 -20.388,3.376 -20.388,2.149L-20.388,0.206L-14.446,0.206L-14.446,1.842C-14.446,2.796 -14.125,3.658 -13.485,4.424C-12.844,5.192 -11.766,5.576 -10.252,5.576C-9.242,5.576 -8.456,5.447 -7.892,5.192C-7.331,4.936 -6.893,4.57 -6.582,4.092C-6.272,3.615 -6.087,3.043 -6.029,2.379C-5.97,1.714 -5.942,0.972 -5.942,0.154C-5.942,-0.8 -5.98,-1.585 -6.058,-2.198C-6.136,-2.813 -6.291,-3.307 -6.524,-3.682C-6.797,-4.057 -7.156,-4.364 -7.601,-4.602C-8.049,-4.841 -8.641,-5.096 -9.378,-5.37L-13.631,-6.905C-16.193,-7.825 -17.912,-9.044 -18.785,-10.561C-19.659,-12.078 -20.097,-13.98 -20.097,-16.265C-20.097,-17.628 -19.883,-18.924 -19.455,-20.151C-19.028,-21.379 -18.388,-22.436 -17.533,-23.323C-16.718,-24.209 -15.68,-24.916 -14.417,-25.445C-13.155,-25.974 -11.65,-26.239 -9.902,-26.239C-8.427,-26.239 -7.077,-25.999 -5.854,-25.522C-4.63,-25.045 -3.573,-24.414 -2.68,-23.629C-0.893,-21.993 0,-20.117 0,-18.004L0,-15.446Z" style="fill-rule:nonzero;stroke:black;stroke-width:0.25px;"/>
            </g>
            <g transform="matrix(4.16667,0,0,4.16667,3743.74,108.099)">
                <path d="M0,36.417L0,0L5.711,0L13.346,19.283L13.462,19.283L21.039,0L26.809,0L26.809,36.417L20.864,36.417L20.864,14.271L20.748,14.271L14.861,29.921L11.889,29.921L6.061,14.271L5.945,14.271L5.945,36.417L0,36.417Z" style="fill-rule:nonzero;stroke:black;stroke-width:0.25px;"/>
            </g>
            <g transform="matrix(4.16667,0,0,4.16667,3866.12,108.099)">
                <path d="M0,36.417L9.427,0L14.466,0L23.893,36.417L17.846,36.417L16.067,28.592L7.826,28.592L6.048,36.417L0,36.417ZM14.941,23.681L11.977,10.486L11.858,10.486L8.894,23.681L14.941,23.681Z" style="fill-rule:nonzero;stroke:black;stroke-width:0.25px;"/>
            </g>
            <g transform="matrix(4.16667,0,0,4.16667,3976.34,108.099)">
                <path d="M0,36.417L0,0L9.549,0C16.536,0 20.03,3.564 20.03,10.69C20.03,12.839 19.651,14.663 18.895,16.163C18.138,17.663 16.808,18.873 14.906,19.795L21.312,36.417L15.022,36.417L9.491,20.868L5.939,20.868L5.939,36.417L0,36.417ZM5.939,4.911L5.939,16.265L9.317,16.265C10.364,16.265 11.199,16.137 11.82,15.882C12.441,15.626 12.926,15.26 13.276,14.782C13.586,14.305 13.8,13.717 13.917,13.017C14.033,12.319 14.091,11.509 14.091,10.588C14.091,9.667 14.033,8.858 13.917,8.159C13.8,7.46 13.568,6.854 13.217,6.343C12.479,5.388 11.083,4.911 9.026,4.911L5.939,4.911Z" style="fill-rule:nonzero;stroke:black;stroke-width:0.25px;"/>
            </g>
            <g transform="matrix(4.16667,0,0,4.16667,4097.13,108.099)">
                <path d="M0,36.417L0,4.911L-6.875,4.911L-6.875,0L12.814,0L12.814,4.911L5.941,4.911L5.941,36.417L0,36.417Z" style="fill-rule:nonzero;stroke:black;stroke-width:0.25px;"/>
            </g>
            <g transform="matrix(4.16667,0,0,4.16667,3646.69,289.865)">
                <path d="M0,36.417L0,0L8.911,0C10.542,0 11.978,0.188 13.221,0.564C14.464,0.939 15.589,1.603 16.599,2.558C17.609,3.512 18.307,4.63 18.696,5.908C19.083,7.186 19.278,8.918 19.278,11.099C19.278,12.736 19.171,14.116 18.958,15.243C18.744,16.368 18.289,17.426 17.589,18.414C16.774,19.607 15.687,20.535 14.328,21.201C12.968,21.866 11.182,22.198 8.97,22.198L5.941,22.198L5.941,36.417L0,36.417ZM5.941,4.911L5.941,17.289L8.794,17.289C9.998,17.289 10.929,17.135 11.59,16.828C12.25,16.521 12.735,16.096 13.046,15.55C13.357,15.038 13.541,14.407 13.6,13.658C13.658,12.906 13.687,12.072 13.687,11.151C13.687,10.298 13.667,9.488 13.629,8.722C13.589,7.954 13.415,7.281 13.104,6.702C12.793,6.121 12.327,5.679 11.706,5.372C11.086,5.065 10.192,4.911 9.028,4.911L5.941,4.911Z" style="fill-rule:nonzero;stroke:black;stroke-width:0.25px;"/>
            </g>
            <g transform="matrix(4.16667,0,0,4.16667,3743.74,289.868)">
                <path d="M0,36.417L0,0L5.941,0L5.941,15.6L13.279,15.6L13.279,0L19.22,0L19.22,36.417L13.279,36.417L13.279,20.204L5.941,20.204L5.941,36.417L0,36.417Z" style="fill-rule:nonzero;stroke:black;stroke-width:0.25px;"/>
            </g>
            <g transform="matrix(4.16667,0,0,4.16667,3842.8,405.808)">
                <path d="M0,-19.233C0,-20.698 0.291,-21.995 0.873,-23.12C1.456,-24.245 2.232,-25.183 3.203,-25.932C4.135,-26.65 5.193,-27.193 6.378,-27.569C7.562,-27.944 8.756,-28.132 9.96,-28.132C11.163,-28.132 12.357,-27.944 13.542,-27.569C14.726,-27.193 15.803,-26.65 16.775,-25.932C17.707,-25.183 18.464,-24.245 19.047,-23.12C19.629,-21.995 19.92,-20.698 19.92,-19.233L19.92,-0.001C19.92,1.535 19.629,2.846 19.047,3.938C18.464,5.029 17.707,5.932 16.775,6.648C15.803,7.399 14.726,7.961 13.542,8.337C12.357,8.711 11.163,8.899 9.96,8.899C8.756,8.899 7.562,8.711 6.378,8.337C5.193,7.961 4.135,7.399 3.203,6.648C2.232,5.932 1.456,5.029 0.873,3.938C0.291,2.846 0,1.535 0,-0.001L0,-19.233ZM5.94,-0.001C5.94,1.261 6.339,2.191 7.135,2.787C7.931,3.385 8.872,3.683 9.96,3.683C11.047,3.683 11.988,3.385 12.785,2.787C13.58,2.191 13.979,1.261 13.979,-0.001L13.979,-19.233C13.979,-20.493 13.58,-21.423 12.785,-22.019C11.988,-22.617 11.047,-22.915 9.96,-22.915C8.872,-22.915 7.931,-22.617 7.135,-22.019C6.339,-21.423 5.94,-20.493 5.94,-19.233L5.94,-0.001Z" style="fill-rule:nonzero;stroke:black;stroke-width:0.25px;"/>
            </g>
            <g transform="matrix(4.16667,0,0,4.16667,3944.25,289.868)">
                <path d="M0,36.417L0,0L5.708,0L14.679,21.943L14.796,21.943L14.796,0L20.738,0L20.738,36.417L15.145,36.417L6.058,14.527L5.941,14.527L5.941,36.417L0,36.417Z" style="fill-rule:nonzero;stroke:black;stroke-width:0.25px;"/>
            </g>
        </g>
        <g id="IKER.---Orange" serif:id="IKER. - Orange">
            <g transform="matrix(4.16667,0,0,4.16667,-11.811,-1028.36)">
                <rect x="975.177" y="316.376" width="5.908" height="36.417" style="fill:rgb(245,130,37);stroke:rgb(245,130,37);stroke-width:0.25px;"/>
            </g>
            <g transform="matrix(4.16667,0,0,4.16667,4097.26,289.868)">
                <path d="M0,36.417L0,0L5.94,0L5.94,16.623L6.056,16.623L14.732,0L20.671,0L12.578,14.577L22.186,36.417L15.898,36.417L9.141,20.254L5.94,25.523L5.94,36.417L0,36.417Z" style="fill:rgb(245,130,37);fill-rule:nonzero;stroke:rgb(245,130,37);stroke-width:0.25px;"/>
            </g>
            <g transform="matrix(4.16667,0,0,4.16667,4203.72,289.868)">
                <path d="M0,36.417L0,0L17.703,0L17.703,4.911L5.94,4.911L5.94,15.6L16.188,15.6L16.188,20.51L5.94,20.51L5.94,31.2L17.703,31.2L17.703,36.417L0,36.417Z" style="fill:rgb(245,130,37);fill-rule:nonzero;stroke:rgb(245,130,37);stroke-width:0.25px;"/>
            </g>
            <g transform="matrix(4.16667,0,0,4.16667,4292.02,289.868)">
                <path d="M0,36.417L0,0L9.549,0C16.536,0 20.03,3.564 20.03,10.69C20.03,12.838 19.651,14.664 18.896,16.162C18.138,17.664 16.808,18.874 14.907,19.794L21.312,36.417L15.023,36.417L9.49,20.868L5.939,20.868L5.939,36.417L0,36.417ZM5.939,4.911L5.939,16.266L9.317,16.266C10.364,16.266 11.199,16.138 11.82,15.881C12.441,15.626 12.926,15.26 13.276,14.782C13.586,14.305 13.8,13.717 13.917,13.017C14.033,12.318 14.09,11.508 14.09,10.588C14.09,9.667 14.033,8.857 13.917,8.158C13.8,7.46 13.567,6.853 13.218,6.343C12.479,5.388 11.083,4.911 9.025,4.911L5.939,4.911Z" style="fill:rgb(245,130,37);fill-rule:nonzero;stroke:rgb(245,130,37);stroke-width:0.25px;"/>
            </g>
            <g transform="matrix(0,4.16667,4.16667,0,4410.31,416.815)">
                <path d="M2.975,-2.975C4.618,-2.975 5.95,-1.643 5.95,0C5.95,1.643 4.618,2.975 2.975,2.975C1.332,2.975 -0,1.643 -0,0C-0,-1.643 1.332,-2.975 2.975,-2.975" style="fill:rgb(245,130,37);fill-rule:nonzero;stroke:rgb(245,130,37);stroke-width:0.24px;stroke-linejoin:round;stroke-miterlimit:2;"/>
            </g>
            <g transform="matrix(0,4.16667,4.16667,0,4410.31,416.815)">
                <circle cx="2.975" cy="0" r="2.975" style="fill:rgb(245,130,37);stroke:rgb(245,130,37);stroke-width:0.25px;"/>
            </g>
        </g>
    </g>
</svg>
