<?xml version="1.0" encoding="UTF-8" standalone="no"?><!DOCTYPE svg PUBLIC "-//W3C//DTD SVG 1.1//EN" "http://www.w3.org/Graphics/SVG/1.1/DTD/svg11.dtd"><svg width="100%" height="100%" viewBox="0 0 3508 3508" version="1.1" xmlns="http://www.w3.org/2000/svg" xmlns:xlink="http://www.w3.org/1999/xlink" xml:space="preserve" xmlns:serif="http://www.serif.com/" style="fill-rule:evenodd;clip-rule:evenodd;stroke-linejoin:round;stroke-miterlimit:2;"><g><g><path d="M665.29,286.675l444.211,441.993l-75.296,311.302l-309.747,77.109l-442.867,-438.948c-66.131,218.065 3.643,461.148 186.15,641.776c187.623,186.198 442.721,253.479 664.705,174.2l948.398,933.696c-26.167,67.604 -40.675,141.685 -40.206,218.535c1.28,333.842 273.525,603.918 607.157,602.169c334.976,-1.425 604.193,-273.59 602.963,-606.557c-1.215,-335.187 -273.234,-604.518 -607.141,-603.579c-73.077,1.021 -141.555,13.975 -206.455,37.389l-948.075,-933.162c85.011,-225.902 16.921,-486.667 -175.43,-676.655c-136.018,-134.398 -306.04,-206.585 -473.633,-206.585c-59.103,0 -117.866,8.906 -174.734,27.317Zm1427.38,1760.81l-675.781,-663.636c-23.074,-23.075 -23.074,-60.237 -0.469,-82.777c23.479,-23.754 60.722,-23.754 84.136,-1.004l407.713,403.924l267.712,259.421c22.88,22.945 22.88,60.657 0.615,83.521c-11.869,11.546 -27.333,17.343 -42.57,17.343c-14.978,0 -30.021,-5.603 -41.356,-16.792Zm685.755,191.412c1.539,1.28 31.576,86.226 77.045,122.044c47.493,33 137.977,33 139.936,35.283l0,-1.214l0.534,0l-0.534,1.214c1.813,1.02 -25.779,88.396 -8.501,143.645c19.285,53.84 91.747,107.486 92.832,110.579c-1.279,2.364 -72.932,57.629 -91.699,110.919c-16.727,54.795 11.351,141.96 9.181,143.709c-1.003,2.17 -92.232,3.514 -139.725,36.368c-44.659,36.158 -74.081,121.655 -76.105,122.384c-2.429,1.23 -76.381,-52.756 -134.059,-52.756c-57.694,0.875 -131.224,54.586 -133.993,54.051c-1.895,-1.619 -31.446,-86.096 -77.044,-122.658c-46.975,-31.171 -135.824,-31.722 -140.406,-34.28c0,-0.065 -0.065,-0.13 -0.146,-0.13c-1.279,-1.295 26.378,-88.929 8.987,-143.774c-19.512,-54.18 -92.233,-107.891 -92.638,-110.919c0.405,-1.765 72.527,-56.415 92.363,-111.534c16.192,-54.375 -12.614,-141.07 -10.525,-142.77l-0.405,-0.534c0,0 0,-0.34 0.405,-0.34c-0.405,0.34 0,0.874 0,0.874c1.959,-2.623 92.297,-2.834 140,-36.433c44.935,-35.284 74.146,-121.364 75.96,-122.853l-0.194,0l0.194,0c2.639,-0.875 76.38,52.82 134.204,53.225c58.228,-1.344 131.5,-54.909 134.333,-54.1Zm218.794,666.179c0,0.065 0.065,0.68 0.47,0.68l-0.47,0l0,-0.68Z" style="fill:url(#_Linear1);"/></g><path d="M2179.64,2048.83c-23.689,23.01 -61.677,23.544 -85.092,0.34l-685.204,-668.154c-23.415,-23.269 -23.415,-60.577 -0.47,-83.392c23.884,-24.013 61.516,-24.013 85.205,-1.004l413.51,406.839l271.63,261.04c22.945,23.139 22.945,61.062 0.421,84.331Z" style="fill:#fff;fill-rule:nonzero;"/></g><defs><linearGradient id="_Linear1" x1="0" y1="0" x2="1" y2="0" gradientUnits="userSpaceOnUse" gradientTransform="matrix(2993.59,0,0,2993.59,256.105,1753.79)"><stop offset="0" style="stop-color:#f9a425;stop-opacity:1"/><stop offset="1" style="stop-color:#f16f22;stop-opacity:1"/></linearGradient></defs></svg>