<?xml version="1.0" standalone="no"?>
<!DOCTYPE svg PUBLIC "-//W3C//DTD SVG 20010904//EN"
 "http://www.w3.org/TR/2001/REC-SVG-20010904/DTD/svg10.dtd">
<svg version="1.0" xmlns="http://www.w3.org/2000/svg"
 width="700.000000pt" height="700.000000pt" viewBox="0 0 700.000000 700.000000"
 preserveAspectRatio="xMidYMid meet">
<metadata>
Created by potrace 1.11, written by Peter Selinger 2001-2013
</metadata>
<g transform="translate(0.000000,700.000000) scale(0.100000,-0.100000)"
fill="#000000" stroke="none">
<path d="M1580 6478 c-36 -3 -78 -9 -95 -12 -16 -4 -46 -9 -65 -12 -19 -3 -48
-11 -63 -18 l-28 -11 442 -439 442 -439 -17 -71 c-57 -246 -129 -534 -134
-543 -4 -5 -95 -31 -202 -57 -107 -26 -206 -52 -220 -57 -14 -5 -38 -11 -55
-14 -16 -3 -55 -12 -85 -20 -30 -8 -57 -12 -60 -9 -3 3 -200 199 -439 436
-335 332 -436 427 -442 415 -8 -14 -35 -134 -38 -167 -21 -264 18 -476 128
-700 183 -371 535 -663 921 -764 120 -31 180 -39 305 -40 135 0 272 20 359 54
23 8 45 -11 312 -273 157 -155 357 -352 444 -437 87 -85 379 -373 649 -640
271 -266 497 -487 502 -491 7 -4 2 -36 -14 -90 -44 -148 -52 -204 -51 -374 0
-165 35 -326 102 -475 110 -245 323 -466 571 -590 87 -43 253 -96 332 -105 35
-4 73 -9 84 -12 29 -6 174 -5 248 2 91 9 276 60 363 101 297 139 519 375 633
674 130 339 91 743 -102 1060 -25 41 -22 36 -88 120 -145 181 -343 319 -571
394 -82 27 -82 27 -201 46 -75 12 -303 9 -372 -5 -52 -10 -149 -36 -181 -47
-30 -11 -32 -9 -160 117 -226 223 -1043 1027 -1219 1200 -512 502 -544 536
-534 562 36 94 63 257 62 378 -1 490 -335 991 -818 1225 -118 58 -261 105
-350 115 -11 2 -45 6 -75 10 -78 10 -145 11 -220 3z m3610 -4036 c91 -28 156
-17 279 49 40 22 75 38 76 37 1 -2 12 -25 24 -53 36 -78 99 -163 139 -190 48
-31 156 -59 248 -64 20 -1 21 -3 8 -68 -34 -175 -12 -251 106 -371 l71 -71
-70 -71 c-124 -126 -139 -190 -95 -411 5 -25 3 -26 -53 -33 -192 -23 -255 -66
-338 -235 -19 -39 -38 -71 -40 -71 -3 0 -22 11 -43 23 -62 39 -168 77 -215 77
-59 0 -164 -37 -229 -82 -14 -10 -30 -18 -35 -18 -5 0 -24 30 -42 68 -43 86
-96 159 -130 176 -46 24 -118 45 -173 51 -46 5 -90 12 -94 14 -1 1 4 31 11 69
18 95 14 198 -10 247 -10 22 -52 74 -92 115 -40 41 -73 76 -73 77 0 1 21 22
46 45 67 61 122 140 133 189 9 39 7 171 -3 187 -2 4 -7 25 -10 48 -6 39 -6 40
26 42 114 8 231 46 264 85 43 51 72 96 102 159 l32 67 72 -38 c40 -21 89 -43
108 -49z"/>
</g>
</svg>
