<?xml version="1.0" encoding="UTF-8" standalone="no"?><!DOCTYPE svg PUBLIC "-//W3C//DTD SVG 1.1//EN" "http://www.w3.org/Graphics/SVG/1.1/DTD/svg11.dtd"><svg width="100%" height="100%" viewBox="0 0 2481 3508" version="1.1" xmlns="http://www.w3.org/2000/svg" xmlns:xlink="http://www.w3.org/1999/xlink" xml:space="preserve" xmlns:serif="http://www.serif.com/" style="fill-rule:evenodd;clip-rule:evenodd;stroke-linecap:round;stroke-linejoin:round;stroke-miterlimit:1.5;"><g id="galaxy_a51"><path id="frame" d="M636.497,48.978l1200.72,0c0,0 189.777,-4.951 189.777,169.262l0,446.838l7.668,0l0,464.714l-7.735,0l0,220.754l7.66,0l0,213.979l-7.963,0l0,1725.39c0,0 11.791,168.903 -188.765,168.903l-1211.83,0c0,0 -180.348,10.312 -180.348,-181.684l0,-3059.88c0,0 -6.874,-168.268 190.815,-168.268Z" style="stroke:#000;stroke-width:1px;"/><path id="screen" d="M1969.59,232.878c0,-64.659 -52.495,-117.154 -117.154,-117.154l-1239.01,0c-64.659,0 -117.154,52.495 -117.154,117.154l0,3008.52c0,64.659 52.495,117.154 117.154,117.154l1239.01,0c64.659,0 117.154,-52.495 117.154,-117.154l0,-3008.52Z" style="fill:#fff;"/><circle id="camera" cx="1233.58" cy="207.164" r="39.125"/><g id="States"><path id="Display" d="M1947.97,157.151l-463.601,478.084l-113.285,430.722l-348.366,394.982l-303.815,-115.682l-77.145,169.374m842.611,-879.396l-461.651,77.975l-111.773,313.215m460.139,39.532l36.576,242.297l-138.745,371.212l65.055,379.413l-247.572,102.254l-175.453,-77.81l-228.936,229.966m586.906,-633.823l389.204,150.078l79.571,168.582m-403.72,60.753l150.399,74.32l-113.285,232.06" style="fill:none;stroke:#000;stroke-width:27.08px;"/></g></g></svg>