<?xml version="1.0" encoding="UTF-8" standalone="no"?><!DOCTYPE svg PUBLIC "-//W3C//DTD SVG 1.1//EN" "http://www.w3.org/Graphics/SVG/1.1/DTD/svg11.dtd"><svg width="100%" height="100%" viewBox="0 0 2481 3508" version="1.1" xmlns="http://www.w3.org/2000/svg" xmlns:xlink="http://www.w3.org/1999/xlink" xml:space="preserve" xmlns:serif="http://www.serif.com/" style="fill-rule:evenodd;clip-rule:evenodd;stroke-linecap:round;stroke-linejoin:round;stroke-miterlimit:1.5;"><g id="galaxy_a51"><path id="frame" d="M636.497,48.978l1200.72,0c0,0 189.777,-4.951 189.777,169.262l0,446.838l7.668,0l0,464.714l-7.735,0l0,220.754l7.66,0l0,213.979l-7.963,0l0,1725.39c0,0 11.791,168.903 -188.765,168.903l-1211.83,0c0,0 -180.348,10.312 -180.348,-181.684l0,-3059.88c0,0 -6.874,-168.268 190.815,-168.268Z" style="stroke:#000;stroke-width:1px;"/><path id="screen" d="M1969.59,232.878c0,-64.659 -52.495,-117.154 -117.154,-117.154l-1239.01,0c-64.659,0 -117.154,52.495 -117.154,117.154l0,3008.52c0,64.659 52.495,117.154 117.154,117.154l1239.01,0c64.659,0 117.154,-52.495 117.154,-117.154l0,-3008.52Z" style="fill:#fff;"/><circle id="camera" cx="1233.58" cy="207.164" r="39.125"/><g id="States"><g id="Battery"><g><rect x="798.097" y="1341.69" width="847.346" height="369.941" style="fill:none;stroke:#000;stroke-width:20.83px;"/><rect x="1681.38" y="1473.74" width="28.364" height="107.922" style="stroke:#000;stroke-width:25px;stroke-miterlimit:1;"/><rect x="824.269" y="1367.41" width="18.474" height="318.673" style="fill:#f00;stroke:#f00;stroke-width:12.5px;"/></g><path d="M1292.97,1399.8l-134.808,141.122l60.492,0l-51.111,92.15l136.612,-116.438l-77.209,0l66.024,-116.834Z"/></g></g></g></svg>