<?xml version="1.0" encoding="UTF-8" standalone="no"?><!DOCTYPE svg PUBLIC "-//W3C//DTD SVG 1.1//EN" "http://www.w3.org/Graphics/SVG/1.1/DTD/svg11.dtd"><svg width="100%" height="100%" viewBox="0 0 2481 3508" version="1.1" xmlns="http://www.w3.org/2000/svg" xmlns:xlink="http://www.w3.org/1999/xlink" xml:space="preserve" xmlns:serif="http://www.serif.com/" style="fill-rule:evenodd;clip-rule:evenodd;stroke-linecap:round;stroke-linejoin:round;stroke-miterlimit:1.5;"><g id="galaxy_a51"><path id="frame" d="M636.497,48.978l1200.72,0c0,0 189.777,-4.951 189.777,169.262l0,446.838l7.668,0l0,464.714l-7.735,0l0,220.754l7.66,0l0,213.979l-7.963,0l0,1725.39c0,0 11.791,168.903 -188.765,168.903l-1211.83,0c0,0 -180.348,10.312 -180.348,-181.684l0,-3059.88c0,0 -6.874,-168.268 190.815,-168.268Z" style="stroke:#000;stroke-width:1px;"/><path id="screen" d="M1969.59,232.878c0,-64.659 -52.495,-117.154 -117.154,-117.154l-1239.01,0c-64.659,0 -117.154,52.495 -117.154,117.154l0,3008.52c0,64.659 52.495,117.154 117.154,117.154l1239.01,0c64.659,0 117.154,-52.495 117.154,-117.154l0,-3008.52Z" style="fill:#fff;"/><circle id="camera" cx="1233.58" cy="207.164" r="39.125"/><g id="States"><g id="Kamera"><path d="M1665.68,1781.56c0,39.385 -34.925,71.793 -77.368,71.793l-696.315,0c-42.443,0 -77.368,-32.408 -77.368,-71.793l0,-394.867c0,-39.385 34.925,-71.794 77.368,-71.794l154.737,0l77.368,-107.691l232.105,0l77.368,107.691l154.737,0c42.443,0 77.368,32.409 77.368,71.794l0,394.867Z" style="fill:none;fill-rule:nonzero;stroke:#000;stroke-width:34.64px;stroke-miterlimit:4;"/><ellipse cx="1240.16" cy="1590.92" rx="154.308" ry="152.391" style="fill:none;stroke:#000;stroke-width:34.53px;stroke-miterlimit:4;"/><ellipse cx="941.368" cy="1420.74" rx="44.72" ry="44.164"/></g></g></g></svg>