<?xml version="1.0" encoding="UTF-8" standalone="no"?><!DOCTYPE svg PUBLIC "-//W3C//DTD SVG 1.1//EN" "http://www.w3.org/Graphics/SVG/1.1/DTD/svg11.dtd"><svg width="100%" height="100%" viewBox="0 0 2481 3508" version="1.1" xmlns="http://www.w3.org/2000/svg" xmlns:xlink="http://www.w3.org/1999/xlink" xml:space="preserve" xmlns:serif="http://www.serif.com/" style="fill-rule:evenodd;clip-rule:evenodd;stroke-linecap:round;stroke-linejoin:round;stroke-miterlimit:1.5;"><g id="Ebene1"><path d="M649.873,70.789l1184.13,0c0,0 240.084,5.774 240.084,266.038l0,504.569l10.095,0l0,396.799l-13.281,0l0,1943c0,0 3.085,255.884 -257.395,255.884l-1155.43,0c0,0 -248.241,5.614 -248.241,-255.708l0,-1860.79l-12.093,0l0,-247.057l14.191,0l0,-64.307l-15.793,0l0,-246.574l14.224,0l0,-106.493l-12.904,0l0,-130.975l15.026,0l0,-215.069c0,0 6.02,-239.314 237.392,-239.314Z" style="stroke:#000;stroke-width:1px;"/><path d="M654.579,168.86l179.932,0c0,0 -13.604,115.857 85.655,115.857l656.775,0c0,0 78.047,-8.09 78.047,-111.221c0,-0.47 171.356,0 171.356,0c0,0 139.37,10.108 139.37,138.769l0,2870.71c0,0 3.129,151.576 -147.358,151.576l-1163.84,0c0,0 -139.836,-2.449 -139.836,-142.992l0,-2876.99c0,0 9.391,-145.704 139.9,-145.704Z" style="fill:#fff;stroke:#000;stroke-width:1px;"/><g id="States"><g id="Battery"><g><rect x="798.097" y="1341.69" width="847.346" height="369.941" style="fill:none;stroke:#000;stroke-width:20.83px;"/><rect x="1681.38" y="1473.74" width="28.364" height="107.922" style="stroke:#000;stroke-width:25px;stroke-miterlimit:1;"/><rect x="824.269" y="1367.41" width="18.474" height="318.673" style="fill:#f00;stroke:#f00;stroke-width:12.5px;"/></g><path d="M1292.97,1399.8l-134.808,141.122l60.492,0l-51.111,92.15l136.612,-116.438l-77.209,0l66.024,-116.834Z"/></g></g></g></svg>