<?xml version="1.0" encoding="UTF-8" standalone="no"?><!DOCTYPE svg PUBLIC "-//W3C//DTD SVG 1.1//EN" "http://www.w3.org/Graphics/SVG/1.1/DTD/svg11.dtd"><svg width="100%" height="100%" viewBox="0 0 2481 3508" version="1.1" xmlns="http://www.w3.org/2000/svg" xmlns:xlink="http://www.w3.org/1999/xlink" xml:space="preserve" xmlns:serif="http://www.serif.com/" style="fill-rule:evenodd;clip-rule:evenodd;stroke-linecap:round;stroke-linejoin:round;stroke-miterlimit:1.5;"><g id="Ebene1"><path d="M649.873,70.789l1184.13,0c0,0 240.084,5.774 240.084,266.038l0,504.569l10.095,0l0,396.799l-13.281,0l0,1943c0,0 3.085,255.884 -257.395,255.884l-1155.43,0c0,0 -248.241,5.614 -248.241,-255.708l0,-1860.79l-12.093,0l0,-247.057l14.191,0l0,-64.307l-15.793,0l0,-246.574l14.224,0l0,-106.493l-12.904,0l0,-130.975l15.026,0l0,-215.069c0,0 6.02,-239.314 237.392,-239.314Z" style="stroke:#000;stroke-width:1px;"/><path d="M654.579,168.86l179.932,0c0,0 -13.604,115.857 85.655,115.857l656.775,0c0,0 78.047,-8.09 78.047,-111.221c0,-0.47 171.356,0 171.356,0c0,0 139.37,10.108 139.37,138.769l0,2870.71c0,0 3.129,151.576 -147.358,151.576l-1163.84,0c0,0 -139.836,-2.449 -139.836,-142.992l0,-2876.99c0,0 9.391,-145.704 139.9,-145.704Z" style="fill:#fff;stroke:#000;stroke-width:1px;"/><g id="States"><path id="Display" d="M2006.97,185.151l-463.601,478.084l-113.285,430.722l-348.366,394.982l-303.815,-115.682l-77.145,169.374m842.611,-879.396l-461.651,77.975l-111.773,313.215m460.139,39.532l36.576,242.297l-138.745,371.212l65.055,379.413l-247.572,102.254l-175.453,-77.81l-228.936,229.966m586.906,-633.823l389.204,150.078l79.571,168.582m-403.72,60.753l150.399,74.32l-113.285,232.06" style="fill:none;stroke:#000;stroke-width:27.08px;"/></g></g></svg>