<?xml version="1.0" encoding="UTF-8" standalone="no"?><!DOCTYPE svg PUBLIC "-//W3C//DTD SVG 1.1//EN" "http://www.w3.org/Graphics/SVG/1.1/DTD/svg11.dtd"><svg width="100%" height="100%" viewBox="0 0 2481 3508" version="1.1" xmlns="http://www.w3.org/2000/svg" xmlns:xlink="http://www.w3.org/1999/xlink" xml:space="preserve" xmlns:serif="http://www.serif.com/" style="fill-rule:evenodd;clip-rule:evenodd;stroke-linecap:round;stroke-linejoin:round;stroke-miterlimit:1.5;"><g id="huawei_p20pro"><path id="frame" d="M2061.43,230.746c0,-110.659 -89.841,-200.501 -200.5,-200.501l-1241.56,0c-110.659,0 -200.5,89.842 -200.5,200.501l0,3046.38c0,110.659 89.841,200.501 200.5,200.501l1241.56,0c110.659,0 200.5,-89.842 200.5,-200.501l0,-3046.38Z"/><path id="homebutton" d="M1421.89,3331.41c0,-31.841 -25.851,-57.692 -57.693,-57.692l-252.06,0c-31.842,0 -57.693,25.851 -57.693,57.692l0,10.495c0,31.842 25.851,57.693 57.693,57.693l252.06,0c31.842,0 57.693,-25.851 57.693,-57.693l0,-10.495Z" style="fill:#fff;"/><path id="screen" d="M1986.08,237.617c0,-65.114 -52.864,-117.978 -117.978,-117.978l-405.948,0c0,0 -47.999,2.381 -47.999,50.366c0,53.986 -66.704,60.749 -66.704,60.749l-212.35,0c0,0 -69.841,-7.089 -69.841,-60.749c0,-49.191 -45.57,-50.366 -45.57,-50.366l-409.33,0c-65.114,0 -117.979,52.864 -117.979,117.978l0,2948.7c0,32.213 26.152,58.365 58.365,58.365l1384.31,0c28.16,0 51.023,-22.863 51.023,-51.023l0,-2956.04Z" style="fill:#fff;"/><g id="States"><g id="Battery"><g><rect x="798.097" y="1341.69" width="847.346" height="369.941" style="fill:none;stroke:#000;stroke-width:20.83px;"/><rect x="1681.38" y="1473.74" width="28.364" height="107.922" style="stroke:#000;stroke-width:25px;stroke-miterlimit:1;"/><rect x="824.269" y="1367.41" width="18.474" height="318.673" style="fill:#f00;stroke:#f00;stroke-width:12.5px;"/></g><path d="M1292.97,1399.8l-134.808,141.122l60.492,0l-51.111,92.15l136.612,-116.438l-77.209,0l66.024,-116.834Z"/></g></g></g></svg>