<?xml version="1.0" encoding="UTF-8" standalone="no"?><!DOCTYPE svg PUBLIC "-//W3C//DTD SVG 1.1//EN" "http://www.w3.org/Graphics/SVG/1.1/DTD/svg11.dtd"><svg width="100%" height="100%" viewBox="0 0 2481 3508" version="1.1" xmlns="http://www.w3.org/2000/svg" xmlns:xlink="http://www.w3.org/1999/xlink" xml:space="preserve" xmlns:serif="http://www.serif.com/" style="fill-rule:evenodd;clip-rule:evenodd;stroke-linecap:round;stroke-linejoin:round;stroke-miterlimit:1.5;"><g id="iPhone678Plus"><path d="M406.437,458.403l0,-191.274c0,0 -1.559,-221.525 233.31,-216.514c234.919,5.012 977.981,-7.769 1219.87,0c55.057,1.768 218.425,30.784 219.335,216.514c0.999,203.945 0,436.809 0,436.809l11.314,0l0,222.128l-11.314,0l0,2310.26c0,0 -5.413,223.51 -248.685,223.51l-1190.52,0c0,0 -238.293,-15.055 -238.431,-223.51c-0.138,-208.456 0,-2034.19 0,-2034.19l-11.265,0l0,-212.256l16.386,0l0,-63.814l-16.386,0l0,-206.597l16.386,0l0,-140.373l-16.386,0l0,-120.693l16.386,0Z"/><rect x="496.036" y="437.925" width="1487.93" height="2632.81" style="fill:#fff;"/><circle cx="1239.25" cy="3247.06" r="115.163" style="fill:#fff;"/><g id="States"><g id="Battery"><g><rect x="798.097" y="1341.69" width="847.346" height="369.941" style="fill:none;stroke:#000;stroke-width:20.83px;"/><rect x="1681.38" y="1473.74" width="28.364" height="107.922" style="stroke:#000;stroke-width:25px;stroke-miterlimit:1;"/><rect x="824.269" y="1367.41" width="18.474" height="318.673" style="fill:#f00;stroke:#f00;stroke-width:12.5px;"/></g><path d="M1292.97,1399.8l-134.808,141.122l60.492,0l-51.111,92.15l136.612,-116.438l-77.209,0l66.024,-116.834Z"/></g></g></g></svg>