<?xml version="1.0" encoding="UTF-8" standalone="no"?><!DOCTYPE svg PUBLIC "-//W3C//DTD SVG 1.1//EN" "http://www.w3.org/Graphics/SVG/1.1/DTD/svg11.dtd"><svg width="100%" height="100%" viewBox="0 0 2481 3508" version="1.1" xmlns="http://www.w3.org/2000/svg" xmlns:xlink="http://www.w3.org/1999/xlink" xml:space="preserve" xmlns:serif="http://www.serif.com/" style="fill-rule:evenodd;clip-rule:evenodd;stroke-linejoin:round;stroke-miterlimit:2;"><g id="iPhone678Plus"><path d="M406.437,458.403l0,-191.274c0,0 -1.559,-221.525 233.31,-216.514c234.919,5.012 977.981,-7.769 1219.87,0c55.057,1.768 218.425,30.784 219.335,216.514c0.999,203.945 0,436.809 0,436.809l11.314,0l0,222.128l-11.314,0l0,2310.26c0,0 -5.413,223.51 -248.685,223.51l-1190.52,0c0,0 -238.293,-15.055 -238.431,-223.51c-0.138,-208.456 0,-2034.19 0,-2034.19l-11.265,0l0,-212.256l16.386,0l0,-63.814l-16.386,0l0,-206.597l16.386,0l0,-140.373l-16.386,0l0,-120.693l16.386,0Z"/><rect x="496.036" y="437.925" width="1487.93" height="2632.81" style="fill:#fff;"/><circle cx="1239.25" cy="3247.06" r="115.163" style="fill:#fff;"/><g id="States"><g id="Sonstiges"><text x="958.615px" y="1960.75px" style="font-family:'Roboto-Regular', 'Roboto';font-size:1200px;">?</text></g></g></g></svg>