<?xml version="1.0" encoding="UTF-8" standalone="no"?><!DOCTYPE svg PUBLIC "-//W3C//DTD SVG 1.1//EN" "http://www.w3.org/Graphics/SVG/1.1/DTD/svg11.dtd"><svg width="100%" height="100%" viewBox="0 0 2481 3508" version="1.1" xmlns="http://www.w3.org/2000/svg" xmlns:xlink="http://www.w3.org/1999/xlink" xml:space="preserve" xmlns:serif="http://www.serif.com/" style="fill-rule:evenodd;clip-rule:evenodd;stroke-linecap:round;stroke-linejoin:round;stroke-miterlimit:1.5;"><g id="galaxy_s6"><path id="frame" d="M665.297,45.898c443.362,-15.084 747.326,-15.659 1137.69,-1.958c51.409,3.332 280.946,15.236 280.946,279.664c0,264.428 -1.958,919.565 -1.958,919.565l17.571,0l0,239.46l-16.879,0l-1.959,1666.96c1.27,39.145 21.629,317.879 -314.128,313.41c-410.942,10.239 -639.897,17.965 -1065.75,0c-125.617,-1.264 -325.597,-46.377 -309.628,-307.67l0,-2049.52l-9.946,0l0,-233.302l8.805,0l0,-115.144l-9.287,0l0,-234.404l9.663,0l0,-183.485c1.412,-26.749 -32.823,-270.105 274.864,-293.578Z" style="stroke:#000;stroke-width:1px;"/><rect id="screen" x="473.865" y="403.564" width="1526.29" height="2713.17" style="fill:#fff;"/><path id="homebutton" d="M1437.35,3287.93c0,-47.49 -38.557,-86.046 -86.047,-86.046l-227.656,0c-47.491,0 -86.047,38.556 -86.047,86.046c0,47.491 38.556,86.047 86.047,86.047l227.656,0c47.49,0 86.047,-38.556 86.047,-86.047Z" style="fill:#fff;"/><g id="States"><g id="Battery"><g><rect x="798.097" y="1341.69" width="847.346" height="369.941" style="fill:none;stroke:#000;stroke-width:20.83px;"/><rect x="1681.38" y="1473.74" width="28.364" height="107.922" style="stroke:#000;stroke-width:25px;stroke-miterlimit:1;"/><rect x="824.269" y="1367.41" width="18.474" height="318.673" style="fill:#f00;stroke:#f00;stroke-width:12.5px;"/></g><path d="M1292.97,1399.8l-134.808,141.122l60.492,0l-51.111,92.15l136.612,-116.438l-77.209,0l66.024,-116.834Z"/></g></g></g></svg>