<?xml version="1.0" encoding="UTF-8" standalone="no"?><!DOCTYPE svg PUBLIC "-//W3C//DTD SVG 1.1//EN" "http://www.w3.org/Graphics/SVG/1.1/DTD/svg11.dtd"><svg width="100%" height="100%" viewBox="0 0 2481 3508" version="1.1" xmlns="http://www.w3.org/2000/svg" xmlns:xlink="http://www.w3.org/1999/xlink" xml:space="preserve" xmlns:serif="http://www.serif.com/" style="fill-rule:evenodd;clip-rule:evenodd;stroke-linecap:round;stroke-linejoin:round;stroke-miterlimit:1.5;"><g id="galaxy_s6"><path id="frame" d="M665.297,45.898c443.362,-15.084 747.326,-15.659 1137.69,-1.958c51.409,3.332 280.946,15.236 280.946,279.664c0,264.428 -1.958,919.565 -1.958,919.565l17.571,0l0,239.46l-16.879,0l-1.959,1666.96c1.27,39.145 21.629,317.879 -314.128,313.41c-410.942,10.239 -639.897,17.965 -1065.75,0c-125.617,-1.264 -325.597,-46.377 -309.628,-307.67l0,-2049.52l-9.946,0l0,-233.302l8.805,0l0,-115.144l-9.287,0l0,-234.404l9.663,0l0,-183.485c1.412,-26.749 -32.823,-270.105 274.864,-293.578Z" style="stroke:#000;stroke-width:1px;"/><rect id="screen" x="473.865" y="403.564" width="1526.29" height="2713.17" style="fill:#fff;"/><path id="homebutton" d="M1437.35,3287.93c0,-47.49 -38.557,-86.046 -86.047,-86.046l-227.656,0c-47.491,0 -86.047,38.556 -86.047,86.046c0,47.491 38.556,86.047 86.047,86.047l227.656,0c47.49,0 86.047,-38.556 86.047,-86.047Z" style="fill:#fff;"/><g id="States"><path id="Display" d="M1947.97,157.151l-463.601,478.084l-113.285,430.722l-348.366,394.982l-303.815,-115.682l-77.145,169.374m842.611,-879.396l-461.651,77.975l-111.773,313.215m460.139,39.532l36.576,242.297l-138.745,371.212l65.055,379.413l-247.572,102.254l-175.453,-77.81l-228.936,229.966m586.906,-633.823l389.204,150.078l79.571,168.582m-403.72,60.753l150.399,74.32l-113.285,232.06" style="fill:none;stroke:#000;stroke-width:27.08px;"/></g></g></svg>