<?xml version="1.0" encoding="UTF-8" standalone="no"?><!DOCTYPE svg PUBLIC "-//W3C//DTD SVG 1.1//EN" "http://www.w3.org/Graphics/SVG/1.1/DTD/svg11.dtd"><svg width="100%" height="100%" viewBox="0 0 2481 3508" version="1.1" xmlns="http://www.w3.org/2000/svg" xmlns:xlink="http://www.w3.org/1999/xlink" xml:space="preserve" xmlns:serif="http://www.serif.com/" style="fill-rule:evenodd;clip-rule:evenodd;stroke-linecap:round;stroke-linejoin:round;stroke-miterlimit:1.5;"><path d="M656.239,29.289l1179.62,0c0,0 269.148,10.67 269.148,256.218l0,528.164l7.547,0l0,377.628l-6.357,0l0,2013.65c0,0 1.506,268.665 -257.244,268.665c-258.751,0 -1211.76,1.465 -1211.76,1.465c0,0 -261.048,-21.021 -261.048,-272.134l0,-1928.15l-8.379,0l0,-236.197l7.423,0l0,-65.96l-6.278,0l0,-229.651l6.24,0l0,-115.548l-6.677,0l0,-121.875l6.658,0l0,-207.219c0,0 -4.843,-269.054 281.111,-269.054Z" style="stroke:#000;stroke-width:1px;"/><path d="M824.353,154.616l0,24.582c0,0 -5.408,89.81 78.311,89.81l676.26,0c0,0 73.594,-0.334 73.594,-87.688c0,-87.354 0,-27.407 0,-27.407l162.458,0c0,0 161.99,-10.329 161.99,128.256l0,2938.92c0,0 -13.217,130.035 -128.775,130.035l-1204.73,0c0,0 -140.112,-9.98 -140.112,-119.396l0,-2945.97c0,0 0.15,-133.063 153.164,-133.063l167.819,0l0.021,1.923Z" style="fill:#fff;stroke:#000;stroke-width:1px;"/><g id="States"><g id="Battery"><g><rect x="798.097" y="1451.69" width="847.346" height="369.941" style="fill:none;stroke:#000;stroke-width:20.83px;"/><rect x="1681.38" y="1583.74" width="28.364" height="107.922" style="stroke:#000;stroke-width:25px;stroke-miterlimit:1;"/><rect x="824.269" y="1477.41" width="18.474" height="318.673" style="fill:#f00;stroke:#f00;stroke-width:12.5px;"/></g><path d="M1292.97,1509.8l-134.808,141.122l60.492,0l-51.111,92.15l136.612,-116.438l-77.209,0l66.024,-116.834Z"/></g></g></svg>