<?xml version="1.0" encoding="UTF-8" standalone="no"?><!DOCTYPE svg PUBLIC "-//W3C//DTD SVG 1.1//EN" "http://www.w3.org/Graphics/SVG/1.1/DTD/svg11.dtd"><svg width="100%" height="100%" viewBox="0 0 2481 3508" version="1.1" xmlns="http://www.w3.org/2000/svg" xmlns:xlink="http://www.w3.org/1999/xlink" xml:space="preserve" xmlns:serif="http://www.serif.com/" style="fill-rule:evenodd;clip-rule:evenodd;stroke-linecap:round;stroke-linejoin:round;stroke-miterlimit:1.5;"><g id="galaxy_m30"><path id="frame" d="M641.087,61.872l1174.63,0c0,0 218.999,-8.562 218.999,213.228l0,223.545l5.888,0l0,491.393l-5.74,0l0,217.441l6.467,0l0,211.423l-6.336,0l-3.834,1817.67c-0.398,36.308 -4.877,209.417 -211.392,209.417l-1170.14,0c0,0 -210.193,9.496 -210.193,-210.125l0,-2940.5c0,0 -19.585,-233.488 201.656,-233.488Z" style="stroke:#000;stroke-width:1px;"/><path id="screen" d="M1978.67,266.453c0,-84.293 -68.436,-152.728 -152.729,-152.728l-480.438,0c-12.76,0.675 -25.535,14.234 -27.368,26.893c-10.992,75.938 -56.34,92.136 -83.402,91.912c-27.063,-0.224 -72.687,-18.028 -78.972,-93.254c-1.106,-13.228 -17.287,-24.892 -30.531,-25.551c-85.583,-4.259 -482.968,0 -482.968,0c-84.293,0 -152.729,68.435 -152.729,152.728l0,2893.15c0,84.294 68.436,152.729 152.729,152.729l1183.68,0c84.293,0 152.729,-68.435 152.729,-152.729l0,-2893.15Z" style="fill:#fff;"/><g id="States"><g id="Kleinteilreparatur"><path d="M908.771,1067.31l135.219,134.534l-22.908,94.771l-94.305,23.482l-134.807,-133.634c-20.131,66.38 1.119,140.368 56.662,195.371c57.115,56.669 134.766,77.139 202.339,53.025l288.698,284.208c-7.96,20.584 -12.37,43.139 -12.21,66.534c0.36,101.613 83.227,183.821 184.8,183.295c101.959,-0.426 183.914,-83.274 183.535,-184.64c-0.347,-102.033 -83.174,-184.021 -184.82,-183.728c-22.243,0.306 -43.086,4.256 -62.824,11.377l-288.618,-284.048c25.893,-68.765 5.149,-148.136 -53.398,-205.99c-41.387,-40.894 -93.139,-62.883 -144.179,-62.883c-17.985,0 -35.878,2.724 -53.184,8.326Zm434.489,535.996l-205.69,-202.027c-7.035,-7.008 -7.035,-18.319 -0.154,-25.18c7.148,-7.228 18.499,-7.228 25.607,-0.306l124.121,122.955l81.509,78.965c6.935,6.974 6.935,18.472 0.153,25.433c-3.604,3.51 -8.3,5.269 -12.956,5.269c-4.57,0 -9.12,-1.705 -12.59,-5.109Zm208.748,58.267c0.479,0.393 9.625,26.246 23.468,37.157c14.435,10.032 42,10.032 42.599,10.731l0,-0.366l0.154,0l-0.154,0.366c0.533,0.3 -7.873,26.912 -2.584,43.719c5.848,16.387 27.918,32.721 28.251,33.653c-0.393,0.72 -22.203,17.553 -27.912,33.774c-5.102,16.673 3.444,43.205 2.778,43.752c-0.293,0.659 -28.071,1.066 -42.519,11.071c-13.596,11.005 -22.556,37.017 -23.189,37.27c-0.712,0.353 -23.235,-16.067 -40.801,-16.067c-17.552,0.253 -39.915,16.6 -40.754,16.447c-0.606,-0.513 -9.592,-26.219 -23.475,-37.35c-14.275,-9.486 -41.354,-9.653 -42.753,-10.432c0,-0.02 0,-0.047 -0.046,-0.047c-0.38,-0.373 8.06,-27.052 2.731,-43.758c-5.935,-16.487 -28.038,-32.828 -28.204,-33.747c0.166,-0.546 22.102,-17.193 28.124,-33.953c4.956,-16.58 -3.83,-42.953 -3.171,-43.466c0.566,-0.806 28.078,-0.866 42.6,-11.097c13.676,-10.725 22.562,-36.944 23.102,-37.404l-0.034,0l0.034,0c0.806,-0.253 23.268,16.08 40.874,16.2c17.706,-0.393 40.015,-16.706 40.881,-16.453Zm-147.61,48.588c0,0 0,-0.1 0.153,-0.1c-0.153,0.093 -0.013,0.246 0,0.266l-0.153,-0.166Zm214.21,154.198c0,0.02 0.02,0.193 0.147,0.193l-0.147,0l0,-0.193Z" style="fill-rule:nonzero;"/></g></g></g></svg>