<?xml version="1.0" encoding="UTF-8" standalone="no"?><!DOCTYPE svg PUBLIC "-//W3C//DTD SVG 1.1//EN" "http://www.w3.org/Graphics/SVG/1.1/DTD/svg11.dtd"><svg width="100%" height="100%" viewBox="0 0 2481 3508" version="1.1" xmlns="http://www.w3.org/2000/svg" xmlns:xlink="http://www.w3.org/1999/xlink" xml:space="preserve" xmlns:serif="http://www.serif.com/" style="fill-rule:evenodd;clip-rule:evenodd;stroke-linecap:round;stroke-linejoin:round;stroke-miterlimit:1.5;"><g id="galaxy_m30"><path id="frame" d="M641.087,61.872l1174.63,0c0,0 218.999,-8.562 218.999,213.228l0,223.545l5.888,0l0,491.393l-5.74,0l0,217.441l6.467,0l0,211.423l-6.336,0l-3.834,1817.67c-0.398,36.308 -4.877,209.417 -211.392,209.417l-1170.14,0c0,0 -210.193,9.496 -210.193,-210.125l0,-2940.5c0,0 -19.585,-233.488 201.656,-233.488Z" style="stroke:#000;stroke-width:1px;"/><path id="screen" d="M1978.67,266.453c0,-84.293 -68.436,-152.728 -152.729,-152.728l-480.438,0c-12.76,0.675 -25.535,14.234 -27.368,26.893c-10.992,75.938 -56.34,92.136 -83.402,91.912c-27.063,-0.224 -72.687,-18.028 -78.972,-93.254c-1.106,-13.228 -17.287,-24.892 -30.531,-25.551c-85.583,-4.259 -482.968,0 -482.968,0c-84.293,0 -152.729,68.435 -152.729,152.728l0,2893.15c0,84.294 68.436,152.729 152.729,152.729l1183.68,0c84.293,0 152.729,-68.435 152.729,-152.729l0,-2893.15Z" style="fill:#fff;"/><g id="States"><g id="Kamera"><path d="M1665.68,1781.56c0,39.385 -34.925,71.793 -77.368,71.793l-696.315,0c-42.443,0 -77.368,-32.408 -77.368,-71.793l0,-394.867c0,-39.385 34.925,-71.794 77.368,-71.794l154.737,0l77.368,-107.691l232.105,0l77.368,107.691l154.737,0c42.443,0 77.368,32.409 77.368,71.794l0,394.867Z" style="fill:none;fill-rule:nonzero;stroke:#000;stroke-width:34.64px;stroke-miterlimit:4;"/><ellipse cx="1240.16" cy="1590.92" rx="154.308" ry="152.391" style="fill:none;stroke:#000;stroke-width:34.53px;stroke-miterlimit:4;"/><ellipse cx="941.368" cy="1420.74" rx="44.72" ry="44.164"/></g></g></g></svg>