<?xml version="1.0" encoding="UTF-8" standalone="no"?><!DOCTYPE svg PUBLIC "-//W3C//DTD SVG 1.1//EN" "http://www.w3.org/Graphics/SVG/1.1/DTD/svg11.dtd"><svg width="100%" height="100%" viewBox="0 0 2481 3508" version="1.1" xmlns="http://www.w3.org/2000/svg" xmlns:xlink="http://www.w3.org/1999/xlink" xml:space="preserve" xmlns:serif="http://www.serif.com/" style="fill-rule:evenodd;clip-rule:evenodd;stroke-linecap:round;stroke-linejoin:round;stroke-miterlimit:1.5;"><g id="galaxy_m30"><path id="frame" d="M641.087,61.872l1174.63,0c0,0 218.999,-8.562 218.999,213.228l0,223.545l5.888,0l0,491.393l-5.74,0l0,217.441l6.467,0l0,211.423l-6.336,0l-3.834,1817.67c-0.398,36.308 -4.877,209.417 -211.392,209.417l-1170.14,0c0,0 -210.193,9.496 -210.193,-210.125l0,-2940.5c0,0 -19.585,-233.488 201.656,-233.488Z" style="stroke:#000;stroke-width:1px;"/><path id="screen" d="M1978.67,266.453c0,-84.293 -68.436,-152.728 -152.729,-152.728l-480.438,0c-12.76,0.675 -25.535,14.234 -27.368,26.893c-10.992,75.938 -56.34,92.136 -83.402,91.912c-27.063,-0.224 -72.687,-18.028 -78.972,-93.254c-1.106,-13.228 -17.287,-24.892 -30.531,-25.551c-85.583,-4.259 -482.968,0 -482.968,0c-84.293,0 -152.729,68.435 -152.729,152.728l0,2893.15c0,84.294 68.436,152.729 152.729,152.729l1183.68,0c84.293,0 152.729,-68.435 152.729,-152.729l0,-2893.15Z" style="fill:#fff;"/><g id="States"><g id="Sonstiges"><text x="958.615px" y="1960.75px" style="font-family:'Roboto-Regular', 'Roboto';font-size:1200px;">?</text></g></g></g></svg>