<?xml version="1.0" encoding="UTF-8" standalone="no"?><!DOCTYPE svg PUBLIC "-//W3C//DTD SVG 1.1//EN" "http://www.w3.org/Graphics/SVG/1.1/DTD/svg11.dtd"><svg width="100%" height="100%" viewBox="0 0 2481 3508" version="1.1" xmlns="http://www.w3.org/2000/svg" xmlns:xlink="http://www.w3.org/1999/xlink" xml:space="preserve" xmlns:serif="http://www.serif.com/" style="fill-rule:evenodd;clip-rule:evenodd;stroke-linejoin:round;stroke-miterlimit:2;"><g id="huawei_p30"><path id="frame" d="M2053.12,199.547c0,-85.834 -69.686,-155.519 -155.519,-155.519l-1324.62,0c-85.833,0 -155.519,69.685 -155.519,155.519l0,3108.78c0,85.834 69.686,155.519 155.519,155.519l1324.62,0c85.833,0 155.519,-69.685 155.519,-155.519l0,-1851.84l9.549,-0.074l0,-205.017l-9.549,-0.066l0,-146.643l9.725,-0.085l0,-438.142l-9.725,-0.087l0,-466.827Z"/><path id="screen" d="M1984.74,229.619c0,-58.478 -47.477,-105.955 -105.956,-105.955l-540.846,0c0,0 -25.005,1.073 -33.023,42.258c-4.136,21.246 -26.491,52.564 -69.505,52.564c-46.439,0 -64.604,-29.734 -67.067,-52.564c-4.474,-41.463 -35.286,-42.258 -35.286,-42.258l-540.454,0c-58.479,0 -105.956,47.477 -105.956,105.955l0,3029.38c0,58.478 47.477,105.955 105.956,105.955l1286.18,0c58.479,0 105.956,-47.477 105.956,-105.955l0,-3029.38Z" style="fill:#fff;"/><g id="States"><g id="Sonstiges"><text x="968.615px" y="1930.75px" style="font-family:'Roboto-Regular', 'Roboto';font-size:1200px;">?</text></g></g></g></svg>