<?xml version="1.0" encoding="UTF-8" standalone="no"?><!DOCTYPE svg PUBLIC "-//W3C//DTD SVG 1.1//EN" "http://www.w3.org/Graphics/SVG/1.1/DTD/svg11.dtd"><svg width="100%" height="100%" viewBox="0 0 2481 3508" version="1.1" xmlns="http://www.w3.org/2000/svg" xmlns:xlink="http://www.w3.org/1999/xlink" xml:space="preserve" xmlns:serif="http://www.serif.com/" style="fill-rule:evenodd;clip-rule:evenodd;stroke-linecap:round;stroke-linejoin:round;stroke-miterlimit:1.5;"><g id="huawei_p30"><path id="frame" d="M2053.12,199.547c0,-85.834 -69.686,-155.519 -155.519,-155.519l-1324.62,0c-85.833,0 -155.519,69.685 -155.519,155.519l0,3108.78c0,85.834 69.686,155.519 155.519,155.519l1324.62,0c85.833,0 155.519,-69.685 155.519,-155.519l0,-1851.84l9.549,-0.074l0,-205.017l-9.549,-0.066l0,-146.643l9.725,-0.085l0,-438.142l-9.725,-0.087l0,-466.827Z"/><path id="screen" d="M1984.74,229.619c0,-58.478 -47.477,-105.955 -105.956,-105.955l-540.846,0c0,0 -25.005,1.073 -33.023,42.258c-4.136,21.246 -26.491,52.564 -69.505,52.564c-46.439,0 -64.604,-29.734 -67.067,-52.564c-4.474,-41.463 -35.286,-42.258 -35.286,-42.258l-540.454,0c-58.479,0 -105.956,47.477 -105.956,105.955l0,3029.38c0,58.478 47.477,105.955 105.956,105.955l1286.18,0c58.479,0 105.956,-47.477 105.956,-105.955l0,-3029.38Z" style="fill:#fff;"/><g id="States"><path id="Display" d="M1957.97,127.151l-463.601,478.084l-113.285,430.722l-348.366,394.982l-303.815,-115.682l-77.145,169.374m842.611,-879.396l-461.651,77.975l-111.773,313.215m460.139,39.532l36.576,242.297l-138.745,371.212l65.055,379.413l-247.572,102.254l-175.453,-77.81l-228.936,229.966m586.906,-633.823l389.204,150.078l79.571,168.582m-403.72,60.753l150.399,74.32l-113.285,232.06" style="fill:none;stroke:#000;stroke-width:27.08px;"/></g></g></svg>