<?xml version="1.0" encoding="UTF-8" standalone="no"?><!DOCTYPE svg PUBLIC "-//W3C//DTD SVG 1.1//EN" "http://www.w3.org/Graphics/SVG/1.1/DTD/svg11.dtd"><svg width="100%" height="100%" viewBox="0 0 2481 3508" version="1.1" xmlns="http://www.w3.org/2000/svg" xmlns:xlink="http://www.w3.org/1999/xlink" xml:space="preserve" xmlns:serif="http://www.serif.com/" style="fill-rule:evenodd;clip-rule:evenodd;stroke-linecap:round;stroke-linejoin:round;stroke-miterlimit:1.5;"><g id="galaxy_s7"><path id="frame" d="M688.981,43.773l1089.18,0c0,0 297.605,-6.995 297.605,300.771l0,814.164l11.254,0l0,287.764l-10.541,0l0,1675.52c0,0 25.973,341.865 -351.326,341.865l-1024.66,0c0,0 -295.737,22.519 -295.737,-355.496l0,-1910.23l-11.464,0l0,-249.949l11.396,0l0,-89.224l-10.278,0l0,-247.106l11.956,0l0,-242.041c0,0 -32.266,-326.045 282.614,-326.045Z" style="stroke:#000;stroke-width:1px;"/><path id="homebutton" d="M1422.8,3259.93c0,-35.999 -29.226,-65.225 -65.225,-65.225l-245.02,0c-35.999,0 -65.225,29.226 -65.225,65.225l0,22.554c0,35.999 29.226,65.226 65.225,65.226l245.02,0c35.999,0 65.225,-29.227 65.225,-65.226l0,-22.554Z" style="fill:#fff;"/><rect id="screen" x="470.153" y="416.641" width="1531.58" height="2711.12" style="fill:#fff;"/><g id="States"><g id="Kamera"><path d="M1665.68,1781.56c0,39.385 -34.925,71.793 -77.368,71.793l-696.315,0c-42.443,0 -77.368,-32.408 -77.368,-71.793l0,-394.867c0,-39.385 34.925,-71.794 77.368,-71.794l154.737,0l77.368,-107.691l232.105,0l77.368,107.691l154.737,0c42.443,0 77.368,32.409 77.368,71.794l0,394.867Z" style="fill:none;fill-rule:nonzero;stroke:#000;stroke-width:34.64px;stroke-miterlimit:4;"/><ellipse cx="1240.16" cy="1590.92" rx="154.308" ry="152.391" style="fill:none;stroke:#000;stroke-width:34.53px;stroke-miterlimit:4;"/><ellipse cx="941.368" cy="1420.74" rx="44.72" ry="44.164"/></g></g></g></svg>