<?xml version="1.0" encoding="UTF-8" standalone="no"?><!DOCTYPE svg PUBLIC "-//W3C//DTD SVG 1.1//EN" "http://www.w3.org/Graphics/SVG/1.1/DTD/svg11.dtd"><svg width="100%" height="100%" viewBox="0 0 2481 3508" version="1.1" xmlns="http://www.w3.org/2000/svg" xmlns:xlink="http://www.w3.org/1999/xlink" xml:space="preserve" xmlns:serif="http://www.serif.com/" style="fill-rule:evenodd;clip-rule:evenodd;stroke-linecap:round;stroke-linejoin:round;stroke-miterlimit:1.5;"><g id="galaxy_s7"><path id="frame" d="M688.981,43.773l1089.18,0c0,0 297.605,-6.995 297.605,300.771l0,814.164l11.254,0l0,287.764l-10.541,0l0,1675.52c0,0 25.973,341.865 -351.326,341.865l-1024.66,0c0,0 -295.737,22.519 -295.737,-355.496l0,-1910.23l-11.464,0l0,-249.949l11.396,0l0,-89.224l-10.278,0l0,-247.106l11.956,0l0,-242.041c0,0 -32.266,-326.045 282.614,-326.045Z" style="stroke:#000;stroke-width:1px;"/><path id="homebutton" d="M1422.8,3259.93c0,-35.999 -29.226,-65.225 -65.225,-65.225l-245.02,0c-35.999,0 -65.225,29.226 -65.225,65.225l0,22.554c0,35.999 29.226,65.226 65.225,65.226l245.02,0c35.999,0 65.225,-29.227 65.225,-65.226l0,-22.554Z" style="fill:#fff;"/><rect id="screen" x="470.153" y="416.641" width="1531.58" height="2711.12" style="fill:#fff;"/><g id="States"><g id="Sonstiges"><text x="958.615px" y="1960.75px" style="font-family:'Roboto-Regular', 'Roboto';font-size:1200px;">?</text></g></g></g></svg>