<?xml version="1.0" encoding="UTF-8" standalone="no"?>
<!DOCTYPE svg PUBLIC "-//W3C//DTD SVG 1.1//EN" "http://www.w3.org/Graphics/SVG/1.1/DTD/svg11.dtd">
<svg width="100%" height="100%" viewBox="0 0 800 600" version="1.1" xmlns="http://www.w3.org/2000/svg" xmlns:xlink="http://www.w3.org/1999/xlink" xml:space="preserve" xmlns:serif="http://www.serif.com/" style="fill-rule:evenodd;clip-rule:evenodd;stroke-linecap:round;stroke-linejoin:round;stroke-miterlimit:1.5;">
    <g transform="matrix(1,0,0,1,14.2292,0.100365)">
        <g transform="matrix(0.945012,0,0,1.03552,17.0973,-14.1128)">
            <path d="M540.413,207.175C540.413,181.264 524.677,158.681 501.459,146.957C495.868,144.134 484.026,122.717 479.762,100.715C475.794,80.236 479.791,59.25 465.056,52.281C431.697,36.501 334.663,36.501 301.304,52.281C286.57,59.25 289.625,80.236 285.657,100.715C281.393,122.717 270.492,144.134 264.902,146.957C241.683,158.681 225.947,181.264 225.947,207.175L225.947,398.419C225.947,425.182 242.735,448.394 267.217,459.758C272.399,462.163 282.18,482.638 285.752,504.146C289.237,525.131 286.386,547.099 301.304,554.223C334.278,569.967 432.034,569.99 465.056,554.223C479.998,547.089 476.714,525.136 480.256,504.146C483.891,482.601 494.216,462.071 499.439,459.62C523.76,448.208 540.413,425.074 540.413,398.419L540.413,268.966C540.413,268.966 548.271,270.044 552.436,266.244C554.928,263.97 554.928,211.779 552.436,209.505C548.861,206.243 540.413,207.175 540.413,207.175Z"/>
        </g>
        <g transform="matrix(1.03664,0,0,1.05162,-15.5531,-14.5893)">
            <path d="M500.26,209.489C500.26,184.145 479.386,163.569 453.676,163.569L308.114,163.569C282.404,163.569 261.53,184.145 261.53,209.489L261.53,387.403C261.53,412.747 282.404,433.323 308.114,433.323L453.676,433.323C479.386,433.323 500.26,412.747 500.26,387.403L500.26,209.489Z" style="fill:white;"/>
        </g>
        <g>
            <path d="M449.234,157.423L428.412,206.12L355.258,221.601L331.259,278.859" style="fill:none;stroke:black;stroke-width:7.5px;"/>
            <path d="M428.412,206.12L412.947,257.137L370.22,278.859L335.957,312.511L306.162,300L301.905,332.235" style="fill:none;stroke:black;stroke-width:7.5px;"/>
            <path d="M370.22,278.859L353.137,278.859" style="fill:none;stroke:black;stroke-width:7.5px;"/>
            <path d="M412.947,257.137L418.815,300L390.246,346.614L418.815,300L435.714,337.287" style="fill:none;stroke:black;stroke-width:7.5px;"/>
            <path d="M420.889,230.937L459.042,257.137L449.234,284.948" style="fill:none;stroke:black;stroke-width:7.5px;"/>
        </g>
    </g>
</svg>
