<?xml version="1.0" encoding="UTF-8" standalone="no"?><!DOCTYPE svg PUBLIC "-//W3C//DTD SVG 1.1//EN" "http://www.w3.org/Graphics/SVG/1.1/DTD/svg11.dtd"><svg width="100%" height="100%" viewBox="0 0 2481 3508" version="1.1" xmlns="http://www.w3.org/2000/svg" xmlns:xlink="http://www.w3.org/1999/xlink" xml:space="preserve" xmlns:serif="http://www.serif.com/" style="fill-rule:evenodd;clip-rule:evenodd;stroke-linecap:round;stroke-linejoin:round;stroke-miterlimit:1.5;"><g id="galaxy_s10e"><path id="frame" d="M2090.5,252.882c0,-118.32 -92.887,-214.381 -211.207,-214.381l-1262.15,0c-118.32,0 -214.38,96.061 -214.38,214.381l0,256.786l-12.541,8.866l0,455.388l12.541,0.045l0,177.084l-12.943,0.088l1.19,193.707l11.546,0.102l0.207,1913.22c0,118.32 96.06,211.207 214.38,211.207l1262.15,0c118.32,0 211.207,-92.887 211.207,-211.207l0,-2361.66l-3.175,-5.268l0,-383.18l3.175,-4.934l0,-250.245Z"/><path id="screen" d="M2014.51,262.962c0,-77.5 -62.921,-140.421 -140.422,-140.421l-1255.13,0c-77.501,0 -140.421,62.921 -140.421,140.421l0,2942c0,77.501 62.92,140.422 140.421,140.422l1255.13,0c77.501,0 140.422,-62.921 140.422,-140.422l0,-2942Z" style="fill:#fff;"/><circle id="camera" cx="1859.42" cy="232.008" r="64.252"/><g id="States"><path id="Display" d="M2027.97,237.151l-463.601,478.084l-113.285,430.722l-348.366,394.982l-303.815,-115.682l-77.145,169.374m842.611,-879.396l-461.651,77.975l-111.773,313.215m460.139,39.532l36.576,242.297l-138.745,371.212l65.055,379.413l-247.572,102.254l-175.453,-77.81l-228.936,229.966m586.906,-633.823l389.204,150.078l79.571,168.582m-403.72,60.753l150.399,74.32l-113.285,232.06" style="fill:none;stroke:#000;stroke-width:27.08px;"/></g></g></svg>