<?xml version="1.0" encoding="UTF-8" standalone="no"?><!DOCTYPE svg PUBLIC "-//W3C//DTD SVG 1.1//EN" "http://www.w3.org/Graphics/SVG/1.1/DTD/svg11.dtd"><svg width="100%" height="100%" viewBox="0 0 2481 3508" version="1.1" xmlns="http://www.w3.org/2000/svg" xmlns:xlink="http://www.w3.org/1999/xlink" xml:space="preserve" xmlns:serif="http://www.serif.com/" style="fill-rule:evenodd;clip-rule:evenodd;stroke-linecap:round;stroke-linejoin:round;stroke-miterlimit:1.5;"><g id="galaxy_s10e"><path id="frame" d="M2090.5,252.882c0,-118.32 -92.887,-214.381 -211.207,-214.381l-1262.15,0c-118.32,0 -214.38,96.061 -214.38,214.381l0,256.786l-12.541,8.866l0,455.388l12.541,0.045l0,177.084l-12.943,0.088l1.19,193.707l11.546,0.102l0.207,1913.22c0,118.32 96.06,211.207 214.38,211.207l1262.15,0c118.32,0 211.207,-92.887 211.207,-211.207l0,-2361.66l-3.175,-5.268l0,-383.18l3.175,-4.934l0,-250.245Z"/><path id="screen" d="M2014.51,262.962c0,-77.5 -62.921,-140.421 -140.422,-140.421l-1255.13,0c-77.501,0 -140.421,62.921 -140.421,140.421l0,2942c0,77.501 62.92,140.422 140.421,140.422l1255.13,0c77.501,0 140.422,-62.921 140.422,-140.422l0,-2942Z" style="fill:#fff;"/><circle id="camera" cx="1859.42" cy="232.008" r="64.252"/><g id="States"><g id="Battery"><g><rect x="798.097" y="1341.69" width="847.346" height="369.941" style="fill:none;stroke:#000;stroke-width:20.83px;"/><rect x="1681.38" y="1473.74" width="28.364" height="107.922" style="stroke:#000;stroke-width:25px;stroke-miterlimit:1;"/><rect x="824.269" y="1367.41" width="18.474" height="318.673" style="fill:#f00;stroke:#f00;stroke-width:12.5px;"/></g><path d="M1292.97,1399.8l-134.808,141.122l60.492,0l-51.111,92.15l136.612,-116.438l-77.209,0l66.024,-116.834Z"/></g></g></g></svg>