<?xml version="1.0" encoding="UTF-8" standalone="no"?><!DOCTYPE svg PUBLIC "-//W3C//DTD SVG 1.1//EN" "http://www.w3.org/Graphics/SVG/1.1/DTD/svg11.dtd"><svg width="100%" height="100%" viewBox="0 0 2481 3508" version="1.1" xmlns="http://www.w3.org/2000/svg" xmlns:xlink="http://www.w3.org/1999/xlink" xml:space="preserve" xmlns:serif="http://www.serif.com/" style="fill-rule:evenodd;clip-rule:evenodd;stroke-linecap:round;stroke-linejoin:round;"><g id="galaxy_s10e"><path id="frame" d="M2090.5,252.882c0,-118.32 -92.887,-214.381 -211.207,-214.381l-1262.15,0c-118.32,0 -214.38,96.061 -214.38,214.381l0,256.786l-12.541,8.866l0,455.388l12.541,0.045l0,177.084l-12.943,0.088l1.19,193.707l11.546,0.102l0.207,1913.22c0,118.32 96.06,211.207 214.38,211.207l1262.15,0c118.32,0 211.207,-92.887 211.207,-211.207l0,-2361.66l-3.175,-5.268l0,-383.18l3.175,-4.934l0,-250.245Z"/><path id="screen" d="M2014.51,262.962c0,-77.5 -62.921,-140.421 -140.422,-140.421l-1255.13,0c-77.501,0 -140.421,62.921 -140.421,140.421l0,2942c0,77.501 62.92,140.422 140.421,140.422l1255.13,0c77.501,0 140.422,-62.921 140.422,-140.422l0,-2942Z" style="fill:#fff;"/><circle id="camera" cx="1859.42" cy="232.008" r="64.252"/><g id="States"><g id="Kamera"><path d="M1665.68,1781.56c0,39.385 -34.925,71.793 -77.368,71.793l-696.315,0c-42.443,0 -77.368,-32.408 -77.368,-71.793l0,-394.867c0,-39.385 34.925,-71.794 77.368,-71.794l154.737,0l77.368,-107.691l232.105,0l77.368,107.691l154.737,0c42.443,0 77.368,32.409 77.368,71.794l0,394.867Z" style="fill:none;fill-rule:nonzero;stroke:#000;stroke-width:34.64px;"/><ellipse cx="1240.16" cy="1590.92" rx="154.308" ry="152.391" style="fill:none;stroke:#000;stroke-width:34.53px;"/><ellipse cx="941.368" cy="1420.74" rx="44.72" ry="44.164"/></g></g></g></svg>