<?xml version="1.0" encoding="UTF-8" standalone="no"?><!DOCTYPE svg PUBLIC "-//W3C//DTD SVG 1.1//EN" "http://www.w3.org/Graphics/SVG/1.1/DTD/svg11.dtd"><svg width="100%" height="100%" viewBox="0 0 2481 3508" version="1.1" xmlns="http://www.w3.org/2000/svg" xmlns:xlink="http://www.w3.org/1999/xlink" xml:space="preserve" xmlns:serif="http://www.serif.com/" style="fill-rule:evenodd;clip-rule:evenodd;stroke-linecap:round;stroke-linejoin:round;stroke-miterlimit:1.5;"><g id="huawei_p20lite"><path id="frame" d="M2056.49,291.439c0,-140.032 -113.688,-253.72 -253.719,-253.72l-1138.23,0c-140.032,0 -253.72,113.688 -253.72,253.72l0,2925c0,140.031 113.688,253.719 253.72,253.719l1138.23,0c140.031,0 253.719,-113.688 253.719,-253.719l0,-1716.25l13.008,-0.062l0,-182.246l-13.008,0.008l0,-139.947l12.811,-0.06l0,-415.632l-12.811,-0.062l0,-470.744Z"/><path id="screen" d="M1977.02,282.116c0,-80.979 -65.745,-146.724 -146.725,-146.724l-355.101,0c0,0 -35.331,4.388 -35.331,49.549c0,69.843 -81.983,68.67 -81.983,68.67l-246.208,0c0,0 -77.363,1.847 -77.363,-68.67c0,-48.737 -31.962,-49.549 -31.962,-49.549l-363.068,0c-80.98,0 -146.725,65.745 -146.725,146.724l0,2877.67c0,55.497 45.057,100.554 100.555,100.554l1278.54,0c58.156,0 105.372,-47.215 105.372,-105.372l0,-2872.85Z" style="fill:#fff;"/><g id="States"><g id="Battery"><g><rect x="798.097" y="1341.69" width="847.346" height="369.941" style="fill:none;stroke:#000;stroke-width:20.83px;"/><rect x="1681.38" y="1473.74" width="28.364" height="107.922" style="stroke:#000;stroke-width:25px;stroke-miterlimit:1;"/><rect x="824.269" y="1367.41" width="18.474" height="318.673" style="fill:#f00;stroke:#f00;stroke-width:12.5px;"/></g><path d="M1292.97,1399.8l-134.808,141.122l60.492,0l-51.111,92.15l136.612,-116.438l-77.209,0l66.024,-116.834Z"/></g></g></g></svg>