<?xml version="1.0" encoding="UTF-8" standalone="no"?><!DOCTYPE svg PUBLIC "-//W3C//DTD SVG 1.1//EN" "http://www.w3.org/Graphics/SVG/1.1/DTD/svg11.dtd"><svg width="100%" height="100%" viewBox="0 0 2481 3508" version="1.1" xmlns="http://www.w3.org/2000/svg" xmlns:xlink="http://www.w3.org/1999/xlink" xml:space="preserve" xmlns:serif="http://www.serif.com/" style="fill-rule:evenodd;clip-rule:evenodd;stroke-linecap:round;stroke-linejoin:round;"><g id="huawei_p20lite"><path id="frame" d="M2056.49,291.439c0,-140.032 -113.688,-253.72 -253.719,-253.72l-1138.23,0c-140.032,0 -253.72,113.688 -253.72,253.72l0,2925c0,140.031 113.688,253.719 253.72,253.719l1138.23,0c140.031,0 253.719,-113.688 253.719,-253.719l0,-1716.25l13.008,-0.062l0,-182.246l-13.008,0.008l0,-139.947l12.811,-0.06l0,-415.632l-12.811,-0.062l0,-470.744Z"/><path id="screen" d="M1977.02,282.116c0,-80.979 -65.745,-146.724 -146.725,-146.724l-355.101,0c0,0 -35.331,4.388 -35.331,49.549c0,69.843 -81.983,68.67 -81.983,68.67l-246.208,0c0,0 -77.363,1.847 -77.363,-68.67c0,-48.737 -31.962,-49.549 -31.962,-49.549l-363.068,0c-80.98,0 -146.725,65.745 -146.725,146.724l0,2877.67c0,55.497 45.057,100.554 100.555,100.554l1278.54,0c58.156,0 105.372,-47.215 105.372,-105.372l0,-2872.85Z" style="fill:#fff;"/><g id="States"><g id="Kamera"><path d="M1665.68,1781.56c0,39.385 -34.925,71.793 -77.368,71.793l-696.315,0c-42.443,0 -77.368,-32.408 -77.368,-71.793l0,-394.867c0,-39.385 34.925,-71.794 77.368,-71.794l154.737,0l77.368,-107.691l232.105,0l77.368,107.691l154.737,0c42.443,0 77.368,32.409 77.368,71.794l0,394.867Z" style="fill:none;fill-rule:nonzero;stroke:#000;stroke-width:34.64px;"/><ellipse cx="1240.16" cy="1590.92" rx="154.308" ry="152.391" style="fill:none;stroke:#000;stroke-width:34.53px;"/><ellipse cx="941.368" cy="1420.74" rx="44.72" ry="44.164"/></g></g></g></svg>