<?xml version="1.0" encoding="UTF-8" standalone="no"?><!DOCTYPE svg PUBLIC "-//W3C//DTD SVG 1.1//EN" "http://www.w3.org/Graphics/SVG/1.1/DTD/svg11.dtd"><svg width="100%" height="100%" viewBox="0 0 2481 3508" version="1.1" xmlns="http://www.w3.org/2000/svg" xmlns:xlink="http://www.w3.org/1999/xlink" xml:space="preserve" xmlns:serif="http://www.serif.com/" style="fill-rule:evenodd;clip-rule:evenodd;stroke-linecap:round;stroke-linejoin:round;stroke-miterlimit:1.5;"><g id="iPhone-XSMax-11ProMax" serif:id="iPhone XSMax/11ProMax"><path id="Frame" d="M670.489,36.244l1150.41,0c0,0 265.96,-2.298 265.96,264.151l0,523.15l12.8,0l0,402.867l-11.621,0l0,1968.31c0,0 3.315,276.591 -277.591,276.591l-1140.45,0c0,0 -278.01,20.918 -278.01,-277.831l0,-1883.3l-10.697,0l0,-253.727l11.353,0l0,-60.678l-11.983,0l0,-253.439l11.051,0l0,-108.806l-11.012,0l0,-134.374l11.787,0l0,-193.242c0,0 -13.577,-269.675 278.004,-269.675Z" style="stroke:#000;stroke-width:1px;"/><path id="Screen" d="M648.637,137.969l155.462,0c0,0 20.747,3.263 20.747,18.927c0,15.665 -4.478,101.674 100.306,101.674l632.789,0c0,0 99.553,3.167 99.553,-99.177c0,-9.43 11.169,-20.645 25.164,-20.645l157.311,0c0,0 145.269,17.813 145.269,143.241l0,2925.26c0,0 -0.837,161.715 -159.698,161.715l-1181.78,0c0,0 -150.439,-11.329 -150.439,-151.286l0,-2928.53c0,0 10.001,-151.179 155.319,-151.179Z" style="fill:#fff;stroke:#000;stroke-width:1px;"/><g id="States"><g id="Kamera"><path d="M1665.68,1781.56c0,39.385 -34.925,71.793 -77.368,71.793l-696.315,0c-42.443,0 -77.368,-32.408 -77.368,-71.793l0,-394.867c0,-39.385 34.925,-71.794 77.368,-71.794l154.737,0l77.368,-107.691l232.105,0l77.368,107.691l154.737,0c42.443,0 77.368,32.409 77.368,71.794l0,394.867Z" style="fill:none;fill-rule:nonzero;stroke:#000;stroke-width:34.64px;stroke-miterlimit:4;"/><ellipse cx="1240.16" cy="1590.92" rx="154.308" ry="152.391" style="fill:none;stroke:#000;stroke-width:34.53px;stroke-miterlimit:4;"/><ellipse cx="941.368" cy="1420.74" rx="44.72" ry="44.164"/></g></g></g></svg>