<?xml version="1.0" encoding="UTF-8" standalone="no"?><!DOCTYPE svg PUBLIC "-//W3C//DTD SVG 1.1//EN" "http://www.w3.org/Graphics/SVG/1.1/DTD/svg11.dtd"><svg width="100%" height="100%" viewBox="0 0 2481 3508" version="1.1" xmlns="http://www.w3.org/2000/svg" xmlns:xlink="http://www.w3.org/1999/xlink" xml:space="preserve" xmlns:serif="http://www.serif.com/" style="fill-rule:evenodd;clip-rule:evenodd;stroke-linecap:round;stroke-linejoin:round;stroke-miterlimit:1.5;"><g id="iPhone-XSMax-11ProMax" serif:id="iPhone XSMax/11ProMax"><path id="Frame" d="M670.489,36.244l1150.41,0c0,0 265.96,-2.298 265.96,264.151l0,523.15l12.8,0l0,402.867l-11.621,0l0,1968.31c0,0 3.315,276.591 -277.591,276.591l-1140.45,0c0,0 -278.01,20.918 -278.01,-277.831l0,-1883.3l-10.697,0l0,-253.727l11.353,0l0,-60.678l-11.983,0l0,-253.439l11.051,0l0,-108.806l-11.012,0l0,-134.374l11.787,0l0,-193.242c0,0 -13.577,-269.675 278.004,-269.675Z" style="stroke:#000;stroke-width:1px;"/><path id="Screen" d="M648.637,137.969l155.462,0c0,0 20.747,3.263 20.747,18.927c0,15.665 -4.478,101.674 100.306,101.674l632.789,0c0,0 99.553,3.167 99.553,-99.177c0,-9.43 11.169,-20.645 25.164,-20.645l157.311,0c0,0 145.269,17.813 145.269,143.241l0,2925.26c0,0 -0.837,161.715 -159.698,161.715l-1181.78,0c0,0 -150.439,-11.329 -150.439,-151.286l0,-2928.53c0,0 10.001,-151.179 155.319,-151.179Z" style="fill:#fff;stroke:#000;stroke-width:1px;"/><g id="States"><g id="Kleinteilreparatur"><path d="M908.771,1067.31l135.219,134.534l-22.908,94.771l-94.305,23.482l-134.807,-133.634c-20.131,66.38 1.119,140.368 56.662,195.371c57.115,56.669 134.766,77.139 202.339,53.025l288.698,284.208c-7.96,20.584 -12.37,43.139 -12.21,66.534c0.36,101.613 83.227,183.821 184.8,183.295c101.959,-0.426 183.914,-83.274 183.535,-184.64c-0.347,-102.033 -83.174,-184.021 -184.82,-183.728c-22.243,0.306 -43.086,4.256 -62.824,11.377l-288.618,-284.048c25.893,-68.765 5.149,-148.136 -53.398,-205.99c-41.387,-40.894 -93.139,-62.883 -144.179,-62.883c-17.985,0 -35.878,2.724 -53.184,8.326Zm434.489,535.996l-205.69,-202.027c-7.035,-7.008 -7.035,-18.319 -0.154,-25.18c7.148,-7.228 18.499,-7.228 25.607,-0.306l124.121,122.955l81.509,78.965c6.935,6.974 6.935,18.472 0.153,25.433c-3.604,3.51 -8.3,5.269 -12.956,5.269c-4.57,0 -9.12,-1.705 -12.59,-5.109Zm208.748,58.267c0.479,0.393 9.625,26.246 23.468,37.157c14.435,10.032 42,10.032 42.599,10.731l0,-0.366l0.154,0l-0.154,0.366c0.533,0.3 -7.873,26.912 -2.584,43.719c5.848,16.387 27.918,32.721 28.251,33.653c-0.393,0.72 -22.203,17.553 -27.912,33.774c-5.102,16.673 3.444,43.205 2.778,43.752c-0.293,0.659 -28.071,1.066 -42.519,11.071c-13.596,11.005 -22.556,37.017 -23.189,37.27c-0.712,0.353 -23.235,-16.067 -40.801,-16.067c-17.552,0.253 -39.915,16.6 -40.754,16.447c-0.606,-0.513 -9.592,-26.219 -23.475,-37.35c-14.275,-9.486 -41.354,-9.653 -42.753,-10.432c0,-0.02 0,-0.047 -0.046,-0.047c-0.38,-0.373 8.06,-27.052 2.731,-43.758c-5.935,-16.487 -28.038,-32.828 -28.204,-33.747c0.166,-0.546 22.102,-17.193 28.124,-33.953c4.956,-16.58 -3.83,-42.953 -3.171,-43.466c0.566,-0.806 28.078,-0.866 42.6,-11.097c13.676,-10.725 22.562,-36.944 23.102,-37.404l-0.034,0l0.034,0c0.806,-0.253 23.268,16.08 40.874,16.2c17.706,-0.393 40.015,-16.706 40.881,-16.453Zm-147.61,48.588c0,0 0,-0.1 0.153,-0.1c-0.153,0.093 -0.013,0.246 0,0.266l-0.153,-0.166Zm214.21,154.198c0,0.02 0.02,0.193 0.147,0.193l-0.147,0l0,-0.193Z" style="fill-rule:nonzero;"/></g></g></g></svg>